<svg width="24" height="25" viewBox="0 0 24 25" fill="none" xmlns="http://www.w3.org/2000/svg">
<path d="M12 0.740234C13.5913 0.740234 15.1174 1.37238 16.2426 2.49759C17.3679 3.62281 18 5.14894 18 6.74023C18 8.33153 17.3679 9.85766 16.2426 10.9829C15.1174 12.1081 13.5913 12.7402 12 12.7402C10.4087 12.7402 8.88258 12.1081 7.75736 10.9829C6.63214 9.85766 6 8.33153 6 6.74023C6 5.14894 6.63214 3.62281 7.75736 2.49759C8.88258 1.37238 10.4087 0.740234 12 0.740234ZM12 15.7402C18.63 15.7402 24 18.4252 24 21.7402V24.7402H0V21.7402C0 18.4252 5.37 15.7402 12 15.7402Z" fill="black"/>
</svg>
