<svg width="24" height="25" viewBox="0 0 24 25" fill="none" xmlns="http://www.w3.org/2000/svg">
<path d="M21.6485 17.1065L18.255 16.7191C17.856 16.6722 17.4515 16.7164 17.072 16.8483C16.6925 16.9802 16.3478 17.1964 16.0639 17.4806L13.6056 19.9389C9.81318 18.0096 6.73053 14.9269 4.80123 11.1345L7.27287 8.66285C7.84736 8.08836 8.12792 7.28675 8.0344 6.47177L7.64696 3.105C7.57149 2.45314 7.2588 1.85184 6.76847 1.41572C6.27815 0.979604 5.64448 0.739165 4.98827 0.740238H2.67695C1.16725 0.740238 -0.0886137 1.9961 0.00490785 3.5058C0.713 14.9154 9.83803 24.0271 21.2343 24.7352C22.744 24.8287 23.9999 23.5729 23.9999 22.0632V19.7518C24.0132 18.4025 22.9979 17.2668 21.6485 17.1065Z" fill="black"/>
</svg>
