<svg width="34" height="35" viewBox="0 0 34 35" fill="none" xmlns="http://www.w3.org/2000/svg">
<path d="M16.9999 3.33334C9.17992 3.33334 2.83325 9.68 2.83325 17.5C2.83325 25.32 9.17992 31.6667 16.9999 31.6667C24.8199 31.6667 31.1666 25.32 31.1666 17.5C31.1666 9.68 24.8199 3.33334 16.9999 3.33334ZM23.5733 12.9667C23.3608 15.205 22.4399 20.645 21.9724 23.1525C21.7741 24.215 21.3774 24.5692 21.0091 24.6117C20.1874 24.6825 19.5641 24.0733 18.7708 23.5492C17.5241 22.7275 16.8158 22.2175 15.6116 21.4242C14.2091 20.5033 15.1158 19.9933 15.9233 19.1717C16.1358 18.9592 19.7624 15.6583 19.8333 15.3608C19.8431 15.3158 19.8418 15.269 19.8294 15.2246C19.8171 15.1801 19.7941 15.1394 19.7624 15.1058C19.6774 15.035 19.5641 15.0633 19.4649 15.0775C19.3374 15.1058 17.3541 16.4233 13.4866 19.03C12.9199 19.4125 12.4099 19.6108 11.9566 19.5967C11.4466 19.5825 10.4833 19.3133 9.76075 19.0725C8.86825 18.7892 8.17409 18.6333 8.23075 18.1375C8.25909 17.8825 8.61325 17.6275 9.27909 17.3583C13.4158 15.5592 16.1641 14.3692 17.5383 13.8025C21.4766 12.1592 22.2841 11.8758 22.8224 11.8758C22.9358 11.8758 23.2049 11.9042 23.3749 12.0458C23.5166 12.1592 23.5591 12.315 23.5733 12.4283C23.5591 12.5133 23.5874 12.7683 23.5733 12.9667Z" fill="#FFD836"/>
</svg>
