<svg width="34" height="35" viewBox="0 0 34 35" fill="none" xmlns="http://www.w3.org/2000/svg">
<path fill-rule="evenodd" clip-rule="evenodd" d="M23.6243 4.223C19.1673 3.22669 14.5452 3.22669 10.0881 4.223L9.60784 4.32925C8.35377 4.60881 7.2019 5.23093 6.28046 6.12635C5.35902 7.02178 4.70418 8.15537 4.38884 9.40092C3.26101 13.8531 3.26101 18.5162 4.38884 22.9683C4.6896 24.1562 5.29943 25.2433 6.15637 26.1191C7.01332 26.995 8.08683 27.6284 9.26784 27.955L9.92659 31.8877C9.94762 32.0125 10.0017 32.1295 10.0833 32.2264C10.1649 32.3232 10.271 32.3964 10.3904 32.4384C10.5099 32.4803 10.6385 32.4895 10.7627 32.4649C10.8869 32.4403 11.0023 32.3828 11.0968 32.2985L14.9657 28.8376C17.8699 29.0129 20.7845 28.7807 23.6243 28.1477L24.106 28.0414C25.3601 27.7619 26.5119 27.1397 27.4334 26.2443C28.3548 25.3489 29.0097 24.2153 29.325 22.9698C30.4528 18.5176 30.4528 13.8545 29.325 9.40234C29.0096 8.15661 28.3545 7.02289 27.4328 6.12745C26.5111 5.23201 25.3589 4.60999 24.1046 4.33067L23.6243 4.223ZM11.2838 9.28617C11.0205 9.24761 10.7519 9.30062 10.523 9.43634H10.5032C9.97192 9.748 9.49309 10.1404 9.08509 10.6023C8.74509 10.9947 8.56092 11.3913 8.51275 11.7738C8.48442 12.0005 8.50425 12.23 8.57084 12.4468L8.59634 12.4609C8.97884 13.5843 9.4775 14.6653 10.0867 15.6824C10.8725 17.1109 11.8391 18.4322 12.9625 19.6137L12.9965 19.6618L13.0503 19.7015L13.0829 19.7398L13.1226 19.7738C14.3083 20.9005 15.6327 21.8716 17.0638 22.6638C18.7 23.5548 19.6931 23.9756 20.2895 24.1513V24.1598C20.4638 24.2136 20.6224 24.2377 20.7825 24.2377C21.2907 24.2012 21.7718 23.9946 22.1482 23.6512C22.6086 23.2432 22.9982 22.7629 23.3013 22.2288V22.2189C23.5861 21.6806 23.4898 21.1734 23.0789 20.8292C22.2544 20.1073 21.362 19.4668 20.4142 18.9167C19.7795 18.5724 19.1349 18.7807 18.8743 19.1292L18.3175 19.8318C18.0313 20.1803 17.5128 20.1322 17.5128 20.1322L17.4987 20.1407C13.6298 19.1533 12.597 15.2362 12.597 15.2362C12.597 15.2362 12.5488 14.7035 12.9073 14.4315L13.6043 13.8705C13.9386 13.5985 14.1709 12.9553 13.8125 12.3207C13.2637 11.3735 12.6246 10.4816 11.9043 9.65734C11.7467 9.46379 11.526 9.33188 11.2809 9.28475M17.8203 7.58334C17.6324 7.58334 17.4522 7.65796 17.3194 7.7908C17.1865 7.92364 17.1119 8.10381 17.1119 8.29167C17.1119 8.47953 17.1865 8.6597 17.3194 8.79254C17.4522 8.92537 17.6324 9 17.8203 9C19.6123 9 21.0998 9.58509 22.2771 10.7071C22.882 11.3205 23.3538 12.0473 23.6626 12.8434C23.9728 13.641 24.1145 14.4924 24.0777 15.3453C24.0738 15.4383 24.0882 15.5311 24.1202 15.6186C24.1522 15.706 24.2011 15.7863 24.2641 15.8548C24.3914 15.9933 24.5684 16.0754 24.7563 16.0833C24.9441 16.0912 25.1274 16.0242 25.2658 15.8969C25.4043 15.7696 25.4864 15.5926 25.4943 15.4048C25.5366 14.3558 25.3625 13.3094 24.9829 12.3306C24.6016 11.3468 24.0208 10.4526 23.2773 9.70409L23.2631 9.68992C21.8025 8.2945 19.9538 7.58334 17.8203 7.58334ZM17.7721 9.91234C17.5842 9.91234 17.4041 9.98696 17.2712 10.1198C17.1384 10.2526 17.0638 10.4328 17.0638 10.6207C17.0638 10.8085 17.1384 10.9887 17.2712 11.1215C17.4041 11.2544 17.5842 11.329 17.7721 11.329H17.7962C19.0882 11.4211 20.0288 11.8518 20.6876 12.5587C21.3633 13.2868 21.7133 14.1921 21.6863 15.3113C21.682 15.4991 21.7525 15.681 21.8823 15.8169C22.0121 15.9528 22.1905 16.0316 22.3784 16.0359C22.5662 16.0402 22.7481 15.9697 22.884 15.8399C23.0199 15.7101 23.0987 15.5317 23.103 15.3438C23.137 13.8748 22.6638 12.6068 21.726 11.5953V11.5925C20.7669 10.564 19.4508 10.02 17.867 9.91375L17.8429 9.91092L17.7721 9.91234ZM17.7452 12.2853C17.6504 12.2769 17.5549 12.2877 17.4643 12.3171C17.3738 12.3464 17.2902 12.3937 17.2183 12.4562C17.1465 12.5186 17.088 12.5948 17.0463 12.6804C17.0045 12.7659 16.9805 12.859 16.9755 12.954C16.9706 13.049 16.9848 13.1441 17.0174 13.2335C17.05 13.3229 17.1003 13.4048 17.1653 13.4744C17.2302 13.5439 17.3085 13.5996 17.3955 13.6383C17.4825 13.6769 17.5764 13.6976 17.6715 13.6991C18.2637 13.7303 18.6419 13.9088 18.8799 14.1482C19.1193 14.389 19.2978 14.7758 19.3304 15.3807C19.3322 15.4757 19.3531 15.5695 19.3918 15.6563C19.4306 15.7431 19.4864 15.8212 19.556 15.886C19.6256 15.9508 19.7075 16.0009 19.7969 16.0333C19.8863 16.0658 19.9813 16.0799 20.0762 16.0748C20.1711 16.0698 20.2641 16.0457 20.3495 16.004C20.4349 15.9622 20.5111 15.9037 20.5734 15.832C20.6358 15.7602 20.683 15.6766 20.7124 15.5861C20.7417 15.4957 20.7526 15.4003 20.7443 15.3056C20.6989 14.4556 20.4326 13.7048 19.8872 13.1523C19.3389 12.5998 18.5923 12.3306 17.7452 12.2853Z" fill="#FFD836"/>
</svg>
