<?xml version="1.0" encoding="utf-8" ?><svg xmlns="http://www.w3.org/2000/svg" xmlns:xlink="http://www.w3.org/1999/xlink" width="1065" height="389" viewBox="0 0 1065 389"><path fill="#2B2B2B" d="M48.3486 48.2806C75.4703 47.8728 103.795 48.2717 131.006 48.2726L305.91 48.2318C304.884 82.0486 306.099 116.564 305.758 150.449C305.635 162.631 305.428 176.063 306.096 188.178C288.538 187.937 270.916 188.395 253.351 188.253C250.994 188.234 248.973 188.249 246.635 187.902L280.151 187.852C279.779 179.976 280.053 170.379 279.877 162.249C279.956 147.322 280.104 132.362 280.011 117.438C279.924 103.555 279.183 89.9075 279.233 75.9935L74.9221 75.9644L74.95 312.993L279.604 313.082C279.509 296.629 279.905 280.568 279.98 264.154C280.004 259.032 280.208 249.482 279.805 244.835C280.354 243.619 280.062 220.428 280.067 216.699C288.123 217.024 297.651 216.839 305.821 216.858L305.916 340.619C277.393 340.2 247.802 340.594 219.207 340.593L48.3752 340.59C47.9373 306.927 48.3163 272.842 48.321 239.132L48.3486 48.2806Z"/><path fill="#42A6FE" d="M180.725 101.022C183.082 102.691 187.883 106.974 190.252 108.958L209.745 125.092C224.366 136.963 241.893 150.017 255.766 162.22L279.877 162.249C280.053 170.379 279.779 179.976 280.151 187.852L246.635 187.902C243.645 186.333 226.788 172.184 223.439 169.224C210.499 157.785 193.728 145.554 181.448 133.897C164.357 147.587 146.562 162.816 130.032 177.177L130.03 243.415C130.028 254.204 129.556 270.603 130.845 280.997C123.755 281.733 111.744 281.414 104.313 281.427C103.603 273.847 104.154 252.73 104.139 244.214L104.069 164.875C105.082 163.778 106.157 162.746 107.281 161.763C131.191 140.835 156.041 121.023 180.725 101.022Z"/><path fill="#2B2B2B" d="M533.095 85.8985C544.388 85.1938 554.283 87.0356 562.731 95.1089C573.938 105.819 574.332 121.88 574.603 136.372C574.755 149.365 573.069 164.793 563.575 174.439C547.579 190.693 513.501 185.761 505.918 163.04C503.355 155.359 503.321 149.345 503.318 141.46C498.945 141.392 494.148 141.538 489.741 141.588L489.739 152.116L489.703 181.963C483.629 181.749 477.685 181.845 471.615 181.919C471.211 150.808 471.544 118.737 471.6 87.5771C477.541 87.4325 483.877 87.5248 489.851 87.5058L489.734 124.221L503.132 124.328C503.708 102.386 510.698 90.5362 533.095 85.8985ZM541.305 165.832C546.026 164.063 550.229 161.238 552.051 156.187C556.326 144.33 556.497 126.867 552.808 114.846C550.487 107.284 543.359 103.304 535.808 103.557C521.111 108.619 521.932 121.69 521.668 135.195C521.392 149.311 523.048 166.567 541.305 165.832Z"/><path fill="#2B2B2B" d="M700.111 85.5287C724.566 85.7365 737.486 97.6411 739.449 122.574C741.588 149.749 739.484 180.644 705.418 183.935C680.107 184.586 667.118 169.386 665.52 144.946C664.492 129.227 664.577 109.145 674.922 96.1727C680.876 88.7057 691.065 86.2424 700.111 85.5287ZM703.549 165.891C707.454 165.387 713.616 163.904 715.753 160.326C721.785 150.224 721.397 133.329 720.252 121.894C719.098 110.363 713.358 104.256 701.944 103.667C688.737 105.382 686.587 110.302 685.102 123.04C684.156 131.148 683.982 139.478 685.036 147.576C686.581 159.437 691.645 165.218 703.549 165.891Z"/><path fill="#2B2B2B" d="M392.239 87.595C411.411 87.114 432.215 87.5043 451.511 87.503C451.506 92.9404 451.384 99.0005 451.726 104.368C442.863 103.583 420.382 104.359 410.83 104.395C411.052 110.746 410.92 117.913 410.948 124.328C431.144 123.844 447.504 120.898 457.296 142.116C458.319 145.96 458.97 150.322 458.872 154.298C458.055 187.496 415.255 182.534 392.333 181.903L392.239 87.595ZM411.118 164.553C418.47 164.839 426.703 165.536 433.67 162.939C437.361 160.775 441.113 154.537 440.166 150.238C437.833 139.65 424.735 139.137 416.324 139.61C414.848 139.689 412.163 139.629 411.034 140.371C410.46 144.512 410.85 159.961 411.118 164.553Z"/><path fill="#2B2B2B" d="M589.112 87.5998C600.35 87.2649 611.182 87.5107 623.17 87.5086C652.806 87.5034 665.068 116.565 647.435 138.846C641.77 146.004 630.31 147.529 620.944 147.747L608.055 147.81L608 181.963C601.656 181.732 595.493 181.877 589.155 181.994L589.112 87.5998ZM608.415 130.52C615.837 130.79 627.149 132.112 633.048 127.194C635.844 122.11 636.341 120.575 636.934 114.806C631.557 102.247 619.603 104.271 608.025 104.498C608.024 112.602 607.769 122.582 608.415 130.52Z"/><path fill="#2B2B2B" d="M524.492 225.96L537.16 225.855C537.504 246.137 537.218 267.265 537.138 287.593L556.587 287.549L556.658 226.055C561.78 225.872 567.203 225.912 572.351 225.873L572.5 287.582L590.84 287.545C590.642 276.878 590.781 265.786 590.77 255.086L590.808 226.01C595.944 225.903 601.182 225.913 606.328 225.872L606.281 301.653C579.072 300.957 549.085 301.584 521.673 301.623C521.558 295.149 521.238 227.465 522.097 226.228L524.492 225.96Z"/><path fill="#2B2B2B" d="M476.27 224.77C495.559 222.714 508.854 232.045 510.135 251.645C511.582 273.768 513.562 294.16 489.08 302.267C469.818 305.263 457.26 294.757 454.924 275.656C453.421 263.358 453.584 248.438 458.96 237.074C462.487 229.617 468.924 227.118 476.27 224.77ZM486.229 287.641C494.446 283.761 495.282 275.808 495.204 267.426C495.131 259.679 496.33 243.24 487.565 239.81C485.363 238.948 480.594 239.113 478.221 239.299C475.381 241.038 472.853 243.163 471.925 246.508C468.367 259.337 465.066 290.394 486.229 287.641Z"/><path fill="#2B2B2B" d="M695.837 224.322C701.59 223.781 709.158 225.12 714.212 228.467C731.129 239.671 729.588 276.167 720.929 291.938C717.534 298.121 708.746 301.29 702.15 302.605C695.946 303.423 688.276 301.72 683.11 298.113C676.806 293.71 673.062 286.327 671.909 278.773C669.855 265.32 669.383 245.872 677.289 234.329C681.908 227.585 688.308 225.639 695.837 224.322ZM701.268 287.813C710.298 284.401 711.44 275.264 711.849 266.576C712.374 255.448 712.624 237.769 696.885 238.799C688.768 240.601 686.742 247.027 686.158 254.755C685.259 266.638 683.744 288.93 701.268 287.813Z"/><path fill="#2B2B2B" d="M978.894 225.429C988.155 225.138 1003.68 225.5 1009.88 232.68C1019.42 243.747 1015.35 253.949 1006.58 262.553C1013.9 268.643 1018.18 274.399 1016.58 284.548C1015.62 290.577 1012.72 294.17 1007.84 297.641C996.279 303.981 978.332 301.934 965.335 301.646C964.799 276.812 965.202 250.746 965.256 225.875L978.894 225.429ZM980.761 287.581C986.808 287.616 991.969 287.934 997.848 286.381C1010.58 274.681 995.066 268.959 984.028 269.617C982.988 269.802 981.685 269.784 981.335 270.589C979.7 274.359 980.597 283.692 980.761 287.581ZM980.739 257.384C986.672 257.474 991.602 257.924 997.064 255.241C998.865 253.781 1001.86 251.118 1001.69 248.771C1001.05 239.731 987.524 240.191 982.151 240.545L980.834 240.94C980.164 243.536 980.742 254.152 980.739 257.384Z"/><path fill="#2B2B2B" d="M841.188 225.778L855.986 225.891C856.175 235.321 857.495 296.391 855.689 301.217L854.48 301.604L840.459 301.598C840.153 285.638 839.944 268.305 840.737 252.465C832.696 268.868 823.007 285.375 814.391 301.616L800.846 301.621C800.376 276.867 800.811 250.685 800.806 225.814L815.998 225.896C816.086 241.613 815.923 257.333 816.152 273.052C822.468 259.39 833.578 239.107 841.188 225.778Z"/><path fill="#2B2B2B" d="M755.327 225.438L755.924 225.425C764.841 225.295 777.76 225.848 784.339 232.508C793.371 241.651 792.671 259.231 783.69 268.19C776.062 275.799 763.605 274.236 753.68 274.175L753.673 279.659L753.652 301.605L738.398 301.587C737.949 276.852 738.353 250.885 738.352 226.05C743.077 225.58 750.402 225.585 755.327 225.438ZM753.653 260.516C760.265 260.829 765.652 261.685 771.563 258.445C782.44 241.163 766.239 240.016 753.745 240.279C753.722 246.146 753.987 254.84 753.653 260.516Z"/><path fill="#42A6FE" d="M225.16 216.515C242.408 217.215 262.549 216.742 280.067 216.699C280.062 220.428 280.354 243.619 279.805 244.835C270.69 245.099 261.09 244.986 251.93 245.002C252.117 257.204 252.042 269.544 252.055 281.758C245.533 281.071 231.959 281.461 225.249 281.627C224.602 261.234 225.167 237.223 225.16 216.515Z"/><path fill="#2B2B2B" d="M430.17 225.954C435.703 225.766 441.876 225.949 447.46 226.005L423.638 261.224C429.953 270.639 436.127 280.401 442.281 289.941L450.026 301.609C444.444 301.473 438.25 301.628 432.62 301.649C428.015 294.542 417.969 274.53 409.308 270.665C408.825 270.449 408.169 271.16 407.723 271.517C405.488 277.004 407.091 294.679 407.198 301.646L392.052 301.605C391.754 295.331 390.918 228.423 392.371 226.132L393.868 225.975C398.152 225.854 402.822 225.93 407.136 225.926C406.905 231.092 405.561 252.411 408.409 256.005C413.276 255.063 426.824 231.133 430.17 225.954Z"/><path fill="#42A6FE" d="M166.977 188.21C175.864 188.757 184.555 188.648 193.451 188.62L193.403 281.394L166.444 281.387C167.393 271.627 166.975 256.743 166.973 246.677L166.977 188.21Z"/><path fill="#2B2B2B" d="M892.051 224.274C911.741 222.813 919.821 231.226 924.576 249.136C919.401 249.28 914.286 249.269 909.11 249.266C907.403 246.261 906.116 244.194 904.139 241.362C886.624 232.605 880.978 249.214 881.757 263.287C881.933 272.423 882.424 286.206 893.918 288.191C904.091 289.949 905.377 281.32 910.441 277.78C914.916 277.755 919.586 277.882 924.077 277.945C921.746 291.713 916.788 299.968 902.3 302.658C883.795 306.094 870.223 294.735 867.684 276.483C865.831 263.161 865.355 246.093 873.52 234.58C878.282 227.865 884.205 225.504 892.051 224.274Z"/><path fill="#2B2B2B" d="M615.605 225.941C631.56 225.692 649.027 225.951 665.129 225.855C665.229 230.583 665.166 235.537 665.177 240.286C659.071 240.187 652.908 240.211 646.797 240.192C647.104 255.892 646.91 271.891 646.864 287.614L646.945 301.609L631.69 301.597C631.034 293.127 631.199 281.423 631.222 272.837C631.25 262.415 631.024 250.416 631.679 240.193C625.368 240.104 618.941 240.184 612.621 240.203C612.635 236.914 611.831 229.043 613.306 226.376C613.439 226.137 615.128 226.005 615.605 225.941Z"/><path fill="#2B2B2B" d="M938.502 225.949L950.508 225.898C950.521 249.591 951.278 277.721 950.358 301.05C949.519 301.876 949.127 301.579 947.606 301.595L935.095 301.601L935.026 254.914C935.003 246.023 934.713 235.356 935.174 226.595C936.132 225.858 937.115 226.039 938.502 225.949Z"/></svg>