<svg width="213" height="78" viewBox="0 0 213 78" fill="none" xmlns="http://www.w3.org/2000/svg">
<mask id="mask0_0_51" style="mask-type:alpha" maskUnits="userSpaceOnUse" x="9" y="9" width="195" height="60">
<path d="M9.66769 9.63818L61.1682 9.6516C61.0489 18.9588 61.1482 28.2844 61.165 37.593L55.8456 37.5946L49.2993 37.5967C47.6292 36.3282 46.0375 34.9187 44.4222 33.5794C41.6866 31.3293 38.966 29.0608 36.2608 26.7739C34.5174 28.1084 32.851 29.5874 31.1625 30.994C29.4274 32.4394 27.6102 33.8502 26.0004 35.4345L26.0133 56.2013C24.3012 56.25 22.5795 56.2177 20.8663 56.2203L20.8573 32.9325C25.8239 28.5581 31.0399 24.4219 36.1674 20.2386C41.026 24.4419 46.1615 28.3992 51.1559 32.4446L55.8456 32.4599C55.9464 26.7031 55.8587 20.9281 55.8587 15.1695L23.6201 15.1855L14.9726 15.1789L14.9724 62.6063L55.9151 62.6169L55.945 48.9389C54.0984 49.0308 52.2231 48.9774 50.373 48.9889L50.383 56.2764L45.0812 56.2743L45.0836 43.3761L55.945 43.3701L61.1542 43.3672L61.1679 68.1024L9.68743 68.0989C9.58111 61.5968 9.68032 55.0771 9.67822 48.5724L9.66769 9.63818Z" fill="#DB4CCF"/>
<path d="M33.3963 37.7331C35.1455 37.7344 36.8948 37.7452 38.6441 37.7654C38.5786 43.918 38.6352 50.0778 38.6338 56.2312L33.3871 56.2206L33.3963 37.7331Z" fill="#DB4CCF"/>
<path d="M106.839 17.1691C108.846 17.0407 110.784 17.4728 112.331 18.838C113.987 20.2997 114.611 22.3099 114.76 24.4415C114.986 27.6735 115.212 32.1389 112.888 34.6915C111.641 36.0609 109.861 36.7113 108.039 36.7716C106.139 36.8344 104.047 36.2488 102.668 34.9044C100.78 33.0636 100.66 30.7359 100.674 28.2784L97.9328 28.2941L97.9298 30.504L97.924 36.3546L94.3312 36.3595L94.3322 17.5255L97.9406 17.5343L97.9328 24.8439C98.8366 24.8434 99.7401 24.8527 100.644 24.8722C100.683 23.0912 100.82 21.4563 101.872 19.9376C103.023 18.2769 104.769 17.5063 106.692 17.1818C106.74 17.1776 106.79 17.172 106.839 17.1691ZM107.064 20.7199C106.107 21.0699 105.325 21.5387 104.892 22.5079C104.155 24.1564 104.134 29.6048 104.891 31.2941C105.225 32.0398 105.837 32.699 106.611 32.9913C107.175 33.2046 107.763 33.2025 108.356 33.1515C109.38 32.7673 109.935 32.3652 110.41 31.3585C111.225 29.6321 111.27 24.6188 110.558 22.8624C110.218 22.0249 109.607 21.277 108.753 20.9327C108.203 20.7112 107.647 20.6864 107.064 20.7199Z" fill="#DB4CCF"/>
<path d="M139.094 17.1921C140.8 16.998 142.69 17.1262 144.229 17.9441C145.858 18.8096 146.926 20.3509 147.435 22.0945C148.265 24.9375 148.252 30.8558 146.73 33.491C145.645 35.3689 143.965 36.1787 141.954 36.6951C139.991 36.9417 137.9 36.6913 136.239 35.5476C134.577 34.4034 133.683 32.6228 133.344 30.6814C132.812 27.6381 132.784 22.2686 134.663 19.6677C135.756 18.1548 137.308 17.4824 139.094 17.1921ZM140.021 20.741C139.093 20.9257 138.236 21.1521 137.681 21.9939C136.703 23.4766 136.746 28.6785 137.147 30.4207C137.374 31.4098 137.9 32.2761 138.799 32.783C139.545 33.2028 140.435 33.2033 141.265 33.1335C142.144 32.9004 142.943 32.581 143.405 31.7439C144.321 30.082 144.389 24.977 143.804 23.1238C143.526 22.2439 142.971 21.46 142.125 21.0476C141.459 20.7227 140.745 20.7186 140.021 20.741Z" fill="#DB4CCF"/>
<path d="M90.3004 17.5282C90.2909 18.6297 90.2867 19.7314 90.2896 20.8329L82.1597 20.8446L82.1871 24.8856C84.1879 24.8659 86.6986 24.5622 88.5855 25.3378C90.0368 25.9344 90.813 27.0147 91.4254 28.3974C91.5987 29.0314 91.7349 29.6274 91.7613 30.287C91.8234 31.8315 91.4419 33.3217 90.3492 34.4559C87.8024 37.0989 81.8996 36.3705 78.4722 36.3602L78.4644 17.5302L90.3004 17.5282ZM86.8765 28.4472C85.5275 27.6926 83.6641 27.918 82.1607 27.9433C82.1675 29.598 82.125 31.2713 82.1998 32.9237C83.7532 32.9408 85.9274 33.2464 87.2193 32.2909C87.6993 31.5956 88.1635 30.6644 87.9869 29.787C87.8674 29.1933 87.3865 28.7324 86.8765 28.4472Z" fill="#DB4CCF"/>
<path d="M117.826 17.5292C120.922 17.55 126.795 16.8388 129.192 18.9833C130.354 20.0241 130.941 21.5369 131.031 23.0732C131.129 24.7282 130.692 26.4692 129.542 27.705C128.05 29.3078 126.06 29.5202 124.005 29.5497L121.603 29.538L121.6 36.3505L117.832 36.3652L117.826 17.5292ZM126.14 21.3798C124.845 20.6677 123.052 20.8624 121.612 20.8769C121.612 22.6214 121.598 24.3679 121.618 26.1122C123.161 26.1283 125.352 26.4764 126.602 25.4706C127.021 24.7943 127.512 23.7002 127.33 22.8778C127.182 22.2058 126.734 21.7069 126.14 21.3798Z" fill="#DB4CCF"/>
<path d="M111.359 45.1975L114.459 45.1885C114.419 49.3005 114.427 53.4128 114.483 57.5243L118.196 57.5259C118.15 55.7471 118.175 53.9626 118.174 52.183L118.163 45.1983L121.261 45.1975C121.205 50.2335 121.24 55.2758 121.255 60.3123L104.362 60.3068L104.346 45.1962L107.415 45.2051L107.412 57.5343C108.728 57.5114 110.046 57.5298 111.363 57.5301L111.359 45.1975Z" fill="#DB4CCF"/>
<path d="M95.4768 44.9328C96.6755 44.8278 97.9033 44.8876 99.0109 45.4055C100.307 46.0118 101.181 47.1407 101.629 48.4827C102.341 50.6143 102.386 55.7545 101.371 57.7502C100.629 59.2091 99.3845 59.9519 97.8791 60.4182C96.5293 60.679 95.0987 60.5854 93.8645 59.9377C92.4937 59.2182 91.659 57.9232 91.2658 56.4553C90.6345 54.0967 90.6222 49.3182 91.9231 47.1819C92.7533 45.8193 93.9898 45.2744 95.4768 44.9328ZM97.1418 47.8479C96.6899 47.7539 96.1602 47.7912 95.7004 47.8225C94.9372 48.2282 94.5648 48.5519 94.2961 49.3909C93.7713 51.0301 93.6591 54.9515 94.5217 56.4348C94.8243 56.9553 95.3083 57.4108 95.9055 57.5539C96.3466 57.6594 96.8819 57.5885 97.3283 57.5295C98.0641 57.1193 98.5778 56.768 98.8 55.9221C99.1437 54.6132 99.1864 49.8791 98.5178 48.7873C98.2154 48.294 97.7046 47.965 97.1418 47.8479Z" fill="#DB4CCF"/>
<path d="M139.587 44.836C140.779 44.8818 141.885 45.0564 142.899 45.7335C144.164 46.578 144.836 47.9346 145.105 49.3975C145.556 51.8487 145.598 56.4604 144.095 58.502C143.094 59.8615 141.667 60.3224 140.075 60.5713C138.783 60.5177 137.524 60.3021 136.459 59.5118C135.216 58.5902 134.602 57.1428 134.383 55.6485C134.006 53.0605 133.902 48.8321 135.582 46.7071C136.607 45.4098 138.01 44.986 139.587 44.836ZM139.673 47.7169C139.038 47.8169 138.361 47.9003 137.95 48.4561C136.972 49.7796 137.022 53.6808 137.364 55.3008C137.521 56.0464 137.918 56.8678 138.585 57.2852C139.042 57.5715 139.565 57.595 140.088 57.6016C140.823 57.3853 141.341 57.1617 141.724 56.4659C142.498 55.0616 142.569 51.1499 142.105 49.6045C141.917 48.9791 141.519 48.274 140.92 47.962C140.558 47.7736 140.074 47.7563 139.673 47.7169Z" fill="#DB4CCF"/>
<path d="M193.069 45.1794C195.621 45.1926 199.959 44.5668 201.948 46.5056C202.754 47.2922 203.049 48.4248 203.007 49.5261C202.957 50.8685 202.198 51.6769 201.262 52.5261C202.025 53.0495 202.658 53.6472 203.04 54.5036C203.583 55.7218 203.37 56.9172 202.915 58.1189C202.705 58.4587 202.449 58.7838 202.156 59.0564C200.137 60.9351 195.65 60.3273 193.083 60.3113C193.002 55.2718 193.072 50.2201 193.069 45.1794ZM196.372 53.9284L196.161 54.0779C196.032 55.2062 196.108 56.3819 196.12 57.5173C197.283 57.5194 198.624 57.6598 199.712 57.2087C200.085 56.7892 200.453 56.2109 200.446 55.6238C200.441 55.2003 200.3 54.8939 199.983 54.6208C199.002 53.7764 197.576 53.8953 196.372 53.9284ZM199.469 48.4743C198.67 47.9396 197.915 47.9995 196.99 48.074C196.694 48.044 196.38 48.0954 196.084 48.1189C196.102 49.2395 196.115 50.3603 196.123 51.4812C197.39 51.5054 198.853 51.6715 199.854 50.7136C200.148 50.4324 200.349 50.0645 200.308 49.6443C200.258 49.1403 199.868 48.7412 199.469 48.4743Z" fill="#DB4CCF"/>
<path d="M160.186 45.1827L163.206 45.199L163.202 54.6412C164.792 51.4521 166.532 48.3217 168.222 45.1837L171.208 45.1929C171.2 50.1618 171.405 55.2197 171.188 60.1751L170.968 60.3067L168.099 60.3117C168.085 57.0124 167.934 53.6125 168.193 50.3242C166.557 53.7114 164.622 56.981 162.854 60.3035L160.181 60.3088L160.186 45.1827Z" fill="#DB4CCF"/>
<path d="M147.684 45.1973C150.035 45.1862 154.83 44.6724 156.633 46.2588C157.631 47.137 158.059 48.4235 158.107 49.7227C158.158 51.1085 157.793 52.5619 156.799 53.5733C155.568 54.8268 154.147 54.825 152.512 54.8242L150.716 54.8125L150.729 60.3067L147.68 60.3106L147.684 45.1973ZM154.159 48.4453C153.125 47.8698 151.862 48.0303 150.725 48.044L150.729 52.1182C151.909 52.145 153.52 52.423 154.446 51.5703C154.784 50.9898 155.151 50.1205 154.964 49.4336C154.839 48.9761 154.566 48.6722 154.159 48.4453Z" fill="#DB4CCF"/>
<path d="M86.0223 45.206L89.4846 45.1924C87.8677 47.5261 86.2979 49.8967 84.7078 52.2489C85.8639 53.9722 86.9755 55.7294 88.1082 57.4684C88.7232 58.4163 89.348 59.3576 89.982 60.2929L86.5173 60.3145C85.462 58.735 83.5214 54.8511 81.9672 54.0866C81.6516 54.0887 81.6753 54.0896 81.4498 54.313C81.1287 56.1541 81.4079 58.4171 81.4377 60.304L78.4173 60.3108C78.2175 55.2991 78.376 50.2202 78.3789 45.2013L81.4048 45.1963C81.3937 46.2761 81.094 50.5433 81.66 51.3L81.985 51.1005L82.0782 51.3394L82.0251 51.0689C83.3241 49.9149 85.0133 46.7808 86.0223 45.206Z" fill="#DB4CCF"/>
<path d="M178.795 44.8283C180.015 44.798 181.285 44.9823 182.348 45.6149C183.942 46.5642 184.488 48.1061 184.881 49.8093C183.858 49.8519 182.83 49.8438 181.807 49.8567C181.548 49.3038 181.233 48.8135 180.896 48.3071C180.252 47.954 179.585 47.725 178.839 47.7879C178.169 47.84 177.556 48.1805 177.157 48.7208C176.138 50.0756 176.295 53.2052 176.508 54.8645C176.62 55.7424 176.975 56.7135 177.713 57.2585C178.245 57.6517 179.096 57.7209 179.728 57.6014C180.534 57.4491 181.09 56.8914 181.515 56.2235L181.902 55.6229L182.25 55.5782L184.784 55.5977C184.618 56.713 184.366 57.7854 183.674 58.7078C182.813 59.8568 181.451 60.416 180.057 60.5787C178.536 60.7558 176.914 60.4668 175.702 59.4849C174.245 58.3054 173.652 56.4498 173.472 54.6476C173.212 52.0315 173.175 48.6624 174.991 46.5534C176.035 45.3415 177.268 44.9752 178.795 44.8283Z" fill="#DB4CCF"/>
<path d="M122.55 45.1962C126.041 45.2364 129.537 45.2025 133.029 45.2017C133.002 46.1415 133.031 47.086 133.04 48.0263L129.33 47.9887C129.437 50.919 129.351 53.8876 129.35 56.8214L129.373 60.3005L126.333 60.312C126.205 56.2298 126.243 52.0804 126.329 47.9971C125.071 48.0152 123.81 48.0031 122.551 48.0052L122.55 45.1962Z" fill="#DB4CCF"/>
<path d="M187.026 45.1939L190.082 45.1952L190.079 60.2882L187.017 60.3082L187.026 45.1939Z" fill="#DB4CCF"/>
</mask>
<g mask="url(#mask0_0_51)">
<rect x="-20.7012" y="-2.23348" width="253.268" height="80.4652" fill="#2A2A2A"/>
<rect x="19" y="20.0002" width="37" height="37" fill="#43A6FD"/>
</g>
</svg>
