<svg width="96" height="97" viewBox="0 0 96 97" fill="none" xmlns="http://www.w3.org/2000/svg">
<g clip-path="url(#clip0_0_125)">
<path d="M0 0.740234H96V96.7402H0V0.740234ZM26.4611 3.31937C26.2511 3.39567 25.9996 3.48009 25.8893 3.69399C25.6739 4.11237 25.4323 9.89693 25.2641 11.0675C24.2708 10.9626 23.2769 10.8635 22.2824 10.7701C21.8289 10.7271 21.345 10.64 20.8916 10.6565C20.6852 10.6641 20.3913 10.7099 20.2221 10.8388C20.0586 10.9635 20.0378 11.193 20.0041 11.3866C19.7799 12.6786 19.7244 14.0488 19.5968 15.3576L18.8624 22.8114C18.1977 29.5093 17.4498 36.1986 16.619 42.878L15.8477 49.0896C15.7163 50.1861 15.6423 51.4905 15.4183 52.555C15.2703 53.2584 14.9719 53.9627 14.736 54.6422C14.3795 55.6762 14.0315 56.7131 13.692 57.7529C12.0008 62.8645 9.91031 69.0923 9.54769 74.4455C9.42309 76.2856 9.62963 78.9311 10.8961 80.4023C11.0695 80.6037 11.2449 80.7244 11.4935 80.8151C11.9994 80.9996 12.5731 81.0906 13.0992 81.2122C14.2398 81.4752 15.3818 81.7313 16.5255 81.9806C19.8175 82.7568 23.1154 83.5081 26.4187 84.2346L51.2914 89.8136L62.7586 92.314C64.9709 92.7999 67.2448 93.1983 69.4133 93.8516C69.8077 93.9357 70.1302 93.9772 70.493 93.7499C70.9557 93.4597 71.2645 92.906 71.4946 92.427C71.9276 91.5253 72.243 90.5535 72.5482 89.6028C73.1531 87.7191 73.6383 85.8141 74.1203 83.897C75.3785 78.8497 76.5155 73.773 77.5303 68.6712C80.2137 55.1165 82.5459 41.4947 84.5246 27.8193C85.0523 24.3804 85.5563 20.938 86.0366 17.4921L86.427 14.6651C86.5026 14.1054 86.6243 13.4999 86.6092 12.9356C86.6028 12.696 86.5315 12.5108 86.4137 12.3054C86.2764 12.2208 86.1464 12.1681 85.9898 12.1296C85.4031 11.9856 84.7747 11.9182 84.1771 11.8143L80.7993 11.1998C66.62 8.48739 52.3473 6.28793 38.0092 4.60573L30.5097 3.74078C29.5851 3.63324 28.6593 3.53479 27.7327 3.44546C27.3143 3.40334 26.88 3.33069 26.4611 3.31937Z" fill="#FEFEFE"/>
<path d="M25.2641 11.0675C25.4323 9.89689 25.6739 4.11233 25.8893 3.69395C25.9996 3.48005 26.2511 3.39563 26.4611 3.31934C26.88 3.33065 27.3143 3.40331 27.7327 3.44542C28.6593 3.53475 29.5851 3.6332 30.5097 3.74074L38.0092 4.6057C52.3473 6.28789 66.62 8.48735 80.7993 11.1998L84.1771 11.8142C84.7748 11.9182 85.4031 11.9856 85.9899 12.1296C86.1464 12.168 86.2765 12.2207 86.4137 12.3054C86.5315 12.5108 86.6028 12.6959 86.6092 12.9356C86.6243 13.4999 86.5026 14.1054 86.427 14.6651L86.0366 17.4921C85.5564 20.938 85.0524 24.3804 84.5246 27.8192C82.546 41.4946 80.2137 55.1165 77.5303 68.6712C76.5155 73.7729 75.3785 78.8497 74.1203 83.8969C73.6383 85.8141 73.1531 87.7191 72.5483 89.6027C72.243 90.5535 71.9276 91.5253 71.4946 92.427C71.2645 92.906 70.9557 93.4597 70.493 93.7499C70.1303 93.9772 69.8077 93.9357 69.4133 93.8516C67.2448 93.1982 64.9709 92.7999 62.7586 92.314L51.2914 89.8136L26.4187 84.2346C23.1154 83.508 19.8175 82.7567 16.5255 81.9806C15.3818 81.7313 14.2398 81.4752 13.0992 81.2122C12.5731 81.0906 11.9994 80.9996 11.4935 80.8151C11.2449 80.7243 11.0695 80.6037 10.8961 80.4023C9.62962 78.9311 9.42309 76.2855 9.54769 74.4455C9.91031 69.0923 12.0008 62.8645 13.692 57.7529C14.0315 56.7131 14.3795 55.6762 14.736 54.6421C14.9719 53.9626 15.2703 53.2584 15.4183 52.555C15.6423 51.4905 15.7163 50.1861 15.8477 49.0896L16.619 42.8779C17.4498 36.1986 18.1977 29.5093 18.8624 22.8114L19.5968 15.3576C19.7244 14.0488 19.7799 12.6786 20.0041 11.3865C20.0378 11.1929 20.0586 10.9634 20.2221 10.8388C20.3913 10.7099 20.6852 10.6641 20.8916 10.6565C21.345 10.64 21.8289 10.7271 22.2824 10.77C23.2769 10.8634 24.2708 10.9626 25.2641 11.0675ZM27.3323 5.00011C27.0665 10.5481 26.3378 16.015 25.3797 21.4831C24.8394 24.7285 24.1854 27.9538 23.4189 31.1532C22.3126 35.6276 21.0506 40.0621 19.6353 44.4486L14.9604 58.834C13.4209 63.6778 11.2724 70.1417 11.1243 75.1804C11.0882 76.4113 11.2277 77.6109 11.7719 78.7255C13.4278 79.1991 15.1738 79.4674 16.8567 79.8448L28.4773 82.4319L49.3544 87.1314L60.975 89.676C63.1054 90.1372 65.2501 90.5582 67.3716 91.0566C67.3293 90.6559 67.298 90.2628 67.2945 89.8597C67.3719 87.7044 67.8134 85.5609 68.2824 83.4616C69.6879 77.1724 71.9347 71.0809 73.8601 64.9368C75.8816 58.5869 77.7482 52.1887 79.4582 45.7479C79.9955 43.679 80.5738 41.6062 81.0217 39.5162C81.3284 38.0849 81.5376 36.6202 81.7821 35.1763C82.3832 31.5507 82.9406 27.9179 83.4542 24.2788C83.7946 21.9228 84.1078 19.563 84.3939 17.1998C84.544 16.0011 84.7907 14.7384 84.8088 13.5332C83.3546 13.2074 81.8727 12.9735 80.4068 12.703C77.4461 12.1538 74.4818 11.6254 71.5137 11.1179C62.7421 9.56247 53.9349 8.21487 45.0994 7.0762C40.8011 6.51094 36.4972 5.98999 32.1882 5.51344C30.5795 5.34151 28.9456 5.09416 27.3323 5.00011ZM77.5527 59.462C77.1724 60.4545 76.9618 61.5461 76.7154 62.58C76.2891 64.3693 75.8883 66.1665 75.4478 67.9522C74.0006 73.8174 72.5223 79.6589 70.7815 85.4457C70.4055 86.7046 70.0013 87.9551 69.5693 89.196C69.4244 89.6077 69.0347 90.4132 68.9728 90.777C68.9123 91.1333 69.0012 91.5372 69.1548 91.8593C69.1914 91.9363 69.2356 92.0099 69.2805 92.0823C69.3765 92.1878 69.4431 92.2822 69.591 92.3088C69.7742 92.262 69.8724 92.1341 69.9684 91.9785C70.5159 91.0915 71.0287 89.109 71.3339 88.0659C72.5968 83.6174 73.6878 79.1218 74.6045 74.5892C75.3984 71.0227 76.1291 67.4424 76.7964 63.85C76.942 63.0871 77.6402 60.05 77.5527 59.462Z" fill="#2A2A2A"/>
<path d="M11.7719 78.7255C11.2277 77.6109 11.0882 76.4113 11.1243 75.1804C11.2724 70.1417 13.4209 63.6778 14.9605 58.834L19.6353 44.4486C21.0506 40.0621 22.3126 35.6276 23.419 31.1532C24.1855 27.9538 24.8395 24.7285 25.3797 21.4831C26.3379 16.015 27.0665 10.5481 27.3323 5.00012C28.9456 5.09417 30.5795 5.34151 32.1882 5.51345C36.4972 5.99 40.8011 6.51095 45.0994 7.07621C53.9349 8.21487 62.7421 9.56248 71.5137 11.1179C74.4818 11.6254 77.4462 12.1538 80.4068 12.703C81.8727 12.9735 83.3547 13.2074 84.8088 13.5332C84.7907 14.7384 84.5441 16.0011 84.3939 17.1998C84.1078 19.563 83.7946 21.9228 83.4542 24.2788C82.9407 27.9179 82.3832 31.5507 81.7821 35.1763C81.5376 36.6202 81.3284 38.085 81.0217 39.5162C80.5738 41.6062 79.9955 43.679 79.4582 45.7479C77.7482 52.1887 75.8817 58.5869 73.8601 64.9368C71.9347 71.0809 69.6879 77.1724 68.2825 83.4616C67.8134 85.5609 67.372 87.7044 67.2945 89.8597C67.298 90.2628 67.3293 90.6559 67.3716 91.0566C65.2501 90.5582 63.1054 90.1372 60.975 89.676L49.3544 87.1314L28.4773 82.4319L16.8567 79.8448C15.1738 79.4674 13.4278 79.1991 11.7719 78.7255ZM32.3328 12.7904C32.2767 12.8791 32.2333 12.9561 32.2096 13.0596C32.0428 13.7871 32.0002 14.5964 31.9046 15.3412C31.7384 16.6327 31.5627 17.9228 31.3775 19.2117C31.1976 19.2155 30.9429 19.1897 30.8065 19.3343C30.7321 19.4132 30.7041 19.5332 30.7147 19.6383C30.7225 19.7156 30.7705 19.7481 30.8182 19.8053C30.9637 19.8621 31.1904 19.9095 31.2555 20.051C30.8624 22.5205 30.4447 24.986 30.0023 27.4471C29.6911 27.3725 29.3256 27.2379 29.0232 27.4095C28.9124 27.4723 28.888 27.5262 28.8512 27.6433C28.8906 27.7911 28.9679 27.8717 29.096 27.9508C29.3097 28.0826 29.6376 28.0757 29.884 28.0916C29.7211 29.6523 29.3128 31.2628 28.995 32.8012C28.5191 33.2096 27.5831 33.717 27.5274 34.4057C27.5101 34.6185 27.6013 34.8097 27.7466 34.9611C27.9167 35.1385 28.1585 35.2447 28.378 35.3464C27.934 37.3246 27.5287 39.3328 26.9965 41.2891C26.8627 41.3729 26.7609 41.4252 26.6934 41.5758C26.6938 41.7505 26.7505 41.818 26.8416 41.9605C25.3165 48.1789 23.5645 54.3396 21.5894 60.4301C20.9977 62.2489 20.4313 64.0816 19.7684 65.8761C19.4457 65.7836 19.0553 65.6179 18.7256 65.77C18.613 65.822 18.5906 65.8709 18.5577 65.9845C18.6191 66.1501 18.7415 66.2675 18.9008 66.3434C19.0914 66.4341 19.3558 66.4541 19.5642 66.4891C19.2117 67.4954 18.8954 68.514 18.616 69.543C18.384 70.3938 17.0886 75.7125 17.3807 76.3403C17.4706 76.415 17.506 76.4669 17.6314 76.4577C18.0359 76.4279 21.9531 74.2428 22.7348 73.8996C23.141 74.5302 24.7915 77.6943 25.1181 77.9526C25.3136 77.9444 25.4768 77.8568 25.6403 77.7535C26.112 77.4554 26.5449 77.0595 26.9852 76.7144C28.1904 75.77 29.4026 74.7364 30.6803 73.8989C31.1521 74.6363 31.6053 75.3855 32.0395 76.1459C32.4945 76.9558 32.9196 77.794 33.4036 78.5859C33.483 78.7156 33.5641 78.8429 33.6863 78.9364C33.8291 78.9607 33.9426 78.985 34.0717 78.896C34.3618 78.6962 34.6135 78.3652 34.8578 78.1088C35.583 77.348 36.5559 76.2115 37.3158 75.5505C37.995 76.3888 38.5897 77.3039 39.2003 78.1927C39.4841 78.6058 39.7695 79.1177 40.1319 79.4643C42.0086 78.9056 43.8455 78.1645 45.7441 77.6773C46.266 78.5657 48.0483 82.429 48.535 82.8599C48.6889 82.8787 48.7974 82.8021 48.9152 82.7117C49.4227 82.3226 49.8672 81.6775 50.2836 81.1918C51.1273 80.2079 51.9867 79.2339 52.796 78.2215C53.0775 78.9746 53.2833 79.7621 53.5099 80.5334C53.6643 81.055 53.9399 82.3782 54.2603 82.7509C54.3959 82.8035 54.5505 82.7383 54.6777 82.6845C55.2514 82.442 55.8122 81.9854 56.3398 81.6487C57.133 81.1425 57.9559 80.6867 58.7168 80.1305C59.2598 81.2185 59.7619 82.3271 60.2963 83.4195C60.5168 83.8703 60.7219 84.3726 60.9981 84.7909C61.0973 84.941 61.2007 85.0794 61.3662 85.1583C61.4835 85.1379 61.5532 85.1265 61.6323 85.0301C61.7415 84.897 61.8065 84.6947 61.8583 84.5324C62.0297 83.9964 62.1439 83.4398 62.3035 82.8995C62.9857 80.5894 63.6279 78.266 64.3308 75.9623C65.0158 73.7171 65.775 71.4918 66.4862 69.2544C69.3282 60.4866 72.1125 51.7002 74.8391 42.8958C75.3651 41.115 75.8755 39.3298 76.3701 37.5401C76.5841 36.7423 76.7487 35.9178 76.9864 35.1282C77.0259 34.997 77.0682 34.8591 77.1599 34.755C77.241 34.751 77.3218 34.7465 77.4031 34.7448C77.5287 34.7421 77.5901 34.7383 77.696 34.6598C77.7757 34.5309 77.7773 34.4445 77.7783 34.299C77.6618 34.0812 77.5058 34.0545 77.2797 33.9842C77.9966 31.1938 78.6512 28.3302 78.9948 25.4674C79.1367 24.2624 79.2467 23.0538 79.3247 21.843C79.358 21.3154 79.3516 20.7818 79.3954 20.256C79.7199 20.3123 80.3441 20.5496 80.6296 20.3676C80.6818 20.3344 80.6885 20.3228 80.7265 20.2821C80.7422 20.1553 80.7376 20.0983 80.6589 19.9924C80.5077 19.7893 80.1886 19.6783 79.9507 19.6306C79.4101 19.5226 78.8465 19.4707 78.3009 19.3815C76.6738 19.1122 75.0448 18.8545 73.4141 18.6085L61.0386 16.7087C57.5734 16.1609 54.1024 15.6498 50.6263 15.1758C49.6721 15.0388 48.7161 14.9092 47.7636 14.761C47.2889 14.6872 46.833 14.5665 46.3521 14.5305C45.1166 14.4382 43.8819 14.2103 42.6528 14.049L35.6716 13.1683L33.6154 12.912C33.2008 12.8599 32.7507 12.7709 32.3328 12.7904Z" fill="#FEFEFE"/>
<path d="M31.3775 19.2117C31.5627 17.9228 31.7384 16.6327 31.9045 15.3412C32.0001 14.5963 32.0428 13.7871 32.2096 13.0596C32.2333 12.9561 32.2767 12.8791 32.3328 12.7903C32.7507 12.7708 33.2008 12.8599 33.6154 12.9119L35.6716 13.1682L42.6528 14.0489C43.8818 14.2103 45.1165 14.4382 46.3521 14.5305C46.833 14.5664 47.2889 14.6872 47.7636 14.761C48.7161 14.9092 49.6721 15.0387 50.6263 15.1758C54.1024 15.6498 57.5734 16.1608 61.0386 16.7087L73.414 18.6085C75.0448 18.8545 76.6738 19.1122 78.3008 19.3815C78.8465 19.4707 79.4101 19.5226 79.9507 19.6306C80.1886 19.6782 80.5076 19.7892 80.6589 19.9924C80.7376 20.0982 80.7422 20.1552 80.7264 20.2821C80.6885 20.3228 80.6817 20.3344 80.6296 20.3676C80.344 20.5496 79.7198 20.3123 79.3954 20.256C79.3516 20.7818 79.358 21.3154 79.3247 21.843C79.2467 23.0538 79.1367 24.2623 78.9948 25.4674C78.6512 28.3302 77.9965 31.1937 77.2796 33.9842C77.5058 34.0544 77.6618 34.0812 77.7783 34.299C77.7773 34.4445 77.7757 34.5309 77.696 34.6598C77.59 34.7382 77.5287 34.7421 77.4031 34.7448C77.3218 34.7465 77.241 34.751 77.1599 34.7549C77.0681 34.8591 77.0258 34.997 76.9864 35.1282C76.7487 35.9178 76.5841 36.7423 76.3701 37.5401C75.8754 39.3298 75.3651 41.115 74.839 42.8958C72.1125 51.7002 69.3281 60.4866 66.4862 69.2544C65.775 71.4918 65.0158 73.7171 64.3308 75.9623C63.6278 78.266 62.9857 80.5894 62.3034 82.8995C62.1439 83.4398 62.0297 83.9964 61.8583 84.5323C61.8065 84.6947 61.7415 84.897 61.6323 85.0301C61.5532 85.1265 61.4835 85.1379 61.3661 85.1583C61.2007 85.0794 61.0972 84.941 60.9981 84.7909C60.7219 84.3726 60.5167 83.8703 60.2962 83.4195C59.7619 82.3271 59.2598 81.2185 58.7167 80.1305C57.9559 80.6867 57.1329 81.1425 56.3398 81.6487C55.8122 81.9854 55.2514 82.442 54.6777 82.6845C54.5505 82.7383 54.3959 82.8035 54.2602 82.7509C53.9399 82.3782 53.6643 81.055 53.5099 80.5334C53.2833 79.7621 53.0775 78.9746 52.796 78.2215C51.9867 79.2339 51.1273 80.2079 50.2836 81.1918C49.8672 81.6775 49.4227 82.3226 48.9152 82.7117C48.7973 82.8021 48.6889 82.8787 48.5349 82.8599C48.0483 82.429 46.266 78.5657 45.7441 77.6773C43.8455 78.1645 42.0085 78.9056 40.1318 79.4643C39.7695 79.1177 39.4841 78.6058 39.2002 78.1927C38.5896 77.3039 37.995 76.3888 37.3158 75.5505C36.5558 76.2115 35.583 77.348 34.8577 78.1088C34.6134 78.3652 34.3618 78.6962 34.0716 78.896C33.9426 78.985 33.8291 78.9607 33.6862 78.9364C33.5641 78.8428 33.483 78.7156 33.4036 78.5859C32.9196 77.794 32.4945 76.9558 32.0394 76.1458C31.6053 75.3855 31.1521 74.6363 30.6802 73.8988C29.4026 74.7364 28.1903 75.77 26.9852 76.7144C26.5448 77.0595 26.112 77.4553 25.6402 77.7535C25.4767 77.8568 25.3136 77.9443 25.1181 77.9526C24.7914 77.6943 23.141 74.5302 22.7347 73.8996C21.9531 74.2428 18.0359 76.4279 17.6314 76.4577C17.506 76.4668 17.4706 76.415 17.3807 76.3403C17.0885 75.7125 18.384 70.3938 18.616 69.543C18.8954 68.514 19.2117 67.4954 19.5642 66.4891C19.3558 66.4541 19.0913 66.4341 18.9007 66.3433C18.7415 66.2675 18.6191 66.1501 18.5577 65.9845C18.5906 65.8708 18.6129 65.822 18.7256 65.77C19.0552 65.6179 19.4457 65.7836 19.7684 65.8761C20.4313 64.0816 20.9976 62.2489 21.5894 60.4301C23.5645 54.3396 25.3164 48.1789 26.8416 41.9605C26.7504 41.818 26.6938 41.7505 26.6933 41.5758C26.7608 41.4252 26.8626 41.3728 26.9964 41.2891C27.5286 39.3328 27.934 37.3246 28.378 35.3464C28.1585 35.2447 27.9167 35.1385 27.7466 34.9611C27.6013 34.8097 27.5101 34.6184 27.5273 34.4057C27.5831 33.7169 28.5191 33.2096 28.995 32.8012C29.3128 31.2627 29.7211 29.6523 29.8839 28.0916C29.6376 28.0757 29.3097 28.0826 29.096 27.9507C28.9679 27.8717 28.8906 27.7911 28.8512 27.6432C28.8879 27.5262 28.9124 27.4722 29.0232 27.4094C29.3256 27.2379 29.6911 27.3725 30.0022 27.4471C30.4446 24.986 30.8624 22.5205 31.2555 20.051C31.1903 19.9095 30.9636 19.8621 30.8181 19.8053C30.7704 19.7481 30.7224 19.7156 30.7146 19.6383C30.7041 19.5332 30.7321 19.4132 30.8064 19.3343C30.9428 19.1897 31.1976 19.2155 31.3775 19.2117ZM32.8709 13.52C32.696 14.6574 32.5601 15.8016 32.4051 16.9421C32.2969 17.7373 32.1593 18.5336 32.0757 19.3316C33.6495 19.4202 35.2307 19.692 36.7967 19.8759C37.0907 17.9634 37.3589 16.047 37.6013 14.1273C36.8181 13.9432 35.9812 13.8904 35.1821 13.7952C34.4165 13.7039 33.6389 13.5761 32.8709 13.52ZM38.3128 14.1843C38.1532 15.0282 38.0821 15.8963 37.9689 16.7478C37.8266 17.8186 37.6485 18.8893 37.5321 19.9628C39.1795 20.2119 40.835 20.3992 42.4847 20.6306C43.4519 20.7663 44.4371 20.9862 45.409 21.0524L45.9544 17.0512C46.0341 16.4565 46.1654 15.8433 46.1896 15.2449C43.5806 14.8092 40.9369 14.5164 38.3128 14.1843ZM46.8961 15.3415C46.5633 17.2453 46.3792 19.1933 46.0908 21.1076C48.5519 21.5703 51.0629 21.7796 53.5252 22.2263C53.7061 20.978 53.8806 19.7289 54.0491 18.4789C54.1413 17.7966 54.2612 17.0976 54.2943 16.4098L49.6805 15.7288C48.7593 15.5943 47.8229 15.4218 46.8961 15.3415ZM55.0078 16.5183C54.7255 18.4405 54.5938 20.417 54.2144 22.3202C54.8616 22.4157 61.5037 23.4035 61.5718 23.3829C61.6019 23.3738 61.6261 23.3507 61.6515 23.3322C61.656 23.329 61.6576 23.3229 61.6606 23.3183C61.9993 21.432 62.2222 19.528 62.5411 17.639L57.6309 16.8887C56.7632 16.7596 55.8811 16.5921 55.0078 16.5183ZM63.2248 17.7419C62.9411 19.6497 62.6256 21.5602 62.3591 23.4694C64.0669 23.8291 65.8479 24.0036 67.5774 24.2567C68.1431 24.3395 69.5474 24.6399 70.0474 24.5892L70.9842 18.9554C69.5073 18.6792 68.017 18.4656 66.5322 18.2355C65.434 18.0654 64.3293 17.8624 63.2248 17.7419ZM71.6599 19.0551C71.356 20.9403 71.0805 22.8413 70.7097 24.7142C73.0992 25.0651 75.5078 25.3721 77.8836 25.8062C78.0068 25.8252 78.1026 25.8726 78.2085 25.8001C78.3404 25.2477 78.3742 24.6493 78.4318 24.0846C78.5655 22.776 78.6711 21.4527 78.6719 20.1366C76.3373 19.7583 74 19.3978 71.6599 19.0551ZM31.9887 20.0071C31.766 21.0448 31.6337 22.1161 31.4625 23.1645L30.7175 27.5652C31.3496 27.6348 33.1505 27.7227 33.5214 28.1757C33.5436 28.2918 33.5562 28.3491 33.4791 28.4541C33.3911 28.5737 33.2856 28.6053 33.1429 28.6007C32.3484 28.5752 31.4319 28.3257 30.6356 28.1912C30.308 29.4576 30.1174 30.7738 29.8384 32.0543C29.8505 32.048 29.8626 32.0421 29.8745 32.0356C30.298 31.8071 30.7001 31.4168 31.0671 31.1069L33.3246 29.1894C33.7191 28.8534 34.1142 28.4593 34.5534 28.1849C34.7206 28.0805 34.9864 27.9262 35.1895 27.9769C35.4443 28.0405 35.6731 28.2687 35.8456 28.4588C36.4913 29.1696 37.0402 30.0355 37.6087 30.8111C38.5306 32.0686 39.4761 33.313 40.3761 34.5858C41.5107 32.0756 42.4945 29.496 43.5962 26.9698C43.9363 26.1899 44.221 25.2472 44.6903 24.5435C44.8072 24.3683 44.967 24.2692 45.1614 24.1956C45.4453 24.0882 45.7863 24.0627 46.0633 24.2046C46.2399 24.2952 46.3694 24.4718 46.4827 24.6302C47.5198 26.0816 48.4607 27.933 49.362 29.4952L54.8257 39.1138C55.4351 40.2084 55.9843 41.3839 56.666 42.432C57.0682 41.849 57.4388 41.2444 57.8362 40.6576C59.6749 37.8944 61.5473 35.1538 63.4531 32.4365C64.0031 31.6538 64.8998 30.1404 65.5159 29.5392C65.6878 29.3715 65.9518 29.3209 66.1794 29.2718C66.5019 29.3511 66.8474 29.4467 67.0307 29.7529C67.1371 29.9307 67.1663 30.199 67.1014 30.395C66.9097 30.9747 65.2013 33.21 64.7467 33.8419C64.0408 34.8255 63.3457 35.8167 62.6615 36.8155C61.3783 38.7198 60.1062 40.6316 58.8455 42.5507C58.3913 43.2329 57.9598 43.9431 57.4852 44.6102C57.3368 44.8187 57.1193 45.0801 56.8822 45.187C56.7029 45.2677 56.435 45.2191 56.2624 45.1405C56.0729 45.0541 55.9531 44.9153 55.8371 44.7468C55.5037 44.263 55.2263 43.7189 54.935 43.2084C54.2265 41.9472 53.5314 40.6787 52.8498 39.4029C51.1678 36.3024 49.466 33.1937 47.6808 30.1524L46.4242 28.0106C46.1707 27.5764 45.9286 27.0931 45.6172 26.6985L42.9026 33.2254L42.0517 35.2889C41.8777 35.7116 41.7186 36.1692 41.4915 36.566C41.3747 36.77 41.2544 36.9069 41.0339 37.0033C40.7372 37.1329 40.401 37.1101 40.1067 36.9865C39.957 36.9236 39.8808 36.8563 39.7737 36.7367C39.2271 36.1266 38.7584 35.3672 38.2714 34.7038L34.9873 30.215C33.0481 31.775 31.1724 33.4486 29.1861 34.9446C29.1463 35.1873 29.1027 35.4294 29.0555 35.6707C30.8918 36.186 32.745 36.6398 34.6117 37.0313C34.7054 36.514 34.9814 34.2122 35.3947 33.9911C35.5002 33.9346 35.5603 33.959 35.6674 33.9855C35.7723 34.1031 35.8069 34.1609 35.8 34.3213C35.7625 35.1945 35.3956 36.2349 35.2733 37.1368C37.3777 37.5627 39.5171 38.0256 41.644 38.3163C41.691 37.9153 41.775 36.4378 42.0482 36.1954C42.1394 36.1144 42.2092 36.088 42.3285 36.0835C42.4506 36.1714 42.4953 36.259 42.5215 36.4083C42.6268 37.0079 42.4252 37.8215 42.32 38.4217C44.7178 38.8457 47.1285 39.2267 49.5182 39.6929C49.5984 39.3649 49.7552 38.118 49.9601 37.9244C50.0811 37.8775 50.1505 37.8637 50.28 37.875C50.3872 37.9506 50.4337 37.9935 50.4641 38.1257C50.5756 38.6093 50.282 39.3027 50.2237 39.8021L52.2768 40.1699C52.5085 40.2174 52.7742 40.2288 52.9178 40.4383C52.9675 40.5107 52.9884 40.5622 52.9896 40.6514C52.8982 40.7758 52.8127 40.8206 52.6591 40.8456C52.0439 40.9456 50.7486 40.6072 50.0782 40.4818C49.9639 41.0773 49.4595 44.2522 49.1562 44.4969C49.0626 44.5724 48.9588 44.5782 48.8479 44.5464C48.7593 44.5211 48.7397 44.4828 48.6784 44.4194C48.5705 44.036 49.2701 41.009 49.3936 40.3732L44.5207 39.5088C43.7635 39.3733 42.9926 39.2664 42.2404 39.1075C42.1556 39.7705 41.8656 43.1543 41.6244 43.4636C41.5285 43.5268 41.4393 43.5537 41.3225 43.5257C41.2091 43.4986 41.1531 43.4368 41.1083 43.334C40.986 43.0522 41.5058 39.5427 41.5718 39.0148C40.2933 38.7914 39.0167 38.5567 37.7422 38.3107C36.8741 38.1442 36.004 37.9513 35.1284 37.83C34.7398 39.543 34.367 41.278 34.0315 43.0018C38.6091 43.9888 43.2479 44.6538 47.8728 45.3713C50.2539 45.7573 52.633 46.1559 55.01 46.5671C60.66 47.558 66.2635 48.7978 71.8043 50.2831C72.3609 48.3568 73.0807 46.4731 73.5999 44.5372C71.382 44.1822 69.1419 43.9693 66.9249 43.614C66.7147 44.6099 66.2809 47.0031 65.9298 47.837C65.8571 48.0095 65.7761 48.1396 65.625 48.2505C65.4892 48.2694 65.4853 48.2562 65.3663 48.1841C65.2112 47.9516 65.2729 47.6853 65.3265 47.4272C65.5959 46.1301 65.9615 44.8505 66.2427 43.5553C65.0792 43.3773 63.8924 43.2783 62.7207 43.1648C62.2522 43.1194 61.7625 43.1058 61.3005 43.0248C61.1694 43.0019 61.071 42.9855 60.9657 42.8979C60.9057 42.7874 60.8828 42.7052 60.9105 42.578C60.9379 42.4518 60.9936 42.3895 61.094 42.3161C61.6876 42.2084 65.5991 42.7414 66.3962 42.8458C66.9779 40.6084 67.4468 38.3155 67.8965 36.0477C68.0821 35.1113 68.3077 34.181 68.469 33.2401C68.1143 33.1707 67.6353 33.1478 67.3873 32.8509C67.3208 32.7712 67.328 32.7376 67.3419 32.6444C67.5057 32.4938 67.7534 32.4446 67.9722 32.4578C68.1773 32.4702 68.3886 32.5236 68.5879 32.5725L69.9365 25.3258C68.5776 25.0949 67.2155 24.8831 65.8506 24.6903C64.6605 24.5215 63.4604 24.3785 62.2778 24.1649C61.9833 25.391 61.8542 26.6697 61.647 27.9142C61.4525 29.0824 61.1759 30.2621 61.0393 31.4359C61.3646 31.4472 61.7488 31.4316 61.995 31.6868C62.0659 31.7602 62.0635 31.7837 62.0658 31.8789C61.9573 32.0297 61.7787 32.1075 61.596 32.1308C61.3812 32.1582 61.1223 32.1 60.9035 32.0832C60.8298 32.4648 60.6712 33.9593 60.3963 34.1395C60.3262 34.1855 60.2548 34.1739 60.174 34.1787C60.0624 34.1198 60.0067 34.0878 59.9626 33.964C59.8088 33.5321 60.1469 32.5046 60.2161 32.0225C57.7781 31.7188 55.2939 31.3954 52.8952 30.8605C52.8238 31.218 52.7534 32.3102 52.4692 32.4983C52.3868 32.5528 52.3056 32.5653 52.2111 32.5824C52.1062 32.5484 52.0594 32.5394 52.0119 32.4268C51.8035 31.9325 52.2116 31.2761 52.1991 30.7858C52.1944 30.6022 51.8975 30.6554 52.0179 30.2619C52.1046 30.1845 52.1822 30.1368 52.2863 30.0856C52.4868 29.6043 52.5698 28.5906 52.6575 28.0457C52.9294 26.3566 53.2484 24.6373 53.4231 22.9367C50.9482 22.5443 48.4649 22.2188 45.9876 21.8448C45.897 22.3809 45.8666 23.5708 45.4763 23.9374C45.3598 23.9535 45.3157 23.9472 45.2115 23.8925C45.0043 23.6217 45.0705 23.2692 45.1125 22.9527L45.2847 21.7241C42.6657 21.3735 40.0508 20.9294 37.4245 20.6426L36.7346 25.2146C36.6336 25.8489 36.5802 26.5572 36.4037 27.1707C36.3613 27.3179 36.3021 27.4717 36.1769 27.5675C36.1184 27.6123 36.0706 27.6051 36.0006 27.6127C35.8769 27.564 35.8174 27.5255 35.7287 27.4264C35.5803 27.0042 36.6401 21.7067 36.7215 20.5828C35.1676 20.2985 33.5598 20.1747 31.9887 20.0071ZM54.1169 23.0155C53.7705 25.41 53.4109 27.8027 53.0381 30.1934C54.0209 30.3954 59.6167 31.3971 60.302 31.2943L60.3487 31.2419C60.7346 28.8536 61.1428 26.4688 61.5733 24.0881C59.0904 23.713 56.6049 23.3554 54.1169 23.0155ZM70.5805 25.4337C70.3645 26.998 70.075 28.5539 69.7941 30.1077C69.6421 30.9478 69.5318 31.8307 69.305 32.6519C70.9998 33.0082 72.7286 33.2565 74.4354 33.5537C74.8046 33.6179 76.2052 33.927 76.4844 33.893C76.5178 33.889 76.546 33.8661 76.5768 33.8527L76.6324 33.6827C77.2027 31.3203 77.7638 28.9484 78.145 26.5467C76.9502 26.2902 75.7172 26.1417 74.5075 25.9718C73.2001 25.788 71.892 25.5846 70.5805 25.4337ZM69.1739 33.343C68.5192 36.5335 67.9253 39.7619 67.0876 42.9099C69.3153 43.2808 71.5719 43.5283 73.8071 43.8613L73.9268 43.4961C74.5411 41.4534 75.125 39.4017 75.6785 37.3416C75.9217 36.4333 76.1946 35.5192 76.3971 34.6014L71.9385 33.8184C71.027 33.6558 70.0931 33.4469 69.1739 33.343ZM28.8966 36.3216L27.7104 41.4231C29.5681 41.9475 31.4382 42.4269 33.319 42.8607C33.5551 42.4787 34.2921 38.467 34.4585 37.6758C32.5925 37.2706 30.7187 36.9004 28.8966 36.3216ZM27.5526 42.0924C25.5433 50.1668 23.1748 58.1474 20.4541 66.0107C34.9217 69.0704 49.423 71.9686 63.9554 74.7046L64.1013 74.2526C65.6575 69.5368 67.1777 64.809 68.6615 60.0699C69.6561 57.0488 70.6198 54.0177 71.5527 50.9771C63.7551 48.8002 55.7737 47.3682 47.7885 46.0833C42.1996 45.184 36.6116 44.3865 31.1092 43.0305C29.9196 42.7374 28.725 42.4491 27.5526 42.0924ZM20.2419 66.6425C19.998 67.5044 19.7011 68.3505 19.4532 69.2115C19.0574 70.6117 18.7216 72.0281 18.4467 73.4568C18.3227 74.0996 18.1735 74.7607 18.121 75.414C19.0699 74.9905 19.9975 74.5085 20.9243 74.0389C21.5404 73.7267 22.2982 73.2055 22.9678 73.0858C23.3607 73.3218 24.9824 76.4143 25.3679 77.0407C26.4116 76.2635 27.4445 75.4719 28.4661 74.6659C29.1125 74.1641 29.778 73.6055 30.4726 73.1742C30.6096 73.0891 30.7735 72.9849 30.9403 72.9964C31.4512 73.4107 33.3551 77.1196 33.9047 78.0117L33.9464 77.9758C34.6797 77.3338 35.3773 76.5655 36.0441 75.8518C36.3422 75.5329 36.6321 75.1498 36.9677 74.8723C37.0758 74.783 37.2061 74.6992 37.3512 74.6964C37.5594 74.6923 37.7286 74.8591 37.8498 75.0088C38.1536 75.3838 38.4108 75.8101 38.6876 76.2059L40.3997 78.6443C41.6719 78.206 42.9503 77.7864 44.2349 77.3857C44.8484 77.1897 45.4881 76.9178 46.125 76.8197C46.4837 77.3469 46.7376 77.9818 47.0244 78.5537L48.7106 81.8975C49.6961 80.8611 50.5949 79.7267 51.5315 78.6448C51.864 78.2607 52.1936 77.8219 52.5652 77.4763C52.6878 77.3624 52.8539 77.2143 53.027 77.1925C53.0957 77.1838 53.1461 77.2288 53.194 77.2734C53.39 77.4559 53.4811 77.9748 53.5565 78.2364C53.9275 79.4467 54.2573 80.6851 54.6684 81.8814C55.3247 81.4733 58.6295 79.2224 59.0126 79.2821C59.4206 79.7435 59.6622 80.4543 59.9276 81.0093C60.3794 81.9542 60.8185 82.9293 61.3135 83.8507C62.0738 81.039 62.9634 78.2626 63.7085 75.4456L28.0768 68.3065C25.4665 67.7566 22.8422 67.2359 20.2419 66.6425Z" fill="#2A2A2A"/>
<path d="M32.0757 19.3316C32.1593 18.5336 32.2969 17.7374 32.4051 16.9421C32.5601 15.8016 32.696 14.6574 32.8709 13.52C33.6389 13.5761 34.4165 13.704 35.1821 13.7952C35.9812 13.8904 36.8182 13.9432 37.6013 14.1273C37.3589 16.0471 37.0907 17.9634 36.7967 19.8759C35.2307 19.6921 33.6495 19.4203 32.0757 19.3316Z" fill="#FEFEFE"/>
<path d="M37.5321 19.9628C37.6485 18.8894 37.8266 17.8186 37.9689 16.7478C38.0821 15.8963 38.1531 15.0283 38.3128 14.1843C40.9369 14.5164 43.5806 14.8093 46.1896 15.2449C46.1654 15.8433 46.0341 16.4565 45.9544 17.0512L45.409 21.0525C44.4371 20.9863 43.4519 20.7663 42.4847 20.6306C40.835 20.3992 39.1795 20.2119 37.5321 19.9628Z" fill="#FEFEFE"/>
<path d="M46.0908 21.1076C46.3791 19.1934 46.5633 17.2454 46.8961 15.3416C47.8229 15.4219 48.7593 15.5944 49.6804 15.7289L54.2943 16.4099C54.2612 17.0977 54.1413 17.7967 54.0491 18.479C53.8806 19.729 53.7061 20.9781 53.5251 22.2264C51.0629 21.7796 48.5519 21.5704 46.0908 21.1076Z" fill="#FEFEFE"/>
<path d="M54.2144 22.3202C54.5938 20.417 54.7255 18.4405 55.0078 16.5183C55.8811 16.5921 56.7632 16.7596 57.6309 16.8887L62.5411 17.639C62.2223 19.528 61.9993 21.432 61.6606 23.3183C61.6576 23.3229 61.656 23.329 61.6515 23.3322C61.6261 23.3507 61.6019 23.3738 61.5718 23.3829C61.5037 23.4035 54.8616 22.4157 54.2144 22.3202Z" fill="#FEFEFE"/>
<path d="M62.3591 23.4694C62.6256 21.5602 62.9411 19.6498 63.2248 17.7419C64.3293 17.8624 65.434 18.0654 66.5322 18.2355C68.017 18.4656 69.5073 18.6792 70.9842 18.9554L70.0474 24.5892C69.5474 24.6399 68.1431 24.3395 67.5774 24.2567C65.8479 24.0036 64.0669 23.8291 62.3591 23.4694Z" fill="#FEFEFE"/>
<path d="M70.7097 24.7143C71.0805 22.8414 71.3561 20.9404 71.6599 19.0552C74 19.3979 76.3374 19.7584 78.6719 20.1367C78.6711 21.4527 78.5655 22.7761 78.4318 24.0847C78.3742 24.6494 78.3404 25.2478 78.2085 25.8002C78.1026 25.8727 78.0069 25.8252 77.8836 25.8063C75.5079 25.3721 73.0992 25.0652 70.7097 24.7143Z" fill="#FEFEFE"/>
<path d="M30.7175 27.5652L31.4625 23.1646C31.6337 22.1162 31.766 21.0449 31.9887 20.0072C33.5598 20.1748 35.1676 20.2986 36.7215 20.5829C36.6401 21.7068 35.5803 27.0043 35.7287 27.4265C35.8174 27.5256 35.8769 27.5641 36.0005 27.6128C36.0706 27.6052 36.1184 27.6124 36.1769 27.5676C36.302 27.4718 36.3613 27.318 36.4037 27.1707C36.5802 26.5572 36.6335 25.8489 36.7346 25.2146L37.4245 20.6426C40.0508 20.9295 42.6657 21.3736 45.2847 21.7241L45.1125 22.9528C45.0705 23.2693 45.0043 23.6217 45.2115 23.8926C45.3157 23.9472 45.3598 23.9536 45.4763 23.9375C45.8666 23.5709 45.897 22.381 45.9875 21.8449C48.4649 22.2189 50.9481 22.5444 53.423 22.9368C53.2484 24.6374 52.9294 26.3567 52.6575 28.0458C52.5698 28.5907 52.4868 29.6044 52.2863 30.0857C52.1822 30.1369 52.1046 30.1846 52.0179 30.2619C51.8975 30.6555 52.1944 30.6023 52.199 30.7859C52.2116 31.2761 51.8035 31.9326 52.0119 32.4269C52.0594 32.5395 52.1061 32.5485 52.2111 32.5824C52.3055 32.5654 52.3868 32.5529 52.4691 32.4984C52.7534 32.3103 52.8238 31.2181 52.8951 30.8605C55.2939 31.3955 57.7781 31.7189 60.2161 32.0226C60.1469 32.5046 59.8087 33.5321 59.9626 33.964C60.0066 34.0879 60.0624 34.1199 60.174 34.1787C60.2548 34.1739 60.3261 34.1856 60.3963 34.1395C60.6712 33.9594 60.8298 32.4649 60.9035 32.0833C61.1223 32.1001 61.3812 32.1582 61.596 32.1309C61.7787 32.1076 61.9573 32.0298 62.0658 31.8789C62.0635 31.7838 62.0659 31.7603 61.995 31.6869C61.7488 31.4317 61.3646 31.4473 61.0393 31.436C61.1759 30.2621 61.4525 29.0825 61.647 27.9143C61.8542 26.6697 61.9833 25.3911 62.2778 24.165C63.4604 24.3786 64.6605 24.5215 65.8505 24.6904C67.2155 24.8831 68.5775 25.095 69.9365 25.3259L68.5879 32.5726C68.3885 32.5237 68.1773 32.4702 67.9722 32.4579C67.7534 32.4446 67.5057 32.4939 67.3419 32.6445C67.328 32.7377 67.3208 32.7713 67.3873 32.8509C67.6353 33.1479 68.1142 33.1708 68.469 33.2402C68.3076 34.1811 68.0821 35.1114 67.8965 36.0477C67.4467 38.3155 66.9779 40.6085 66.3962 42.8458C65.5991 42.7415 61.6876 42.2085 61.094 42.3161C60.9935 42.3895 60.9379 42.4519 60.9105 42.5781C60.8828 42.7053 60.9057 42.7875 60.9657 42.8979C61.071 42.9856 61.1694 43.002 61.3005 43.0249C61.7625 43.1059 62.2522 43.1195 62.7207 43.1649C63.8924 43.2784 65.0792 43.3774 66.2427 43.5553C65.9615 44.8506 65.5959 46.1302 65.3265 47.4273C65.2729 47.6854 65.2112 47.9516 65.3662 48.1841C65.4853 48.2562 65.4891 48.2694 65.625 48.2506C65.7761 48.1397 65.8571 48.0096 65.9298 47.8371C66.2809 47.0032 66.7146 44.61 66.9249 43.6141C69.1419 43.9693 71.382 44.1822 73.5999 44.5373C73.0806 46.4732 72.3609 48.3568 71.8042 50.2832C66.2635 48.7979 60.66 47.5581 55.01 46.5671C52.633 46.1559 50.2539 45.7574 47.8728 45.3713C43.2479 44.6539 38.609 43.9889 34.0315 43.0018C34.367 41.278 34.7398 39.5431 35.1284 37.8301C36.004 37.9514 36.8741 38.1443 37.7422 38.3108C39.0167 38.5568 40.2933 38.7915 41.5718 39.0149C41.5058 39.5427 40.986 43.0523 41.1083 43.3341C41.153 43.4369 41.2091 43.4987 41.3225 43.5258C41.4393 43.5537 41.5285 43.5268 41.6244 43.4636C41.8656 43.1544 42.1556 39.7705 42.2404 39.1075C42.9926 39.2664 43.7635 39.3733 44.5207 39.5089L49.3936 40.3733C49.2701 41.0091 48.5705 44.0361 48.6784 44.4195C48.7397 44.4829 48.7593 44.5211 48.8479 44.5464C48.9588 44.5782 49.0625 44.5725 49.1562 44.4969C49.4595 44.2523 49.9639 41.0774 50.0781 40.4818C50.7485 40.6073 52.0439 40.9457 52.6591 40.8457C52.8127 40.8206 52.8982 40.7759 52.9895 40.6515C52.9884 40.5623 52.9675 40.5108 52.9178 40.4384C52.7742 40.2289 52.5085 40.2174 52.2768 40.17L50.2236 39.8021C50.282 39.3028 50.5756 38.6094 50.4641 38.1258C50.4336 37.9936 50.3872 37.9507 50.28 37.8751C50.1505 37.8638 50.081 37.8775 49.9601 37.9245C49.7552 38.1181 49.5984 39.365 49.5182 39.693C47.1285 39.2268 44.7178 38.8458 42.32 38.4218C42.4252 37.8216 42.6268 37.008 42.5215 36.4084C42.4953 36.259 42.4505 36.1715 42.3285 36.0835C42.2091 36.088 42.1394 36.1145 42.0482 36.1955C41.775 36.4379 41.691 37.9154 41.644 38.3164C39.5171 38.0257 37.3777 37.5628 35.2733 37.1368C35.3956 36.2349 35.7625 35.1946 35.8 34.3214C35.8069 34.161 35.7723 34.1032 35.6674 33.9856C35.5603 33.9591 35.5002 33.9347 35.3947 33.9911C34.9814 34.2123 34.7054 36.514 34.6117 37.0314C32.745 36.6399 30.8918 36.1861 29.0555 35.6708C29.1027 35.4294 29.1463 35.1874 29.186 34.9447C31.1724 33.4487 33.0481 31.7751 34.9873 30.2151L38.2714 34.7038C38.7584 35.3673 39.2271 36.1267 39.7737 36.7368C39.8808 36.8563 39.957 36.9236 40.1067 36.9865C40.401 37.1102 40.7372 37.133 41.0339 37.0033C41.2544 36.9069 41.3747 36.7701 41.4915 36.5661C41.7186 36.1692 41.8777 35.7116 42.0517 35.289L42.9026 33.2255L45.6171 26.6986C45.9286 27.0932 46.1706 27.5765 46.4241 28.0106L47.6808 30.1524C49.466 33.1938 51.1678 36.3024 52.8498 39.4029C53.5314 40.6788 54.2265 41.9473 54.935 43.2084C55.2263 43.719 55.5037 44.263 55.8371 44.7469C55.9531 44.9153 56.0729 45.0542 56.2624 45.1405C56.435 45.2192 56.7029 45.2678 56.8821 45.187C57.1193 45.0802 57.3368 44.8188 57.4851 44.6103C57.9598 43.9432 58.3913 43.233 58.8455 42.5508C60.1062 40.6316 61.3783 38.7199 62.6615 36.8155C63.3457 35.8168 64.0408 34.8256 64.7467 33.842C65.2012 33.2101 66.9096 30.9748 67.1014 30.3951C67.1662 30.199 67.1371 29.9308 67.0307 29.753C66.8474 29.4468 66.5019 29.3512 66.1794 29.2719C65.9518 29.321 65.6878 29.3716 65.5159 29.5393C64.8998 30.1404 64.0031 31.6539 63.4531 32.4366C61.5473 35.1539 59.6749 37.8945 57.8361 40.6577C57.4388 41.2445 57.0681 41.8491 56.666 42.4321C55.9843 41.384 55.4351 40.2084 54.8256 39.1139L49.362 29.4953C48.4607 27.9331 47.5198 26.0816 46.4826 24.6303C46.3694 24.4719 46.2399 24.2952 46.0633 24.2047C45.7863 24.0627 45.4453 24.0883 45.1614 24.1957C44.967 24.2693 44.8072 24.3684 44.6903 24.5436C44.221 25.2473 43.9363 26.19 43.5962 26.9699C42.4945 29.4961 41.5107 32.0756 40.3761 34.5859C39.4761 33.313 38.5306 32.0687 37.6087 30.8111C37.0402 30.0355 36.4913 29.1697 35.8456 28.4589C35.6731 28.2688 35.4443 28.0405 35.1895 27.977C34.9864 27.9263 34.7206 28.0806 34.5534 28.185C34.1142 28.4594 33.719 28.8534 33.3245 29.1894L31.0671 31.107C30.7001 31.4169 30.298 31.8071 29.8745 32.0357C29.8625 32.0422 29.8505 32.0481 29.8384 32.0544C30.1174 30.7739 30.308 29.4577 30.6356 28.1913C31.4319 28.3258 32.3484 28.5753 33.1429 28.6008C33.2856 28.6054 33.3911 28.5738 33.479 28.4542C33.5562 28.3492 33.5435 28.2919 33.5214 28.1758C33.1505 27.7227 31.3496 27.6349 30.7175 27.5652Z" fill="#FEFEFE"/>
<path d="M53.0381 30.1935C53.4109 27.8028 53.7705 25.4101 54.1169 23.0155C56.605 23.3554 59.0905 23.713 61.5733 24.0881C61.1428 26.4689 60.7346 28.8536 60.3487 31.242L60.302 31.2944C59.6167 31.3971 54.0209 30.3954 53.0381 30.1935Z" fill="#FEFEFE"/>
<path d="M69.305 32.652C69.5318 31.8308 69.6421 30.9479 69.7941 30.1077C70.0751 28.554 70.3646 26.9981 70.5806 25.4338C71.892 25.5847 73.2001 25.7881 74.5076 25.9719C75.7172 26.1418 76.9502 26.2903 78.1451 26.5467C77.7638 28.9485 77.2027 31.3204 76.6324 33.6828L76.5768 33.8528C76.5461 33.8662 76.5178 33.8891 76.4845 33.8931C76.2052 33.9271 74.8047 33.618 74.4355 33.5538C72.7287 33.2566 70.9998 33.0083 69.305 32.652Z" fill="#FEFEFE"/>
<path d="M67.0876 42.9099C67.9252 39.762 68.5191 36.5335 69.1739 33.343C70.0931 33.447 71.027 33.6559 71.9385 33.8184L76.3971 34.6014C76.1946 35.5192 75.9216 36.4333 75.6785 37.3416C75.125 39.4017 74.5411 41.4534 73.9268 43.4961L73.8071 43.8614C71.5719 43.5283 69.3153 43.2809 67.0876 42.9099Z" fill="#FEFEFE"/>
<path d="M27.7104 41.4232L28.8967 36.3217C30.7187 36.9005 32.5925 37.2707 34.4585 37.6759C34.2922 38.467 33.5551 42.4788 33.319 42.8607C31.4382 42.4269 29.5681 41.9476 27.7104 41.4232Z" fill="#FEFEFE"/>
<path d="M20.4541 66.0108C23.1748 58.1475 25.5433 50.1668 27.5527 42.0924C28.725 42.4491 29.9196 42.7374 31.1093 43.0306C36.6116 44.3866 42.1996 45.184 47.7885 46.0833C55.7737 47.3682 63.7551 48.8002 71.5527 50.9771C70.6198 54.0178 69.6561 57.0488 68.6615 60.0699C67.1777 64.8091 65.6576 69.5368 64.1013 74.2526L63.9554 74.7047C49.423 71.9687 34.9217 69.0705 20.4541 66.0108ZM48.5865 49.4371C48.3427 49.7939 48.3205 50.3048 48.1971 50.7142C45.618 50.2959 42.7639 50.2617 40.5469 51.8659C39.6824 52.4915 38.8184 53.4561 38.6519 54.5488C38.533 55.3292 38.7572 56.0833 39.2213 56.7098C40.6785 58.6773 43.6229 58.9 45.835 59.3495C45.6839 59.9854 44.6449 63.8472 44.2849 64.0976C43.3871 64.3657 41.5116 63.1367 40.5762 62.8886C40.1484 63.2188 39.4184 63.9348 39.3213 64.4803C39.2992 64.6046 39.3136 64.6879 39.3925 64.789C39.6805 65.1583 41.7025 65.6664 42.2248 65.7844C42.7522 65.9035 43.3151 65.96 43.8283 66.1283C43.7769 66.32 43.5041 67.0646 43.6009 67.2069C43.7773 67.4664 45.3026 67.7918 45.6502 67.823C45.7958 67.8361 45.8672 67.7993 45.9735 67.7054L46.2972 66.7523C46.9532 66.8203 47.6 66.9469 48.2555 67.0144C50.469 67.2424 52.9684 67.1329 54.7745 65.6721C55.56 65.0367 56.1766 64.1597 56.2862 63.135C56.3808 62.2501 56.0718 61.3611 55.5069 60.6816C54.0904 58.9776 51.1122 58.3517 49.0232 57.9C49.197 57.1138 49.4679 56.3448 49.7173 55.5801C49.9827 54.7669 50.2366 53.9464 50.5194 53.1392C51.3645 53.3252 52.1691 53.6716 52.9698 53.9934C53.3625 54.1512 53.7648 54.34 54.1799 54.4291C54.3054 54.4561 54.3863 54.4625 54.5082 54.4116C54.7192 54.2269 55.1216 53.1472 55.1101 52.8657C55.1045 52.728 55.0578 52.6577 54.9545 52.5707C54.3863 52.0922 51.9178 51.4941 51.0957 51.2903C51.1825 50.9989 51.4781 50.4226 51.379 50.1416C51.0388 49.8412 49.0852 49.4238 48.5865 49.4371Z" fill="#FEFEFE"/>
<path d="M48.197 50.7142C48.3205 50.3048 48.3426 49.7939 48.5865 49.4371C49.0851 49.4239 51.0388 49.8412 51.3789 50.1416C51.4781 50.4226 51.1824 50.999 51.0957 51.2903C51.9178 51.4941 54.3862 52.0922 54.9544 52.5707C55.0578 52.6577 55.1044 52.728 55.1101 52.8657C55.1216 53.1472 54.7191 54.227 54.5082 54.4116C54.3862 54.4625 54.3053 54.4561 54.1799 54.4291C53.7647 54.34 53.3625 54.1512 52.9697 53.9934C52.169 53.6716 51.3645 53.3252 50.5193 53.1392C50.2366 53.9465 49.9827 54.767 49.7173 55.5801C49.4678 56.3449 49.197 57.1138 49.0232 57.9C51.1122 58.3517 54.0903 58.9776 55.5068 60.6816C56.0717 61.3611 56.3807 62.2501 56.2862 63.135C56.1766 64.1597 55.56 65.0367 54.7744 65.6721C52.9683 67.133 50.469 67.2425 48.2554 67.0145C47.5999 66.947 46.9532 66.8203 46.2972 66.7523L45.9735 67.7054C45.8672 67.7993 45.7957 67.8361 45.6501 67.823C45.3026 67.7918 43.7773 67.4664 43.6008 67.2069C43.5041 67.0646 43.7768 66.3201 43.8283 66.1283C43.3151 65.9601 42.7521 65.9035 42.2248 65.7844C41.7025 65.6664 39.6805 65.1583 39.3924 64.789C39.3136 64.688 39.2991 64.6046 39.3213 64.4803C39.4184 63.9349 40.1483 63.2188 40.5762 62.8886C41.5115 63.1367 43.3871 64.3657 44.2848 64.0976C44.6448 63.8472 45.6839 59.9854 45.8349 59.3495C43.6229 58.9 40.6785 58.6773 39.2212 56.7098C38.7572 56.0833 38.533 55.3292 38.6519 54.5488C38.8184 53.4561 39.6824 52.4915 40.5468 51.866C42.7638 50.2617 45.618 50.2959 48.197 50.7142ZM47.0384 52.6454C46.0801 52.7756 45.2086 53.2533 44.6223 54.0349C44.2644 54.5121 44.0335 55.1451 44.1282 55.7466C44.1921 56.1533 44.4295 56.518 44.7609 56.76C44.8911 56.855 45.0404 56.9281 45.1832 57.0019C45.5706 57.1461 45.9497 57.2585 46.3583 57.3247C46.6838 56.3526 46.9325 55.355 47.2072 54.3676C47.3621 53.8108 47.5795 53.2345 47.662 52.6653C47.455 52.6507 47.2456 52.6258 47.0384 52.6454ZM48.4571 59.8772C48.2416 60.3384 48.11 60.8577 47.9654 61.345C47.6531 62.3975 47.3844 63.4815 47.0224 64.5171C47.9612 64.738 48.9086 64.6739 49.816 64.361C50.558 63.9997 51.1488 63.4911 51.4149 62.6837C51.5572 62.2522 51.565 61.8005 51.3446 61.3932C50.9073 60.5851 49.7544 60.2192 48.9265 59.9933C48.7712 59.9499 48.6147 59.9112 48.4571 59.8772Z" fill="#2A2A2A"/>
<path d="M45.1833 57.0019C45.0404 56.9281 44.8912 56.855 44.761 56.76C44.4296 56.518 44.1922 56.1533 44.1282 55.7466C44.0336 55.1451 44.2645 54.5122 44.6224 54.0349C45.2086 53.2533 46.0801 52.7756 47.0384 52.6454C47.2456 52.6258 47.4551 52.6507 47.6621 52.6653C47.5796 53.2345 47.3621 53.8108 47.2073 54.3676C46.9326 55.355 46.6839 56.3527 46.3584 57.3247C45.9497 57.2585 45.5707 57.1462 45.1833 57.0019Z" fill="#FEFEFE"/>
<path d="M69.2805 92.0823C69.2356 92.0099 69.1914 91.9363 69.1548 91.8593C69.0012 91.5372 68.9122 91.1333 68.9728 90.777C69.0347 90.4132 69.4244 89.6077 69.5692 89.196C70.0012 87.9551 70.4055 86.7046 70.7815 85.4457C72.5223 79.6589 74.0006 73.8174 75.4477 67.9522C75.8883 66.1666 76.289 64.3693 76.7154 62.58C76.9618 61.5461 77.1723 60.4545 77.5527 59.462C77.6402 60.05 76.942 63.0872 76.7964 63.85C76.1291 67.4424 75.3983 71.0227 74.6044 74.5892C73.6878 79.1218 72.5968 83.6174 71.3339 88.0659C71.0286 89.109 70.5159 91.0915 69.9683 91.9785C69.8723 92.1341 69.7742 92.262 69.591 92.3088C69.443 92.2822 69.3765 92.1878 69.2805 92.0823Z" fill="#FEFEFE"/>
<path d="M47.0225 64.5171C47.3844 63.4815 47.6531 62.3976 47.9654 61.345C48.1101 60.8577 48.2416 60.3384 48.4571 59.8772C48.6147 59.9112 48.7713 59.9499 48.9265 59.9934C49.7544 60.2192 50.9073 60.5851 51.3446 61.3932C51.565 61.8005 51.5572 62.2523 51.4149 62.6837C51.1488 63.4912 50.5581 63.9998 49.816 64.361C48.9086 64.6739 47.9612 64.738 47.0225 64.5171Z" fill="#FEFEFE"/>
<path d="M18.121 75.414C18.1735 74.7606 18.3227 74.0995 18.4467 73.4568C18.7216 72.028 19.0574 70.6116 19.4532 69.2115C19.7011 68.3505 19.998 67.5044 20.2419 66.6425C22.8422 67.2359 25.4665 67.7566 28.0768 68.3064L63.7085 75.4456C62.9634 78.2626 62.0738 81.039 61.3135 83.8506C60.8185 82.9293 60.3794 81.9542 59.9276 81.0093C59.6622 80.4543 59.4206 79.7435 59.0126 79.282C58.6295 79.2224 55.3247 81.4732 54.6684 81.8813C54.2573 80.6851 53.9275 79.4466 53.5565 78.2363C53.4811 77.9748 53.39 77.4559 53.194 77.2733C53.1461 77.2287 53.0957 77.1837 53.027 77.1924C52.8539 77.2143 52.6878 77.3624 52.5653 77.4763C52.1936 77.8219 51.864 78.2606 51.5315 78.6447C50.5949 79.7267 49.6961 80.861 48.7106 81.8974L47.0244 78.5537C46.7377 77.9818 46.4837 77.3468 46.125 76.8197C45.4882 76.9177 44.8484 77.1896 44.2349 77.3856C42.9503 77.7863 41.6719 78.2059 40.3997 78.6442L38.6876 76.2059C38.4108 75.8101 38.1536 75.3837 37.8498 75.0088C37.7286 74.8591 37.5594 74.6923 37.3512 74.6963C37.2061 74.6991 37.0758 74.7829 36.9677 74.8723C36.6322 75.1498 36.3422 75.5329 36.0442 75.8518C35.3773 76.5654 34.6797 77.3337 33.9464 77.9757L33.9047 78.0116C33.3551 77.1196 31.4513 73.4106 30.9403 72.9964C30.7735 72.9848 30.6096 73.0891 30.4726 73.1741C29.778 73.6055 29.1125 74.164 28.4661 74.6659C27.4445 75.4718 26.4116 76.2635 25.3679 77.0406C24.9824 76.4143 23.3607 73.3218 22.9678 73.0858C22.2983 73.2054 21.5404 73.7267 20.9243 74.0389C19.9975 74.5085 19.0699 74.9904 18.121 75.414Z" fill="#FEFEFE"/>
</g>
<defs>
<clipPath id="clip0_0_125">
<rect width="96" height="96" fill="white" transform="translate(0 0.740234)"/>
</clipPath>
</defs>
</svg>
