<svg width="96" height="97" viewBox="0 0 96 97" fill="none" xmlns="http://www.w3.org/2000/svg">
<g clip-path="url(#clip0_0_560)">
<path d="M0 0.740234H96V96.7402H0V0.740234ZM70.0643 6.89196C69.8605 6.93161 69.6916 6.95547 69.5674 7.13979C69.2633 7.59091 69.1862 9.33345 69.069 9.98627C68.3716 9.98201 67.407 9.97594 66.7455 10.1689C66.5648 9.46019 66.193 7.74939 65.7371 7.25109C65.253 6.99635 63.8665 7.42718 63.343 7.59072C62.9842 7.70281 62.4939 7.84824 62.2934 8.18727C62.1921 8.82465 62.637 10.499 62.8041 11.1818C61.995 11.497 61.2525 11.8555 60.546 12.3676L60.5123 12.3264C60.0736 11.7822 59.0761 9.99458 58.4494 9.88073C57.9151 9.78369 56.673 10.8105 56.2691 11.1584C56.0092 11.3823 55.7391 11.6181 55.5373 11.8973C55.7267 12.5064 56.7545 13.8415 57.2274 14.3005C56.6496 14.8875 56.1105 15.4932 55.562 16.1067L55.501 16.0761C55.0169 15.8303 53.3915 14.4986 53.0018 14.5679C52.4421 14.6675 51.1042 16.5638 50.8387 17.1125C50.7764 17.2412 50.7173 17.3717 50.7557 17.5165C50.8777 17.9769 52.6488 19.0167 53.1158 19.3247C52.8135 20.0248 52.5158 20.727 52.2231 21.4312C51.7658 21.2861 49.6572 20.6422 49.3108 20.8412C48.7734 21.1496 48.3813 22.901 48.2962 23.4716C48.2648 23.6828 48.2187 24.0493 48.3555 24.234C48.6466 24.6269 50.636 24.9499 51.169 25.0921C51.0022 25.8613 51.0084 26.6678 50.9395 27.4518C50.2513 27.4962 48.6468 27.449 48.1059 27.7567C47.9981 27.9111 47.9639 28.0702 47.9466 28.2569C47.8945 28.82 48.0031 30.368 48.1003 30.9267C48.1381 31.1435 48.1994 31.3534 48.36 31.5095C48.9357 31.6935 50.4602 31.4347 51.1695 31.4106C51.2714 32.0016 51.4695 33.0884 51.7653 33.5886L51.6963 33.6238C51.2752 33.8351 49.1155 34.5339 49.0178 34.8573C48.8451 35.429 49.8154 37.6559 50.1632 38.2237C50.2524 38.3694 50.3345 38.4832 50.4787 38.5763C50.7226 38.5751 52.8911 37.7004 53.1488 37.5567C53.7041 38.0878 54.3617 38.8979 54.572 39.6512C54.1189 39.9006 53.8025 40.1861 53.4428 40.5573C52.8701 39.974 51.8489 39.212 51.036 39.0802C50.034 39.9319 49.063 40.7994 48.1126 41.7083C47.3238 41.0983 46.4842 40.4975 45.6183 40.0041C45.924 39.2773 46.7464 37.1593 46.4627 36.433C46.3447 36.131 43.5672 35.0579 43.0423 34.8667C42.7354 34.755 42.2643 34.6125 41.9514 34.7698C41.4115 35.0412 40.4405 37.5422 40.1172 38.1785C38.9963 37.8529 37.8444 37.6461 36.6803 37.5616C36.6669 36.8862 36.6057 34.1557 36.252 33.7806C36.0925 33.6115 35.7217 33.5309 35.5028 33.4954C34.9113 33.3992 32.6591 33.3276 32.0644 33.401C31.8109 33.4316 31.5807 33.5638 31.4266 33.7672C30.9946 34.34 31.0184 36.7268 30.9545 37.547C29.8467 37.7715 28.7643 38.039 27.6651 38.2971C27.3982 37.6777 26.4092 34.7503 25.9365 34.534C25.3733 34.2763 22.4049 35.473 21.8203 35.8147C21.6465 35.9164 21.3774 36.0936 21.3097 36.2969C21.1324 36.8296 22.0062 39.4154 22.2128 40.085C21.3447 40.5944 20.3905 41.1886 19.6418 41.8635C18.9791 41.3624 18.3497 40.8191 17.7142 40.2844C17.403 40.0225 17.0958 39.725 16.7545 39.5045C16.6271 39.4222 16.4925 39.3413 16.3349 39.359C15.737 39.4257 13.2943 41.621 12.8976 42.1666C12.7638 42.3506 12.5698 42.6784 12.596 42.9169C12.6087 43.0328 14.7716 46.3389 14.9665 46.5824C14.4039 47.3626 13.9232 48.1747 13.3922 48.9728C12.6337 48.6279 9.82866 47.0497 9.12286 47.3392C8.39774 47.6367 7.39883 50.3739 7.16275 51.1584C7.08127 51.4293 6.97598 51.8326 7.11017 52.0984C7.37645 52.6257 10.1279 53.8654 10.8034 54.2424C10.5096 54.7549 10.0611 56.7613 9.94294 57.4145C9.3224 57.3344 6.32032 57.0598 5.91139 57.3837C5.42473 57.7692 5.30456 59.9071 5.26867 60.585C5.24496 61.0326 5.15258 62.0845 5.51805 62.4192C5.83636 62.7107 9.13507 63.162 9.81056 63.3459C9.87356 64.3729 9.92494 65.4068 10.0935 66.423C9.38888 66.7716 8.668 67.0862 7.93333 67.3659C7.40122 67.5713 6.78455 67.7468 6.29067 68.029C6.18824 68.0875 6.11322 68.1459 6.07405 68.26C5.84221 68.9353 6.85871 71.8714 7.2181 72.5286C7.33215 72.7372 7.50956 73.0307 7.75748 73.0924C8.25528 73.2164 10.8472 72.3822 11.6574 72.3105L11.7232 72.3043C11.7365 72.3031 11.7497 72.3022 11.7629 72.3012C12.2018 73.1949 12.7134 74.0971 13.0901 75.0146C12.7451 75.222 9.8655 77.5498 9.699 77.7764C9.62737 78.5535 11.8321 81.2012 12.4042 81.8968C12.5044 82.0186 12.7136 82.2576 12.8807 82.2634C13.7218 82.2921 15.894 80.404 16.6218 79.8286C17.3025 80.4133 17.9686 81.015 18.6192 81.6331C18.3896 82.4024 18.0612 83.1235 17.7232 83.8495C17.5324 84.259 17.303 84.6796 17.1747 85.1134C17.1172 85.3084 17.0558 85.5373 17.1359 85.7342C17.4274 86.4507 20.5025 88.3111 21.2764 88.6405C21.4417 88.5906 21.6255 88.5453 21.7609 88.433C22.2777 88.0051 22.6543 87.1696 23.0038 86.5925C23.3858 85.9618 23.7844 85.298 24.266 84.7378C25.2036 85.1843 26.136 85.5393 27.1077 85.8996C27.0792 86.1255 27.0436 86.3521 27.0377 86.5798C26.985 87.2098 26.5431 89.639 26.9121 90.0691C27.4075 90.6468 30.2998 91.0171 31.0937 91.0419C31.3067 91.0486 31.7219 91.0451 31.8699 90.855C32.1329 90.5172 32.6297 87.3791 32.7037 86.8026C33.7897 86.7452 34.8919 86.7132 35.9703 86.5738C36.1733 87.18 37.0411 90.5484 37.5052 90.7982C37.8835 91.0018 41.2403 90.1524 41.7095 89.902C41.8346 89.8352 42.0321 89.7204 42.0843 89.5803C42.2332 89.1806 41.8665 86.2495 41.7972 85.5909C42.7077 85.3184 43.5511 84.8969 44.4296 84.5432C44.4435 84.5568 44.4577 84.5702 44.4713 84.584C44.9454 85.061 46.6744 87.7511 47.1621 87.7513C47.839 87.7515 50.7648 85.8644 51.2466 85.3298C51.314 85.2551 51.374 85.1735 51.4316 85.0911C51.099 84.3232 50.782 83.5445 50.4401 82.7815C50.2204 82.2909 49.9617 81.8091 49.7605 81.3116C50.3405 80.8099 50.8187 80.2102 51.3873 79.7011C52.5779 80.0392 54.1054 80.9722 55.1857 81.1528C55.2768 81.168 55.3591 81.1531 55.4388 81.1058C56.1125 80.7069 57.6772 77.7795 58.1583 76.9241C57.1892 75.957 56.0694 75.1295 55.0534 74.212C55.483 73.2321 55.9247 72.2576 56.3783 71.2886C56.9077 71.3205 60.2798 71.6074 60.5783 71.354C61.1112 70.9018 61.6094 67.8053 61.5788 67.0397C61.5697 66.8136 61.5279 66.5319 61.3436 66.3798C60.6394 65.7984 58.8375 65.5048 57.9315 65.0874C57.9786 64.0426 58.1219 63.0405 58.0365 61.9892C58.6018 61.8545 61.6534 61.2861 61.8905 61.0031C62.3142 60.497 61.8391 57.8618 61.6721 57.2102C61.5938 56.9047 61.4757 56.3438 61.2085 56.1524C60.7809 55.8459 58.1884 56.1536 57.4536 56.0628C57.2548 55.2875 57.0517 54.5339 56.7193 53.8019C57.015 53.5708 57.3134 53.3495 57.6283 53.1452C58.1562 52.8025 59.9592 51.8394 60.0275 51.2092C60.1081 50.4645 58.8025 47.6899 58.3111 47.1061C58.125 46.885 57.8767 46.8004 57.6069 46.7203C56.4261 47.146 55.2571 47.8471 54.1563 48.4526C53.5468 47.6381 52.8993 46.8793 52.223 46.1195C52.9326 45.3319 53.6212 44.5268 54.324 43.7334C54.5008 43.9503 54.8346 44.4841 55.1034 44.5341C55.6585 44.6374 57.1328 43.2152 57.5977 42.8341C58.2152 43.1644 58.7618 43.6022 59.3863 43.9225L59.4346 43.9478C59.3727 44.2383 59.3024 44.5224 59.211 44.8051C59.0638 45.2606 58.4989 46.4531 58.7694 46.8577C59.1383 47.4094 61.0162 48.1627 61.6812 48.272C61.8353 48.2974 62.0162 48.3148 62.1548 48.2295C62.4964 48.019 63.2371 46.2091 63.4128 45.7464C64.1723 45.8851 65.0369 46.045 65.7628 46.3064C65.8306 46.9409 65.7534 48.3043 65.8613 48.7717C65.8994 48.9365 65.974 49.0882 66.1111 49.192C66.2242 49.2776 66.3625 49.328 66.5017 49.3501C66.7784 49.3941 67.0726 49.3513 67.3537 49.368C67.9449 49.403 68.6219 49.5548 69.2083 49.4601C69.3907 49.4307 69.5402 49.3445 69.641 49.1872C70.0193 48.5967 69.6601 46.715 70.4123 46.5371C70.9552 46.4087 71.6302 46.3054 72.1891 46.2808C72.4208 46.8293 73.0335 48.8117 73.4979 49.0346C73.8963 49.2259 76.0963 48.4905 76.5364 48.2867C76.7149 48.204 76.9373 48.0703 77.0027 47.8721C77.236 47.1648 76.1055 45.3043 76.2821 44.8778L76.3525 44.8663C77.0737 44.7435 77.7065 44.2817 78.3882 44.0323L78.4477 44.0916C78.8234 44.4708 80.1472 46.2649 80.5815 46.2583C81.1343 46.25 82.5408 45.0208 82.9238 44.588C83.0767 44.4152 83.313 44.1118 83.2863 43.8622C83.246 43.4857 82.0124 41.996 81.7184 41.613C82.2262 41.1046 82.7923 40.607 83.2597 40.0631C83.7465 40.26 85.4455 41.4176 85.8387 41.2436C86.4043 40.9933 87.4938 39.1143 87.6963 38.507C87.7355 38.3898 87.7835 38.2112 87.7393 38.0887C87.5922 37.6812 85.8715 36.6585 85.4332 36.3771C85.5707 36.0985 86.1801 34.603 86.3389 34.5408C86.9627 34.2965 88.7739 35.1014 89.3206 34.7072C89.4308 34.6277 89.5108 34.4736 89.5675 34.3542C89.853 33.7538 90.334 31.8384 90.081 31.2202C89.9781 30.9688 89.57 30.8133 89.3308 30.7295C88.6726 30.4988 87.9687 30.349 87.2913 30.1846C87.3005 29.756 87.2453 28.5542 87.6096 28.2875C88.0773 27.9449 89.966 27.9928 90.1764 27.4248C90.4032 26.8125 90.1493 24.6644 89.8552 24.0721C89.7915 23.9439 89.7158 23.8369 89.5739 23.79C89.0151 23.6055 87.3447 23.7755 86.6532 23.7884C86.4865 23.258 86.3513 22.6938 86.1026 22.1965C86.5177 21.9152 88.6699 20.8239 88.7334 20.4528C88.8223 19.9328 87.8151 17.9228 87.4609 17.5051C87.3632 17.3899 87.258 17.2797 87.0993 17.2739C86.644 17.2574 84.8798 18.0075 84.3448 18.221C84.0574 17.6654 83.5888 17.2385 83.2935 16.6896C83.8856 15.954 84.4852 15.0612 85.1537 14.4132C84.8483 13.64 83.6006 12.2415 82.8375 11.9062C82.6451 11.8218 82.4511 11.8003 82.2566 11.8889C81.6083 12.1844 81.0898 12.866 80.5222 13.2938C80.0214 12.9096 79.5248 12.5095 78.9831 12.1847C79.1364 11.7663 79.9092 9.98162 79.7577 9.6716C79.536 9.21792 77.6231 8.47768 77.1275 8.33192C76.9295 8.27369 76.601 8.16854 76.4091 8.27623C75.6949 8.67694 75.3929 9.81143 74.9495 10.463C74.3507 10.2474 73.739 10.0821 73.1346 9.88515C73.1063 9.09136 73.3536 8.43522 73.3627 7.70067L73.1579 7.37057C72.1971 6.99275 71.0977 6.82682 70.0643 6.89196Z" fill="#FEFEFE"/>
<path d="M69.069 9.98631C69.1862 9.33349 69.2632 7.59095 69.5674 7.13983C69.6916 6.95551 69.8605 6.93165 70.0643 6.892C71.0976 6.82686 72.197 6.99279 73.1579 7.37061L73.3627 7.70071C73.3535 8.43526 73.1063 9.0914 73.1345 9.88519C73.7389 10.0822 74.3507 10.2475 74.9494 10.463C75.3929 9.81147 75.6949 8.67698 76.409 8.27627C76.601 8.16858 76.9295 8.27373 77.1274 8.33196C77.6231 8.47772 79.536 9.21796 79.7577 9.67164C79.9092 9.98166 79.1364 11.7663 78.983 12.1847C79.5248 12.5096 80.0214 12.9097 80.5221 13.2939C81.0898 12.866 81.6083 12.1844 82.2566 11.8889C82.451 11.8003 82.6451 11.8218 82.8375 11.9063C83.6006 12.2415 84.8482 13.6401 85.1537 14.4132C84.4851 15.0612 83.8856 15.954 83.2935 16.6897C83.5888 17.2385 84.0574 17.6654 84.3448 18.2211C84.8798 18.0075 86.644 17.2574 87.0993 17.2739C87.258 17.2797 87.3632 17.3899 87.4609 17.5051C87.815 17.9229 88.8223 19.9329 88.7334 20.4528C88.6699 20.824 86.5176 21.9152 86.1026 22.1966C86.3513 22.6938 86.4865 23.258 86.6532 23.7884C87.3447 23.7755 89.015 23.6055 89.5739 23.79C89.7158 23.8369 89.7915 23.944 89.8551 24.0721C90.1492 24.6644 90.4032 26.8125 90.1764 27.4248C89.9659 27.9928 88.0773 27.9449 87.6095 28.2875C87.2452 28.5542 87.3004 29.756 87.2913 30.1846C87.9687 30.3491 88.6726 30.4989 89.3308 30.7295C89.5699 30.8133 89.978 30.9688 90.081 31.2203C90.334 31.8385 89.853 33.7539 89.5675 34.3542C89.5108 34.4737 89.4308 34.6277 89.3206 34.7072C88.7739 35.1014 86.9627 34.2965 86.3389 34.5408C86.18 34.6031 85.5707 36.0986 85.4331 36.3772C85.8715 36.6585 87.5922 37.6812 87.7393 38.0888C87.7834 38.2112 87.7354 38.3898 87.6963 38.5071C87.4938 39.1143 86.4043 40.9933 85.8387 41.2437C85.4455 41.4177 83.7465 40.26 83.2596 40.0631C82.7923 40.6071 82.2261 41.1046 81.7184 41.613C82.0124 41.996 83.2459 43.4858 83.2863 43.8623C83.313 44.1118 83.0766 44.4152 82.9237 44.588C82.5408 45.0208 81.1342 46.25 80.5815 46.2583C80.1472 46.2649 78.8234 44.4708 78.4476 44.0917L78.3882 44.0323C77.7064 44.2817 77.0736 44.7435 76.3525 44.8663L76.2821 44.8779C76.1055 45.3043 77.236 47.1648 77.0027 47.8722C76.9373 48.0703 76.7149 48.204 76.5364 48.2867C76.0963 48.4905 73.8963 49.2259 73.4979 49.0347C73.0335 48.8117 72.4208 46.8294 72.1891 46.2808C71.6301 46.3054 70.9551 46.4087 70.4123 46.5372C69.6601 46.7151 70.0193 48.5967 69.6409 49.1873C69.5402 49.3446 69.3906 49.4307 69.2083 49.4602C68.6219 49.5549 67.9449 49.4031 67.3536 49.368C67.0726 49.3513 66.7784 49.3942 66.5016 49.3501C66.3625 49.328 66.2241 49.2776 66.1111 49.1921C65.974 49.0883 65.8994 48.9365 65.8613 48.7718C65.7534 48.3043 65.8306 46.9409 65.7628 46.3064C65.0369 46.0451 64.1723 45.8851 63.4128 45.7465C63.2371 46.2091 62.4964 48.0191 62.1547 48.2295C62.0162 48.3148 61.8353 48.2974 61.6812 48.2721C61.0161 48.1628 59.1382 47.4094 58.7694 46.8578C58.4989 46.4532 59.0638 45.2607 59.211 44.8051C59.3024 44.5225 59.3727 44.2383 59.4346 43.9479L59.3863 43.9226C58.7618 43.6022 58.2152 43.1644 57.5977 42.8341C57.1328 43.2152 55.6585 44.6374 55.1034 44.5342C54.8345 44.4841 54.5008 43.9503 54.324 43.7335C53.6211 44.5269 52.9325 45.3319 52.223 46.1196C52.8993 46.8793 53.5468 47.6381 54.1563 48.4527C55.2571 47.8471 56.426 47.1461 57.6069 46.7203C57.8766 46.8004 58.125 46.8851 58.3111 47.1061C58.8025 47.6899 60.1081 50.4645 60.0275 51.2093C59.9592 51.8395 58.1562 52.8026 57.6283 53.1452C57.3134 53.3496 57.015 53.5708 56.7193 53.8019C57.0516 54.5339 57.2548 55.2876 57.4535 56.0628C58.1884 56.1536 60.7809 55.846 61.2085 56.1524C61.4757 56.3439 61.5938 56.9048 61.6721 57.2102C61.8391 57.8619 62.3142 60.4971 61.8904 61.0032C61.6534 61.2862 58.6018 61.8546 58.0365 61.9892C58.1219 63.0405 57.9785 64.0426 57.9315 65.0875C58.8375 65.5048 60.6394 65.7985 61.3436 66.3798C61.5279 66.532 61.5696 66.8137 61.5787 67.0397C61.6094 67.8054 61.1112 70.9018 60.5782 71.3541C60.2797 71.6074 56.9077 71.3205 56.3782 71.2887C55.9247 72.2576 55.483 73.2322 55.0534 74.2121C56.0694 75.1296 57.1892 75.957 58.1583 76.9241C57.6771 77.7795 56.1125 80.707 55.4388 81.1059C55.3591 81.1531 55.2768 81.168 55.1856 81.1528C54.1054 80.9723 52.5779 80.0393 51.3873 79.7011C50.8187 80.2103 50.3405 80.8099 49.7605 81.3116C49.9617 81.8092 50.2204 82.291 50.4401 82.7816C50.782 83.5446 51.099 84.3233 51.4316 85.0912C51.374 85.1735 51.314 85.2551 51.2466 85.3299C50.7648 85.8644 47.839 87.7515 47.1621 87.7513C46.6744 87.7511 44.9454 85.061 44.4713 84.584C44.4576 84.5702 44.4435 84.5568 44.4296 84.5432C43.5511 84.8969 42.7077 85.3184 41.7972 85.591C41.8665 86.2495 42.2331 89.1806 42.0843 89.5803C42.0321 89.7205 41.8346 89.8352 41.7095 89.9021C41.2403 90.1525 37.8835 91.0018 37.5051 90.7982C37.0411 90.5485 36.1733 87.18 35.9703 86.5738C34.8919 86.7132 33.7896 86.7452 32.7036 86.8027C32.6297 87.3792 32.1329 90.5172 31.8699 90.855C31.7219 91.0452 31.3067 91.0486 31.0937 91.042C30.2998 91.0171 27.4075 90.6468 26.9121 90.0691C26.5431 89.639 26.985 87.2098 27.0377 86.5798C27.0436 86.3521 27.0792 86.1255 27.1077 85.8997C26.136 85.5393 25.2036 85.1844 24.266 84.7378C23.7844 85.298 23.3858 85.9618 23.0038 86.5926C22.6543 87.1696 22.2777 88.0051 21.7609 88.4331C21.6255 88.5453 21.4417 88.5907 21.2764 88.6406C20.5025 88.3111 17.4274 86.4507 17.1359 85.7342C17.0558 85.5373 17.1172 85.3085 17.1747 85.1134C17.303 84.6796 17.5324 84.2591 17.7232 83.8496C18.0612 83.1236 18.3896 82.4024 18.6192 81.6331C17.9686 81.015 17.3025 80.4133 16.6218 79.8286C15.894 80.4041 13.7218 82.2922 12.8807 82.2634C12.7136 82.2577 12.5044 82.0186 12.4042 81.8968C11.8321 81.2012 9.62738 78.5535 9.699 77.7764C9.8655 77.5498 12.7451 75.222 13.0901 75.0146C12.7134 74.0971 12.2018 73.195 11.7629 72.3012C11.7497 72.3023 11.7365 72.3031 11.7232 72.3043L11.6574 72.3105C10.8472 72.3822 8.25528 73.2164 7.75748 73.0924C7.50956 73.0307 7.33215 72.7373 7.2181 72.5287C6.85871 71.8714 5.84221 68.9353 6.07405 68.2601C6.11322 68.146 6.18824 68.0876 6.29067 68.0291C6.78455 67.7469 7.40122 67.5714 7.93333 67.366C8.668 67.0862 9.38888 66.7716 10.0935 66.423C9.92494 65.4069 9.87356 64.3729 9.81056 63.346C9.13507 63.162 5.83636 62.7107 5.51805 62.4192C5.15259 62.0846 5.24496 61.0327 5.26867 60.585C5.30456 59.9071 5.42473 57.7692 5.91139 57.3837C6.32032 57.0598 9.3224 57.3344 9.94294 57.4145C10.0611 56.7613 10.5096 54.7549 10.8034 54.2425C10.1279 53.8654 7.37645 52.6257 7.11017 52.0984C6.97598 51.8326 7.08127 51.4293 7.16275 51.1585C7.39883 50.374 8.39774 47.6367 9.12286 47.3393C9.82866 47.0498 12.6337 48.628 13.3922 48.9729C13.9232 48.1748 14.4039 47.3626 14.9665 46.5824C14.7716 46.339 12.6087 43.0329 12.596 42.9169C12.5698 42.6784 12.7638 42.3507 12.8976 42.1666C13.2943 41.621 15.737 39.4257 16.3349 39.359C16.4925 39.3414 16.6271 39.4223 16.7545 39.5046C17.0958 39.725 17.403 40.0226 17.7142 40.2844C18.3497 40.8191 18.9791 41.3624 19.6417 41.8635C20.3905 41.1886 21.3447 40.5944 22.2128 40.0851C22.0062 39.4154 21.1324 36.8296 21.3097 36.2969C21.3774 36.0937 21.6465 35.9164 21.8203 35.8148C22.4049 35.4731 25.3732 34.2763 25.9365 34.5341C26.4092 34.7503 27.3982 37.6778 27.6651 38.2972C28.7643 38.0391 29.8467 37.7715 30.9545 37.5471C31.0184 36.7269 30.9946 34.34 31.4266 33.7673C31.5807 33.5638 31.8109 33.4317 32.0644 33.401C32.6591 33.3277 34.9113 33.3992 35.5028 33.4954C35.7216 33.5309 36.0925 33.6116 36.252 33.7807C36.6057 34.1558 36.6669 36.8862 36.6803 37.5616C37.8444 37.6462 38.9963 37.8529 40.1172 38.1785C40.4405 37.5422 41.4115 35.0412 41.9514 34.7698C42.2643 34.6125 42.7354 34.755 43.0423 34.8668C43.5672 35.0579 46.3447 36.1311 46.4627 36.4331C46.7464 37.1593 45.924 39.2773 45.6183 40.0042C46.4841 40.4975 47.3238 41.0983 48.1126 41.7084C49.063 40.7995 50.034 39.9319 51.036 39.0803C51.8489 39.212 52.8701 39.974 53.4428 40.5573C53.8025 40.1861 54.1189 39.9007 54.572 39.6512C54.3617 38.8979 53.7041 38.0878 53.1488 37.5567C52.8911 37.7005 50.7226 38.5751 50.4786 38.5764C50.3345 38.4833 50.2524 38.3695 50.1632 38.2238C49.8154 37.6559 48.8451 35.429 49.0178 34.8573C49.1155 34.534 51.2752 33.8351 51.6963 33.6238L51.7653 33.5887C51.4695 33.0884 51.2714 32.0017 51.1695 31.4107C50.4602 31.4348 48.9357 31.6935 48.36 31.5096C48.1994 31.3534 48.1381 31.1435 48.1003 30.9267C48.0031 30.3681 47.8945 28.82 47.9465 28.2569C47.9639 28.0703 47.9981 27.9112 48.1059 27.7568C48.6468 27.4491 50.2513 27.4962 50.9395 27.4518C51.0084 26.6679 51.0021 25.8613 51.169 25.0921C50.636 24.9499 48.6466 24.6269 48.3555 24.234C48.2187 24.0493 48.2648 23.6829 48.2962 23.4716C48.3813 22.901 48.7734 21.1496 49.3108 20.8412C49.6572 20.6423 51.7657 21.2861 52.2231 21.4313C52.5158 20.727 52.8135 20.0248 53.1158 19.3247C52.6488 19.0167 50.8776 17.977 50.7557 17.5166C50.7173 17.3717 50.7764 17.2412 50.8386 17.1126C51.1041 16.5639 52.4421 14.6675 53.0018 14.5679C53.3915 14.4986 55.0169 15.8304 55.501 16.0762L55.562 16.1067C56.1105 15.4932 56.6496 14.8875 57.2274 14.3006C56.7545 13.8416 55.7267 12.5065 55.5373 11.8974C55.739 11.6182 56.0092 11.3823 56.2691 11.1584C56.673 10.8105 57.9151 9.78373 58.4494 9.88077C59.0761 9.99462 60.0736 11.7822 60.5123 12.3265L60.546 12.3676C61.2525 11.8556 61.995 11.4971 62.804 11.1819C62.637 10.499 62.192 8.82469 62.2934 8.18731C62.4939 7.84828 62.9842 7.70285 63.343 7.59076C63.8665 7.42722 65.253 6.99639 65.7371 7.25113C66.193 7.74943 66.5647 9.46023 66.7455 10.1689C67.407 9.97598 68.3716 9.98205 69.069 9.98631ZM69.9564 7.7121C69.8131 8.95045 69.6077 10.1882 69.4963 11.4285C68.4859 11.4498 67.4735 11.5422 66.4659 11.6189C66.0428 10.3871 65.9266 9.06625 65.364 7.87106C64.5359 7.94197 63.6879 8.16687 62.9002 8.4337C63.0353 9.17766 63.2255 9.9103 63.3927 10.6474C63.5181 11.2 63.6169 11.7626 63.7544 12.3116C63.3318 12.4988 62.897 12.6537 62.4742 12.8406C61.9286 13.0817 61.3814 13.3678 60.8176 13.5597C60.4698 13.0477 58.8036 10.8015 58.4272 10.5384C58.0247 10.4894 57.6171 10.8294 57.3174 11.0656C56.9407 11.3657 56.5773 11.6821 56.228 12.0138C56.9797 13.0675 57.904 14.0212 58.5633 15.1375C57.7503 15.7866 57.0503 16.5035 56.3302 17.2509C55.2069 16.543 54.1635 15.7403 53.0698 14.9939C52.3998 15.6596 51.8115 16.5764 51.3151 17.3786C52.3772 18.0455 53.8289 18.8341 54.7374 19.6467C54.2626 20.5025 53.846 21.3892 53.4905 22.3009C53.2022 22.2652 52.9179 22.2232 52.6367 22.1493C52.0859 22.0047 49.9309 21.2147 49.5505 21.3629C49.3152 21.8148 48.7873 23.3427 48.851 23.8165C49.2941 24.2019 52.2915 24.5103 52.8893 25.0132C52.8647 25.4389 52.7745 25.8603 52.7154 26.2824C52.6375 26.8391 52.5829 27.4024 52.5296 27.9622C51.1693 27.9874 49.8019 27.9716 48.4487 28.1333C48.5135 29.0722 48.5619 30.0182 48.6661 30.9534C50.0133 30.9509 51.3523 30.6986 52.7008 30.6831C52.8882 31.678 53.0908 32.6511 53.3465 33.6311C52.1505 34.3167 50.6934 34.5229 49.446 35.1017C49.7391 36.014 50.1553 37.0369 50.6358 37.8645C51.9566 37.4308 53.1499 36.6787 54.4613 36.2455C55.1023 37.1936 55.7458 38.1192 56.4504 39.0214C55.6359 39.7011 54.704 40.2452 53.8709 40.911C53.8811 40.9287 53.891 40.9466 53.9014 40.9641C54.2448 41.5438 55.1974 41.9748 55.0019 42.726C54.9561 42.9019 54.798 43.0905 54.7155 43.2557C54.8578 43.4546 54.9965 43.6366 55.1715 43.8093C56.2301 43.2284 57.3517 41.8684 58.3086 41.0539C58.9126 41.44 60.1759 42.3163 60.6866 42.7775C60.2019 43.9979 59.738 45.223 59.2437 46.4399C59.8801 47.0402 60.9917 47.3806 61.7901 47.7338C62.1922 46.9124 62.4997 46.0325 62.8311 45.1799C62.9901 44.771 63.1323 44.3453 63.3479 43.9625C64.3696 44.2925 65.4266 44.6381 66.4945 44.7776C66.5226 46.1167 66.4547 47.4478 66.4548 48.7862C67.0166 48.8377 67.58 48.8535 68.1433 48.8803L69.1401 48.8766C69.3077 47.5481 69.1482 46.1822 69.3484 44.887C70.3171 44.8892 71.3907 44.8082 72.3207 44.5379C72.6971 45.3606 72.9752 46.229 73.2779 47.0808C73.4412 47.5405 73.5905 48.0397 73.8355 48.4619C74.6691 48.2563 75.6382 47.9958 76.4076 47.6141C75.9395 46.3931 75.3335 45.1478 75.1644 43.8429C76.2156 43.4036 77.0019 42.9177 77.9945 42.4208C78.9026 43.3885 79.7189 44.7821 80.621 45.6231C81.3583 45.1023 82.0518 44.5223 82.6946 43.8887C81.9288 42.8453 81.0849 41.8155 80.2569 40.8192C81.0002 40.1397 81.7068 39.3452 82.3317 38.5578C83.2204 38.8763 83.9497 39.4432 84.7209 39.973C85.036 40.1894 85.3684 40.3851 85.6786 40.6076C86.2046 39.9038 86.8193 39.0897 87.1184 38.2619L83.7616 36.1831C84.1763 35.2827 84.7101 34.2891 84.9379 33.3194C86.2292 33.5706 87.7067 34.02 88.959 34.1866C89.2563 33.322 89.3967 32.3758 89.5549 31.4769L85.5899 30.5714C85.642 30.0303 85.6834 29.4881 85.7143 28.9453C85.7358 28.501 85.7182 28.0195 85.7947 27.5836C87.0585 27.4459 88.3441 27.3207 89.5968 27.1078C89.5641 26.237 89.5557 25.2268 89.3357 24.3849C88.3331 24.3549 86.2745 24.5424 85.3383 24.8096C85.1213 23.9081 84.8652 23.0591 84.5622 22.1842C85.3266 21.7511 86.1164 21.3589 86.8968 20.9555C87.3276 20.7327 87.7984 20.5335 88.1838 20.2374C87.7879 19.4142 87.3877 18.5965 86.9463 17.7968C86.2687 18.1186 85.5847 18.4264 84.8945 18.7199C84.3732 18.9473 83.7729 19.1522 83.3124 19.4867C82.8197 18.6848 82.1957 17.998 81.657 17.2319C82.4281 16.3297 83.7557 15.1989 84.3783 14.2893C83.8244 13.6103 83.2163 12.9954 82.5993 12.3742C81.6718 13.3395 80.5919 14.1774 79.6142 15.094C78.9044 14.5692 78.11 14.1094 77.444 13.5363C77.9088 12.3262 78.5354 11.1483 78.8472 9.88277C78.1237 9.52671 77.3682 9.22687 76.6519 8.85943C76.2552 9.73485 75.8206 10.5702 75.3682 11.4175C75.1936 11.7446 75.0412 12.0986 74.8436 12.4116C73.9066 12.1028 72.9805 11.9046 72.0304 11.6553C72.1511 10.4816 72.2883 9.3097 72.4418 8.13988C71.7704 7.94202 70.6637 7.75572 69.9564 7.7121ZM31.848 34.0811C31.8097 34.9812 31.7587 35.8811 31.7438 36.7821C31.7332 37.4224 31.7706 38.083 31.7079 38.7196C31.6868 38.9347 31.6567 39.1579 31.5459 39.3464C31.2319 39.5353 28.2117 40.1598 27.712 40.1795C27.0355 38.5215 26.3559 36.8712 25.6205 35.2379C24.4035 35.4737 23.0805 35.8758 21.9602 36.4075C22.0421 36.8195 22.1313 37.2239 22.2629 37.6235C22.464 38.2337 23.6841 41.1848 23.5051 41.6017C23.0412 41.9606 22.5018 42.227 22.0055 42.5398C21.3907 42.9273 20.7834 43.3856 20.1379 43.7161C18.817 42.6215 17.7172 41.2178 16.3312 40.2087C15.3971 40.8357 14.0276 41.8359 13.2943 42.6609C13.8516 43.3923 14.4174 44.1134 15.0339 44.7963C15.5981 45.4212 16.3696 46.1195 16.8132 46.8219C16.3529 47.504 15.8354 48.1518 15.3712 48.8349C15.0437 49.3169 14.7572 49.8838 14.3947 50.3332C13.795 50.0755 13.2204 49.7624 12.6322 49.4798C11.576 48.9734 10.515 48.4771 9.44934 47.9907C8.7459 48.9634 8.10268 50.5162 7.73838 51.6656C7.75202 51.6762 7.76549 51.6871 7.77929 51.6975C8.70803 52.4006 12.0763 53.7097 12.5132 54.2262C12.4608 54.7964 12.2213 55.4101 12.0699 55.965C11.8631 56.7398 11.678 57.5202 11.5147 58.3054L8.47999 58.1326C7.74907 58.0852 6.98729 57.9789 6.25633 58.0447C6.04709 59.1529 5.79885 60.7435 5.9883 61.8465C7.76018 62.4506 9.69169 62.0866 11.3878 62.5442C11.4772 63.8389 11.5694 65.1388 11.8068 66.4166L11.751 66.4425C11.0782 66.7474 6.90258 68.0953 6.75798 68.4934C6.53488 69.1075 7.64333 71.6656 7.97722 72.2965C9.07757 72.0636 10.1665 71.78 11.2408 71.4467C11.8838 71.2454 12.5145 71.0058 13.1565 70.8027C13.6678 72.0198 14.2256 73.2893 14.989 74.3733C14.2551 75.1139 13.3576 75.6816 12.5321 76.3142C11.8849 76.8103 11.2759 77.3727 10.6877 77.9372C11.1928 78.6019 12.2671 80.521 12.9448 80.8004C13.6698 80.7588 16.4989 78.5995 17.3519 78.0859C18.2771 79.0034 19.3364 79.7545 20.3006 80.6225C19.6836 81.5742 18.2475 84.4151 17.9921 85.4646C18.4841 85.895 20.4743 87.2879 21.1077 87.2276C21.3681 87.2029 21.5964 86.8867 21.7396 86.6909C22.6397 85.4593 23.2909 83.9693 23.9225 82.5865C24.4642 82.7904 24.9829 83.0516 25.5217 83.2643C26.329 83.583 27.1642 83.8293 28.0026 84.0524L27.6097 87.5819C27.5521 88.1304 27.45 88.7159 27.4568 89.2664C27.4593 89.4658 27.4679 89.6531 27.5638 89.831C27.9845 90.1342 30.6323 90.5884 31.1838 90.5081C31.3207 90.4882 31.4163 90.451 31.4996 90.3351C31.9944 89.6475 32.0964 85.6617 32.2114 84.5878C33.4556 84.7246 34.6778 84.7165 35.9256 84.6274C36.0788 84.6136 36.2433 84.5812 36.3919 84.6224C36.8213 85.613 37.1221 89.9292 37.8852 90.2868C38.2499 90.4577 40.7704 89.7399 41.2091 89.5235C41.3529 89.4525 41.4808 89.37 41.5249 89.2047C41.7764 88.2596 40.7825 84.835 40.5374 83.8057C41.4365 83.4937 42.3404 83.1205 43.2087 82.7307C43.6611 82.5277 44.1062 82.2767 44.5689 82.1003C44.9338 82.8075 46.8229 86.3019 47.4423 86.5087C47.8307 86.6383 48.3694 86.3159 48.7003 86.1278C49.391 85.7351 49.956 85.254 50.5325 84.7122C50.1674 83.4586 48.6345 81.126 47.8919 79.9524C48.4368 79.5378 48.9464 79.0616 49.4455 78.5936C49.7939 78.2671 50.1519 77.8508 50.5764 77.6252C50.5944 77.6319 50.6125 77.6382 50.6303 77.6452C51.6762 78.052 54.4152 80.1836 55.2207 80.124C55.754 79.8694 57.0534 77.5277 57.3232 76.9217L57.2831 76.8842C56.8276 76.4653 56.3082 76.0777 55.7989 75.727C55.1774 75.2989 53.4809 74.3234 53.1163 73.8058C53.1231 73.6392 53.1535 73.4991 53.2124 73.3431C53.4172 72.8005 53.7345 72.3077 53.9616 71.7757C54.1725 71.2817 54.3011 70.7442 54.5266 70.2587C54.5915 70.119 54.6594 70.0133 54.7647 69.9012C55.444 69.5801 59.5039 70.9925 60.0708 70.8402C60.2193 70.8003 60.3238 70.5388 60.3705 70.4113C60.7349 69.4166 60.9362 68.1429 60.9567 67.0932C60.4319 66.8062 59.8744 66.6636 59.3032 66.495C58.2206 66.1754 56.8368 65.8642 55.8127 65.4861C55.8204 64.9141 55.9459 61.8498 56.1151 61.5469C56.7 61.1922 60.4767 60.663 61.4863 60.4525C61.449 59.2022 61.4004 57.8676 60.8956 56.7034C59.6931 56.7295 58.4822 56.8566 57.2854 56.9772C56.6879 57.0375 56.0857 57.1398 55.4845 57.1364C55.2903 56.5158 55.1629 55.8688 55.0126 55.2361C54.9096 54.8026 54.7728 54.3668 54.7041 53.927C56.0264 52.8208 58.1146 52.1208 59.5096 50.9751C59.0796 49.7654 58.5581 48.4842 57.8131 47.4351C56.7043 48.0706 55.5114 48.5436 54.3496 49.0723C53.7436 49.3481 53.1138 49.7132 52.4775 49.9048C51.8455 48.9186 51.0192 48.0346 50.4352 47.0284C51.5225 45.4824 53.0594 44.2399 54.0187 42.5926C53.5377 41.9611 52.8756 41.4621 52.2935 40.9272C51.9429 40.6052 51.6136 40.2445 51.2249 39.9682C50.9776 40.1416 50.7377 40.319 50.5142 40.5227C49.9685 41.0202 47.6131 43.4995 47.0922 43.5645C46.6656 43.4541 44.4026 42.0802 44.0289 41.7587C44.6871 40.2641 45.7939 38.3051 45.9109 36.6719C44.7193 36.1659 43.4802 35.6316 42.247 35.2434C41.9871 35.7024 41.8058 36.2097 41.6001 36.6947C41.354 37.2747 41.0867 37.8507 40.859 38.438C40.6382 39.0077 40.4658 39.6834 40.1204 40.1909C39.4268 40.0862 36.6498 39.5924 36.212 39.3395C35.8917 38.8193 35.9976 35.2237 35.841 34.2824C34.8696 34.0545 32.8678 34.0295 31.848 34.0811Z" fill="#2A2A2A"/>
<path d="M69.4963 11.4286C69.6077 10.1883 69.8131 8.95051 69.9564 7.71216C70.6637 7.75578 71.7704 7.94208 72.4419 8.13994C72.2883 9.30976 72.1511 10.4817 72.0305 11.6554C72.9805 11.9046 73.9066 12.1028 74.8436 12.4116C75.0413 12.0987 75.1936 11.7447 75.3683 11.4175C75.8206 10.5703 76.2552 9.73491 76.652 8.85949C77.3682 9.22693 78.1238 9.52677 78.8472 9.88283C78.5354 11.1484 77.9088 12.3262 77.4441 13.5364C78.1101 14.1095 78.9044 14.5693 79.6142 15.094C80.5919 14.1774 81.6718 13.3396 82.5993 12.3742C83.2164 12.9954 83.8244 13.6103 84.3784 14.2894C83.7557 15.1989 82.4281 16.3297 81.657 17.232C82.1957 17.998 82.8197 18.6848 83.3124 19.4868C83.7729 19.1523 84.3732 18.9473 84.8946 18.72C85.5848 18.4265 86.2688 18.1187 86.9463 17.7968C87.3878 18.5965 87.788 19.4143 88.1838 20.2374C87.7985 20.5336 87.3277 20.7328 86.8968 20.9556C86.1164 21.359 85.3267 21.7511 84.5622 22.1842C84.8652 23.0591 85.1213 23.9081 85.3384 24.8096C86.2746 24.5424 88.3331 24.3549 89.3357 24.3849C89.5557 25.2269 89.5642 26.2371 89.5968 27.1079C88.3441 27.3208 87.0585 27.446 85.7948 27.5837C85.7183 28.0195 85.7358 28.501 85.7143 28.9454C85.6835 29.4882 85.642 30.0304 85.5899 30.5715L89.555 31.4769C89.3967 32.3759 89.2563 33.322 88.959 34.1867C87.7067 34.0201 86.2292 33.5706 84.938 33.3195C84.7102 34.2891 84.1763 35.2827 83.7616 36.1832L87.1184 38.262C86.8193 39.0898 86.2046 39.9038 85.6786 40.6076C85.3685 40.3851 85.036 40.1895 84.7209 39.973C83.9498 39.4432 83.2204 38.8763 82.3317 38.5579C81.7068 39.3453 81.0002 40.1397 80.2569 40.8193C81.0849 41.8156 81.9289 42.8453 82.6946 43.8888C82.0518 44.5223 81.3583 45.1024 80.6211 45.6231C79.7189 44.7821 78.9026 43.3885 77.9946 42.4208C77.0019 42.9178 76.2157 43.4037 75.1644 43.8429C75.3336 45.1478 75.9396 46.3931 76.4077 47.6141C75.6383 47.9959 74.6692 48.2564 73.8355 48.462C73.5906 48.0397 73.4412 47.5405 73.2779 47.0809C72.9752 46.229 72.6971 45.3606 72.3207 44.538C71.3907 44.8083 70.3171 44.8893 69.3485 44.887C69.1482 46.1823 69.3077 47.5481 69.1402 48.8766L68.1433 48.8804C67.58 48.8536 67.0166 48.8377 66.4548 48.7863C66.4547 47.4479 66.5227 46.1167 66.4945 44.7777C65.4266 44.6382 64.3696 44.2925 63.3479 43.9625C63.1323 44.3453 62.9902 44.771 62.8312 45.18C62.4998 46.0326 62.1923 46.9125 61.7902 47.7338C60.9917 47.3807 59.8801 47.0403 59.2437 46.44C59.7381 45.223 60.2019 43.998 60.6866 42.7775C60.1759 42.3164 58.9126 41.44 58.3087 41.054C57.3518 41.8685 56.2301 43.2285 55.1715 43.8094C54.9965 43.6367 54.8578 43.4546 54.7155 43.2558C54.798 43.0906 54.9562 42.902 55.0019 42.7261C55.1974 41.9749 54.2448 41.5439 53.9014 40.9641C53.891 40.9466 53.8811 40.9288 53.8709 40.9111C54.7041 40.2453 55.6359 39.7011 56.4504 39.0215C55.7458 38.1192 55.1023 37.1937 54.4614 36.2455C53.1499 36.6787 51.9566 37.4309 50.6358 37.8646C50.1553 37.037 49.7392 36.0141 49.446 35.1018C50.6934 34.523 52.1505 34.3167 53.3466 33.6312C53.0908 32.6511 52.8882 31.678 52.7008 30.6831C51.3523 30.6986 50.0133 30.951 48.6661 30.9534C48.5619 30.0183 48.5135 29.0722 48.4487 28.1333C49.8019 27.9716 51.1693 27.9875 52.5296 27.9622C52.5829 27.4025 52.6375 26.8392 52.7154 26.2824C52.7745 25.8604 52.8647 25.439 52.8894 25.0132C52.2915 24.5104 49.2941 24.2019 48.851 23.8165C48.7873 23.3428 49.3152 21.8149 49.5505 21.363C49.9309 21.2148 52.0859 22.0048 52.6367 22.1494C52.9179 22.2232 53.2022 22.2652 53.4905 22.301C53.846 21.3892 54.2626 20.5026 54.7375 19.6468C53.8289 18.8342 52.3772 18.0456 51.3151 17.3787C51.8115 16.5765 52.3998 15.6597 53.0698 14.994C54.1635 15.7403 55.2069 16.543 56.3303 17.2509C57.0504 16.5036 57.7503 15.7866 58.5633 15.1375C57.904 14.0212 56.9798 13.0675 56.2281 12.0139C56.5773 11.6822 56.9408 11.3658 57.3174 11.0657C57.6172 10.8294 58.0247 10.4895 58.4273 10.5384C58.8037 10.8016 60.4698 13.0477 60.8176 13.5597C61.3814 13.3679 61.9286 13.0818 62.4743 12.8406C62.897 12.6538 63.3318 12.4988 63.7544 12.3117C63.6169 11.7626 63.5182 11.2 63.3927 10.6475C63.2255 9.91036 63.0353 9.17772 62.9003 8.43376C63.6879 8.16693 64.5359 7.94203 65.364 7.87112C65.9266 9.06631 66.0428 10.3871 66.4659 11.619C67.4736 11.5423 68.4859 11.4499 69.4963 11.4286ZM65.1849 14.5518L65.0379 14.2313C64.984 14.1157 64.9338 14.0723 64.8339 14.0004L64.7433 13.992C64.6765 14.086 64.65 14.1978 64.6599 14.3164C64.6645 14.372 64.6902 14.4246 64.6937 14.4803C64.6961 14.5193 64.6725 14.5567 64.6741 14.5957C64.6751 14.619 64.6847 14.6409 64.69 14.6635L64.6277 14.7336C61.8457 15.6321 59.3352 17.5508 57.6505 19.9326C55.5817 22.8578 54.5327 26.3443 55.1784 29.9206C55.3525 30.8852 55.7169 31.8675 56.085 32.7748C57.2169 35.5644 58.6412 37.8538 61.1555 39.6073C64.138 41.6874 68.0655 42.6719 71.6668 42.0118C75.3009 41.3393 78.5157 39.2427 80.5964 36.1882C82.8306 32.9679 83.7717 29.0742 83.0655 25.2085C82.42 21.6755 79.9582 18.4536 77.0297 16.4504C74.4923 14.7146 71.1758 13.8895 68.1257 14.097C67.1366 14.1642 66.1582 14.3704 65.1849 14.5518Z" fill="#FEFEFE"/>
<path d="M64.69 14.6635C64.6847 14.6409 64.6751 14.6189 64.6741 14.5957C64.6725 14.5567 64.6961 14.5193 64.6937 14.4803C64.6902 14.4246 64.6645 14.3719 64.6598 14.3163C64.65 14.1977 64.6765 14.086 64.7433 13.9919L64.8339 14.0004C64.9338 14.0723 64.984 14.1157 65.0378 14.2313L65.1848 14.5517C66.1582 14.3703 67.1366 14.1642 68.1257 14.0969C71.1758 13.8895 74.4922 14.7146 77.0297 16.4504C79.9582 18.4536 82.42 21.6754 83.0655 25.2085C83.7717 29.0742 82.8306 32.9679 80.5964 36.1882C78.5157 39.2427 75.3009 41.3393 71.6668 42.0118C68.0655 42.6719 64.138 41.6874 61.1555 39.6073C58.6412 37.8538 57.2168 35.5644 56.085 32.7748C55.7169 31.8674 55.3525 30.8851 55.1783 29.9205C54.5327 26.3443 55.5817 22.8578 57.6505 19.9326C59.3352 17.5508 61.8457 15.632 64.6277 14.7336L64.69 14.6635ZM69.3995 14.7807C68.9014 14.7835 66.6109 14.8953 66.3307 15.1732L66.3 15.2806C66.2297 15.2834 66.1604 15.2858 66.09 15.2835C65.8843 15.2769 65.7318 15.3297 65.5401 15.396C65.5896 15.7011 65.8344 16.168 65.8181 16.4175C65.8164 16.4428 65.8156 16.4681 65.8139 16.4934C65.8127 16.5136 65.8109 16.5339 65.8094 16.554L65.8759 16.6087C65.9898 16.5804 66.2652 16.4733 66.3682 16.4867C66.5242 16.5071 66.5417 16.6055 66.7484 16.5791C67.2732 16.5118 67.7813 16.4012 68.3122 16.3716C70.6717 16.2401 73.0033 16.9229 75.0096 18.1392C76.6249 19.1184 78.6528 21.3885 79.5486 23.0234C79.9166 23.6948 80.2176 24.4282 80.4486 25.1585C80.5135 25.3639 80.6476 26.1181 80.7421 26.2339C80.7753 26.2745 80.8376 26.2771 80.8854 26.2987C80.8778 26.4771 80.8509 26.6265 80.96 26.7754C81.1461 26.8362 81.4086 26.8252 81.5509 26.9424C81.534 27.1107 81.4024 27.2286 81.2769 27.3325C81.183 27.4095 81.0874 27.4844 80.9902 27.5572C81.1278 27.7005 81.3291 27.8636 81.3852 28.0569C81.3458 28.169 81.3359 28.1909 81.2206 28.2468C81.1394 28.2861 81.0385 28.3084 80.9518 28.3343C81.1681 31.3694 79.9268 34.167 77.9767 36.4395C76.056 38.6779 73.0971 40.1184 70.1703 40.3278C67.0701 40.5496 62.8693 38.5732 60.5691 36.5387C58.3427 34.5696 57.1477 31.8243 56.9722 28.8885C56.9416 28.3778 56.9531 27.8655 57.0068 27.3568C57.0472 26.9718 57.0723 26.5544 57.1564 26.1767C57.1875 26.0369 57.2811 25.8942 57.2987 25.7566C57.3097 25.6716 57.2833 25.5757 57.2681 25.4925C57.2504 25.3954 57.2626 25.3513 57.2968 25.2614C57.3158 25.2486 57.3352 25.2362 57.3539 25.223C57.4059 25.1864 57.472 25.1465 57.5023 25.0874C57.6294 24.8389 57.7032 24.5158 57.798 24.2501C57.934 23.8687 58.1059 23.5001 58.2887 23.139C58.6777 22.3711 59.1599 21.554 59.7051 20.8865C60.707 19.66 62.1212 18.4149 63.5243 17.6775C64.0525 17.4 64.8708 17.1474 65.3213 16.8132C65.3743 16.7598 65.4242 16.7405 65.4227 16.6597C65.4166 16.3242 65.1699 15.8773 65.0796 15.5409C62.4963 16.1261 59.6136 18.3048 58.2089 20.5289C57.6863 21.356 57.1679 22.2165 56.7862 23.1193C55.7543 25.5602 55.4362 28.648 56.0296 31.229C56.224 32.0747 56.5428 32.8271 56.9197 33.6034C58.002 35.8324 59.5441 37.6616 61.6577 38.9854C64.0221 40.4662 66.8861 41.3725 69.6889 41.2399C70.051 41.2228 70.5063 41.2523 70.856 41.1638C70.9447 41.1413 71.0209 41.0947 71.1009 41.053C71.1585 41.0229 71.2182 40.9967 71.2761 40.9669C71.3287 41.01 71.357 41.0577 71.4289 41.0537C71.7803 41.0344 72.2542 40.7953 72.6101 40.6964C73.1013 40.56 73.5925 40.5134 74.0776 40.3315C75.2575 39.8892 77.2919 38.603 78.2284 37.7681C78.6515 37.3907 79.0334 36.957 79.3869 36.5147C80.9509 34.5583 82.0204 32.3552 82.2308 29.8311C82.2696 29.3667 82.2538 28.8955 82.2586 28.4297C82.265 27.8109 82.307 27.1689 82.2334 26.5534C82.0803 25.2721 81.7769 24.1174 81.3562 22.9047C81.2698 22.6556 81.1952 22.3503 81.0711 22.1189C80.1447 20.3989 78.8667 18.893 77.3202 17.6992C75.1662 16.023 72.1675 14.719 69.3995 14.7807ZM68.4648 16.9318C68.2499 16.9514 67.6482 16.9499 67.5137 17.101C67.5707 17.1832 67.6279 17.2306 67.708 17.29C67.5667 17.2965 67.4611 17.2334 67.3338 17.1812C67.1103 17.0895 66.3511 17.2737 66.1126 17.3678C66.0312 17.3999 65.9776 17.475 65.923 17.5394C64.1848 17.8692 62.2543 18.9233 60.9621 20.1343C60.3981 20.6628 59.9347 21.2538 59.5015 21.8909C58.9064 22.7659 58.4921 23.6621 58.1725 24.6681C58.1244 24.8195 58.0269 25.0349 58.0463 25.1891C58.0619 25.312 58.2304 25.3469 58.1861 25.4686L58.003 25.4615C57.743 25.8209 57.6837 27.9327 57.7042 28.3991C57.7232 28.8312 57.781 29.263 57.8493 29.6897C58.3391 32.7524 59.8219 35.3244 62.359 37.149C64.4403 38.6456 67.191 39.9646 69.8091 39.804C70.6406 39.7819 71.4584 39.6852 72.2616 39.4583C74.1606 38.9218 76.1697 37.6346 77.5294 36.2005C79.3797 34.2491 80.5212 31.5186 80.4238 28.8084C80.4176 28.6352 80.4096 28.5315 80.2858 28.4041C80.1647 28.4008 80.0765 28.4185 79.9605 28.4478L79.8898 28.4153C79.8525 28.2984 79.8468 28.2264 79.8959 28.1099C80.0887 27.6526 80.4482 27.6903 80.3077 27.0539C80.2244 26.9603 80.088 26.8658 80.1068 26.7288C80.1157 26.6639 80.1601 26.5826 80.1862 26.5215C80.1009 26.2978 79.9182 26.0745 79.8614 25.8504C79.8157 25.6705 79.8865 25.4627 79.8578 25.2783C79.8148 25.0015 79.6559 24.6433 79.5681 24.368C79.532 24.2544 79.417 24.1508 79.338 24.0634C79.3461 24.0027 79.3671 23.9423 79.3626 23.8812C79.3428 23.6157 78.3479 22.0982 78.1546 21.8459C77.6945 21.2449 77.1459 20.699 76.5962 20.1799C74.6131 18.3075 72.7294 17.3686 70.0098 17.0251C69.5083 16.9619 68.9685 16.8828 68.4648 16.9318Z" fill="#2A2A2A"/>
<path d="M65.5401 15.396C65.7318 15.3297 65.8843 15.2769 66.09 15.2835C66.1604 15.2858 66.2297 15.2834 66.3 15.2806L66.3308 15.1732C66.6109 14.8953 68.9014 14.7835 69.3995 14.7807C72.1675 14.719 75.1662 16.023 77.3202 17.6992C78.8667 18.893 80.1447 20.3989 81.0712 22.1189C81.1952 22.3503 81.2698 22.6556 81.3563 22.9047C81.7769 24.1174 82.0803 25.2721 82.2334 26.5534C82.307 27.1689 82.265 27.8109 82.2586 28.4297C82.2538 28.8955 82.2696 29.3667 82.2309 29.8311C82.0204 32.3552 80.9509 34.5583 79.387 36.5147C79.0334 36.957 78.6515 37.3907 78.2284 37.7681C77.2919 38.603 75.2575 39.8892 74.0776 40.3315C73.5925 40.5134 73.1013 40.56 72.6101 40.6964C72.2543 40.7953 71.7804 41.0344 71.4289 41.0537C71.357 41.0577 71.3287 41.01 71.2761 40.9669C71.2182 40.9967 71.1585 41.0229 71.1009 41.053C71.0209 41.0947 70.9448 41.1413 70.856 41.1638C70.5063 41.2523 70.051 41.2228 69.6889 41.2399C66.8861 41.3725 64.0221 40.4662 61.6577 38.9854C59.5441 37.6616 58.002 35.8324 56.9198 33.6034C56.5428 32.8271 56.224 32.0747 56.0296 31.229C55.4363 28.648 55.7543 25.5602 56.7863 23.1193C57.1679 22.2165 57.6864 21.356 58.2089 20.5289C59.6136 18.3048 62.4963 16.1261 65.0796 15.5409C65.1699 15.8773 65.4166 16.3242 65.4227 16.6597C65.4242 16.7405 65.3743 16.7598 65.3214 16.8132C64.8708 17.1474 64.0525 17.4 63.5244 17.6775C62.1212 18.4149 60.707 19.66 59.7051 20.8865C59.1599 21.554 58.6777 22.3711 58.2887 23.139C58.1059 23.5001 57.934 23.8687 57.798 24.2501C57.7032 24.5158 57.6294 24.8389 57.5023 25.0874C57.472 25.1465 57.4059 25.1864 57.3539 25.223C57.3352 25.2362 57.3159 25.2486 57.2968 25.2614C57.2626 25.3513 57.2504 25.3954 57.2681 25.4925C57.2833 25.5757 57.3097 25.6716 57.2987 25.7566C57.2811 25.8942 57.1875 26.0369 57.1564 26.1767C57.0723 26.5544 57.0473 26.9718 57.0069 27.3568C56.9531 27.8655 56.9416 28.3778 56.9722 28.8885C57.1477 31.8243 58.3427 34.5696 60.5691 36.5387C62.8693 38.5732 67.0701 40.5496 70.1703 40.3278C73.0971 40.1184 76.056 38.6779 77.9768 36.4395C79.9269 34.167 81.1681 31.3694 80.9518 28.3343C81.0385 28.3084 81.1394 28.2861 81.2206 28.2468C81.3359 28.191 81.3459 28.169 81.3852 28.0569C81.3292 27.8636 81.1278 27.7005 80.9902 27.5572C81.0874 27.4844 81.183 27.4095 81.2769 27.3325C81.4024 27.2286 81.534 27.1107 81.5509 26.9424C81.4086 26.8252 81.1461 26.8362 80.96 26.7754C80.851 26.6265 80.8779 26.4771 80.8855 26.2987C80.8376 26.2771 80.7753 26.2745 80.7421 26.2339C80.6476 26.1181 80.5135 25.3639 80.4486 25.1585C80.2176 24.4282 79.9166 23.6948 79.5487 23.0234C78.6528 21.3885 76.6249 19.1184 75.0096 18.1392C73.0033 16.9229 70.6717 16.2401 68.3122 16.3716C67.7814 16.4012 67.2732 16.5118 66.7484 16.5791C66.5417 16.6055 66.5242 16.5071 66.3682 16.4867C66.2652 16.4733 65.9898 16.5804 65.8759 16.6087L65.8094 16.554C65.8109 16.5339 65.8127 16.5136 65.8139 16.4934C65.8156 16.4681 65.8164 16.4428 65.8181 16.4175C65.8344 16.168 65.5896 15.7011 65.5401 15.396Z" fill="#FEFEFE"/>
<path d="M69.8091 39.804C67.191 39.9646 64.4403 38.6456 62.359 37.1489C59.8219 35.3244 58.3391 32.7524 57.8493 29.6897C57.781 29.263 57.7232 28.8312 57.7041 28.3991C57.6837 27.9327 57.743 25.8208 58.003 25.4615L58.1861 25.4686C58.2304 25.3469 58.0619 25.312 58.0463 25.1891C58.0269 25.0348 58.1244 24.8195 58.1725 24.6681C58.4921 23.6621 58.9064 22.7659 59.5015 21.8908C59.9347 21.2538 60.3981 20.6628 60.9621 20.1343C62.2543 18.9233 64.1848 17.8692 65.923 17.5393C65.9776 17.475 66.0312 17.3998 66.1126 17.3678C66.3511 17.2737 67.1103 17.0895 67.3338 17.1812C67.4611 17.2334 67.5667 17.2965 67.708 17.29C67.6279 17.2306 67.5707 17.1832 67.5137 17.101C67.6482 16.9499 68.2499 16.9514 68.4648 16.9318C68.9685 16.8828 69.5083 16.9618 70.0098 17.0251C72.7294 17.3686 74.6131 18.3075 76.5962 20.1799C77.1459 20.699 77.6945 21.2449 78.1546 21.8458C78.3479 22.0982 79.3428 23.6157 79.3626 23.8812C79.3671 23.9423 79.3462 24.0027 79.338 24.0634C79.417 24.1508 79.532 24.2544 79.5682 24.368C79.6559 24.6433 79.8148 25.0015 79.8578 25.2783C79.8865 25.4627 79.8157 25.6705 79.8614 25.8504C79.9182 26.0745 80.1009 26.2978 80.1863 26.5215C80.1601 26.5826 80.1158 26.6638 80.1068 26.7288C80.088 26.8658 80.2244 26.9603 80.3078 27.0538C80.4482 27.6903 80.0887 27.6526 79.8959 28.1099C79.8468 28.2264 79.8525 28.2984 79.8898 28.4153L79.9605 28.4478C80.0765 28.4185 80.1647 28.4008 80.2858 28.4041C80.4096 28.5315 80.4176 28.6352 80.4238 28.8084C80.5212 31.5186 79.3797 34.2491 77.5294 36.2005C76.1697 37.6346 74.1606 38.9218 72.2616 39.4583C71.4584 39.6852 70.6406 39.7819 69.8091 39.804ZM67.8763 19.5411C67.8591 19.548 67.8418 19.5553 67.8244 19.562C67.4761 19.6964 66.2471 19.8265 66.1099 20.1478C65.9737 20.4664 66.4057 21.6631 66.4633 22.0848C65.3437 22.2395 63.986 23.4104 63.3261 24.286C62.6033 25.2449 62.2446 26.4114 62.4213 27.6098C62.5378 28.3994 62.8973 29.1098 63.5502 29.5895C64.6768 30.4174 66.3008 30.437 67.6287 30.3131C67.73 30.7405 68.1354 32.0833 68.0232 32.4283C67.8302 32.5515 67.5809 32.4893 67.37 32.4431C66.9419 32.3492 66.0151 31.822 65.637 32.0148C65.5514 32.0585 65.5212 32.2278 65.5024 32.3155C65.4157 32.7198 65.1701 34.6411 65.3463 34.9469C65.4256 35.0105 65.471 35.0425 65.5732 35.0657C65.7851 35.1141 66.0613 35.0629 66.2812 35.0698C67.1705 35.0978 68.04 35.1949 68.9307 35.1026C69.0324 35.625 69.0806 36.3115 69.5547 36.6334C69.6227 36.6793 69.6914 36.724 69.7609 36.7675C70.1502 36.7499 71.2148 36.7496 71.4605 36.4318C71.5887 36.2661 71.5434 36.0119 71.4973 35.824C71.4084 35.4613 71.3041 35.1013 71.2113 34.7393L71.2696 34.6935C71.7629 34.3106 72.3598 34.0977 72.9053 33.8017C74.0666 33.1717 75.4822 32.1135 75.6709 30.7093C75.7651 30.0088 75.5426 29.3006 75.106 28.7505C74.4578 27.934 73.4426 27.667 72.4481 27.5624C71.6023 27.4737 70.7544 27.5833 69.9191 27.5138C69.8134 27.505 69.7433 27.4828 69.6631 27.4137C69.4094 26.7714 69.3845 25.611 69.2889 24.8927C69.4772 24.898 69.663 24.9043 69.848 24.9428C70.1111 24.9975 70.9535 25.3248 71.1502 25.1187C71.4119 24.8445 71.3017 24.1154 71.2706 23.7654C71.2084 23.0655 71.1742 22.2728 70.9023 21.6234C70.7832 21.5942 70.5908 21.5311 70.4696 21.548C70.3086 21.5705 70.1426 21.7195 69.9838 21.7693C69.6709 21.8674 69.1786 21.8585 68.8442 21.865C68.6677 21.0969 68.5783 20.0241 67.8846 19.5454C67.882 19.5437 67.8791 19.5425 67.8763 19.5411Z" fill="#FEFEFE"/>
<path d="M66.4633 22.0847C66.4057 21.663 65.9737 20.4663 66.1099 20.1478C66.2471 19.8264 67.4761 19.6964 67.8244 19.5619C67.8418 19.5553 67.8591 19.548 67.8763 19.541C67.8791 19.5424 67.882 19.5436 67.8846 19.5453C68.5783 20.024 68.6677 21.0968 68.8442 21.8649C69.1786 21.8584 69.6709 21.8673 69.9838 21.7692C70.1426 21.7194 70.3086 21.5704 70.4696 21.5479C70.5908 21.531 70.7832 21.5941 70.9023 21.6233C71.1742 22.2727 71.2084 23.0655 71.2706 23.7653C71.3017 24.1154 71.4119 24.8445 71.1502 25.1186C70.9535 25.3247 70.1111 24.9975 69.848 24.9427C69.663 24.9043 69.4772 24.8979 69.2889 24.8926C69.3845 25.611 69.4094 26.7713 69.6631 27.4136C69.7433 27.4828 69.8134 27.5049 69.9191 27.5137C70.7544 27.5833 71.6023 27.4736 72.4481 27.5624C73.4426 27.6669 74.4578 27.9339 75.106 28.7505C75.5426 29.3005 75.7651 30.0087 75.6709 30.7092C75.4822 32.1135 74.0666 33.1716 72.9053 33.8016C72.3598 34.0976 71.7629 34.3105 71.2696 34.6935L71.2113 34.7392C71.3041 35.1012 71.4084 35.4612 71.4973 35.8239C71.5434 36.0119 71.5887 36.266 71.4605 36.4318C71.2148 36.7495 70.1502 36.7499 69.7609 36.7674C69.6914 36.7239 69.6227 36.6792 69.5547 36.6333C69.0806 36.3114 69.0324 35.625 68.9307 35.1025C68.04 35.1948 67.1705 35.0977 66.2812 35.0698C66.0613 35.0628 65.7851 35.114 65.5732 35.0656C65.471 35.0424 65.4256 35.0104 65.3463 34.9469C65.1701 34.641 65.4157 32.7197 65.5024 32.3154C65.5212 32.2277 65.5514 32.0584 65.637 32.0147C66.0151 31.8219 66.9419 32.3491 67.37 32.443C67.5809 32.4892 67.8302 32.5515 68.0232 32.4283C68.1354 32.0833 67.73 30.7404 67.6287 30.313C66.3008 30.4369 64.6768 30.4173 63.5502 29.5894C62.8973 29.1097 62.5378 28.3994 62.4213 27.6097C62.2446 26.4113 62.6033 25.2449 63.3262 24.2859C63.986 23.4104 65.3437 22.2394 66.4633 22.0847ZM67.4428 20.5886C67.2952 20.599 67.116 20.5898 66.9911 20.6763C66.968 21.2095 67.3193 22.2358 67.5193 22.7499C66.1373 23.0418 64.5781 23.7757 63.7862 25.004C63.2947 25.7664 63.1059 26.7106 63.312 27.5966C63.4351 28.1262 63.7157 28.6033 64.1827 28.8966C65.4497 29.6925 67.1167 29.2687 68.5124 29.3596C68.6755 30.7226 68.9747 32.0493 69.3212 33.3767L69.2581 33.3977C68.5846 33.6142 67.7783 33.5492 67.0938 33.4082C66.8793 33.3641 66.623 33.2695 66.4057 33.2729C66.3346 33.274 66.3111 33.3137 66.2808 33.3771C66.1927 33.5608 66.2086 33.9028 66.2952 34.0827C66.5639 34.3186 68.1709 34.2381 68.5886 34.2117C68.9094 34.1913 69.2393 34.1685 69.5538 34.0993C69.6821 34.5386 69.8127 34.9773 69.9456 35.4153C69.9852 35.5605 69.9924 35.7446 70.1392 35.8212C70.2513 35.8798 70.3179 35.8584 70.4317 35.8315C70.5164 35.719 70.5278 35.6728 70.508 35.531C70.4401 35.0463 70.2055 34.5263 70.0688 34.0529C71.6717 33.6407 73.6638 32.7787 74.5286 31.2897C74.7943 30.8321 74.8713 30.3423 74.7221 29.8308C74.5768 29.3322 74.1833 28.9761 73.7327 28.7454C72.5272 28.1285 70.2528 28.4086 68.8582 28.3937C68.7448 26.9848 68.5538 25.2184 68.1965 23.8581C68.9454 23.8778 69.6909 23.9665 70.4237 24.1229C70.3567 23.6259 70.3407 23.1364 70.2307 22.6448C69.8764 22.6741 68.4231 22.8336 68.1859 22.6776C67.8832 22.4785 68.0287 20.6167 67.5711 20.5755C67.5381 20.5725 67.4767 20.5835 67.4428 20.5886Z" fill="#2A2A2A"/>
<path d="M67.5193 22.7498C67.3193 22.2357 66.968 21.2094 66.9911 20.6762C67.116 20.5897 67.2951 20.5989 67.4428 20.5885C67.4767 20.5834 67.538 20.5725 67.571 20.5755C68.0287 20.6166 67.8831 22.4784 68.1859 22.6775C68.423 22.8335 69.8764 22.6741 70.2307 22.6447C70.3407 23.1363 70.3567 23.6258 70.4237 24.1228C69.6909 23.9664 68.9454 23.8777 68.1965 23.858C68.5538 25.2183 68.7448 26.9847 68.8582 28.3937C70.2528 28.4086 72.5271 28.1284 73.7327 28.7453C74.1833 28.976 74.5768 29.3321 74.7221 29.8307C74.8713 30.3422 74.7943 30.832 74.5286 31.2896C73.6638 32.7786 71.6717 33.6407 70.0688 34.0528C70.2055 34.5262 70.4401 35.0462 70.508 35.5309C70.5278 35.6727 70.5164 35.7189 70.4317 35.8314C70.3179 35.8583 70.2513 35.8797 70.1391 35.8211C69.9924 35.7445 69.9852 35.5604 69.9455 35.4152C69.8127 34.9772 69.6821 34.5385 69.5538 34.0992C69.2393 34.1685 68.9094 34.1912 68.5886 34.2116C68.1709 34.238 66.5639 34.3186 66.2952 34.0826C66.2086 33.9027 66.1927 33.5607 66.2808 33.377C66.311 33.3137 66.3346 33.2739 66.4057 33.2728C66.623 33.2694 66.8793 33.364 67.0938 33.4082C67.7783 33.5492 68.5846 33.6141 69.2581 33.3977L69.3212 33.3767C68.9747 32.0492 68.6755 30.7225 68.5124 29.3596C67.1167 29.2686 65.4497 29.6924 64.1827 28.8965C63.7157 28.6032 63.4351 28.1261 63.312 27.5965C63.1059 26.7106 63.2947 25.7663 63.7862 25.0039C64.5781 23.7756 66.1373 23.0417 67.5193 22.7498ZM67.5535 24.074C66.631 24.4566 65.8662 25.0273 65.4646 25.9742C65.3044 26.3522 65.2581 26.7594 65.4188 27.1456C65.6093 27.6032 65.9966 27.8657 66.4211 28.0817C67.0684 28.3184 67.5877 28.3377 68.2702 28.3099C68.1439 27.2617 67.9599 26.2198 67.8121 25.1744C67.7736 24.9027 67.7861 24.4707 67.6989 24.2244C67.6951 24.2136 67.6179 24.1102 67.6126 24.1055C67.5958 24.0908 67.5732 24.0845 67.5535 24.074ZM70.2657 29.319C70.2425 29.3258 70.2196 29.3333 70.1963 29.3396C69.9031 29.4192 69.3389 29.2014 69.1234 29.4161C69.0275 30.3293 69.7609 32.1799 69.8614 33.2278C69.9417 33.2854 69.9227 33.2942 70.0324 33.2792C70.4293 33.2252 70.877 32.9807 71.2295 32.7931C71.9493 32.4421 72.3578 32.0854 72.8574 31.4667C72.9243 30.9908 72.971 30.561 72.6696 30.1458C72.2955 29.6305 71.5894 29.4712 70.9924 29.3942C70.7571 29.3638 70.4913 29.3822 70.2657 29.319Z" fill="#FEFEFE"/>
<path d="M66.4212 28.0818C65.9967 27.8658 65.6094 27.6033 65.4189 27.1458C65.2582 26.7596 65.3044 26.3523 65.4646 25.9744C65.8662 25.0275 66.6311 24.4568 67.5536 24.0742C67.5732 24.0847 67.5958 24.091 67.6126 24.1057C67.618 24.1104 67.6951 24.2138 67.699 24.2246C67.7862 24.4709 67.7737 24.9029 67.8121 25.1746C67.96 26.22 68.1439 27.2619 68.2703 28.3101C67.5878 28.3379 67.0684 28.3186 66.4212 28.0818ZM66.9083 25.4745C66.6406 25.7533 66.2958 26.1614 66.3151 26.5698C66.3231 26.7376 66.3805 26.8624 66.5051 26.9718C66.6043 27.0588 66.7113 27.1399 66.8187 27.2166C66.9433 27.2895 67.0688 27.361 67.1948 27.4314C67.1578 27.0386 67.1147 25.7397 66.9083 25.4745Z" fill="#2A2A2A"/>
<path d="M66.8186 27.2165C66.7113 27.1398 66.6043 27.0586 66.505 26.9716C66.3805 26.8623 66.3231 26.7375 66.3151 26.5697C66.2958 26.1613 66.6406 25.7532 66.9083 25.4744C67.1147 25.7396 67.1578 27.0385 67.1948 27.4313C67.0688 27.3609 66.9433 27.2894 66.8186 27.2165Z" fill="#FEFEFE"/>
<path d="M71.2295 32.7931C70.877 32.9807 70.4293 33.2252 70.0325 33.2793C69.9227 33.2943 69.9417 33.2855 69.8614 33.2278C69.7609 32.18 69.0275 30.3294 69.1234 29.4161C69.3389 29.2015 69.9031 29.4192 70.1963 29.3396C70.2196 29.3334 70.2425 29.3259 70.2657 29.319C70.4913 29.3823 70.7571 29.3638 70.9925 29.3942C71.5894 29.4713 72.2955 29.6306 72.6696 30.1459C72.971 30.561 72.9243 30.9909 72.8574 31.4667C72.3578 32.0855 71.9493 32.4421 71.2295 32.7931ZM70.5091 30.4218C70.3855 30.6882 70.6267 31.4288 70.694 31.74C70.8534 31.5847 71.0097 31.4115 71.1867 31.277C71.3655 31.1203 71.5553 30.9688 71.7127 30.7903C71.4481 30.5628 71.2861 30.4946 70.9471 30.4399L70.8719 30.4273C70.7414 30.4061 70.6408 30.3923 70.5091 30.4218Z" fill="#2A2A2A"/>
<path d="M70.6941 31.7402C70.6268 31.4289 70.3855 30.6884 70.5091 30.422C70.6408 30.3924 70.7414 30.4063 70.8719 30.4275L70.9471 30.44C71.2861 30.4948 71.4481 30.563 71.7128 30.7905C71.5554 30.969 71.3655 31.1205 71.1867 31.2771C71.0097 31.4117 70.8534 31.5848 70.6941 31.7402Z" fill="#FEFEFE"/>
<path d="M27.712 40.1796C28.2117 40.1599 31.2319 39.5354 31.5459 39.3465C31.6568 39.158 31.6868 38.9348 31.7079 38.7197C31.7707 38.083 31.7333 37.4225 31.7438 36.7822C31.7588 35.8811 31.8098 34.9813 31.848 34.0811C32.8678 34.0296 34.8697 34.0546 35.841 34.2825C35.9976 35.2238 35.8917 38.8193 36.212 39.3396C36.6498 39.5925 39.4268 40.0863 40.1204 40.191C40.4658 39.6834 40.6382 39.0078 40.859 38.4381C41.0867 37.8507 41.3541 37.2748 41.6002 36.6948C41.8058 36.2097 41.9872 35.7024 42.247 35.2434C43.4802 35.6317 44.7193 36.1659 45.9109 36.672C45.7939 38.3052 44.6872 40.2642 44.0289 41.7588C44.4026 42.0803 46.6657 43.4542 47.0922 43.5646C47.6131 43.4995 49.9685 41.0202 50.5142 40.5228C50.7377 40.3191 50.9776 40.1417 51.2249 39.9683C51.6136 40.2445 51.9429 40.6053 52.2935 40.9272C52.8757 41.4622 53.5377 41.9612 54.0187 42.5927C53.0594 44.24 51.5225 45.4824 50.4353 47.0285C51.0192 48.0347 51.8455 48.9187 52.4775 49.9049C53.1138 49.7133 53.7436 49.3482 54.3496 49.0724C55.5114 48.5437 56.7043 48.0707 57.8131 47.4352C58.5581 48.4843 59.0797 49.7655 59.5096 50.9752C58.1146 52.1209 56.0264 52.8209 54.7042 53.9271C54.7728 54.3668 54.9097 54.8027 55.0126 55.2362C55.1629 55.8689 55.2903 56.5159 55.4845 57.1365C56.0858 57.1399 56.6879 57.0376 57.2854 56.9773C58.4822 56.8567 59.6932 56.7295 60.8956 56.7035C61.4004 57.8677 61.449 59.2023 61.4863 60.4525C60.4767 60.6631 56.7 61.1923 56.1151 61.547C55.9459 61.8499 55.8204 64.9142 55.8127 65.4862C56.8368 65.8643 58.2206 66.1755 59.3032 66.4951C59.8744 66.6637 60.4319 66.8063 60.9567 67.0933C60.9362 68.1429 60.7349 69.4166 60.3705 70.4114C60.3238 70.5389 60.2193 70.8004 60.0708 70.8403C59.5039 70.9926 55.444 69.5802 54.7647 69.9013C54.6594 70.0133 54.5915 70.1191 54.5266 70.2588C54.3011 70.7442 54.1725 71.2818 53.9617 71.7757C53.7345 72.3078 53.4173 72.8005 53.2124 73.3432C53.1535 73.4992 53.1232 73.6392 53.1163 73.8059C53.4809 74.3235 55.1774 75.299 55.7989 75.727C56.3082 76.0777 56.8276 76.4654 57.2831 76.8843L57.3232 76.9218C57.0534 77.5278 55.7541 79.8695 55.2207 80.1241C54.4152 80.1836 51.6762 78.0521 50.6303 77.6452C50.6125 77.6383 50.5944 77.6319 50.5764 77.6253C50.1519 77.8508 49.7939 78.2672 49.4455 78.5937C48.9464 79.0616 48.4368 79.5379 47.8919 79.9524C48.6345 81.1261 50.1674 83.4587 50.5326 84.7123C49.956 85.2541 49.3911 85.7351 48.7003 86.1278C48.3694 86.316 47.8307 86.6384 47.4423 86.5087C46.8229 86.3019 44.9338 82.8076 44.5689 82.1003C44.1062 82.2768 43.6612 82.5277 43.2087 82.7308C42.3404 83.1205 41.4365 83.4937 40.5374 83.8057C40.7825 84.835 41.7764 88.2597 41.5249 89.2048C41.4808 89.3701 41.3529 89.4526 41.2091 89.5236C40.7704 89.7399 38.2499 90.4578 37.8852 90.2869C37.1221 89.9292 36.8213 85.6131 36.3919 84.6225C36.2433 84.5812 36.0788 84.6137 35.9256 84.6275C34.6778 84.7165 33.4556 84.7247 32.2114 84.5879C32.0964 85.6618 31.9944 89.6476 31.4996 90.3351C31.4163 90.451 31.3208 90.4882 31.1838 90.5082C30.6323 90.5885 27.9845 90.1342 27.5638 89.8311C27.4679 89.6531 27.4593 89.4659 27.4568 89.2665C27.45 88.716 27.5521 88.1304 27.6098 87.582L28.0026 84.0525C27.1643 83.8294 26.329 83.5831 25.5217 83.2643C24.9829 83.0516 24.4643 82.7904 23.9225 82.5866C23.2909 83.9693 22.6397 85.4594 21.7396 86.691C21.5964 86.8867 21.3681 87.203 21.1077 87.2277C20.4743 87.288 18.4841 85.8951 17.9921 85.4646C18.2475 84.4152 19.6836 81.5742 20.3006 80.6226C19.3364 79.7545 18.2771 79.0035 17.3519 78.086C16.4989 78.5995 13.6698 80.7589 12.9448 80.8005C12.2671 80.5211 11.1928 78.602 10.6877 77.9373C11.2759 77.3727 11.8849 76.8104 12.5321 76.3143C13.3576 75.6817 14.2551 75.114 14.989 74.3734C14.2256 73.2893 13.6678 72.0199 13.1565 70.8028C12.5145 71.0059 11.8838 71.2455 11.2408 71.4468C10.1665 71.7801 9.07758 72.0637 7.97722 72.2965C7.64333 71.6657 6.53489 69.1075 6.75798 68.4935C6.90258 68.0954 11.0782 66.7475 11.751 66.4426L11.8068 66.4167C11.5694 65.1389 11.4773 63.839 11.3878 62.5443C9.69169 62.0867 7.76018 62.4507 5.98831 61.8466C5.79886 60.7435 6.0471 59.153 6.25634 58.0448C6.9873 57.9789 7.74907 58.0853 8.47999 58.1327L11.5148 58.3055C11.678 57.5203 11.8631 56.7398 12.0699 55.9651C12.2213 55.4102 12.4608 54.7965 12.5132 54.2262C12.0763 53.7098 8.70804 52.4006 7.7793 51.6976C7.7655 51.6872 7.75203 51.6763 7.73838 51.6656C8.10269 50.5163 8.74591 48.9635 9.44935 47.9908C10.515 48.4772 11.576 48.9735 12.6323 49.4798C13.2204 49.7625 13.795 50.0755 14.3948 50.3333C14.7572 49.8839 15.0437 49.317 15.3713 48.8349C15.8354 48.1519 16.3529 47.5041 16.8132 46.8219C16.3696 46.1196 15.5981 45.4212 15.0339 44.7964C14.4174 44.1135 13.8516 43.3924 13.2943 42.6609C14.0276 41.8359 15.3971 40.8358 16.3312 40.2088C17.7172 41.2178 18.817 42.6216 20.1379 43.7162C20.7834 43.3856 21.3908 42.9274 22.0055 42.5399C22.5018 42.2271 23.0412 41.9606 23.5051 41.6018C23.6841 41.1848 22.464 38.2338 22.2629 37.6236C22.1313 37.224 22.0421 36.8196 21.9602 36.4075C23.0805 35.8759 24.4035 35.4738 25.6205 35.238C26.3559 36.8712 27.0355 38.5216 27.712 40.1796ZM32.6901 44.3065C31.9383 44.3729 31.1976 44.4444 30.4564 44.5928C26.6198 45.3608 22.8788 47.406 20.3444 50.4135C20.1079 50.6967 19.8825 50.9889 19.6686 51.2896C19.2343 50.9938 18.7479 50.5802 18.2302 50.4623L18.1272 50.4894C18.1143 50.633 18.1913 50.7265 18.2832 50.8324C18.5852 51.1797 19.0162 51.4609 19.3793 51.7433C19.0478 52.2592 18.7277 52.7917 18.3657 53.2868C18.0337 52.9598 17.6811 52.537 17.2357 52.3754L17.1278 52.3911C17.0981 52.511 17.1268 52.5778 17.1869 52.6854C17.3963 53.0603 17.8426 53.3771 18.1648 53.651C17.7623 54.4662 17.3718 55.2646 17.0823 56.129C15.936 59.5516 15.7332 63.8019 16.8876 67.2406C17.1882 68.136 17.5988 68.9724 18.0465 69.8011C19.7124 72.8843 22.1262 75.4733 25.2954 77.0347C27.2498 77.9974 29.1809 78.6 31.3305 78.9544C32.3784 79.0704 33.4452 79.1533 34.5001 79.1109C38.4471 78.9524 42.4325 77.4277 45.5086 74.9603C48.6826 72.4142 50.458 68.673 50.8791 64.6758C51.3072 60.6103 50.5626 55.3778 48.2557 51.9419C48.4953 51.8237 48.7251 51.7415 48.8857 51.5182L48.9007 51.4006C48.7925 51.2976 48.6649 51.2726 48.5163 51.2796C48.3154 51.2889 48.0981 51.3615 47.9054 51.4171C45.8556 48.1324 41.6804 45.6635 37.9623 44.8009C36.5854 44.4815 34.0442 44.0721 32.6901 44.3065Z" fill="#FEFEFE"/>
<path d="M19.6686 51.2895C19.8825 50.9888 20.1079 50.6966 20.3444 50.4134C22.8788 47.4059 26.6198 45.3606 30.4564 44.5927C31.1976 44.4443 31.9383 44.3728 32.6901 44.3064C34.0442 44.0719 36.5854 44.4813 37.9623 44.8008C41.6804 45.6633 45.8556 48.1323 47.9054 51.417C48.0981 51.3614 48.3154 51.2888 48.5163 51.2794C48.6649 51.2725 48.7925 51.2974 48.9007 51.4005L48.8857 51.5181C48.7251 51.7413 48.4953 51.8236 48.2557 51.9418C50.5626 55.3776 51.3072 60.6102 50.8791 64.6757C50.458 68.6729 48.6826 72.4141 45.5086 74.9601C42.4325 77.4276 38.4471 78.9523 34.5001 79.1108C33.4452 79.1532 32.3784 79.0703 31.3305 78.9543C29.1809 78.5999 27.2498 77.9973 25.2954 77.0345C22.1262 75.4732 19.7124 72.8841 18.0465 69.801C17.5988 68.9723 17.1882 68.1359 16.8876 67.2405C15.7332 63.8018 15.936 59.5515 17.0823 56.1289C17.3718 55.2645 17.7623 54.4661 18.1648 53.6508C17.8426 53.377 17.3963 53.0602 17.1869 52.6853C17.1268 52.5777 17.0981 52.5108 17.1278 52.3909L17.2357 52.3753C17.6811 52.5369 18.0337 52.9597 18.3657 53.2866C18.7277 52.7915 19.0478 52.259 19.3793 51.7431C19.0162 51.4608 18.5852 51.1796 18.2832 50.8323C18.1913 50.7264 18.1143 50.6328 18.1272 50.4893L18.2302 50.4621C18.7479 50.5801 19.2343 50.9937 19.6686 51.2895ZM32.5765 44.9711C28.1482 45.3837 23.6165 47.4204 20.7382 50.8884C17.7786 54.4372 16.3584 59.0208 16.7932 63.6212C16.8923 64.7972 17.1273 65.9577 17.4932 67.0797C18.3993 69.7684 20.3861 72.6877 22.5645 74.4945C26.0063 77.3492 30.8252 78.8721 35.2885 78.4512C35.62 78.42 35.9489 78.3614 36.2799 78.3309C40.6784 77.6001 45.083 75.4096 47.7161 71.7112C50.215 68.2014 50.8479 62.9275 50.1258 58.7541C49.7116 56.3605 48.7973 54.2654 47.5944 52.1718C47.1971 52.397 46.5943 52.846 46.1405 52.8702C46.0327 52.8117 46.0267 52.8037 45.9713 52.6941C45.9976 52.4985 46.1293 52.3883 46.2788 52.2729C46.5864 52.0354 46.9377 51.8371 47.2672 51.6306C44.8682 48.1394 41.0583 46.0079 36.9316 45.2451C35.5095 44.9823 34.0205 44.8444 32.5765 44.9711Z" fill="#2A2A2A"/>
<path d="M36.2799 78.331C35.9489 78.3615 35.62 78.4201 35.2885 78.4513C30.8252 78.8722 26.0063 77.3492 22.5645 74.4946C20.3861 72.6878 18.3993 69.7684 17.4932 67.0798C17.1273 65.9578 16.8923 64.7972 16.7931 63.6212C16.3584 59.0208 17.7786 54.4373 20.7381 50.8885C23.6165 47.4205 28.1481 45.3838 32.5765 44.9712C34.0205 44.8445 35.5095 44.9824 36.9316 45.2452C41.0583 46.008 44.8682 48.1395 47.2672 51.6307C46.9377 51.8372 46.5864 52.0355 46.2788 52.273C46.1293 52.3884 45.9976 52.4986 45.9713 52.6942C46.0266 52.8038 46.0326 52.8118 46.1405 52.8703C46.5943 52.8461 47.1971 52.3971 47.5944 52.1719C48.7973 54.2655 49.7116 56.3606 50.1258 58.7542C50.8479 62.9276 50.215 68.2015 47.7161 71.7113C45.083 75.4096 40.6784 77.6002 36.2799 78.331ZM32.4962 47.4471C28.996 47.7254 25.8459 49.2857 23.5515 51.9623C21.1895 54.7179 20.1327 59.4631 20.425 63.0613C20.6935 66.3666 22.1933 69.8431 24.749 72.0013C27.8886 74.6526 30.8977 75.5031 34.9818 75.1206C34.9968 75.1192 35.0118 75.1173 35.0267 75.1157C38.491 74.6723 42.1743 73.069 44.3553 70.2496C46.5806 67.3848 47.5715 63.7508 47.1084 60.153C46.6012 56.3553 44.5998 52.4406 41.5165 50.1168C39.106 48.3002 35.5341 47.0901 32.4962 47.4471Z" fill="#FEFEFE"/>
<path d="M35.0267 75.1156C35.0118 75.1172 34.9968 75.1191 34.9818 75.1205C30.8977 75.503 27.8887 74.6525 24.749 72.0012C22.1933 69.843 20.6935 66.3665 20.425 63.0612C20.1327 59.463 21.1895 54.7178 23.5515 51.9622C25.8459 49.2855 28.996 47.7253 32.4962 47.447C35.5341 47.09 39.106 48.3 41.5165 50.1167C44.5998 52.4405 46.6012 56.3552 47.1084 60.1529C47.5715 63.7507 46.5806 67.3847 44.3553 70.2495C42.1743 73.0689 38.491 74.6722 35.0267 75.1156ZM32.3318 48.2904C31.5981 48.3294 29.6767 48.6414 29.1161 49.1032L29.4632 49.0513C29.9537 48.9434 32.4447 48.4715 32.7185 48.3035C32.5834 48.2581 32.47 48.2758 32.3318 48.2904ZM33.0849 53.057C32.9149 53.116 32.7905 53.1746 32.7065 53.3464C32.5738 53.6181 32.6252 53.9877 32.6345 54.2816C31.0414 55.066 29.3591 56.0861 28.7573 57.8686C28.5156 58.5849 28.5007 59.3835 28.8344 60.0737C29.1826 60.7941 29.8624 61.1775 30.5921 61.4192C31.3597 61.6736 32.2773 61.7972 33.0862 61.84C33.232 63.7019 33.3927 65.5625 33.5682 67.4218C32.8139 67.6896 32.0178 67.8269 31.2286 67.9485C30.7147 68.0279 30.1382 68.0654 29.6537 68.2635C29.5209 68.3177 29.4534 68.37 29.3909 68.5019C29.3407 68.6078 29.3378 68.6875 29.3488 68.8049C29.4428 68.963 29.5385 69.0395 29.715 69.0839C30.6157 69.31 32.6579 69.0015 33.5964 68.7968C33.6572 69.2523 33.6865 70.1926 34.0855 70.4782C34.2035 70.5626 34.3218 70.588 34.4639 70.5548C34.6346 70.515 34.8041 70.419 34.8876 70.2593C34.9479 70.1435 34.9781 69.9894 34.9956 69.8603C34.9605 69.4035 34.9434 68.9367 34.8722 68.484C36.3847 68.1142 38.3576 67.1841 39.1897 65.7881C39.535 65.209 39.6369 64.5601 39.4604 63.9071C39.2283 63.0488 38.6104 62.319 37.8448 61.8805C36.7072 61.2286 35.4927 61.0982 34.2352 60.8539C34.1644 58.9315 33.8738 57.0204 33.8426 55.0945C34.7661 54.9056 35.696 54.7504 36.6306 54.6292C37.1191 54.5704 37.6342 54.5711 38.1151 54.4795C38.2316 54.4573 38.3108 54.4383 38.3856 54.3386C38.4768 54.2167 38.5114 53.9831 38.4702 53.8389C38.4264 53.6857 38.2962 53.595 38.1559 53.5398C37.2297 53.1757 34.7899 53.6382 33.7782 53.8906C33.7328 53.6606 33.708 53.3362 33.5153 53.1786C33.3994 53.0836 33.2287 53.0653 33.0849 53.057Z" fill="#2A2A2A"/>
<path d="M29.4632 49.0513L29.1161 49.1032C29.6767 48.6414 31.5981 48.3294 32.3318 48.2904C32.47 48.2758 32.5834 48.2581 32.7185 48.3035C32.4447 48.4715 29.9537 48.9434 29.4632 49.0513Z" fill="#FEFEFE"/>
<path d="M32.6345 54.2817C32.6252 53.9878 32.5738 53.6182 32.7065 53.3465C32.7905 53.1747 32.9149 53.1161 33.0849 53.0571C33.2286 53.0654 33.3994 53.0837 33.5153 53.1787C33.708 53.3363 33.7328 53.6607 33.7782 53.8908C34.7899 53.6383 37.2297 53.1758 38.1559 53.5399C38.2962 53.5952 38.4264 53.6858 38.4702 53.839C38.5114 53.9832 38.4768 54.2168 38.3856 54.3387C38.3108 54.4384 38.2316 54.4574 38.1151 54.4796C37.6342 54.5712 37.1191 54.5705 36.6306 54.6293C35.696 54.7505 34.766 54.9057 33.8426 55.0946C33.8738 57.0205 34.1644 58.9316 34.2351 60.854C35.4927 61.0983 36.7071 61.2288 37.8448 61.8806C38.6104 62.3192 39.2283 63.0489 39.4604 63.9072C39.6369 64.5603 39.535 65.2091 39.1897 65.7882C38.3576 67.1842 36.3847 68.1143 34.8722 68.4842C34.9434 68.9368 34.9605 69.4036 34.9956 69.8604C34.9781 69.9895 34.9479 70.1436 34.8875 70.2594C34.8041 70.4191 34.6346 70.5151 34.4639 70.5549C34.3218 70.5881 34.2035 70.5627 34.0855 70.4783C33.6865 70.1928 33.6572 69.2524 33.5964 68.7969C32.6579 69.0017 30.6156 69.3101 29.715 69.084C29.5385 69.0396 29.4428 68.9631 29.3488 68.805C29.3378 68.6876 29.3407 68.6079 29.3909 68.502C29.4534 68.3701 29.5209 68.3178 29.6537 68.2636C30.1382 68.0655 30.7146 68.028 31.2286 67.9487C32.0178 67.827 32.8139 67.6897 33.5682 67.4219C33.3927 65.5626 33.232 63.702 33.0861 61.8401C32.2773 61.7973 31.3597 61.6737 30.5921 61.4193C29.8624 61.1776 29.1826 60.7942 28.8344 60.0738C28.5007 59.3836 28.5155 58.585 28.7573 57.8688C29.3591 56.0862 31.0414 55.0661 32.6345 54.2817ZM32.6609 55.5359C31.5693 56.0725 30.2693 57.0748 29.8698 58.2775C29.7337 58.687 29.6908 59.1522 29.9079 59.5421C30.0828 59.856 30.347 60.0378 30.6635 60.1919C31.4064 60.4527 32.229 60.5418 33.0082 60.6397C32.9748 60.0882 32.7342 55.666 32.6609 55.5359ZM34.2965 62.057C34.4722 63.7647 34.623 65.496 34.7443 67.2087C35.6364 66.9102 36.4578 66.6168 37.2393 66.0756C37.704 65.7151 38.1656 65.2644 38.2563 64.6535C38.3164 64.2484 38.1616 63.8083 37.9189 63.4864C37.1445 62.4593 35.4746 62.2601 34.2965 62.057Z" fill="#FEFEFE"/>
<path d="M30.6635 60.1919C30.3471 60.0378 30.0828 59.856 29.9079 59.5421C29.6908 59.1522 29.7337 58.687 29.8698 58.2775C30.2693 57.0748 31.5693 56.0725 32.6609 55.5359C32.7342 55.666 32.9748 60.0882 33.0082 60.6397C32.229 60.5418 31.4064 60.4527 30.6635 60.1919Z" fill="#2A2A2A"/>
<path d="M34.7443 67.2085C34.623 65.4958 34.4723 63.7645 34.2965 62.0569C35.4746 62.2599 37.1445 62.4592 37.9189 63.4863C38.1616 63.8081 38.3164 64.2482 38.2563 64.6534C38.1656 65.2643 37.704 65.7149 37.2393 66.0755C36.4578 66.6166 35.6364 66.91 34.7443 67.2085Z" fill="#2A2A2A"/>
</g>
<defs>
<clipPath id="clip0_0_560">
<rect width="96" height="96" fill="white" transform="translate(0 0.740234)"/>
</clipPath>
</defs>
</svg>
