<svg width="96" height="97" viewBox="0 0 96 97" fill="none" xmlns="http://www.w3.org/2000/svg">
<g clip-path="url(#clip0_0_260)">
<path d="M0 0.740234H96V96.7402H0V0.740234ZM64.6121 9.18898C64.4858 9.27612 64.3644 9.34608 64.2171 9.39171C63.41 9.64153 62.5423 9.79255 61.7189 9.99188C59.7264 10.475 57.7316 10.9481 55.7344 11.411C47.5043 13.4029 39.2618 15.3425 31.0072 17.2295C29.7689 17.5147 28.4101 17.9489 27.1867 18.1778C26.0155 18.397 21.6325 18.2311 21.0051 18.5174C20.8734 18.5774 20.7654 18.7044 20.6793 18.8164C20.3513 19.2423 20.0895 19.7368 19.7971 20.1884C19.4336 20.7497 19.0341 21.2962 18.68 21.8611C18.6191 21.9582 18.5648 22.0749 18.5522 22.1902C18.5394 22.3062 18.5746 22.3909 18.6595 22.4677C18.7483 22.5481 18.9948 22.53 19.118 22.5312C19.9346 22.5395 20.7588 22.4763 21.5759 22.4532C23.759 22.3814 25.9425 22.3224 28.1262 22.2762C28.1397 22.5624 28.094 23.0377 28.3441 23.2336C28.5213 23.3722 28.8418 23.3395 29.0542 23.3442C29.1099 26.5412 29.1479 29.7384 29.1682 32.9358C28.9799 32.9317 28.7826 32.9053 28.6075 32.9844C28.5341 33.1031 28.5516 33.1717 28.5839 33.3063C28.7411 33.9596 29.5242 35.7435 29.817 36.4397C29.9619 36.7844 30.182 37.1369 30.2109 37.512C30.2208 37.6405 30.239 37.7694 30.2519 37.8978C30.4253 38.0114 30.5954 38.1205 30.7811 38.2136C30.8058 38.5847 30.8481 38.9579 30.8613 39.329C30.6337 39.1971 30.452 39.0777 30.2662 38.8878C30.107 38.7251 30.0212 38.5818 29.7879 38.5529C29.6677 38.6135 29.6381 38.6256 29.5926 38.7625C29.512 39.0047 29.6582 39.361 29.7952 39.5562C29.9986 39.8459 30.32 40.094 30.6758 40.151C30.9667 40.1976 31.2769 40.0888 31.5041 39.908C31.6865 39.7629 31.7504 39.5692 31.7663 39.3425C31.7957 38.9193 31.554 38.251 31.8397 37.9176C32.0749 37.6431 33.9398 33.4186 33.9416 33.1091C33.9419 33.0609 33.9404 33.0598 33.8983 33.0288C33.6858 32.8719 33.2388 32.9477 32.9867 32.9591L33.1354 23.0383C33.4327 23.019 34.015 23.054 34.1996 22.7998C34.3387 22.608 34.2878 22.2827 34.2801 22.0605L47.5313 21.5621C51.354 21.4538 55.1997 21.4236 59.0162 21.1888C59.0212 22.0219 59.0213 22.855 59.0161 23.6881C59.0122 24.2856 58.9253 25.0387 59.0701 25.6166C59.371 26.8179 61.011 28.6762 61.0193 29.7956C61.0299 31.22 60.8996 32.6564 60.8303 34.0795L60.4404 42.251L59.2053 67.0775C58.9919 71.3056 58.7076 75.5406 58.5921 79.7729L56.9317 79.7766C56.2401 78.0904 54.6975 77.2093 53.0907 76.538C52.5846 76.3266 52.0547 76.121 51.5178 76.0037C51.164 69.4142 48.515 62.9577 43.5587 58.5076C42.7993 57.8258 42.0158 57.1823 41.144 56.6477C40.6259 56.33 40.0411 56.0753 39.5513 55.7195C38.8925 55.241 38.364 54.5871 37.7238 54.0823C35.0725 51.9918 32.0385 51.0518 28.6777 51.2261C28.0623 51.258 27.3597 51.3276 26.766 51.5046C25.5027 51.8812 24.2587 52.8965 23.2581 53.7428C22.9178 54.0306 22.5782 54.4778 22.2081 54.7057C21.5528 55.1091 20.6484 55.3862 19.9328 55.7904C18.0134 56.8746 16.4993 58.5117 15.0458 60.1376C12.7635 62.691 11.0673 65.9213 10.0704 69.1883C9.56428 70.9924 9.22613 72.7414 8.9681 74.5941C8.36703 74.6917 7.51833 74.9357 7.13974 75.4522C7.1051 75.4995 7.07367 75.5487 7.04265 75.5983C6.99894 76.1265 6.84608 76.8516 7.23634 77.2798C7.41658 77.4775 7.71035 77.5882 7.95589 77.6848C10.0782 78.5192 12.2971 79.1657 14.4645 79.8757L23.7757 82.9538C26.8903 83.9686 30.0126 84.96 33.1419 85.9281C35.3254 86.6194 37.5249 87.3691 39.7457 87.928C40.9906 88.2413 42.3095 88.3805 43.5924 88.396C47.6764 88.4451 52.6531 87.0513 55.6036 84.1376C56.0947 83.6527 56.4663 83.133 56.7911 82.526C58.0238 82.4712 59.2631 82.5009 60.4969 82.4986L69.0004 82.499C68.6276 83.4509 67.5612 85.4252 68.0156 86.4166C68.0437 86.4776 68.0822 86.5241 68.1277 86.5725C68.8409 86.7622 70.2658 86.6408 71.0798 86.6348L75.5356 86.6223L85.2701 86.6425C86.2019 86.6367 87.8049 86.7501 88.6509 86.6027C88.8791 86.3916 88.9014 86.1003 88.9119 85.8036C88.9246 85.4469 88.9104 85.0594 88.799 84.7178C88.6497 84.2602 86.5164 79.6796 86.332 79.4693C86.0752 79.1765 85.314 79.2132 84.958 79.2085C84.9163 79.208 84.8747 79.2081 84.833 79.2088C84.6087 77.9636 84.2386 76.7164 83.9317 75.4873L81.9552 67.791L80.7751 63.0992C80.504 61.982 80.2671 60.8147 79.8982 59.7254C79.8225 59.502 79.7497 59.3608 79.5493 59.2242C79.1607 58.9593 78.5499 58.9625 78.1022 59.0602C77.8313 59.1193 77.5432 59.2568 77.3926 59.5012C77.089 59.994 76.3951 63.1123 76.1665 63.9795L73.6327 73.5534C73.165 75.3264 72.739 77.1199 72.22 78.8783C71.4352 78.9441 70.8325 78.9425 70.2772 79.5929C70.2205 79.6594 70.1656 79.7274 70.1125 79.7968C69.3862 79.7962 68.6584 79.7724 67.9324 79.7824L66.9498 49.5955L66.575 38.0337C66.4789 35.3618 66.3065 32.6779 66.3278 30.0039C66.3387 28.6423 67.6034 27.1289 67.894 25.7927C68.0247 25.192 67.939 24.4646 67.935 23.8502L67.9211 20.7519C68.9153 20.7125 69.9092 20.645 70.9028 20.6072L71.3797 21.1284C73.0221 21.1385 74.6737 21.1006 76.3161 21.0613C77.0975 21.0425 77.9259 21.078 78.7008 20.981C78.6984 21.5933 78.7028 22.2058 78.7139 22.8181C80.8081 22.674 82.9114 22.7716 85.0057 22.6596C85.0347 21.9307 85.0282 21.2008 84.9861 20.4725C85.1868 20.177 85.3193 19.6944 85.2635 19.3332C85.23 19.1165 85.1189 18.9374 84.9364 18.8155C84.5616 18.5655 84.0563 18.6335 83.6314 18.6455C82.004 17.6596 80.3581 16.7261 78.7039 15.7873C78.0138 15.3957 77.3467 14.9619 76.6404 14.5994C74.3715 13.4345 72.0006 12.4591 69.7057 11.3436L66.6653 9.88239C66.322 9.71858 65.8443 9.56347 65.539 9.35292C65.4757 9.30919 65.4362 9.25148 65.387 9.19393C65.3752 9.18019 65.362 9.1677 65.3496 9.15459L64.6121 9.18898Z" fill="#FEFEFE"/>
<path d="M28.1262 22.2762C25.9425 22.3224 23.759 22.3813 21.5759 22.4532C20.7588 22.4762 19.9346 22.5394 19.118 22.5312C18.9948 22.5299 18.7483 22.548 18.6595 22.4677C18.5746 22.3908 18.5394 22.3062 18.5522 22.1902C18.5648 22.0749 18.6191 21.9582 18.68 21.861C19.0341 21.2962 19.4336 20.7496 19.7971 20.1883C20.0895 19.7367 20.3513 19.2422 20.6793 18.8163C20.7654 18.7044 20.8734 18.5773 21.005 18.5173C21.6325 18.231 26.0155 18.397 27.1866 18.1778C28.4101 17.9488 29.7689 17.5147 31.0071 17.2295C39.2618 15.3424 47.5043 13.4028 55.7343 11.4109C57.7316 10.9481 59.7264 10.475 61.7189 9.99183C62.5423 9.7925 63.4099 9.64148 64.217 9.39166C64.3644 9.34604 64.4858 9.27608 64.6121 9.18894L65.3495 9.15454C65.362 9.16766 65.3751 9.18014 65.3869 9.19389C65.4362 9.25143 65.4756 9.30914 65.539 9.35287C65.8442 9.56342 66.322 9.71853 66.6653 9.88234L69.7056 11.3436C72.0005 12.459 74.3715 13.4345 76.6404 14.5993C77.3466 14.9619 78.0137 15.3957 78.7038 15.7872C80.3581 16.7261 82.0039 17.6595 83.6313 18.6454C84.0562 18.6334 84.5615 18.5654 84.9363 18.8155C85.1189 18.9373 85.23 19.1165 85.2634 19.3332C85.3192 19.6944 85.1867 20.1769 84.986 20.4724C85.0281 21.2007 85.0347 21.9307 85.0056 22.6596C82.9113 22.7715 80.8081 22.6739 78.7139 22.818C78.7027 22.2057 78.6984 21.5933 78.7007 20.9809C77.9259 21.0779 77.0974 21.0425 76.316 21.0612C74.6736 21.1005 73.022 21.1384 71.3796 21.1284L70.9028 20.6071C69.9092 20.645 68.9153 20.7124 67.9211 20.7519L67.935 23.8501C67.939 24.4646 68.0247 25.192 67.894 25.7926C67.6034 27.1288 66.3387 28.6422 66.3278 30.0039C66.3064 32.6778 66.4788 35.3618 66.5749 38.0336L66.9497 49.5955L67.9323 79.7823C68.6583 79.7724 69.3861 79.7962 70.1125 79.7967C70.1656 79.7274 70.2205 79.6594 70.2771 79.5928C70.8325 78.9425 71.4352 78.9441 72.22 78.8783C72.739 77.1198 73.165 75.3264 73.6326 73.5534L76.1665 63.9794C76.3951 63.1122 77.089 59.9939 77.3926 59.5012C77.5431 59.2568 77.8312 59.1192 78.1022 59.0602C78.5499 58.9624 79.1607 58.9592 79.5493 59.2241C79.7497 59.3607 79.8225 59.5019 79.8981 59.7253C80.267 60.8146 80.5039 61.982 80.7751 63.0991L81.9552 67.7909L83.9317 75.4872C84.2386 76.7163 84.6087 77.9635 84.8329 79.2087C84.8746 79.2081 84.9163 79.208 84.958 79.2085C85.314 79.2131 86.0752 79.1765 86.332 79.4693C86.5164 79.6795 88.6497 84.2602 88.7989 84.7178C88.9104 85.0593 88.9246 85.4469 88.9119 85.8036C88.9014 86.1002 88.8791 86.3916 88.6509 86.6026C87.8049 86.7501 86.2019 86.6366 85.2701 86.6424L75.5356 86.6222L71.0798 86.6348C70.2658 86.6408 68.8409 86.7622 68.1276 86.5724C68.0822 86.524 68.0436 86.4775 68.0156 86.4165C67.5612 85.4251 68.6276 83.4508 69.0003 82.4989L60.4968 82.4985C59.2631 82.5009 58.0238 82.4711 56.7911 82.526C56.4663 83.1329 56.0946 83.6527 55.6036 84.1375C52.6531 87.0512 47.6763 88.4451 43.5924 88.396C42.3094 88.3805 40.9906 88.2413 39.7457 87.9279C37.5249 87.369 35.3254 86.6193 33.1419 85.9281C30.0125 84.9599 26.8903 83.9685 23.7757 82.9538L14.4645 79.8757C12.2971 79.1656 10.0782 78.5191 7.95588 77.6847C7.71034 77.5882 7.41657 77.4775 7.23633 77.2797C6.84607 76.8516 6.99894 76.1264 7.04264 75.5982C7.07366 75.5486 7.10509 75.4994 7.13973 75.4522C7.51832 74.9356 8.36702 74.6917 8.96809 74.5941C9.22613 72.7413 9.56427 70.9923 10.0704 69.1883C11.0673 65.9213 12.7635 62.6909 15.0458 60.1376C16.4992 58.5116 18.0134 56.8746 19.9328 55.7904C20.6484 55.3861 21.5528 55.1091 22.208 54.7057C22.5782 54.4778 22.9178 54.0306 23.258 53.7428C24.2586 52.8964 25.5027 51.8812 26.766 51.5046C27.3597 51.3276 28.0623 51.2579 28.6776 51.2261C32.0385 51.0518 35.0725 51.9917 37.7238 54.0822C38.364 54.5871 38.8925 55.2409 39.5513 55.7195C40.0411 56.0753 40.6259 56.3299 41.1439 56.6476C42.0158 57.1823 42.7993 57.8258 43.5587 58.5075C48.5149 62.9576 51.1639 69.4141 51.5178 76.0036C52.0547 76.121 52.5845 76.3266 53.0907 76.538C54.6975 77.2092 56.24 78.0903 56.9317 79.7766L58.592 79.7728C58.7075 75.5405 58.9919 71.3055 59.2053 67.0774L60.4404 42.2509L60.8303 34.0795C60.8996 32.6563 61.0299 31.22 61.0193 29.7956C61.011 28.6762 59.371 26.8179 59.0701 25.6166C58.9253 25.0387 59.0122 24.2856 59.0161 23.688C59.0212 22.855 59.0212 22.0218 59.0162 21.1887C55.1997 21.4236 51.354 21.4538 47.5313 21.5621L34.28 22.0604C34.2877 22.2826 34.3387 22.6079 34.1996 22.7997C34.015 23.054 33.4326 23.0189 33.1354 23.0382L32.9867 32.9591C33.2388 32.9476 33.6858 32.8719 33.8983 33.0287C33.9404 33.0597 33.9419 33.0609 33.9416 33.1091C33.9398 33.4185 32.0749 37.6431 31.8397 37.9176C31.554 38.251 31.7957 38.9192 31.7662 39.3424C31.7504 39.5692 31.6865 39.7629 31.5041 39.9079C31.2769 40.0887 30.9666 40.1976 30.6758 40.151C30.32 40.094 29.9986 39.8458 29.7952 39.5561C29.6582 39.361 29.512 39.0046 29.5925 38.7625C29.6381 38.6256 29.6676 38.6134 29.7879 38.5528C30.0212 38.5817 30.107 38.7251 30.2661 38.8877C30.452 39.0777 30.6336 39.1971 30.8613 39.329C30.848 38.9578 30.8058 38.5846 30.7811 38.2136C30.5954 38.1205 30.4252 38.0113 30.2519 37.8977C30.239 37.7694 30.2208 37.6405 30.2109 37.5119C30.182 37.1368 29.9619 36.7843 29.817 36.4396C29.5242 35.7434 28.7411 33.9596 28.5839 33.3062C28.5515 33.1717 28.5341 33.1031 28.6075 32.9844C28.7825 32.9052 28.9799 32.9317 29.1681 32.9357C29.1479 29.7384 29.1099 26.5411 29.0541 23.3442C28.8418 23.3395 28.5213 23.3722 28.3441 23.2335C28.094 23.0377 28.1397 22.5624 28.1262 22.2762ZM64.15 9.76252C62.9017 9.91265 61.6338 10.3201 60.4133 10.6184L54.3208 12.0813L36.6487 16.2627C35.7506 16.4702 28.9764 17.9263 28.6738 18.1315L28.6836 18.1563C29.6297 18.0954 30.5868 18.1106 31.5355 18.0696C34.844 17.9002 38.155 17.783 41.4673 17.718C45.6677 17.5778 49.8673 17.4143 54.066 17.2277L59.9296 16.9887C60.798 16.9533 61.7283 16.9948 62.5849 16.8762C62.973 15.1191 63.2122 13.324 63.6195 11.5716C63.699 11.2297 64.1727 9.93032 64.15 9.76252ZM65.6588 9.95978C65.8263 10.3897 66.0099 10.8268 66.1159 11.2769C66.2793 11.9706 66.2796 12.7234 66.3368 13.4338C66.3783 13.9501 66.4551 14.4623 66.5023 14.978C66.5523 15.5256 66.5779 16.0956 66.7061 16.6307C69.4277 16.5837 72.1501 16.3761 74.8711 16.3452L75.0194 16.3245L75.0293 16.2547C74.8093 16.0037 74.5116 15.7991 74.2401 15.6073C72.8907 14.6546 71.3702 13.7607 69.9801 12.8215C69.2386 12.3165 68.5001 11.8073 67.7646 11.2936C67.1075 10.8345 66.3937 10.2795 65.6588 9.95978ZM64.6031 10.3845C64.409 11.0356 64.2608 11.7118 64.1428 12.3807C64.3247 12.3011 64.4957 12.2259 64.661 12.114L65.428 11.6358C65.2148 11.2253 64.9348 10.7092 64.6031 10.3845ZM67.2632 10.575C68.0003 11.1069 68.7845 11.5661 69.5308 12.084C70.5257 12.7745 71.4862 13.5182 72.4899 14.1954C73.4891 14.8695 74.6315 15.4781 75.4778 16.3467C75.9945 16.3731 76.6574 16.3104 77.1452 16.4286L77.1724 16.4866L77.015 16.5538C77.0321 16.6806 77.1061 16.6602 77.1466 16.7552C77.2305 16.9517 76.0322 18.9207 75.8785 19.1982C76.3817 19.2477 76.8859 19.2848 77.3909 19.3095C77.468 19.0615 77.5261 18.8744 77.7628 18.7419C78.1268 18.5381 78.6879 18.5979 79.0898 18.6401C79.5343 18.8881 80.6773 18.6964 81.2171 18.7021C80.6075 18.3118 79.9617 17.9846 79.3457 17.6054C77.6063 16.5348 75.87 15.4258 74.094 14.4166C73.1951 13.9059 72.2606 13.4514 71.3683 12.9312C70.6857 12.5333 67.8453 10.6994 67.2632 10.575ZM69.5292 11.7035C70.1229 12.0558 70.7154 12.4356 71.3305 12.7488C72.2624 13.2234 73.2163 13.6288 74.1335 14.1401C76.726 15.5849 79.2462 17.1616 81.7942 18.6822C82.161 18.6726 82.5329 18.6748 82.8982 18.6437C82.4923 18.1506 79.8695 16.8312 79.122 16.398C78.2872 15.9141 77.4804 15.372 76.6241 14.9271C75.0721 14.1207 73.4296 13.469 71.8375 12.7456C71.2707 12.4881 70.0637 11.7934 69.5292 11.7035ZM65.5688 12.0375L64.5779 12.5948C64.7863 12.7757 64.9966 12.9549 65.2022 13.1388C65.3123 13.254 65.4219 13.4018 65.5826 13.4373C65.661 13.4079 65.6775 13.4233 65.7115 13.3392C65.7948 13.1332 65.6925 12.3177 65.6051 12.0949C65.5968 12.0739 65.5809 12.0567 65.5688 12.0375ZM64.0361 12.7605C63.8541 13.6729 63.5686 14.6258 63.4767 15.5472C63.871 15.3952 64.2275 15.1649 64.5888 14.9485C64.9251 14.7646 65.497 14.5362 65.7003 14.2071C65.5433 13.8809 64.3865 12.9636 64.0361 12.7605ZM65.8127 14.7135C65.2786 15.0209 64.7146 15.2968 64.1932 15.6223L64.6517 15.704C65.0814 15.7799 65.5117 15.8652 65.9443 15.9229C65.9331 15.6607 65.9662 14.8913 65.8127 14.7135ZM63.3794 15.996C63.1239 16.6086 63.0568 17.2506 62.9429 17.8984C64.5211 18.5741 64.1125 18.6151 65.8711 18.602C65.9751 18.5988 66.081 18.6226 66.1589 18.5505C65.6874 18.0931 65.1828 17.6725 64.7043 17.2227C64.2819 16.8256 63.8578 16.3126 63.3794 15.996ZM64.1058 16.0319C64.698 16.6183 65.3383 17.3202 66.0584 17.7437C66.0592 17.2844 66.0507 16.8325 66.015 16.3741C65.3797 16.2484 64.7463 16.1272 64.1058 16.0319ZM75.8226 16.799C75.3695 16.8275 74.9127 16.845 74.4612 16.8914C74.7289 17.5466 75.0597 18.1778 75.3736 18.8118L75.4446 18.8925C75.6429 18.7281 76.5172 17.2113 76.5257 16.9524C76.5281 16.8807 76.5236 16.879 76.5072 16.82C76.3218 16.7187 76.0289 16.7795 75.8226 16.799ZM71.3197 16.9326L70.7045 16.9641C71.0697 17.6748 71.4486 18.3808 71.7571 19.1185L72.3089 19.1217L72.508 18.7189C72.8226 18.1082 73.1536 17.5061 73.5006 16.9132C72.7738 16.9115 72.0461 16.9035 71.3197 16.9326ZM69.0096 17.0262L67.5602 17.094C67.6454 18.0782 67.7141 19.0657 67.9787 20.0229C68.0525 19.972 68.0712 19.9437 68.1182 19.8702C68.7045 18.9524 69.3102 18.001 69.7678 17.0112C69.5165 17.0152 69.2599 17.0094 69.0096 17.0262ZM66.8205 17.0875C66.7366 17.6264 66.6706 18.1252 66.8702 18.6513C67.0149 18.4249 66.9732 17.4651 66.8928 17.1924C66.8802 17.1496 66.8526 17.1162 66.8205 17.0875ZM73.9396 17.2827C73.5531 17.8533 73.2542 18.4826 72.956 19.1025C73.2502 19.0968 73.5464 19.0974 73.8402 19.082L74.7911 19.0679C74.5456 18.4838 74.3145 17.7963 73.9396 17.2827ZM61.8959 17.3999C61.6379 17.4225 61.3748 17.4357 61.1191 17.4757C61.2395 17.8829 61.3859 18.2804 61.5843 18.6568L61.6798 18.7C61.8773 18.6997 62.0075 18.7247 62.1828 18.6199C62.3994 18.2724 62.3605 17.7816 62.4469 17.378C62.2673 17.3838 62.0731 17.3746 61.8959 17.3999ZM70.1953 17.4115C69.6485 18.3368 69.0543 19.2789 68.5712 20.2366L69.5507 20.2094C69.9558 20.202 70.3667 20.2085 70.7703 20.1735C70.8395 19.7687 70.9009 19.496 71.1984 19.1922C70.9338 18.6522 70.6305 17.8293 70.1953 17.4115ZM58.7908 17.4942C58.1467 17.5386 57.5018 17.5686 56.8564 17.5842C57.2984 18.4508 57.6933 19.3764 58.1764 20.2162C58.7948 19.4967 59.5756 18.3157 60.0251 17.4793C59.6157 17.4781 59.199 17.4608 58.7908 17.4942ZM54.5475 17.6824C53.8944 17.7125 53.2413 17.7477 52.5873 17.7548C52.9877 18.6984 53.5621 19.6149 54.066 20.5086C54.7303 19.5906 55.4219 18.6211 55.9829 17.6378C55.5078 17.6513 55.0207 17.6455 54.5475 17.6824ZM51.0266 17.7761C50.1011 17.8169 49.1576 17.8197 48.2375 17.9276C48.5909 18.6857 49.0637 19.3615 49.4907 20.0772L49.806 20.5674C50.4419 19.7686 51.2673 18.6883 51.6892 17.7618C51.4703 17.7655 51.2443 17.7571 51.0266 17.7761ZM60.4352 17.7434C60.1028 18.053 59.6421 18.5809 59.5408 19.0335L59.5829 19.1516L59.6756 19.1742C59.7728 19.0922 59.7686 19.0543 59.7807 18.9307C59.7846 18.8883 59.7876 18.8457 59.7897 18.8033C60.1833 18.724 60.6087 18.7422 61.01 18.7325C60.8553 18.38 60.7253 18.0088 60.4352 17.7434ZM46.4801 17.9634C45.5901 18.0123 44.6531 17.9622 43.775 18.0792C44.1539 18.8454 44.6329 19.5695 45.0879 20.292L45.3714 20.7302C46.0526 19.8579 46.689 18.9161 47.2226 17.9457C46.9774 17.9501 46.724 17.9428 46.4801 17.9634ZM56.3352 18.022C55.8027 18.7669 54.8502 20.0814 54.4463 20.8532C54.9301 20.8524 55.4157 20.8612 55.8967 20.803C56.1769 20.0917 56.1603 19.3074 56.3223 18.5645C56.3154 19.2891 56.2344 20.1499 55.9863 20.8316C56.514 20.8008 57.1466 20.8314 57.6502 20.6848C57.7188 20.3756 56.6709 18.4902 56.4419 18.1497C56.4098 18.1022 56.3742 18.0637 56.3352 18.022ZM41.6673 18.1509C40.9075 18.1928 40.0939 18.1606 39.3447 18.2697C39.7481 19.1296 40.3225 19.9678 40.826 20.7752L40.9293 20.8625C41.2365 20.7496 42.678 18.5183 42.8797 18.126C42.4775 18.1311 42.068 18.1199 41.6673 18.1509ZM47.7247 18.2502C47.6207 18.4418 47.5298 18.6538 47.3629 18.7978L47.3519 18.7821C46.7586 19.4926 46.1654 20.3042 45.7154 21.1146C46.0511 21.1085 47.0112 21.1737 47.2133 20.9134C47.3865 20.6903 47.4046 19.461 47.4097 19.1035L47.4142 18.9897C47.5932 19.5765 47.4145 20.4955 47.2869 21.0868C47.9842 21.0792 48.6813 21.0574 49.3776 21.0211C49.0134 20.4225 48.6531 19.8216 48.2968 19.2182C48.1206 18.9152 47.9505 18.5134 47.7247 18.2502ZM52.0445 18.2516C51.5708 18.7708 50.5427 20.3298 50.1463 20.9896C50.6787 20.9853 51.211 20.9727 51.743 20.9519C51.7749 20.585 51.8551 20.223 51.879 19.8568C51.9 19.5359 51.8666 19.1971 51.9052 18.8813C51.9784 19.4744 51.9769 19.9625 51.8627 20.5495C51.8344 20.6945 51.7714 20.8053 51.853 20.9348L51.9512 20.9586C52.0188 20.9131 52.0668 20.876 52.117 20.8115L52.1761 20.922C52.6143 21.0216 53.1901 20.9172 53.6401 20.883C53.3343 20.3686 52.3968 18.5206 52.0445 18.2516ZM62.8367 18.2635C62.8056 18.4139 62.7655 18.5017 62.8174 18.6484C62.9736 18.7034 63.1627 18.6522 63.3242 18.6279L63.3741 18.5847C63.2195 18.4434 63.0215 18.3589 62.8367 18.2635ZM36.658 18.3388C36.0837 18.3664 35.5089 18.4002 34.9344 18.4205C35.1915 18.9033 36.1425 20.84 36.5602 20.9949L36.6489 20.9246C37.2776 20.101 37.9438 19.2219 38.4383 18.3109C37.8458 18.3166 37.2497 18.3105 36.658 18.3388ZM33.0364 18.4864C32.15 18.5415 31.2626 18.5811 30.3748 18.6051C30.8279 19.3253 31.3052 20.0303 31.7391 20.7622C31.8361 20.9072 31.9295 21.0567 32.0334 21.1968C32.719 20.3311 33.3335 19.3921 33.8958 18.4423C33.6098 18.4557 33.3215 18.4625 33.0364 18.4864ZM43.237 18.4967C42.6116 19.3987 41.8945 20.3083 41.3647 21.2687C41.8193 21.2663 42.2739 21.2528 42.7279 21.2281C42.762 20.8905 42.9553 19.7597 43.1833 19.5358C43.2033 19.5162 43.2283 19.5025 43.2507 19.4857L43.2645 19.5401C43.0425 20.095 42.9045 20.6409 42.7973 21.228C43.481 21.2153 44.1643 21.1827 44.8461 21.1305C44.4097 20.3214 43.832 19.1759 43.237 18.4967ZM28.9121 18.6203C27.9435 18.6568 26.9758 18.7154 26.0098 18.7962C26.3496 19.366 26.7525 19.8952 27.0886 20.4655C27.2577 20.7234 27.4211 20.9898 27.6059 21.2366C28.0071 20.6728 29.1395 19.2777 29.2395 18.6855C29.1465 18.5966 29.0667 18.6197 28.9416 18.6193C28.9318 18.6193 28.922 18.62 28.9121 18.6203ZM38.8352 18.6822C38.3907 19.2575 37.9923 19.8656 37.5736 20.4595C37.3446 20.7842 37.0879 21.0954 36.8699 21.4268L38.3928 21.4074C38.4514 20.9218 38.5637 20.4641 38.7424 20.0086C38.7658 19.9492 38.7732 19.9074 38.7721 19.8438L38.8178 19.8288C38.7992 20.0496 38.711 20.2675 38.66 20.4837C38.5886 20.7902 38.5173 21.0957 38.462 21.4056C39.1367 21.3682 39.8117 21.3362 40.4869 21.3097L39.0994 19.0893L38.9126 19.5767C38.9363 19.3569 38.9873 19.1186 38.9276 18.9029L38.9138 18.9438C38.8985 18.8672 38.8911 18.7383 38.8352 18.6822ZM24.2203 18.8077C23.3867 18.8458 22.5299 18.8475 21.705 18.9784C22.1371 19.6642 22.5324 20.3786 22.9722 21.0574C23.0548 21.1773 23.1351 21.2995 23.2248 21.4143C23.6843 20.9249 24.0214 20.3119 24.3856 19.7506C24.5901 19.4354 24.8201 19.1344 25.019 18.8163C24.7499 18.8007 24.4896 18.7881 24.2203 18.8077ZM34.3114 18.8197C34.1272 19.7819 34.2064 20.5836 34.0881 21.5032C34.6682 21.5048 35.2425 21.4837 35.8215 21.4497L35.9966 21.4123C36.0229 21.3135 35.9199 21.1868 35.8682 21.0973C35.5106 20.4799 34.8358 19.2353 34.3114 18.8197ZM29.7919 18.9597C29.1192 19.6794 28.5425 20.7214 28.0147 21.5602L28.5351 21.5607C29.0394 21.5508 29.724 21.6117 30.197 21.4617C30.2403 21.0268 29.959 20.5891 29.8832 20.1697C29.8135 19.7841 29.8946 19.3275 29.7919 18.9597ZM34.1114 19.0659C33.7715 19.4853 32.6969 20.9349 32.5669 21.3975L32.63 21.4535C33.0889 21.4663 33.5475 21.4846 34.0059 21.5082C34.0214 21.1738 34.2055 19.1853 34.1114 19.0659ZM29.859 19.0932C29.9 19.9551 30.0902 20.6762 30.3151 21.5049C30.7053 21.5067 31.1283 21.5382 31.5102 21.4558C31.3102 21.0789 30.117 19.2205 29.859 19.0932ZM21.1067 19.1445C20.5195 20.1 19.9004 21.0377 19.2934 21.9807C19.8517 21.9743 20.4138 21.9794 20.9714 21.9534C21.6033 21.928 22.2365 21.8885 22.8683 21.8718L21.1067 19.1445ZM25.4908 19.132C25.4625 20.0975 25.4485 20.8829 25.826 21.7985C26.289 21.7831 26.7517 21.7625 27.2142 21.7366C27.2118 21.5706 25.8088 19.452 25.5813 19.2119C25.5575 19.1868 25.5151 19.1525 25.4908 19.132ZM64.62 19.2336L61.5262 19.2782C60.8586 19.2896 60.1806 19.2777 59.5179 19.3623C59.0224 19.7118 58.6648 20.2147 58.3817 20.745C58.5988 20.7477 58.8202 20.76 59.0369 20.7507L59.0422 20.1531C59.1324 20.0693 59.2721 19.9011 59.3868 19.875C59.4526 20.0599 59.4413 20.3075 59.5684 20.4545C59.9483 20.5483 60.3968 20.4842 60.7867 20.4673C61.6824 20.4286 63.4393 20.276 64.2537 20.3977C64.4494 20.4269 64.5969 20.4765 64.7551 20.5949C64.949 21.0397 64.9347 25.0968 64.7449 25.5862C64.7024 25.696 64.6479 25.7307 64.5414 25.7706C63.9806 25.9813 61.8529 25.9091 61.1484 25.919L59.854 25.9255C60.4229 27.0749 61.0466 28.2697 61.7182 29.3622L61.769 29.3567C62.9328 29.2392 64.3071 29.4133 65.4188 29.2533C65.5767 29.2306 65.7258 29.2028 65.8321 29.078C66.1121 28.7491 66.2732 28.1321 66.443 27.7313C66.7291 27.0567 67.1478 26.3268 67.3116 25.6165C67.4549 24.9955 67.3457 23.9329 67.3375 23.2747L67.3093 19.2474C66.413 19.2242 65.5164 19.2196 64.62 19.2336ZM25.3789 19.2432C24.6725 19.9557 24.1423 21.002 23.6108 21.8562L24.0934 21.8682C24.532 21.8547 25.1824 21.9253 25.5859 21.799C25.65 21.7167 25.6586 21.7006 25.648 21.5906C25.61 21.1954 25.4033 20.8107 25.3703 20.4132C25.3411 20.0602 25.4886 19.5695 25.3789 19.2432ZM82.1231 20.4954L79.391 20.5916L79.3851 22.1293C80.1066 22.0983 80.8286 22.0803 81.5507 22.0755C82.4765 22.0636 83.4022 22.0433 84.3275 22.0144L84.3228 20.4659C83.5894 20.4636 82.8561 20.4733 82.1231 20.4954ZM62.4177 20.9643C61.4822 20.9923 60.5318 20.988 59.5991 21.058C59.6044 22.494 59.5562 23.9428 59.5977 25.3771C60.2208 25.3555 60.8442 25.3444 61.4676 25.3438C62.414 25.3167 63.3635 25.3076 64.309 25.2629L64.3075 20.9448C63.6775 20.9447 63.0473 20.9392 62.4177 20.9643ZM30.6441 22.699C30.4829 22.6988 30.3071 22.6773 30.1655 22.7652C30.0449 22.9233 30.0312 23.1542 29.9964 23.3461C29.7821 23.3621 29.5683 23.3801 29.3532 23.3835L29.4788 32.9367L31.664 32.9443L32.668 32.9508L32.7694 26.539C32.7851 25.4221 32.8362 24.2998 32.8252 23.1835C32.5659 23.221 32.1194 23.3494 31.8847 23.2019C31.7122 23.0937 31.7015 22.8516 31.6691 22.6687L30.6441 22.699ZM62.2746 29.9502C63.122 30.7728 64.0482 31.52 64.924 32.3134L64.9216 31.7832L64.9153 30.3253C64.6591 30.3905 64.182 30.585 63.9456 30.4503L63.9385 30.3496C64.0401 30.2999 64.126 30.3161 64.2357 30.3229C64.0423 30.0724 63.5112 29.9975 63.2094 29.9577C62.9028 29.9174 62.5824 29.9263 62.2746 29.9502ZM64.091 29.9685C64.1191 30.0825 64.0878 30.0458 64.1851 30.1041C64.4169 30.2432 64.6864 30.1901 64.9379 30.1487L64.9343 30.0095C64.7033 29.8619 64.355 29.9419 64.091 29.9685ZM65.5534 30.3891C65.5306 31.4007 65.5753 32.402 65.5773 33.412L65.5797 40.3582L65.564 58.1717C65.572 62.7677 65.6048 67.3637 65.6626 71.9594C65.682 74.5597 65.6421 77.1781 65.7446 79.7755C66.2489 79.7787 66.7546 79.7751 67.2587 79.788C67.359 79.6049 67.0603 72.3078 67.0414 71.5543L66.0598 43.2962L65.7458 34.1702C65.7149 33.3015 65.7445 31.0767 65.5534 30.3891ZM62.2028 30.4797L62.2049 32.6763C63.05 32.7098 63.9149 32.7857 64.7598 32.768C64.2062 32.2311 63.6251 31.722 63.0498 31.2086C62.7825 30.9701 62.5019 30.6707 62.2028 30.4797ZM61.6189 31.7636C61.5106 32.6384 61.503 33.5391 61.4649 34.42C61.4074 36.0463 61.339 37.6722 61.2596 39.2977L60.4119 55.8133L59.567 72.1759L59.3043 77.4258C59.2709 78.1411 59.1495 79.0794 59.2154 79.7781L60.8898 79.7782C60.9148 75.6966 60.9802 71.6154 61.0863 67.5351L61.5128 42.333L61.6017 35.1809C61.6131 34.0459 61.6596 32.8975 61.6189 31.7636ZM28.9303 33.2844C29.3714 34.4316 29.865 35.5626 30.2798 36.719C30.5971 36.5681 30.9727 36.4224 31.3232 36.5597C31.5295 36.6406 31.671 36.8135 31.8168 36.9729L31.901 36.976C32.1147 36.776 32.2328 36.3836 32.3509 36.1138C32.7465 35.1684 33.1317 34.2167 33.58 33.2946C32.0321 33.2842 30.4775 33.2431 28.9303 33.2844ZM62.2895 33.3218C63.1217 34.1791 64.0374 34.9737 64.9253 35.7731C64.9266 35.4312 65.0082 34.2642 64.8428 34.0352L64.7232 33.9914C64.1997 33.8601 63.6579 33.7492 63.1498 33.5667C63.8373 33.5377 64.2873 33.7916 64.8493 33.7933L64.8726 33.7426C64.8559 33.7249 64.8388 33.7075 64.8225 33.6894C64.7565 33.6163 64.7771 33.6494 64.7463 33.5648L64.8939 33.4556L64.8409 33.3903C63.9929 33.3116 63.1406 33.2887 62.2895 33.3218ZM62.1992 33.8288C62.1906 34.5824 62.1903 35.3362 62.1979 36.0898C63.0274 36.0977 63.8667 36.2124 64.6926 36.1945C63.8669 35.4181 63.0699 34.5471 62.1992 33.8288ZM62.199 36.7085C62.3207 37.098 64.5102 38.9511 64.9266 39.3485L64.9163 37.3666L64.183 37.2785C63.791 37.2184 62.889 37.0529 62.582 36.8802C62.7665 36.8846 62.9565 36.8846 63.1394 36.9089C63.5417 36.9625 64.4611 37.2784 64.8057 37.1107C64.8659 37.0425 64.89 37.035 64.9039 36.9421C64.8033 36.8116 64.6798 36.8025 64.5207 36.782C63.7986 36.6887 62.925 36.6435 62.199 36.7085ZM62.1606 37.3665L62.1635 39.5784C62.9831 39.6047 63.8021 39.6431 64.6205 39.6934C64.1538 39.2366 62.6201 37.6066 62.1606 37.3665ZM62.2409 40.197C62.5551 40.5219 64.1196 40.5226 64.6185 40.5319C64.7118 40.5336 64.805 40.5344 64.8983 40.5343L64.8679 40.3479C64.6271 40.179 62.6661 40.2071 62.2409 40.197ZM62.4967 40.4294C62.7883 40.7505 64.6477 42.7115 64.89 42.7594C64.9072 42.0828 64.9132 41.4058 64.9079 40.7291C64.0893 40.6902 63.3041 40.5537 62.4967 40.4294ZM62.1124 40.7003C62.1283 41.4855 62.1557 42.2711 62.1339 43.0564C62.9795 43.1379 63.8264 43.2058 64.6741 43.2602C63.9186 42.5073 62.9136 41.3315 62.1124 40.7003ZM62.2644 43.7377C63.0139 44.7657 64.0001 45.6777 64.8936 46.583C64.8884 46.0962 64.9567 44.6122 64.8213 44.2415L64.7311 44.2051C63.9395 44.1454 63.1572 44.1025 62.4157 43.7973L62.4782 43.8008C63.046 43.8372 64.409 44.1954 64.8673 43.9201C64.6044 43.677 62.7181 43.7227 62.2644 43.7377ZM62.1126 44.3113L62.1125 46.7661C62.9688 46.8435 63.8552 47.0118 64.7116 47.0116L63.0557 45.2727C62.7525 44.9545 62.4512 44.5907 62.1126 44.3113ZM62.3072 47.5526C62.7287 48.1057 64.3281 49.8685 64.8651 50.1691C64.8818 49.4376 64.8844 48.7058 64.8728 47.9742C64.0898 47.7496 63.1202 47.5781 62.3072 47.5526ZM62.0718 47.9293L62.0517 50.4157C62.4571 50.4355 64.251 50.6967 64.4633 50.6124C64.3898 50.31 62.4456 48.3524 62.0718 47.9293ZM62.3942 51.1774C63.186 52.0481 63.978 52.9155 64.8226 53.7361L64.8861 53.699C64.8784 52.969 64.8727 52.2387 64.823 51.51C64.0107 51.3551 63.2175 51.251 62.3942 51.1774ZM62.0274 51.3462C62.0282 52.2081 62.0227 53.0699 62.0106 53.9317C62.8767 53.9762 63.7588 54.0659 64.6103 54.2321C64.0106 53.5492 63.4057 52.8709 62.7957 52.1971C62.5549 51.928 62.304 51.5735 62.0274 51.3462ZM29.5492 51.9C35.2018 54.0773 38.3972 57.6671 40.8278 63.1392C40.958 63.432 41.0829 63.7272 41.2022 64.0247C41.8389 63.8802 42.4751 63.7274 43.1143 63.5947C43.2521 63.5643 43.332 63.5746 43.4207 63.4611C43.2856 62.8595 42.9319 62.2246 42.6693 61.6657C41.1569 58.4474 38.8184 55.4932 35.8021 53.5734C34.2702 52.5984 31.3608 51.7398 29.5492 51.9ZM26.9185 52.2226C25.8889 52.408 24.2045 53.7825 23.372 54.4634C27.3929 53.8677 30.5577 54.668 33.8176 57.0894C35.9524 58.675 38.108 61.443 39.3315 63.7999C39.733 64.5425 40.0811 65.2949 40.4089 66.0724C40.4405 65.6533 40.6426 64.8295 40.6021 64.4921C40.5342 63.9274 40.2124 63.3542 39.9722 62.8444C39.0135 60.8102 37.8968 59.0336 36.4274 57.3255C34.4175 54.9894 30.7932 52.4762 27.6661 52.2341C27.4174 52.2143 27.1677 52.2104 26.9185 52.2226ZM62.3051 54.4976C62.8413 55.0692 64.3395 56.8609 64.9205 57.2069C64.9223 56.3867 64.8999 55.5631 64.9138 54.7434C64.0689 54.6759 63.137 54.4787 62.3051 54.4976ZM61.9442 54.7265C61.9381 55.5277 61.9115 56.3379 61.9428 57.1382C62.7772 57.3571 63.7174 57.4881 64.5759 57.5861C63.9751 56.7548 62.7018 55.4821 61.9442 54.7265ZM25.4361 54.9502C23.267 55.0046 21.6453 55.4807 19.8135 56.6295C20.2679 56.4883 20.7451 56.3045 21.2144 56.2278C22.7485 55.9772 24.4017 56.4891 25.7462 57.1988C30.9216 59.9306 34.3509 66.7582 35.9858 72.1201C36.8566 74.9757 37.5336 77.931 37.8796 80.8982C38.928 80.8277 39.9758 80.8021 41.0204 80.6777C42.4075 80.5345 43.7876 80.3296 45.1564 80.0636C43.8615 75.3996 42.4057 70.7812 41.1065 66.1194C40.9286 66.8186 40.7936 67.5637 40.3888 68.1738C40.1315 67.361 39.8656 66.5462 39.5258 65.7634C37.888 61.99 35.0397 58.2049 31.3391 56.2777C29.5136 55.3481 27.4839 54.8917 25.4361 54.9502ZM21.6365 56.8175C18.6338 57.2783 16.092 59.701 14.3587 62.0656C11.5292 65.9256 9.89905 70.8115 9.54909 75.5594C9.26001 75.5905 9.04592 75.6167 8.82868 75.8203C8.81201 75.892 8.7876 75.9137 8.83202 75.9812C9.13428 76.4404 11.3818 76.9087 11.9936 77.0721C16.4239 78.2548 20.8576 79.3561 25.4061 79.9899C29.3298 80.4768 33.2487 80.9379 37.2096 80.892C37.0204 79.0343 36.6396 77.1963 36.1994 75.3836C34.7823 69.5491 32.229 63.0201 27.4447 59.1234C25.889 57.8561 23.725 56.6313 21.646 56.816C21.6428 56.8163 21.6396 56.817 21.6365 56.8175ZM62.2894 57.7681C62.6855 58.169 64.6534 60.577 64.9064 60.6242C64.9099 60.6249 64.9135 60.6233 64.9171 60.6228C64.9202 60.0546 65.0256 58.7942 64.8507 58.3074C64.4047 58.0706 62.8441 57.8305 62.2894 57.7681ZM61.8743 57.9218C61.8489 58.8856 61.8748 59.8508 61.8589 60.8151C62.8392 60.9339 63.8095 61.1652 64.7884 61.2682C64.2358 60.4683 63.4959 59.7638 62.8518 59.0331C62.5418 58.6816 62.2365 58.214 61.8743 57.9218ZM41.6224 58.4337C42.2166 59.4551 42.8082 60.4678 43.3294 61.5301C43.6213 62.125 43.8534 62.7478 44.1414 63.3426L44.9898 63.1902L45.0532 63.1072C44.9191 62.2476 42.4324 58.9511 41.7053 58.4788C41.6789 58.4617 41.6501 58.4487 41.6224 58.4337ZM43.5045 59.413C44.3809 60.5322 45.1431 61.7363 45.7798 63.0071C46.0345 62.9504 46.2485 62.9334 46.5092 62.9343C46.0896 62.1863 44.1808 59.7577 43.5045 59.413ZM78.0387 59.7228C77.7246 59.9998 76.6195 64.8738 76.3552 65.7975C77.2651 65.9131 78.1821 65.9616 79.0991 65.9425C79.6566 65.9077 80.2376 65.8919 80.7855 65.7822C80.6619 65.1318 79.3763 59.9542 79.1611 59.7644C78.8072 59.6493 78.4054 59.703 78.0387 59.7228ZM62.1303 61.3774C63.017 62.4175 63.9271 63.4375 64.8596 64.4367L64.9118 64.4185L64.9222 64.3595C64.9265 63.7196 64.9951 63.008 64.9158 62.3769L64.7924 62.2795C64.8243 62.1826 64.8687 62.1049 64.9194 62.0169C64.9089 61.9131 64.9135 61.9147 64.8359 61.846C63.9588 61.63 63.0245 61.5119 62.1303 61.3774ZM61.791 61.6606L61.7799 64.6019C62.7918 64.7255 63.797 64.8681 64.8056 65.0157C64.0184 64.1932 63.2787 63.3145 62.5157 62.4686C62.2864 62.2146 62.0537 61.8744 61.791 61.6606ZM46.21 63.5615C44.6207 63.9809 42.9972 64.2691 41.4154 64.7017C41.6667 65.4791 41.8652 66.2719 42.0916 67.0567L43.6818 72.5807L45.0994 77.4353C45.4136 78.5203 45.7525 79.6026 45.9922 80.7071C47.5794 80.2721 49.1358 79.7352 50.7115 79.2615C49.7424 75.5139 48.7458 71.7733 47.7216 68.0404C47.3644 66.7576 47.0706 65.4218 46.6484 64.1605C46.5811 63.9594 46.5162 63.7435 46.3701 63.5851C46.3125 63.5706 46.2699 63.5565 46.21 63.5615ZM47.3181 64.192C47.7804 65.6268 48.1385 67.102 48.5329 68.557C48.8685 69.7955 49.2456 71.0234 49.5636 72.2665C49.815 73.249 50.5066 76.4297 50.8695 77.0776C50.9016 73.2953 49.9784 69.5113 48.3981 66.0851C48.13 65.5038 47.8549 64.7271 47.4044 64.2625C47.3672 64.224 47.3567 64.2189 47.3181 64.192ZM62.2459 65.2202C62.7993 65.9535 63.4417 66.6173 64.0621 67.2936C64.3672 67.6263 64.6522 67.9829 64.9685 68.3041C64.9769 67.4063 64.9682 66.5082 64.9425 65.6108C64.0803 65.4461 63.1224 65.2273 62.2459 65.2202ZM61.7463 65.4045L61.7214 68.3233C62.7471 68.4112 63.7322 68.5916 64.7382 68.8045C64.0836 68.0014 63.4077 67.216 62.7113 66.4488C62.4074 66.108 62.0973 65.6959 61.7463 65.4045ZM62.1349 68.8945C63.1505 69.8627 64.0719 70.993 65.0143 72.0366L65.0107 71.2581C65.0015 70.7795 65.067 70.2198 64.986 69.7568L64.9323 69.7417L64.7568 69.8799L64.7298 69.831L64.804 69.6904C64.7099 69.6354 64.758 69.6604 64.6597 69.615C64.7885 69.5635 64.8862 69.6368 64.9847 69.5391L64.9761 69.4219C64.6543 69.165 62.6452 68.9236 62.1349 68.8945ZM61.6836 69.0258C61.6308 70.0264 61.6442 71.0273 61.6479 72.0289C62.3691 72.157 63.0915 72.2785 63.8148 72.3939C64.1609 72.4519 64.5359 72.5505 64.8849 72.5672C64.5383 72.1234 64.1352 71.7229 63.7576 71.3056L61.6836 69.0258ZM75.3137 69.8034L74.0284 74.666C76.5616 75.2167 79.3058 75.267 81.8713 74.9147C82.2732 74.8436 82.6853 74.7866 83.0803 74.6839C82.7 73.0599 82.267 71.4272 81.7963 69.8268C79.5802 70.1699 77.5285 70.133 75.3137 69.8034ZM62.2256 72.661C62.546 73.0228 64.8789 75.7155 65.0438 75.7453L65.0503 75.6113C65.0314 75.006 65.0928 74.3439 65.0173 73.7495C64.9439 73.7193 64.9341 73.7336 64.8597 73.7504L64.8424 73.6683L64.8783 73.6173C64.9576 73.503 65.0289 73.423 65.0261 73.2775C64.8316 72.997 63.8308 72.9232 63.4512 72.8548C63.0443 72.7801 62.6357 72.7155 62.2256 72.661ZM61.6417 72.774C61.6176 73.7694 61.6015 74.7648 61.5935 75.7603C62.172 75.9371 62.8028 75.9799 63.4009 76.0693C63.8706 76.1395 64.3358 76.2436 64.8016 76.336C64.3936 75.6226 62.3039 73.3319 61.6417 72.774ZM8.19062 75.497C7.89284 75.6401 7.79187 75.7408 7.6796 76.057C7.60785 76.2592 7.57973 76.4892 7.68491 76.6854C7.78504 76.8719 7.98415 76.9624 8.17101 77.0406C8.79534 77.302 9.46293 77.4898 10.1025 77.7132C12.2796 78.4735 14.4898 79.1311 16.6691 79.8811C20.7068 81.2709 24.7745 82.5432 28.8368 83.8559C30.6799 84.4533 32.5278 85.0353 34.3805 85.6018C36.209 86.1786 38.0392 86.7741 39.8968 87.2519C44.164 88.3498 49.2444 87.5046 53.0331 85.2609C54.3317 84.4919 55.6039 83.4365 56.2632 82.0477C56.5334 81.3072 56.6098 80.5793 56.2614 79.8432C55.5596 78.3608 53.6912 77.4162 52.2214 76.9112C51.99 76.8317 51.7531 76.7681 51.5171 76.7039C51.4547 77.4325 51.4174 78.1601 51.2172 78.8669C51.3051 79.1355 51.3941 79.372 51.3008 79.6526C51.1057 79.9193 46.3228 81.3767 45.7059 81.4913C45.5721 81.4372 45.511 81.3745 45.4554 81.239C45.3848 81.0667 45.3534 80.8794 45.3196 80.6972C39.6271 81.7919 33.7844 81.8572 28.0688 80.89C26.6255 80.6334 25.1727 80.1299 23.6758 79.8464C23.0886 79.7352 22.4987 79.6219 21.9041 79.5575C21.0622 79.4664 20.2131 79.4305 19.3831 79.2528C18.0844 78.9746 16.8442 78.4461 15.5461 78.1884C14.7156 78.0235 13.8853 77.9863 13.0483 77.8894C12.0733 77.7737 11.1094 77.5788 10.1661 77.3065C9.62784 77.1529 9.05742 76.98 8.5878 76.6659C8.39476 76.5367 8.17417 76.3897 8.1327 76.1449C8.09457 75.9198 8.17535 75.7305 8.26604 75.5294L8.19062 75.497ZM62.1073 76.4742C62.7566 77.1862 63.4422 77.8666 64.1065 78.5649C64.4399 78.9154 64.7547 79.3119 65.1032 79.642C65.0793 78.7227 65.0654 77.803 65.0613 76.8834C64.1223 76.6849 63.0685 76.4721 62.1073 76.4742ZM61.5414 76.5651C61.5033 77.6354 61.4855 78.7064 61.4881 79.7774L64.662 79.783C63.996 79.0334 63.3085 78.3034 62.6004 77.5936C62.2605 77.2473 61.9252 76.8621 61.5414 76.5651ZM72.9931 78.5383C72.9148 78.8578 72.0605 81.9108 72.1382 82.0083C72.2795 82.1858 72.6378 82.2654 72.8509 82.3285C74.3224 82.7636 75.881 82.9213 77.4113 82.9645C79.6508 83.0278 82.0529 82.9705 84.2206 82.3542C84.5042 82.2587 84.7788 82.1616 85.0496 82.0334C84.838 81.3854 84.6301 80.7374 84.4576 80.0778C84.3217 79.559 84.2176 79.0241 84.0607 78.5123C80.5055 79.4319 76.563 79.3637 72.9931 78.5383ZM57.0957 80.3432C57.1818 80.9017 57.1042 81.3815 56.9911 81.9273C58.2003 81.9237 69.114 81.9699 69.2354 81.8345C69.2854 81.7787 69.3018 81.7228 69.3263 81.6537C69.5029 81.2322 69.7007 80.8101 69.8499 80.3784L57.0957 80.3432ZM68.5293 85.6313C68.5311 85.7792 68.5021 85.8562 68.6035 85.9685C69.3058 86.0532 70.0574 85.9983 70.7664 85.9945L74.571 85.9786C79.1122 85.9754 83.6577 85.946 88.1984 86.009C88.2339 85.8828 88.2611 85.8373 88.2229 85.7095C88.1165 85.6408 88.0206 85.6249 87.8966 85.6178C87.3853 85.5886 86.8411 85.6462 86.3238 85.6423L81.4839 85.6315L68.5293 85.6313Z" fill="#2A2A2A"/>
<path d="M28.6837 18.1564L28.6738 18.1315C28.9765 17.9264 35.7506 16.4703 36.6488 16.2627L54.3208 12.0814L60.4134 10.6185C61.6338 10.3202 62.9018 9.9127 64.15 9.76257C64.1727 9.93038 63.699 11.2297 63.6195 11.5716C63.2123 13.324 62.973 15.1191 62.585 16.8762C61.7283 16.9949 60.798 16.9534 59.9296 16.9888L54.066 17.2278C49.8673 17.4143 45.6677 17.5778 41.4673 17.7181C38.155 17.783 34.8441 17.9002 31.5355 18.0696C30.5868 18.1106 29.6297 18.0954 28.6837 18.1564Z" fill="#FEFEFE"/>
<path d="M66.7062 16.6308C66.578 16.0957 66.5524 15.5257 66.5023 14.9781C66.4552 14.4623 66.3784 13.9502 66.3369 13.4339C66.2797 12.7235 66.2794 11.9707 66.116 11.277C66.01 10.8268 65.8263 10.3897 65.6589 9.95984C66.3938 10.2796 67.1076 10.8346 67.7647 11.2937C68.5002 11.8073 69.2386 12.3166 69.9802 12.8215C71.3702 13.7608 72.8907 14.6546 74.2402 15.6074C74.5117 15.7991 74.8093 16.0038 75.0294 16.2547L75.0194 16.3246L74.8711 16.3452C72.1501 16.3762 69.4278 16.5838 66.7062 16.6308Z" fill="#FEFEFE"/>
<path d="M64.1429 12.3807C64.2609 11.7118 64.4091 11.0356 64.6032 10.3845C64.9349 10.7092 65.2149 11.2253 65.4281 11.6358L64.6611 12.114C64.4957 12.2259 64.3247 12.3011 64.1429 12.3807Z" fill="#FEFEFE"/>
<path d="M75.4778 16.3468C74.6315 15.4781 73.4891 14.8696 72.4899 14.1954C71.4862 13.5183 70.5257 12.7745 69.5308 12.0841C68.7845 11.5661 68.0003 11.1069 67.2632 10.5751C67.8453 10.6995 70.6857 12.5333 71.3683 12.9313C72.2606 13.4514 73.1951 13.9059 74.094 14.4167C75.87 15.4259 77.6063 16.5349 79.3457 17.6055C79.9617 17.9846 80.6075 18.3119 81.2171 18.7022C80.6773 18.6964 79.5343 18.8882 79.0898 18.6401C78.6879 18.5979 78.1268 18.5381 77.7628 18.7419C77.5262 18.8745 77.468 19.0615 77.3909 19.3096C76.8859 19.2848 76.3817 19.2477 75.8785 19.1983C76.0322 18.9208 77.2305 16.9518 77.1466 16.7553C77.1061 16.6603 77.0321 16.6806 77.015 16.5539L77.1724 16.4867L77.1452 16.4286C76.6574 16.3104 75.9945 16.3731 75.4778 16.3468Z" fill="#FEFEFE"/>
<path d="M81.7942 18.6822C79.2462 17.1616 76.726 15.5849 74.1335 14.1401C73.2163 13.6287 72.2624 13.2234 71.3305 12.7488C70.7154 12.4356 70.1229 12.0558 69.5292 11.7035C70.0636 11.7934 71.2707 12.4881 71.8375 12.7456C73.4296 13.469 75.072 14.1207 76.6241 14.9271C77.4804 15.372 78.2872 15.9141 79.122 16.398C79.8695 16.8312 82.4923 18.1506 82.8982 18.6437C82.5329 18.6748 82.161 18.6726 81.7942 18.6822Z" fill="#FEFEFE"/>
<path d="M64.5779 12.5948L65.5689 12.0376C65.581 12.0567 65.5969 12.074 65.6052 12.095C65.6925 12.3177 65.7949 13.1333 65.7116 13.3392C65.6775 13.4233 65.661 13.4079 65.5827 13.4374C65.422 13.4018 65.3124 13.2541 65.2022 13.1389C64.9966 12.9549 64.7863 12.7758 64.5779 12.5948Z" fill="#FEFEFE"/>
<path d="M63.4767 15.5472C63.5686 14.6259 63.8542 13.673 64.0361 12.7606C64.3866 12.9637 65.5433 13.881 65.7004 14.2072C65.497 14.5363 64.9252 14.7647 64.5888 14.9486C64.2276 15.165 63.871 15.3953 63.4767 15.5472Z" fill="#FEFEFE"/>
<path d="M64.1933 15.6224C64.7146 15.2969 65.2786 15.021 65.8127 14.7136C65.9663 14.8914 65.9332 15.6608 65.9443 15.923C65.5118 15.8652 65.0815 15.78 64.6517 15.7041L64.1933 15.6224Z" fill="#FEFEFE"/>
<path d="M62.9429 17.8985C63.0568 17.2507 63.1239 16.6087 63.3794 15.9961C63.8578 16.3127 64.2819 16.8257 64.7044 17.2227C65.1829 17.6725 65.6874 18.0932 66.1589 18.5506C66.081 18.6227 65.9752 18.5989 65.8711 18.6021C64.1125 18.6152 64.5211 18.5741 62.9429 17.8985Z" fill="#FEFEFE"/>
<path d="M66.0584 17.7438C65.3383 17.3202 64.698 16.6184 64.1058 16.032C64.7464 16.1272 65.3797 16.2485 66.015 16.3742C66.0507 16.8325 66.0592 17.2845 66.0584 17.7438Z" fill="#FEFEFE"/>
<path d="M74.4612 16.8915C74.9127 16.8451 75.3696 16.8276 75.8227 16.7991C76.0289 16.7796 76.3219 16.7188 76.5072 16.8201C76.5237 16.8791 76.5281 16.8808 76.5257 16.9525C76.5173 17.2114 75.643 18.7282 75.4447 18.8926L75.3736 18.8119C75.0597 18.1779 74.729 17.5467 74.4612 16.8915Z" fill="#FEFEFE"/>
<path d="M70.7046 16.9642L71.3198 16.9327C72.0462 16.9036 72.7738 16.9116 73.5007 16.9133C73.1536 17.5062 72.8227 18.1083 72.5081 18.719L72.3089 19.1218L71.7571 19.1186C71.4487 18.3809 71.0697 17.6749 70.7046 16.9642Z" fill="#FEFEFE"/>
<path d="M67.5603 17.094L69.0097 17.0261C69.26 17.0094 69.5166 17.0152 69.7678 17.0112C69.3102 18.0009 68.7045 18.9524 68.1182 19.8702C68.0712 19.9437 68.0526 19.9719 67.9788 20.0229C67.7141 19.0657 67.6454 18.0782 67.5603 17.094Z" fill="#FEFEFE"/>
<path d="M66.8702 18.6514C66.6706 18.1252 66.7366 17.6265 66.8205 17.0875C66.8527 17.1163 66.8802 17.1497 66.8929 17.1924C66.9732 17.4651 67.0149 18.425 66.8702 18.6514Z" fill="#FEFEFE"/>
<path d="M72.9561 19.1026C73.2543 18.4826 73.5532 17.8534 73.9396 17.2827C74.3145 17.7964 74.5457 18.4838 74.7911 19.068L73.8402 19.0821C73.5464 19.0974 73.2503 19.0969 72.9561 19.1026Z" fill="#FEFEFE"/>
<path d="M61.1191 17.4757C61.3748 17.4357 61.6379 17.4226 61.8959 17.4C62.0731 17.3747 62.2673 17.3839 62.447 17.3781C62.3605 17.7816 62.3994 18.2724 62.1828 18.62C62.0075 18.7248 61.8773 18.6997 61.6798 18.7L61.5843 18.6569C61.3859 18.2805 61.2395 17.883 61.1191 17.4757Z" fill="#FEFEFE"/>
<path d="M68.5712 20.2367C69.0543 19.2789 69.6485 18.3368 70.1953 17.4115C70.6305 17.8293 70.9338 18.6523 71.1984 19.1922C70.9009 19.496 70.8395 19.7687 70.7703 20.1736C70.3668 20.2085 69.9559 20.2021 69.5508 20.2095L68.5712 20.2367Z" fill="#FEFEFE"/>
<path d="M56.8565 17.5841C57.5019 17.5686 58.1468 17.5386 58.7908 17.4942C59.199 17.4608 59.6157 17.4781 60.0251 17.4793C59.5756 18.3157 58.7949 19.4966 58.1765 20.2162C57.6933 19.3764 57.2984 18.4508 56.8565 17.5841Z" fill="#FEFEFE"/>
<path d="M52.5874 17.7548C53.2413 17.7478 53.8944 17.7125 54.5475 17.6824C55.0207 17.6455 55.5079 17.6513 55.9829 17.6378C55.4219 18.6212 54.7303 19.5906 54.066 20.5086C53.5621 19.6149 52.9877 18.6984 52.5874 17.7548Z" fill="#FEFEFE"/>
<path d="M48.2375 17.9276C49.1576 17.8198 50.1011 17.817 51.0266 17.7761C51.2443 17.7572 51.4703 17.7655 51.6892 17.7618C51.2674 18.6884 50.4419 19.7687 49.806 20.5674L49.4907 20.0772C49.0637 19.3615 48.5909 18.6857 48.2375 17.9276Z" fill="#FEFEFE"/>
<path d="M59.7897 18.8034C59.7877 18.8458 59.7847 18.8884 59.7807 18.9308C59.7686 19.0544 59.7729 19.0923 59.6756 19.1743L59.5829 19.1517L59.5408 19.0336C59.6422 18.581 60.1029 18.0531 60.4352 17.7435C60.7254 18.0089 60.8554 18.3801 61.0101 18.7326C60.6087 18.7423 60.1833 18.7241 59.7897 18.8034Z" fill="#FEFEFE"/>
<path d="M43.7751 18.0792C44.6531 17.9622 45.5901 18.0123 46.4801 17.9634C46.7241 17.9429 46.9775 17.9501 47.2226 17.9457C46.689 18.9161 46.0526 19.8579 45.3714 20.7302L45.0879 20.2921C44.633 19.5695 44.1539 18.8454 43.7751 18.0792Z" fill="#FEFEFE"/>
<path d="M54.4464 20.8532C54.8502 20.0814 55.8027 18.7669 56.3352 18.022C56.3742 18.0637 56.4099 18.1022 56.4419 18.1498C56.6709 18.4902 57.7189 20.3756 57.6503 20.6848C57.1466 20.8314 56.514 20.8008 55.9864 20.8316C56.2344 20.1499 56.3154 19.2891 56.3223 18.5645C56.1603 19.3074 56.177 20.0917 55.8968 20.803C55.4157 20.8612 54.9301 20.8524 54.4464 20.8532Z" fill="#FEFEFE"/>
<path d="M39.3447 18.2697C40.0939 18.1607 40.9075 18.1928 41.6673 18.1509C42.0681 18.12 42.4776 18.1312 42.8798 18.1261C42.678 18.5183 41.2365 20.7497 40.9293 20.8626L40.8261 20.7753C40.3225 19.9679 39.7481 19.1297 39.3447 18.2697Z" fill="#FEFEFE"/>
<path d="M45.7154 21.1146C46.1654 20.3042 46.7586 19.4926 47.3519 18.7821L47.3629 18.7978C47.5298 18.6538 47.6207 18.4418 47.7247 18.2502C47.9505 18.5134 48.1206 18.9152 48.2968 19.2182C48.6531 19.8216 49.0134 20.4225 49.3776 21.0211C48.6813 21.0574 47.9842 21.0792 47.2869 21.0868C47.4145 20.4955 47.5932 19.5765 47.4142 18.9897L47.4097 19.1035C47.4046 19.461 47.3865 20.6903 47.2133 20.9134C47.0112 21.1736 46.0511 21.1085 45.7154 21.1146Z" fill="#FEFEFE"/>
<path d="M50.1463 20.9896C50.5427 20.3298 51.5708 18.7709 52.0446 18.2516C52.3968 18.5206 53.3343 20.3686 53.6401 20.8831C53.1901 20.9172 52.6144 21.0216 52.1761 20.9221L52.117 20.8115C52.0669 20.876 52.0188 20.9131 51.9512 20.9586L51.853 20.9348C51.7714 20.8053 51.8345 20.6945 51.8627 20.5495C51.9769 19.9625 51.9785 19.4745 51.9052 18.8813C51.8666 19.1972 51.9 19.536 51.879 19.8569C51.8551 20.2231 51.7749 20.585 51.7431 20.952C51.211 20.9728 50.6787 20.9853 50.1463 20.9896Z" fill="#FEFEFE"/>
<path d="M63.3241 18.628C63.1627 18.6523 62.9736 18.7035 62.8174 18.6485C62.7655 18.5018 62.8056 18.414 62.8366 18.2635C63.0215 18.359 63.2195 18.4435 63.3741 18.5847L63.3241 18.628Z" fill="#FEFEFE"/>
<path d="M34.9344 18.4205C35.5089 18.4002 36.0837 18.3664 36.658 18.3388C37.2497 18.3105 37.8459 18.3166 38.4384 18.3109C37.9438 19.2219 37.2776 20.101 36.6489 20.9246L36.5603 20.9949C36.1425 20.84 35.1915 18.9033 34.9344 18.4205Z" fill="#FEFEFE"/>
<path d="M30.3748 18.6051C31.2626 18.5811 32.15 18.5416 33.0364 18.4864C33.3216 18.4625 33.6098 18.4558 33.8958 18.4424C33.3335 19.3922 32.719 20.3312 32.0334 21.1969C31.9295 21.0568 31.8361 20.9073 31.7392 20.7622C31.3052 20.0303 30.8279 19.3253 30.3748 18.6051Z" fill="#FEFEFE"/>
<path d="M41.3647 21.2688C41.8945 20.3085 42.6116 19.3988 43.237 18.4968C43.8321 19.176 44.4097 20.3215 44.8462 21.1306C44.1643 21.1829 43.4811 21.2154 42.7973 21.2281C42.9045 20.641 43.0425 20.0951 43.2645 19.5402L43.2507 19.4858C43.2283 19.5026 43.2033 19.5164 43.1833 19.536C42.9553 19.7598 42.762 20.8906 42.7279 21.2282C42.2739 21.2529 41.8193 21.2664 41.3647 21.2688Z" fill="#FEFEFE"/>
<path d="M26.0098 18.7962C26.9758 18.7155 27.9435 18.6569 28.9121 18.6203C28.922 18.62 28.9318 18.6194 28.9417 18.6194C29.0667 18.6198 29.1465 18.5966 29.2395 18.6856C29.1396 19.2777 28.0072 20.6729 27.6059 21.2366C27.4211 20.9899 27.2577 20.7234 27.0886 20.4655C26.7525 19.8952 26.3497 19.366 26.0098 18.7962Z" fill="#FEFEFE"/>
<path d="M36.8699 21.4268C37.0879 21.0954 37.3447 20.7842 37.5736 20.4595C37.9923 19.8656 38.3907 19.2575 38.8352 18.6823C38.8912 18.7383 38.8986 18.8672 38.9139 18.9438L38.9277 18.9029C38.9874 19.1186 38.9364 19.3569 38.9127 19.5767L39.0995 19.0893L40.4869 21.3097C39.8117 21.3362 39.1367 21.3682 38.4621 21.4056C38.5173 21.0957 38.5887 20.7902 38.6601 20.4838C38.7111 20.2675 38.7992 20.0496 38.8179 19.8288L38.7721 19.8438C38.7732 19.9074 38.7658 19.9492 38.7425 20.0086C38.5637 20.4641 38.4514 20.9218 38.3928 21.4074L36.8699 21.4268Z" fill="#FEFEFE"/>
<path d="M21.705 18.9784C22.5299 18.8476 23.3867 18.8459 24.2203 18.8077C24.4897 18.7881 24.7499 18.8008 25.019 18.8163C24.8201 19.1344 24.5902 19.4355 24.3856 19.7507C24.0214 20.3119 23.6844 20.925 23.2248 21.4143C23.1352 21.2995 23.0548 21.1773 22.9722 21.0574C22.5325 20.3786 22.1371 19.6642 21.705 18.9784Z" fill="#FEFEFE"/>
<path d="M34.0882 21.5032C34.2065 20.5836 34.1273 19.782 34.3114 18.8197C34.8358 19.2353 35.5106 20.4799 35.8682 21.0974C35.9199 21.1868 36.0229 21.3135 35.9966 21.4124L35.8215 21.4497C35.2425 21.4837 34.6682 21.5048 34.0882 21.5032Z" fill="#FEFEFE"/>
<path d="M28.0147 21.5603C28.5426 20.7215 29.1192 19.6795 29.7919 18.9598C29.8946 19.3276 29.8135 19.7842 29.8832 20.1698C29.959 20.5892 30.2403 21.0269 30.1971 21.4618C29.724 21.6117 29.0394 21.5509 28.5351 21.5608L28.0147 21.5603Z" fill="#FEFEFE"/>
<path d="M32.63 21.4535L32.5669 21.3976C32.6969 20.9349 33.7716 19.4854 34.1114 19.0659C34.2056 19.1854 34.0214 21.1739 34.006 21.5083C33.5475 21.4847 33.0889 21.4664 32.63 21.4535Z" fill="#FEFEFE"/>
<path d="M30.3151 21.5049C30.0902 20.6762 29.9 19.9551 29.859 19.0933C30.117 19.2205 31.3103 21.0789 31.5102 21.4559C31.1283 21.5382 30.7053 21.5068 30.3151 21.5049Z" fill="#FEFEFE"/>
<path d="M19.2934 21.9807C19.9004 21.0377 20.5195 20.1 21.1067 19.1445L22.8683 21.8718C22.2365 21.8885 21.6033 21.928 20.9714 21.9534C20.4138 21.9794 19.8517 21.9743 19.2934 21.9807Z" fill="#FEFEFE"/>
<path d="M25.8261 21.7985C25.4485 20.8829 25.4625 20.0975 25.4908 19.132C25.5151 19.1525 25.5575 19.1868 25.5813 19.2119C25.8088 19.452 27.2118 21.5706 27.2142 21.7366C26.7517 21.7625 26.289 21.7831 25.8261 21.7985Z" fill="#FEFEFE"/>
<path d="M59.518 19.3623C60.1807 19.2777 60.8587 19.2896 61.5263 19.2782L64.62 19.2336C65.5165 19.2196 66.4131 19.2242 67.3093 19.2474L67.3376 23.2747C67.3457 23.9329 67.4549 24.9955 67.3117 25.6165C67.1479 26.3268 66.7291 27.0567 66.4431 27.7313C66.2732 28.1321 66.1121 28.7491 65.8321 29.078C65.7259 29.2028 65.5767 29.2306 65.4189 29.2533C64.3072 29.4133 62.9329 29.2392 61.7691 29.3567L61.7183 29.3622C61.0467 28.2697 60.4229 27.0749 59.8541 25.9255L61.1485 25.919C61.853 25.9091 63.9807 25.9813 64.5415 25.7706C64.648 25.7307 64.7024 25.696 64.745 25.5862C64.9347 25.0968 64.9491 21.0397 64.7551 20.5949C64.597 20.4765 64.4495 20.4269 64.2537 20.3977C63.4393 20.276 61.6825 20.4286 60.7868 20.4673C60.3969 20.4842 59.9484 20.5483 59.5685 20.4545C59.4414 20.3075 59.4526 20.0599 59.3869 19.875C59.2722 19.9011 59.1325 20.0693 59.0423 20.1531L59.0369 20.7507C58.8203 20.76 58.5988 20.7477 58.3817 20.745C58.6648 20.2147 59.0225 19.7118 59.518 19.3623Z" fill="#FEFEFE"/>
<path d="M23.6108 21.8563C24.1423 21.002 24.6725 19.9558 25.3789 19.2433C25.4887 19.5695 25.3411 20.0602 25.3703 20.4132C25.4033 20.8108 25.6101 21.1954 25.648 21.5906C25.6586 21.7007 25.65 21.7167 25.5859 21.799C25.1824 21.9254 24.532 21.8547 24.0934 21.8683L23.6108 21.8563Z" fill="#FEFEFE"/>
<path d="M79.3911 20.5917L82.1231 20.4955C82.8562 20.4734 83.5895 20.4637 84.3229 20.466L84.3276 22.0145C83.4023 22.0434 82.4766 22.0637 81.5508 22.0756C80.8286 22.0804 80.1067 22.0984 79.3852 22.1294L79.3911 20.5917Z" fill="#FEFEFE"/>
<path d="M59.5991 21.0581C60.5318 20.9881 61.4822 20.9924 62.4177 20.9644C63.0473 20.9393 63.6775 20.9448 64.3075 20.9449L64.309 25.263C63.3635 25.3077 62.414 25.3169 61.4676 25.3439C60.8442 25.3445 60.2208 25.3556 59.5977 25.3772C59.5562 23.9429 59.6044 22.4941 59.5991 21.0581Z" fill="#FEFEFE"/>
<path d="M29.9964 23.3461C30.0312 23.1542 30.0449 22.9233 30.1655 22.7652C30.3071 22.6773 30.4829 22.6988 30.6441 22.699L31.6691 22.6687C31.7016 22.8516 31.7122 23.0937 31.8847 23.202C32.1194 23.3494 32.5659 23.221 32.8252 23.1835C32.8362 24.2999 32.7851 25.4221 32.7694 26.539L32.668 32.9508L31.6641 32.9444L29.4788 32.9368L29.3532 23.3835C29.5683 23.3801 29.7821 23.3621 29.9964 23.3461Z" fill="#FEFEFE"/>
<path d="M64.924 32.3134C64.0482 31.52 63.122 30.7728 62.2746 29.9502C62.5824 29.9264 62.9028 29.9175 63.2094 29.9578C63.5112 29.9975 64.0423 30.0724 64.2357 30.3229C64.126 30.3161 64.0401 30.3 63.9385 30.3497L63.9456 30.4503C64.182 30.5851 64.6591 30.3905 64.9153 30.3254L64.9216 31.7832L64.924 32.3134Z" fill="#FEFEFE"/>
<path d="M64.9379 30.1488C64.6864 30.1901 64.4169 30.2433 64.1851 30.1041C64.0878 30.0458 64.1191 30.0826 64.091 29.9686C64.355 29.942 64.7033 29.862 64.9343 30.0096L64.9379 30.1488Z" fill="#FEFEFE"/>
<path d="M65.7447 79.7755C65.6422 77.1782 65.682 74.5598 65.6626 71.9595C65.6049 67.3638 65.5721 62.7678 65.5641 58.1718L65.5797 40.3583L65.5774 33.412C65.5753 32.4021 65.5306 31.4008 65.5535 30.3892C65.7446 31.0768 65.7149 33.3016 65.7459 34.1703L66.0598 43.2963L67.0415 71.5544C67.0603 72.3079 67.359 79.605 67.2587 79.7881C66.7546 79.7752 66.2489 79.7788 65.7447 79.7755Z" fill="#FEFEFE"/>
<path d="M62.2049 32.6763L62.2028 30.4797C62.5019 30.6707 62.7825 30.9701 63.0498 31.2086C63.6251 31.722 64.2062 32.2311 64.7598 32.768C63.9149 32.7857 63.05 32.7098 62.2049 32.6763Z" fill="#FEFEFE"/>
<path d="M59.2154 79.7782C59.1495 79.0795 59.2709 78.1412 59.3043 77.4259L59.5671 72.176L60.412 55.8135L61.2596 39.2978C61.3391 37.6724 61.4075 36.0465 61.465 34.4201C61.503 33.5392 61.5106 32.6385 61.619 31.7637C61.6597 32.8976 61.6132 34.046 61.6017 35.181L61.5129 42.3331L61.0863 67.5352C60.9803 71.6155 60.9148 75.6967 60.8899 79.7783L59.2154 79.7782Z" fill="#FEFEFE"/>
<path d="M30.2798 36.719C29.865 35.5626 29.3714 34.4316 28.9303 33.2844C30.4775 33.2431 32.0321 33.2842 33.58 33.2946C33.1317 34.2167 32.7465 35.1684 32.3509 36.1138C32.2328 36.3836 32.1147 36.776 31.901 36.976L31.8168 36.9729C31.671 36.8135 31.5295 36.6406 31.3232 36.5597C30.9727 36.4224 30.5971 36.5681 30.2798 36.719Z" fill="#FEFEFE"/>
<path d="M64.9253 35.7731C64.0374 34.9738 63.1217 34.1791 62.2896 33.3218C63.1406 33.2887 63.9929 33.3117 64.841 33.3903L64.8939 33.4556L64.7463 33.5648C64.7771 33.6494 64.7565 33.6164 64.8225 33.6894C64.8388 33.7075 64.856 33.7249 64.8726 33.7426L64.8493 33.7934C64.2873 33.7916 63.8373 33.5377 63.1498 33.5668C63.6579 33.7492 64.1997 33.8601 64.7232 33.9914L64.8428 34.0352C65.0082 34.2643 64.9266 35.4312 64.9253 35.7731Z" fill="#FEFEFE"/>
<path d="M62.198 36.0899C62.1903 35.3363 62.1907 34.5825 62.1992 33.8289C63.07 34.5472 63.8669 35.4182 64.6927 36.1945C63.8667 36.2124 63.0275 36.0978 62.198 36.0899Z" fill="#FEFEFE"/>
<path d="M64.9267 39.3485C64.5103 38.9511 62.3207 37.0981 62.199 36.7085C62.925 36.6436 63.7987 36.6888 64.5208 36.782C64.6798 36.8026 64.8033 36.8117 64.904 36.9422C64.89 37.0351 64.8659 37.0426 64.8058 37.1107C64.4611 37.2785 63.5417 36.9625 63.1394 36.909C62.9565 36.8846 62.7666 36.8846 62.5821 36.8803C62.889 37.053 63.7911 37.2185 64.1831 37.2785L64.9164 37.3667L64.9267 39.3485Z" fill="#FEFEFE"/>
<path d="M62.1636 39.5784L62.1606 37.3666C62.6201 37.6067 64.1538 39.2366 64.6206 39.6935C63.8021 39.6431 62.9831 39.6048 62.1636 39.5784Z" fill="#FEFEFE"/>
<path d="M64.8983 40.5343C64.805 40.5344 64.7117 40.5336 64.6185 40.5319C64.1196 40.5226 62.5551 40.5219 62.2409 40.197C62.6661 40.2071 64.6271 40.179 64.8679 40.3479L64.8983 40.5343Z" fill="#FEFEFE"/>
<path d="M64.89 42.7594C64.6478 42.7115 62.7883 40.7505 62.4968 40.4294C63.3041 40.5538 64.0894 40.6902 64.9079 40.7291C64.9133 41.4059 64.9073 42.0828 64.89 42.7594Z" fill="#FEFEFE"/>
<path d="M62.134 43.0564C62.1557 42.2711 62.1283 41.4856 62.1125 40.7003C62.9137 41.3315 63.9187 42.5073 64.6741 43.2603C63.8264 43.2059 62.9796 43.1379 62.134 43.0564Z" fill="#FEFEFE"/>
<path d="M64.8936 46.5831C64.0001 45.6778 63.0139 44.7658 62.2644 43.7378C62.7181 43.7228 64.6044 43.6771 64.8673 43.9202C64.409 44.1954 63.046 43.8373 62.4782 43.8008L62.4157 43.7974C63.1572 44.1025 63.9395 44.1455 64.7311 44.2052L64.8213 44.2416C64.9567 44.6123 64.8884 46.0963 64.8936 46.5831Z" fill="#FEFEFE"/>
<path d="M62.1126 46.7662L62.1127 44.3114C62.4513 44.5908 62.7525 44.9545 63.0558 45.2728L64.7116 47.0117C63.8552 47.0119 62.9688 46.8436 62.1126 46.7662Z" fill="#FEFEFE"/>
<path d="M64.8652 50.1692C64.3282 49.8685 62.7287 48.1057 62.3072 47.5526C63.1202 47.5782 64.0898 47.7497 64.8728 47.9742C64.8845 48.7058 64.8818 49.4376 64.8652 50.1692Z" fill="#FEFEFE"/>
<path d="M62.0518 50.4158L62.0718 47.9294C62.4457 48.3525 64.3899 50.3101 64.4634 50.6125C64.251 50.6968 62.4571 50.4356 62.0518 50.4158Z" fill="#FEFEFE"/>
<path d="M64.8861 53.6991L64.8226 53.7362C63.978 52.9156 63.186 52.0482 62.3942 51.1775C63.2175 51.2511 64.0107 51.3552 64.823 51.5101C64.8727 52.2388 64.8784 52.9691 64.8861 53.6991Z" fill="#FEFEFE"/>
<path d="M62.0107 53.9318C62.0228 53.07 62.0283 52.2082 62.0275 51.3463C62.304 51.5736 62.555 51.928 62.7957 52.1972C63.4058 52.871 64.0106 53.5493 64.6104 54.2322C63.7588 54.066 62.8767 53.9763 62.0107 53.9318Z" fill="#FEFEFE"/>
<path d="M41.2022 64.0248C41.0829 63.7273 40.9581 63.4321 40.8279 63.1393C38.3972 57.6672 35.2018 54.0773 29.5493 51.9001C31.3608 51.7399 34.2702 52.5984 35.8021 53.5734C38.8184 55.4933 41.1569 58.4475 42.6693 61.6658C42.932 62.2247 43.2856 62.8596 43.4207 63.4612C43.332 63.5747 43.2521 63.5644 43.1143 63.5948C42.4751 63.7275 41.8389 63.8803 41.2022 64.0248Z" fill="#FEFEFE"/>
<path d="M23.3721 54.4635C24.2045 53.7826 25.8889 52.408 26.9185 52.2226C27.1677 52.2105 27.4174 52.2143 27.6661 52.2342C30.7932 52.4762 34.4175 54.9894 36.4274 57.3256C37.8969 59.0336 39.0135 60.8102 39.9722 62.8444C40.2125 63.3542 40.5342 63.9274 40.6021 64.4922C40.6426 64.8295 40.4406 65.6534 40.409 66.0724C40.0811 65.295 39.733 64.5425 39.3315 63.7999C38.108 61.4431 35.9524 58.675 33.8176 57.0894C30.5577 54.668 27.3929 53.8678 23.3721 54.4635Z" fill="#FEFEFE"/>
<path d="M64.9206 57.207C64.3395 56.861 62.8414 55.0693 62.3051 54.4977C63.1371 54.4788 64.069 54.676 64.9138 54.7435C64.9 55.5632 64.9224 56.3868 64.9206 57.207Z" fill="#FEFEFE"/>
<path d="M61.9429 57.1383C61.9116 56.3379 61.9381 55.5278 61.9442 54.7266C62.7019 55.4822 63.9751 56.7548 64.576 57.5861C63.7175 57.4882 62.7773 57.3572 61.9429 57.1383Z" fill="#FEFEFE"/>
<path d="M19.8135 56.6295C21.6453 55.4807 23.267 55.0047 25.4362 54.9502C27.4839 54.8917 29.5136 55.3482 31.3391 56.2777C35.0397 58.2049 37.888 61.9901 39.5259 65.7634C39.8656 66.5462 40.1316 67.361 40.3888 68.1738C40.7936 67.5637 40.9286 66.8187 41.1066 66.1194C42.4058 70.7812 43.8615 75.3996 45.1565 80.0637C43.7876 80.3296 42.4075 80.5346 41.0204 80.6777C39.9759 80.8021 38.928 80.8277 37.8796 80.8982C37.5337 77.931 36.8566 74.9757 35.9859 72.1201C34.3509 66.7582 30.9217 59.9306 25.7462 57.1988C24.4017 56.4891 22.7485 55.9772 21.2144 56.2278C20.7451 56.3045 20.2679 56.4883 19.8135 56.6295Z" fill="#FEFEFE"/>
<path d="M9.54911 75.5595C9.89907 70.8115 11.5292 65.9256 14.3588 62.0657C16.092 59.7011 18.6339 57.2783 21.6365 56.8175C21.6397 56.8171 21.6429 56.8163 21.646 56.816C23.725 56.6314 25.889 57.8562 27.4448 59.1234C32.229 63.0201 34.7823 69.5492 36.1994 75.3837C36.6397 77.1963 37.0204 79.0343 37.2097 80.8921C33.2487 80.9379 29.3298 80.4768 25.4062 79.9899C20.8576 79.3562 16.4239 78.2549 11.9936 77.0721C11.3818 76.9087 9.1343 76.4404 8.83204 75.9813C8.78762 75.9137 8.81203 75.8921 8.8287 75.8204C9.04594 75.6168 9.26003 75.5906 9.54911 75.5595Z" fill="#FEFEFE"/>
<path d="M64.9171 60.6229C64.9135 60.6233 64.91 60.6249 64.9064 60.6243C64.6535 60.577 62.6856 58.1691 62.2895 57.7682C62.8441 57.8306 64.4047 58.0707 64.8507 58.3074C65.0256 58.7943 64.9202 60.0547 64.9171 60.6229Z" fill="#FEFEFE"/>
<path d="M61.859 60.8152C61.8748 59.8509 61.8489 58.8857 61.8744 57.9219C62.2365 58.2141 62.5419 58.6817 62.8518 59.0332C63.4959 59.7639 64.2358 60.4684 64.7885 61.2683C63.8095 61.1653 62.8392 60.934 61.859 60.8152Z" fill="#FEFEFE"/>
<path d="M44.1414 63.3427C43.8534 62.7479 43.6213 62.1252 43.3295 61.5302C42.8082 60.4679 42.2167 59.4552 41.6225 58.4338C41.6501 58.4488 41.6789 58.4618 41.7053 58.4789C42.4324 58.9512 44.9191 62.2477 45.0532 63.1073L44.9898 63.1903L44.1414 63.3427Z" fill="#FEFEFE"/>
<path d="M45.7798 63.0072C45.1432 61.7363 44.3809 60.5323 43.5045 59.4131C44.1808 59.7577 46.0897 62.1863 46.5092 62.9343C46.2486 62.9334 46.0345 62.9505 45.7798 63.0072Z" fill="#FEFEFE"/>
<path d="M76.3553 65.7976C76.6196 64.8739 77.7247 59.9999 78.0388 59.7229C78.4055 59.7031 78.8072 59.6494 79.1612 59.7645C79.3764 59.9542 80.662 65.1319 80.7855 65.7823C80.2377 65.892 79.6567 65.9077 79.0992 65.9426C78.1822 65.9617 77.2651 65.9132 76.3553 65.7976Z" fill="#FEFEFE"/>
<path d="M64.9222 64.3595L64.9118 64.4185L64.8596 64.4368C63.9271 63.4376 63.017 62.4175 62.1303 61.3774C63.0245 61.512 63.9587 61.63 64.8359 61.846C64.9135 61.9147 64.9089 61.9131 64.9194 62.0169C64.8687 62.1049 64.8243 62.1827 64.7924 62.2796L64.9158 62.3769C64.9951 63.008 64.9265 63.7197 64.9222 64.3595Z" fill="#FEFEFE"/>
<path d="M61.78 64.602L61.791 61.6606C62.0537 61.8744 62.2865 62.2146 62.5157 62.4687C63.2787 63.3146 64.0184 64.1932 64.8057 65.0158C63.7971 64.8681 62.7918 64.7255 61.78 64.602Z" fill="#FEFEFE"/>
<path d="M41.4155 64.7018C42.9972 64.2692 44.6207 63.981 46.21 63.5616C46.2699 63.5566 46.3125 63.5707 46.3702 63.5852C46.5162 63.7436 46.5811 63.9594 46.6484 64.1605C47.0707 65.4218 47.3644 66.7577 47.7217 68.0405C48.7459 71.7734 49.7424 75.5139 50.7115 79.2616C49.1358 79.7353 47.5794 80.2722 45.9922 80.7072C45.7525 79.6027 45.4136 78.5204 45.0994 77.4353L43.6818 72.5808L42.0916 67.0567C41.8652 66.272 41.6667 65.4792 41.4155 64.7018Z" fill="#FEFEFE"/>
<path d="M50.8695 77.0777C50.5066 76.4298 49.815 73.2491 49.5636 72.2665C49.2456 71.0235 48.8685 69.7956 48.5329 68.5571C48.1386 67.102 47.7804 65.6269 47.3181 64.192C47.3567 64.2189 47.3672 64.2241 47.4044 64.2625C47.8549 64.7271 48.13 65.5039 48.3981 66.0852C49.9784 69.5114 50.9016 73.2953 50.8695 77.0777Z" fill="#FEFEFE"/>
<path d="M64.9686 68.3041C64.6523 67.9829 64.3673 67.6263 64.0621 67.2936C63.4418 66.6173 62.7994 65.9535 62.246 65.2202C63.1224 65.2273 64.0804 65.4462 64.9425 65.6108C64.9683 66.5082 64.9769 67.4063 64.9686 68.3041Z" fill="#FEFEFE"/>
<path d="M61.7215 68.3235L61.7464 65.4047C62.0973 65.696 62.4074 66.1082 62.7114 66.4489C63.4077 67.2161 64.0837 68.0015 64.7382 68.8046C63.7322 68.5918 62.7472 68.4113 61.7215 68.3235Z" fill="#FEFEFE"/>
<path d="M65.0143 72.0367C64.0719 70.993 63.1505 69.8628 62.1349 68.8945C62.6452 68.9237 64.6543 69.1651 64.9761 69.422L64.9847 69.5392C64.8862 69.6368 64.7885 69.5636 64.6597 69.6151C64.758 69.6605 64.7099 69.6354 64.804 69.6905L64.7299 69.8311L64.7568 69.8799L64.9323 69.7417L64.986 69.7568C65.067 70.2199 65.0015 70.7796 65.0107 71.2582L65.0143 72.0367Z" fill="#FEFEFE"/>
<path d="M61.6479 72.0289C61.6442 71.0272 61.6309 70.0264 61.6837 69.0258L63.7576 71.3056C64.1352 71.7228 64.5384 72.1234 64.8849 72.5672C64.5359 72.5505 64.1609 72.4519 63.8149 72.3938C63.0915 72.2785 62.3692 72.1569 61.6479 72.0289Z" fill="#FEFEFE"/>
<path d="M74.0284 74.6661L75.3138 69.8035C77.5285 70.1331 79.5802 70.17 81.7963 69.8269C82.267 71.4273 82.7 73.06 83.0803 74.684C82.6853 74.7867 82.2732 74.8437 81.8713 74.9148C79.3058 75.2671 76.5616 75.2168 74.0284 74.6661Z" fill="#FEFEFE"/>
<path d="M65.0503 75.6113L65.0438 75.7454C64.8789 75.7156 62.546 73.0229 62.2256 72.661C62.6356 72.7156 63.0443 72.7802 63.4512 72.8549C63.8308 72.9232 64.8316 72.9971 65.0261 73.2775C65.0289 73.423 64.9576 73.5031 64.8783 73.6174L64.8424 73.6684L64.8597 73.7505C64.9341 73.7337 64.9439 73.7194 65.0173 73.7495C65.0928 74.3439 65.0314 75.0061 65.0503 75.6113Z" fill="#FEFEFE"/>
<path d="M61.5935 75.7604C61.6015 74.7648 61.6176 73.7694 61.6417 72.774C62.3039 73.332 64.3936 75.6226 64.8016 76.336C64.3358 76.2436 63.8706 76.1396 63.4009 76.0694C62.8028 75.9799 62.172 75.9372 61.5935 75.7604Z" fill="#FEFEFE"/>
<path d="M56.2632 82.0478C55.6039 83.4366 54.3317 84.492 53.0331 85.2609C49.2444 87.5047 44.164 88.3499 39.8968 87.252C38.0392 86.7742 36.209 86.1787 34.3805 85.6019C32.5278 85.0354 30.6799 84.4534 28.8368 83.856C24.7745 82.5433 20.7068 81.2709 16.6691 79.8812C14.4898 79.1312 12.2796 78.4736 10.1025 77.7133C9.46293 77.4899 8.79533 77.3021 8.17101 77.0407C7.98414 76.9625 7.78504 76.872 7.68491 76.6854C7.57972 76.4893 7.60785 76.2593 7.6796 76.0571C7.79187 75.7409 7.89284 75.6402 8.19062 75.4971L8.26604 75.5295C8.17535 75.7306 8.09457 75.9199 8.1327 76.145C8.17416 76.3898 8.39476 76.5368 8.5878 76.6659C9.05742 76.9801 9.62783 77.153 10.1661 77.3066C11.1094 77.5789 12.0733 77.7738 13.0483 77.8895C13.8853 77.9864 14.7156 78.0235 15.5461 78.1884C16.8442 78.4462 18.0844 78.9747 19.3831 79.2529C20.2131 79.4306 21.0622 79.4664 21.9041 79.5576C22.4987 79.622 23.0886 79.7353 23.6758 79.8465C25.1727 80.13 26.6255 80.6334 28.0688 80.89C33.7844 81.8573 39.6271 81.792 45.3196 80.6973C45.3534 80.8795 45.3848 81.0668 45.4554 81.2391C45.511 81.3745 45.5721 81.4373 45.7059 81.4913C46.3228 81.3768 51.1057 79.9193 51.3008 79.6527C51.3941 79.3721 51.3051 79.1356 51.2172 78.867C51.4174 78.1602 51.4547 77.4325 51.5171 76.704C51.7531 76.7681 51.99 76.8318 52.2214 76.9113C53.6912 77.4163 55.5596 78.3609 56.2614 79.8433C56.6098 80.5793 56.5334 81.3073 56.2632 82.0478Z" fill="#FEFEFE"/>
<path d="M65.1032 79.6421C64.7547 79.3119 64.4399 78.9154 64.1065 78.5649C63.4422 77.8666 62.7566 77.1862 62.1073 76.4743C63.0685 76.4721 64.1224 76.6849 65.0614 76.8834C65.0654 77.8031 65.0793 78.7228 65.1032 79.6421Z" fill="#FEFEFE"/>
<path d="M61.4881 79.7775C61.4856 78.7065 61.5034 77.6355 61.5415 76.5652C61.9253 76.8622 62.2605 77.2474 62.6005 77.5937C63.3086 78.3035 63.996 79.0335 64.662 79.7831L61.4881 79.7775Z" fill="#FEFEFE"/>
<path d="M84.2206 82.3543C82.0529 82.9706 79.6508 83.0279 77.4113 82.9646C75.8811 82.9214 74.3225 82.7637 72.851 82.3286C72.6379 82.2655 72.2796 82.1858 72.1382 82.0084C72.0606 81.9109 72.9148 78.8579 72.9931 78.5384C76.563 79.3638 80.5056 79.432 84.0608 78.5123C84.2176 79.0242 84.3217 79.5591 84.4576 80.0779C84.6302 80.7375 84.838 81.3855 85.0496 82.0335C84.7789 82.1616 84.5042 82.2588 84.2206 82.3543Z" fill="#FEFEFE"/>
<path d="M56.9911 81.9274C57.1042 81.3815 57.1818 80.9017 57.0957 80.3433L69.8499 80.3785C69.7007 80.8101 69.503 81.2323 69.3263 81.6538C69.3018 81.7229 69.2855 81.7788 69.2354 81.8345C69.114 81.9699 58.2003 81.9238 56.9911 81.9274Z" fill="#FEFEFE"/>
<path d="M88.1984 86.009C83.6577 85.946 79.1123 85.9754 74.571 85.9786L70.7664 85.9946C70.0574 85.9983 69.3058 86.0532 68.6035 85.9685C68.5021 85.8562 68.5312 85.7792 68.5294 85.6313L81.4839 85.6316L86.3239 85.6423C86.8412 85.6462 87.3853 85.5886 87.8966 85.6178C88.0207 85.6249 88.1166 85.6408 88.223 85.7096C88.2611 85.8373 88.2339 85.8828 88.1984 86.009Z" fill="#FEFEFE"/>
</g>
<defs>
<clipPath id="clip0_0_260">
<rect width="96" height="96" fill="white" transform="translate(0 0.740234)"/>
</clipPath>
</defs>
</svg>
