<svg width="96" height="97" viewBox="0 0 96 97" fill="none" xmlns="http://www.w3.org/2000/svg">
<g clip-path="url(#clip0_0_212)">
<path d="M0 0.740234H96V96.7402H0V0.740234ZM41.2996 6.38623C36.6897 6.58125 32.9382 7.79369 28.9864 10.1568C28.36 10.5313 27.0706 11.6839 26.4947 11.8363C25.4917 12.1019 23.1746 12.1526 22.0494 12.2263L15.1394 12.7076C13.9813 12.7946 12.807 12.8536 11.6541 12.9875C11.8113 14.8377 12.0333 16.686 12.2283 18.5327C10.846 18.8167 9.44803 19.0367 8.05797 19.279C7.3801 19.3972 6.68555 19.4907 6.01954 19.6643C7.24939 26.1187 8.43374 32.5817 9.57253 39.0528L15.94 75.0575C16.5939 78.8357 17.2788 82.6084 17.9945 86.3752C18.2812 87.9253 18.5315 89.4801 18.8483 91.0249L32.8928 88.6529L37.8803 87.8499C38.9649 87.668 40.182 87.3872 41.2643 87.3163C42.0382 87.2657 42.8354 87.3168 43.6112 87.3408C45.0596 87.389 46.5077 87.4449 47.9556 87.5083C52.0932 87.6587 56.2591 87.7568 60.3865 88.084L76.7578 89.1903C77.0746 85.3606 77.2579 81.5152 77.514 77.6805C77.6205 76.0854 77.6761 74.4601 77.8651 72.874C78.4277 73.4458 81.3502 76.4163 81.4755 76.7438C81.5521 76.9439 81.5039 77.2947 81.557 77.5277C81.8197 77.7679 82.047 77.9639 82.4282 77.9459C82.6357 77.9361 82.8649 77.8533 83.0613 77.7897C84.0684 78.5161 85.1564 78.8714 86.4041 78.6687C87.4567 78.4977 88.4634 77.8904 89.0766 77.0138C89.7198 76.0853 89.9639 74.9378 89.7543 73.8279C89.6366 73.1949 89.3757 72.6779 89.0365 72.1377C89.1338 71.7099 89.286 71.0602 89.0217 70.6686C88.896 70.4824 88.584 70.3665 88.3712 70.3331C88.3264 70.3261 88.2806 70.3257 88.2358 70.3187C88.2197 70.3161 88.2043 70.3101 88.1885 70.3059C86.1396 68.1119 84.0736 65.9339 81.9908 63.7722C80.8118 62.5596 79.5495 61.3854 78.4346 60.1168C78.6659 59.913 78.755 59.8428 78.7738 59.5174C78.8185 58.7445 78.7981 57.9542 78.8229 57.1777L79.0187 50.8205C79.2029 44.4366 79.2849 38.0503 79.2649 31.6638C79.218 24.839 79.0745 18.0153 78.8344 11.1945C75.9896 11.0673 73.1358 11.049 70.2887 10.9849C70.1857 10.0265 70.0641 9.07017 69.924 8.11648C65.2332 8.8459 60.5106 9.35187 55.8168 10.0565C52.0214 7.88178 48.3773 6.63627 43.9809 6.40598C43.1006 6.35987 42.178 6.32083 41.2996 6.38623Z" fill="#FEFEFE"/>
<path d="M11.6541 12.9875C12.807 12.8536 13.9813 12.7946 15.1394 12.7076L22.0494 12.2263C23.1746 12.1526 25.4917 12.1019 26.4947 11.8363C27.0706 11.6838 28.36 10.5313 28.9864 10.1568C32.9382 7.79368 36.6897 6.58124 41.2996 6.38622C42.178 6.32081 43.1006 6.35986 43.9809 6.40597C48.3773 6.63625 52.0214 7.88177 55.8168 10.0565C60.5106 9.35185 65.2332 8.84589 69.924 8.11646C70.064 9.07015 70.1856 10.0265 70.2887 10.9848C73.1358 11.049 75.9896 11.0673 78.8344 11.1945C79.0745 18.0153 79.218 24.8389 79.2649 31.6638C79.2849 38.0503 79.2029 44.4366 79.0187 50.8205L78.8229 57.1777C78.7981 57.9542 78.8185 58.7445 78.7738 59.5173C78.755 59.8428 78.6659 59.913 78.4346 60.1168C79.5495 61.3854 80.8118 62.5596 81.9907 63.7722C84.0736 65.9339 86.1395 68.1119 88.1885 70.3059C88.2043 70.3101 88.2197 70.3161 88.2358 70.3187C88.2806 70.3257 88.3264 70.3261 88.3712 70.3331C88.584 70.3665 88.896 70.4824 89.0217 70.6686C89.286 71.0602 89.1338 71.7099 89.0365 72.1377C89.3757 72.6779 89.6366 73.1949 89.7543 73.8279C89.9639 74.9378 89.7198 76.0853 89.0765 77.0138C88.4634 77.8904 87.4566 78.4977 86.4041 78.6687C85.1564 78.8714 84.0684 78.5161 83.0613 77.7897C82.8649 77.8533 82.6356 77.9361 82.4282 77.9459C82.047 77.9639 81.8196 77.7679 81.557 77.5277C81.5039 77.2947 81.5521 76.9439 81.4755 76.7438C81.3501 76.4163 78.4277 73.4458 77.8651 72.874C77.6761 74.4601 77.6205 76.0854 77.514 77.6805C77.2579 81.5152 77.0746 85.3606 76.7578 89.1903L60.3865 88.084C56.2591 87.7568 52.0932 87.6587 47.9556 87.5083C46.5077 87.4449 45.0596 87.389 43.6112 87.3408C42.8354 87.3168 42.0381 87.2657 41.2642 87.3163C40.182 87.3872 38.9649 87.668 37.8803 87.8499L32.8928 88.6529L18.8482 91.0249C18.5315 89.4801 18.2812 87.9253 17.9945 86.3752C17.2788 82.6084 16.5939 78.8357 15.94 75.0575L9.57253 39.0528C8.43373 32.5817 7.24938 26.1187 6.01953 19.6643C6.68554 19.4907 7.3801 19.3972 8.05797 19.279C9.44802 19.0367 10.846 18.8167 12.2283 18.5327C12.0333 16.686 11.8113 14.8377 11.6541 12.9875ZM41.7149 7.27704C35.4035 7.50055 29.2863 10.0062 24.9424 14.6658C24.0339 15.6404 23.0638 16.7753 22.4415 17.9566C23.1657 17.2926 23.9031 16.6695 24.7049 16.1003C24.2947 16.7248 23.9405 17.3826 23.5753 18.0339C20.5234 23.4765 19.5874 28.9874 20.8494 35.0911C21.998 40.6456 25.7403 45.9573 30.4696 49.0606C35.2062 52.2004 40.9976 53.326 46.5655 52.189C47.2265 52.0503 47.876 51.8785 48.5279 51.7031C53.4476 50.028 57.0044 47.9764 60.2995 43.8744C61.2134 42.7368 62.0529 41.5473 62.7006 40.2351C65.2658 35.0383 65.4053 31.1631 64.3567 25.5377C65.6864 28.0204 66.1862 30.5046 66.4247 33.2789C67.1594 27.2625 65.4521 21.2027 61.6849 16.4546C57.6271 11.3952 51.7308 8.14872 45.2856 7.4254C44.1107 7.28823 42.8972 7.22457 41.7149 7.27704ZM68.8466 9.10116C65.9952 9.50871 63.1402 9.89034 60.282 10.246C59.2127 10.3878 58.1084 10.479 57.0479 10.6697C56.9494 10.6874 56.8703 10.6953 56.7935 10.7646C56.8668 10.8363 56.8811 10.8413 56.9842 10.8463C57.0414 10.849 57.1163 10.8328 57.1716 10.8251C58.7053 10.5778 60.2504 10.4238 61.7929 10.2435C63.1102 10.0867 64.4259 9.91645 65.7398 9.73282C66.4723 9.63504 68.5159 9.4663 69.0841 9.15501L69.1045 9.09845C69.0062 9.06355 68.9468 9.07973 68.8466 9.10116ZM68.9372 9.89832C68.0494 10.0325 67.1697 10.2099 66.2801 10.3348L63.6544 10.6823C63.3376 10.7225 62.8942 10.7021 62.6075 10.8209L62.6091 10.8491L63.1321 10.8658C65.1998 10.9619 67.2727 10.8854 69.3423 10.9613C69.3062 10.6263 69.3035 10.2531 69.1768 9.93965C69.0781 9.87176 69.0587 9.88775 68.9372 9.89832ZM58.1878 11.7168C60.6497 13.6268 62.728 15.9853 64.3132 18.6678C64.8709 19.6312 65.3351 20.6387 65.8124 21.6427C67.1082 21.5038 68.4164 21.4321 69.7152 21.3159C70.6076 21.2361 71.5596 21.0798 72.4524 21.0814C72.5952 21.0817 72.7235 21.0778 72.8398 21.1752C72.937 21.2579 72.9929 21.3793 72.9925 21.507C72.9931 21.6283 72.9382 21.7399 72.8437 21.816C72.4798 22.1091 66.8643 22.4269 66.0936 22.4688C66.2024 22.8088 66.3127 23.1414 66.4565 23.4684C67.5215 23.3247 68.6026 23.2571 69.672 23.1362C70.698 23.0202 71.7845 22.8256 72.8133 22.8122C72.9353 22.8106 73.0507 22.8285 73.1504 22.9045C73.2486 22.9795 73.2773 23.0527 73.2987 23.1696C73.2728 23.295 73.2473 23.3829 73.1362 23.4599C72.8534 23.6558 67.2712 24.0936 66.6194 24.1527C66.6943 24.4932 66.7632 24.8365 66.8628 25.1708C68.3203 25.0849 69.7805 24.9157 71.2335 24.7709C71.9889 24.6955 72.8047 24.5591 73.5621 24.5973C73.696 24.604 73.8136 24.6188 73.9235 24.7052C73.9933 24.7599 74.0179 24.8273 74.0501 24.9062C74.0304 25.0552 74.0035 25.1517 73.8777 25.2455C73.7346 25.3523 73.5403 25.4003 73.3667 25.4254C72.7858 25.5095 72.1574 25.4847 71.5687 25.5195C70.0476 25.6093 68.5194 25.6797 67.001 25.8016C67.1034 26.2465 67.1976 26.6933 67.2834 27.1417C68.3416 27.0735 69.4006 27.0172 70.46 26.973C71.0337 26.9461 71.6567 26.8684 72.2271 26.9359C72.34 26.9494 72.4092 26.9847 72.4982 27.0532C72.5616 27.1612 72.5771 27.2373 72.5539 27.3633C72.5333 27.4745 72.4578 27.5776 72.3545 27.6241C72.0445 27.7633 68.0304 27.8694 67.3852 27.8851C67.655 30.5703 67.6052 33.2912 67.011 35.9369C67.7388 35.9087 73.0907 35.6006 73.414 35.818C73.5179 35.8878 73.5642 36.0392 73.5649 36.1588C73.5654 36.2644 73.5293 36.3821 73.4554 36.4594C73.3688 36.5496 73.2426 36.574 73.124 36.5875C72.4238 36.667 71.648 36.6138 70.9387 36.6312C69.5687 36.6649 68.198 36.7351 66.8274 36.7329C66.7145 37.0922 66.6154 37.4501 66.5292 37.8167C67.4208 37.7843 73.5337 37.4698 73.9655 37.7074C74.0428 37.7922 74.0922 37.8619 74.083 37.9835C74.0735 38.1088 74.0129 38.1744 73.9229 38.2515C73.4533 38.4118 72.8217 38.3192 72.3232 38.3259C70.3388 38.3528 68.36 38.3032 66.3768 38.294C66.2425 38.7203 66.1171 39.1516 65.9438 39.5641C67.348 39.4234 68.8006 39.4643 70.2131 39.435C71.0015 39.4171 71.79 39.4054 72.5785 39.3997C72.8768 39.3959 73.1827 39.3559 73.4793 39.3694C73.6299 39.3763 73.8189 39.4042 73.9321 39.5136C74.0181 39.5969 74.0324 39.7032 74.0183 39.816C74.0053 39.9199 73.96 40.0444 73.8651 40.1015C73.5211 40.3089 66.9798 40.1786 65.9883 40.1688C65.8535 40.1735 65.7814 40.1493 65.6877 40.2661C65.3899 40.6376 65.1785 41.2825 64.9731 41.7167L69.5258 41.682C70.2889 41.6749 71.0876 41.6111 71.847 41.6668C71.9495 41.6744 72.0352 41.6832 72.1125 41.7594C72.1991 41.8446 72.2546 41.9612 72.2489 42.0848C72.2438 42.1954 72.1955 42.2825 72.1068 42.3481C72.0015 42.4259 71.8416 42.4557 71.7145 42.4696C71.3615 42.508 70.9825 42.4834 70.6265 42.4909C69.7616 42.5112 68.8966 42.5239 68.0315 42.529C66.9354 42.5363 65.6324 42.6378 64.5664 42.5029C64.095 43.3796 63.5526 44.2162 62.9448 45.0044C63.544 45.6769 64.1599 46.4409 64.8613 47.0049C65.8536 47.0131 66.5839 47.0276 67.3286 47.7955C67.7582 48.2385 68.1646 48.7101 68.5752 49.171C69.6324 49.2697 70.6994 49.265 71.7604 49.2799C72.1509 49.2854 72.5651 49.2561 72.9516 49.2959C73.0743 49.3085 73.2029 49.3227 73.2913 49.4193C73.3828 49.5192 73.3879 49.6056 73.3889 49.7348C73.3196 49.8821 73.2783 49.9496 73.1198 50.0032C72.3837 50.2526 69.8627 50.0067 68.9362 50.0031C69.1069 50.4289 69.3762 50.7427 69.6697 51.0898C70.4023 51.0782 73.3085 50.9224 73.7009 51.2766C73.7518 51.3226 73.736 51.3605 73.739 51.4238C73.6174 51.5689 73.458 51.5762 73.2727 51.593C72.2674 51.6845 71.213 51.6479 70.2047 51.6052C70.554 51.9782 70.8946 52.3815 71.2912 52.7044C71.8133 52.7193 73.4473 52.5805 73.7626 52.9562C73.8356 53.0433 73.8592 53.1739 73.8339 53.2838C73.8085 53.3938 73.7182 53.4616 73.6208 53.5059C73.196 53.6993 72.4532 53.5557 71.9852 53.5688C74.0227 55.4158 75.8438 57.5185 77.8102 59.4439C78.4887 43.6474 78.5315 27.83 77.9385 12.0302C73.6934 11.9151 69.4474 11.8396 65.201 11.8035L60.5263 11.7735C59.755 11.765 58.9536 11.8004 58.1878 11.7168ZM25.1176 12.9018C21.9523 13.1679 18.7838 13.3946 15.6129 13.5819C15.1971 13.6098 13.045 13.6853 12.798 13.7729C12.7578 13.7871 12.7301 13.8243 12.6962 13.8501C12.6659 13.9668 12.6743 13.9808 12.7151 14.0958C12.8037 14.1638 12.8127 14.1576 12.9259 14.157L20.9435 13.6174C22.2762 13.525 23.6125 13.401 24.9471 13.3413C25.0334 13.2467 25.3026 13.0111 25.3148 12.898C25.2452 12.8944 25.1867 12.8906 25.1176 12.9018ZM23.5418 14.3153C19.966 14.6518 16.3558 14.7003 12.7858 15.0766C12.8618 16.1387 13.0034 17.1988 13.1112 18.2583L13.7996 25.2048C14.7803 35.645 15.8207 46.0794 16.9206 56.5077L18.693 73.9124C18.9599 76.6762 19.2506 79.4377 19.5652 82.1965C19.7041 83.4807 19.7798 84.7953 19.9669 86.0713C30.5842 86.1031 41.2002 86.3239 51.8097 86.7336C58.6062 87.0561 65.3987 87.4585 72.1856 87.9408C73.4195 88.0301 74.6495 88.1737 75.8827 88.263C76.1899 84.6056 76.443 80.944 76.642 77.2792L76.834 73.9489C76.8736 73.2472 76.9353 72.5386 76.9198 71.8357C76.5238 71.4993 76.1825 71.0808 75.8186 70.7093C74.8332 69.7032 73.8703 68.6726 72.8727 67.6791C69.9257 67.7018 66.9857 67.4142 64.0477 67.2135L52.2652 66.4469C50.8248 66.3466 49.3834 66.2592 47.9413 66.1849C47.2302 66.1518 45.9792 66.1906 45.3329 66.0295C45.9259 65.9049 46.8391 66.0142 47.467 66.0257L52.2187 66.1263C57.1313 66.2424 62.042 66.4283 66.9493 66.6838C68.669 66.7712 70.4089 66.7897 72.1236 66.9343C71.6589 66.4537 71.186 65.9811 70.705 65.5169C67.1697 65.457 63.6423 65.1942 60.1138 64.984L52.6722 64.5865C49.7509 64.4264 46.828 64.246 43.9047 64.1282C43.4874 64.1181 43.0643 64.1221 42.6509 64.0602C42.8821 63.8616 60.1525 64.491 62.0348 64.5472C63.5794 64.5933 65.1258 64.6028 66.6696 64.656C67.8111 64.6953 68.951 64.7737 70.0915 64.8169C69.7006 64.4104 69.317 63.9859 68.9061 63.6001C67.6417 63.5839 66.371 63.4755 65.1084 63.4031C63.3577 63.3009 61.6059 63.2176 59.8535 63.1531C55.4337 62.982 51.0152 62.781 46.5981 62.5502L43.1931 62.3867C42.7675 62.3679 42.3371 62.3803 41.9131 62.3523C41.78 62.3436 41.6664 62.3345 41.565 62.2401C41.525 62.104 41.5292 62.0831 41.5668 61.9455C41.6891 61.8192 41.7466 61.8083 41.9209 61.8042C42.7041 61.7857 43.5158 61.8841 44.3012 61.9151C45.9896 61.9789 47.6785 62.0319 49.3676 62.0739C51.6645 62.1367 53.9579 62.257 56.2537 62.3328C60.25 62.4647 64.2389 62.5867 68.2258 62.9092L67.3253 61.9703C66.5135 62.0489 65.6274 61.9459 64.8142 61.8898C63.3253 61.7872 61.8385 61.6522 60.3487 61.5602C55.796 61.3077 51.241 61.0963 46.6845 60.9258L43.5948 60.8087C43.0897 60.7926 42.5428 60.828 42.0443 60.7448C41.8759 60.7167 41.6746 60.6716 41.5449 60.5507C41.4734 60.4838 41.4855 60.4413 41.4869 60.3519C41.5926 60.1843 41.7154 60.1143 41.9079 60.0667C42.3894 59.9479 45.1123 60.1223 45.7901 60.1447C50.8249 60.3457 55.8579 60.5878 60.8887 60.8709C62.809 60.9827 64.7237 61.1581 66.6455 61.2471C65.1423 59.7358 63.7813 58.1029 62.2352 56.6324C61.7531 56.1738 61.0925 55.9972 60.6245 55.4945C60.2523 55.0947 59.9554 54.5778 59.7729 54.0644C58.2545 53.9445 56.7397 53.764 55.2211 53.6383C54.4131 53.5714 52.946 53.5846 52.241 53.3573L52.2049 53.3461C51.3453 53.6822 50.4885 54.0227 49.6033 54.2869C45.9728 55.3707 41.8313 55.7299 38.0991 54.9933C37.9929 55.5176 37.8989 56.0442 37.8171 56.5728C36.3771 56.5298 34.9058 56.331 33.4701 56.1925C32.0941 56.0598 30.7057 55.9802 29.336 55.7963C29.3855 54.4542 29.5321 53.1188 29.6271 51.7799C28.9526 51.2714 28.2172 50.8453 27.5538 50.3243C24.0919 47.6058 21.7455 44.5474 19.7822 40.6274C19.393 40.844 18.6051 41.4704 18.1552 41.3179C18.035 41.2772 17.9121 41.1714 17.871 41.0501C17.8301 40.9295 17.8696 40.8095 17.9336 40.7061C18.2155 40.2504 18.9194 39.9237 19.3792 39.6878C18.781 38.0536 18.3156 36.4954 17.9827 34.7849C17.8167 34.6353 17.6684 34.5281 17.6334 34.2953C17.6037 34.0968 17.7451 33.8516 17.8289 33.6811C17.7185 32.9043 17.6498 32.1221 17.6232 31.338C17.6044 30.8868 17.6373 30.3949 17.5701 29.951C17.3734 29.9117 17.0866 29.8845 16.9625 29.7072C16.8872 29.5996 16.8967 29.4509 16.9401 29.3332C17.0547 29.0217 17.4069 28.8449 17.6785 28.6916C18.1896 24.562 19.3928 20.9808 21.6496 17.4667C22.1879 16.6284 22.7862 15.8079 23.3912 15.0159C23.5252 14.8403 23.8859 14.51 23.9274 14.3149C23.8083 14.2556 23.6686 14.2972 23.5418 14.3153ZM12.1772 19.5068C10.4912 19.7861 8.77742 20.025 7.10714 20.3862C8.29493 27.1387 9.51871 33.8849 10.7785 40.6243L15.6944 68.7038L17.4405 78.4463C18.1863 82.3038 18.8848 86.1702 19.5361 90.0447C20.9719 89.6631 22.4971 89.4784 23.9626 89.2296C25.6457 88.944 27.3363 88.6038 29.0279 88.3798L35.9068 87.2217C34.8928 87.1617 33.8746 87.1612 32.8591 87.1314C29.6591 87.0445 26.4581 86.9983 23.257 86.9928C21.9381 86.9832 20.5852 87.0658 19.2705 86.9948C19.125 86.3487 19.0566 85.6792 18.971 85.0224C18.8063 83.67 18.6548 82.3159 18.5166 80.9605L17.3628 69.8409L13.565 32.0387L12.6982 23.2085C12.6063 22.2419 12.5281 21.2735 12.4077 20.3099C12.3753 20.0503 12.3806 19.776 12.2984 19.5271C12.1974 19.5027 12.2384 19.5033 12.1772 19.5068ZM62.4603 45.7744C61.8367 46.4624 61.2282 47.1899 60.5581 47.8325C60.0789 48.2921 59.5206 48.6721 59.0905 49.1807C59.8825 49.7994 60.511 50.603 61.2336 51.2991C61.326 51.3655 61.3423 51.3937 61.46 51.3772C62.2946 51.2599 63.3638 50.069 63.8267 49.4121C64.1605 48.9383 64.2981 48.4499 64.3814 47.8821C63.6959 47.2199 63.1365 46.4389 62.4603 45.7744ZM65.717 47.8928C66.0109 48.1285 66.1748 48.4474 66.2235 48.8205C66.3473 49.7702 65.7245 50.7747 65.1545 51.4795C64.578 52.1927 63.7866 52.9202 62.838 53.0267C62.1467 53.1042 61.6228 52.8192 61.106 52.397C60.9463 52.2665 60.7946 52.1253 60.6434 51.9851C60.5063 52.6725 60.3518 53.4569 60.7321 54.0981C60.9563 54.3763 61.1615 54.5545 61.5266 54.6024C62.4321 54.7212 63.5348 53.9768 64.2019 53.4384C65.5177 52.3761 66.8135 50.8458 66.9939 49.0989C67.0027 49.0121 67.01 48.9251 67.0156 48.838C66.7846 48.4947 66.5348 48.2176 66.2142 47.9555L65.717 47.8928ZM57.3967 50.3667C56.8924 50.7607 56.3742 51.1105 55.8266 51.4427C56.7474 51.5679 57.6811 51.5982 58.6049 51.7025C58.9832 51.749 59.5916 51.9038 59.9401 51.7308C60.0072 51.6319 60.0207 51.6081 59.9946 51.4815C59.9292 51.1651 59.5161 50.7722 59.304 50.5322C58.6906 50.4856 58.0036 50.346 57.3967 50.3667ZM63.9945 50.8494C63.2525 51.2713 62.5145 51.5119 61.7297 51.8276L62.0614 52.019C62.3566 52.1681 62.6058 52.3026 62.9444 52.2001C63.3943 52.0639 63.7077 51.6462 63.9096 51.2427C63.9676 51.1271 64.0097 51.0266 64.0359 50.9004L63.9945 50.8494ZM68.8526 51.3931L68.6607 51.8759C69.6933 53.1134 70.9084 54.2622 72.0366 55.4153L77.4185 60.9431L83.6615 67.3769C84.861 68.6284 86.015 69.9542 87.2723 71.1464C87.3244 71.0194 87.406 70.8989 87.38 70.7628C86.9169 70.1749 86.3578 69.6439 85.8417 69.1019C84.9531 68.1585 84.0597 67.2195 83.1615 66.2852L74.9723 57.8326C72.9033 55.727 70.7581 53.6494 68.8526 51.3931ZM54.9888 51.921C54.1251 52.3776 53.264 52.8634 52.3688 53.2556C54.0703 53.251 55.8092 53.3599 57.5042 53.5118C58.2471 53.5733 58.9928 53.6838 59.7357 53.7244C59.725 53.2693 59.7574 52.8278 59.825 52.3774C58.7705 52.2863 57.7168 52.1885 56.6637 52.0842C56.1235 52.0299 55.529 51.9164 54.9888 51.921ZM30.2884 52.1677C30.2496 53.1319 30.1686 54.0901 30.0952 55.0519C31.5561 55.2007 33.0186 55.3357 34.482 55.457C35.3705 55.5356 36.2737 55.591 37.1537 55.736C37.2049 55.4456 37.2625 55.155 37.2968 54.862C35.5446 54.4306 33.905 53.8879 32.2606 53.1477C31.6007 52.8507 30.9639 52.4108 30.2884 52.1677ZM67.6783 53.6539C67.4021 53.9698 67.1143 54.2856 66.878 54.6328C66.5171 55.1627 65.2723 57.5028 64.6695 57.5804C64.6122 57.5013 64.6161 57.5383 64.6339 57.4447C64.6958 57.1176 65.8566 55.6118 66.1382 55.2804C65.2706 55.8791 64.4461 56.2058 63.44 56.5076C63.8777 57.025 64.3768 57.4853 64.8365 57.9829L69.4219 62.8571C69.8028 62.1419 70.7111 60.6294 70.7988 59.8921L70.7509 59.8383C70.6906 59.8781 70.631 59.9155 70.5755 59.9619C70.2237 60.3303 69.1602 61.5963 68.7429 61.6673C68.6824 61.5856 68.6888 61.6243 68.6999 61.5248C68.7785 60.8157 69.9396 59.2321 69.7282 58.5784L69.6498 58.519C69.0901 58.8418 68.5397 60.5545 67.8832 60.5615C67.7612 60.4263 67.7517 60.277 67.7585 60.0986C67.7908 59.2411 68.1955 58.3977 68.3167 57.5407C67.7946 58.2956 67.3456 59.0391 66.653 59.6629C66.8271 58.8524 67.0342 58.0767 67.3527 57.309C67.0225 57.6763 66.2567 58.6674 65.7801 58.7888L65.7122 58.7449C65.6627 58.1493 66.7453 56.6883 67.0565 56.0711C67.3443 55.5002 67.6171 54.8548 67.7137 54.2192C67.7416 54.0364 67.787 53.8111 67.6783 53.6539ZM64.7873 54.3031C63.9065 54.8128 63.0565 55.0996 62.0941 55.392L62.089 55.4358L62.2698 55.5181C63.0255 55.572 63.9799 55.5138 64.5865 54.9901C64.7645 54.8363 64.8739 54.641 64.9098 54.4096C64.8621 54.3437 64.8675 54.3361 64.7873 54.3031ZM70.9086 61.7168C70.5714 62.2222 70.2233 62.7972 69.7553 63.1906L77.3712 70.9779C78.6148 72.2741 79.781 73.6378 81.0737 74.8908C81.0892 74.3488 81.1501 73.7935 81.1247 73.2529C80.8136 73.5138 80.5608 73.6499 80.167 73.7526C79.7198 73.2444 79.6709 72.6704 79.554 72.0287C79.3538 72.0975 79.1617 72.1513 78.9535 72.1893C78.8298 71.4644 78.9903 70.7473 79.0006 70.0201C78.7301 70.2046 77.9913 70.9189 77.6986 70.8984C77.5789 70.7755 77.5712 70.6497 77.5751 70.4815C77.582 70.1838 77.6513 69.8727 77.701 69.5789C77.4606 69.7422 77.1804 69.9919 76.8891 70.0323L76.8047 69.9917C76.7803 69.9034 76.7789 69.8368 76.784 69.7456C76.5578 69.2487 76.479 68.7884 76.4037 68.2514C76.2073 68.3773 75.882 68.6427 75.6416 68.6164C75.5692 68.6086 75.568 68.5715 75.5315 68.5167C75.5073 68.0604 75.8222 67.404 75.8989 66.9123C75.8856 66.9269 75.8722 66.9412 75.8592 66.9559C75.5736 67.2778 75.2719 67.9818 74.8986 68.1577C74.7994 67.9635 74.9882 67.5403 75.0526 67.3414C75.4246 66.192 75.884 64.9796 75.9365 63.7634C75.9245 63.777 75.9124 63.7905 75.9006 63.8043C75.2525 64.5673 74.5104 66.4295 73.9037 66.9191L73.8228 66.9129C73.7334 66.6172 74.6133 64.1983 74.7287 63.6338C74.714 63.6474 74.699 63.6607 74.6844 63.6745C74.2607 64.0759 73.1539 65.8999 72.8751 66.0443C72.6538 65.5549 72.908 64.9076 73.0838 64.4407C73.1733 64.2031 73.2633 63.967 73.3417 63.7254C73.0377 64.0253 72.4144 65.0731 72.04 65.0976C71.9614 65.1028 71.944 65.0603 71.8895 65.0118C71.6852 64.446 72.0244 63.4498 72.1781 62.8708C71.905 63.1867 71.3556 63.9202 70.9333 63.9701C70.8856 63.9757 70.8558 63.965 70.8121 63.9542C70.6639 63.773 70.6816 63.5831 70.7053 63.3578C70.7503 62.9292 70.9909 62.1498 70.9382 61.7481L70.9086 61.7168ZM88.1095 71.2567C87.1565 73.24 85.8797 74.8517 83.9578 75.9744C83.7249 76.1104 82.5757 76.6863 82.545 76.9461L82.6684 76.9613C84.9306 76.2158 86.8304 74.6532 87.9034 72.5037C88.0261 72.2579 88.3722 71.6688 88.2958 71.4025C88.2758 71.3328 88.1733 71.285 88.1095 71.2567ZM83.3879 72.0649C82.7406 72.9486 81.9725 74.3134 81.2465 75.0515L82.2176 76.1658C82.6376 75.8295 83.1706 75.6475 83.6645 75.4458L84.095 74.6098C84.215 74.3088 84.5104 73.7329 84.3824 73.423C84.2601 73.3977 84.2077 73.4213 84.104 73.4924C83.4061 73.971 82.9799 74.9575 82.2561 75.4933C82.5065 74.6505 83.6998 73.0117 83.5805 72.2358C83.5186 72.1594 83.4746 72.112 83.3879 72.0649ZM88.5631 73.1494C87.5498 74.994 86.0331 76.5492 84.0754 77.3939C84.2783 77.4937 84.4786 77.5971 84.6911 77.6753C85.6847 77.8966 86.5447 77.8938 87.4306 77.331C88.171 76.8606 88.661 76.0969 88.8456 75.2449C88.9686 74.6773 88.9426 73.7228 88.6201 73.2249C88.6029 73.1984 88.5821 73.1746 88.5631 73.1494Z" fill="#2A2A2A"/>
<path d="M22.4415 17.9566C23.0638 16.7754 24.034 15.6404 24.9424 14.6659C29.2863 10.0063 35.4035 7.5006 41.7149 7.2771C42.8972 7.22462 44.1107 7.28828 45.2857 7.42545C51.7308 8.14877 57.6271 11.3952 61.6849 16.4546C65.4521 21.2027 67.1594 27.2625 66.4247 33.2789C66.1862 30.5047 65.6864 28.0205 64.3568 25.5377C65.4053 31.1632 65.2658 35.0383 62.7007 40.2352C62.0529 41.5473 61.2134 42.7368 60.2995 43.8745C57.0044 47.9765 53.4476 50.028 48.5279 51.7031C47.8761 51.8785 47.2265 52.0503 46.5655 52.189C40.9976 53.326 35.2062 52.2004 30.4696 49.0606C25.7403 45.9573 21.998 40.6456 20.8495 35.0911C19.5874 28.9874 20.5234 23.4765 23.5753 18.034C23.9405 17.3827 24.2948 16.7248 24.7049 16.1004C23.9032 16.6695 23.1657 17.2927 22.4415 17.9566ZM41.1954 10.6975C35.5683 11.1292 30.3235 13.3508 26.6039 17.6903C23.0669 21.8169 21.2672 26.9755 21.6964 32.4103C22.1452 38.0924 24.8173 43.1228 29.1437 46.8018C33.0714 50.1417 38.6454 51.9246 43.7837 51.5283C43.826 51.5248 43.8682 51.5208 43.9104 51.5163C45.0487 51.453 46.1776 51.2364 47.2826 50.962C51.5079 49.9479 55.3295 47.6842 58.2493 44.4661C61.9483 40.3866 63.8598 34.9957 63.5568 29.4971C63.2505 24.2638 60.7554 19.4265 56.8523 15.955C52.5114 12.0941 46.9434 10.4385 41.1954 10.6975Z" fill="#FEFEFE"/>
<path d="M57.1716 10.8251C57.1163 10.8328 57.0414 10.849 56.9842 10.8463C56.8811 10.8413 56.8668 10.8364 56.7935 10.7646C56.8703 10.6954 56.9494 10.6874 57.0479 10.6697C58.1084 10.479 59.2127 10.3878 60.282 10.246C63.1402 9.89035 65.9952 9.50872 68.8466 9.10117C68.9468 9.07974 69.0062 9.06356 69.1045 9.09847L69.0841 9.15502C68.5159 9.46632 66.4723 9.63505 65.7398 9.73283C64.4259 9.91647 63.1102 10.0867 61.7929 10.2435C60.2504 10.4239 58.7053 10.5778 57.1716 10.8251Z" fill="#FEFEFE"/>
<path d="M63.1321 10.8658L62.6091 10.8492L62.6075 10.8209C62.8943 10.7022 63.3376 10.7226 63.6544 10.6824L66.2801 10.3348C67.1697 10.21 68.0494 10.0326 68.9372 9.89838C69.0587 9.8878 69.0781 9.87182 69.1768 9.9397C69.3035 10.2532 69.3062 10.6264 69.3423 10.9614C67.2728 10.8854 65.1999 10.9619 63.1321 10.8658Z" fill="#FEFEFE"/>
<path d="M43.9104 51.5163C43.8682 51.5208 43.826 51.5248 43.7837 51.5283C38.6455 51.9246 33.0714 50.1417 29.1437 46.8018C24.8173 43.1227 22.1452 38.0924 21.6964 32.4103C21.2672 26.9755 23.0669 21.8168 26.6039 17.6903C30.3236 13.3508 35.5683 11.1292 41.1954 10.6974C46.9435 10.4385 52.5115 12.094 56.8524 15.9549C60.7555 19.4265 63.2505 24.2638 63.5568 29.4971C63.8598 34.9957 61.9483 40.3866 58.2493 44.4661C55.3295 47.6842 51.5079 49.9478 47.2826 50.9619C46.1776 51.2363 45.0487 51.453 43.9104 51.5163ZM42.961 11.5434C41.9953 11.5588 41.0388 11.5778 40.0784 11.6898C36.4185 12.1167 32.4934 13.4772 29.6989 15.9413C30.5206 15.6683 31.3764 15.4343 32.2185 15.2317L38.1312 13.7319C38.9177 13.5254 39.6963 13.2861 40.4851 13.0896C42.3068 12.6358 44.1643 12.2905 45.9642 11.754C44.9681 11.641 43.9659 11.5181 42.961 11.5434ZM47.6033 12.2302L35.084 15.3971C34.4123 15.5639 28.7599 16.922 28.5161 17.076C27.5582 17.6807 25.851 20.0868 25.2223 21.1347C22.6213 25.4862 21.8631 30.6953 23.1155 35.6077C24.3992 40.824 27.7399 45.2985 32.3763 48.0116C34.1557 49.0707 36.0177 49.6714 37.9972 50.235C38.136 49.1038 38.3223 47.9787 38.4578 46.8473C38.5403 47.9928 38.4555 49.1687 38.4207 50.3165C43.8408 51.3341 49.4426 50.1339 53.97 46.985C55.7729 45.7552 57.4511 44.2181 58.6784 42.4063C58.0992 42.3998 55.638 42.4224 55.2061 42.2514L55.1293 42.168C55.1439 42.0907 55.1294 42.0821 55.198 42.0308C55.5392 41.7758 58.5649 41.7785 59.1749 41.7522C59.5391 41.2142 59.9208 40.6768 60.2137 40.0955C59.508 40.0569 58.8001 40.1013 58.0939 40.1101L54.8378 40.1203C54.3088 40.1209 53.7246 40.1754 53.2031 40.1227C53.0961 40.112 52.973 40.1022 52.8992 40.0201C53.6057 39.8993 54.4171 39.9365 55.137 39.917C56.8796 39.8794 58.6225 39.8511 60.3654 39.8318C60.6047 39.3544 60.8242 38.8724 61.0365 38.3826C60.2814 38.3867 59.5243 38.3801 58.7695 38.4042C57.806 38.4227 52.7456 38.5643 52.2105 38.3151L52.18 38.2482C52.2071 38.2206 52.2277 38.1844 52.2613 38.1653C52.3698 38.1036 55.4297 38.1028 55.8353 38.0988C57.6181 38.0812 59.4297 38.0908 61.2089 37.9822C61.3615 37.6241 61.4979 37.2632 61.5888 36.8839C59.3932 36.9954 57.1815 36.957 54.9844 36.9052C54.0073 36.8822 52.9518 36.9213 51.9866 36.7795C51.7658 36.7472 51.4653 36.6838 51.2966 36.5252C51.2289 36.4616 51.2494 36.4169 51.2612 36.3361C51.3544 36.2205 51.4165 36.1435 51.5766 36.1298C52.4887 36.052 53.6621 36.133 54.6076 36.1348C57.0279 36.1394 59.4598 36.1729 61.877 36.0352C62.6259 33.43 62.7975 30.6929 62.38 28.0146C61.7919 28.0402 57.6419 28.2903 57.3993 28.103C57.3837 28.0909 57.3705 28.0761 57.3562 28.0627L57.3539 27.9709C57.4151 27.9074 57.4518 27.8813 57.5384 27.8557C57.8463 27.7648 58.272 27.7742 58.5949 27.7442C59.8129 27.6311 61.0919 27.6098 62.2954 27.4126C62.2179 26.9391 62.1487 26.4567 62.0076 25.9972C60.0649 26.0368 58.1212 26.1828 56.1805 26.2816C55.571 26.3127 54.1465 26.4756 53.6347 26.3463C53.9654 26.1584 60.9065 25.7754 61.9225 25.7175C61.7898 25.2436 61.6561 24.7755 61.4777 24.3161C59.2165 24.324 56.9431 24.4858 54.6818 24.5612C53.9311 24.5861 53.1268 24.6824 52.3799 24.6386C52.2811 24.6329 52.1856 24.6073 52.107 24.5435C52.0686 24.5123 52.0527 24.4834 52.0267 24.4444C52.0705 24.3428 52.0782 24.3403 52.1764 24.2979C52.6547 24.0914 54.0807 24.1234 54.6698 24.081C56.8717 23.9028 59.076 23.7552 61.282 23.6381C61.0796 23.1695 60.8835 22.6879 60.6075 22.2567C59.4804 22.3816 58.2807 22.3097 57.1429 22.3442C55.3917 22.3973 53.3563 22.5749 51.6322 22.4526C51.4069 22.4365 51.164 22.3912 50.9854 22.244C50.8827 22.1594 50.8148 22.0669 50.8026 21.931C50.795 21.8475 50.8226 21.8255 50.8612 21.7562C50.9607 21.6871 51.0362 21.658 51.1549 21.6463C52.0331 21.5594 52.9513 21.6059 53.8359 21.5792C55.9386 21.5155 58.0509 21.4403 60.1545 21.4597C57.581 17.0255 53.3752 13.7738 48.4359 12.3995C48.1943 12.3338 47.8521 12.2075 47.6033 12.2302Z" fill="#2A2A2A"/>
<path d="M29.6989 15.9412C32.4934 13.4772 36.4185 12.1167 40.0784 11.6897C41.0388 11.5777 41.9953 11.5588 42.9609 11.5434C43.9658 11.5181 44.968 11.641 45.9642 11.7539C44.1643 12.2905 42.3067 12.6358 40.4851 13.0895C39.6963 13.286 38.9177 13.5254 38.1312 13.7319L32.2185 15.2316C31.3763 15.4343 30.5206 15.6682 29.6989 15.9412Z" fill="#FEFEFE"/>
<path d="M65.8124 21.6428C65.3351 20.6387 64.8709 19.6313 64.3132 18.6679C62.728 15.9854 60.6497 13.6269 58.1878 11.7169C58.9536 11.8005 59.755 11.7651 60.5263 11.7735L65.201 11.8035C69.4474 11.8396 73.6934 11.9152 77.9385 12.0302C78.5316 27.8301 78.4887 43.6474 77.8102 59.4439C75.8438 57.5186 74.0227 55.4158 71.9852 53.5689C72.4532 53.5558 73.196 53.6994 73.6208 53.506C73.7182 53.4616 73.8085 53.3939 73.8339 53.2839C73.8592 53.1739 73.8356 53.0433 73.7626 52.9562C73.4473 52.5806 71.8133 52.7194 71.2912 52.7045C70.8946 52.3815 70.554 51.9782 70.2047 51.6053C71.213 51.6479 72.2674 51.6846 73.2727 51.5931C73.458 51.5762 73.6174 51.569 73.7391 51.4239C73.7361 51.3606 73.7518 51.3226 73.7009 51.2767C73.3086 50.9225 70.4023 51.0782 69.6697 51.0899C69.3762 50.7428 69.1069 50.429 68.9362 50.0032C69.8627 50.0068 72.3837 50.2527 73.1198 50.0033C73.2783 49.9497 73.3196 49.8822 73.3889 49.7349C73.3879 49.6057 73.3828 49.5193 73.2913 49.4193C73.2029 49.3228 73.0743 49.3086 72.9516 49.2959C72.5651 49.2562 72.1509 49.2854 71.7604 49.2799C70.6994 49.2651 69.6324 49.2698 68.5752 49.1711C68.1646 48.7102 67.7582 48.2385 67.3286 47.7956C66.5839 47.0277 65.8537 47.0131 64.8613 47.005C64.1599 46.441 63.544 45.677 62.9448 45.0044C63.5527 44.2163 64.095 43.3797 64.5664 42.503C65.6324 42.6378 66.9354 42.5364 68.0315 42.5291C68.8966 42.5239 69.7616 42.5113 70.6265 42.491C70.9825 42.4835 71.3616 42.5081 71.7145 42.4696C71.8416 42.4558 72.0015 42.4259 72.1068 42.3481C72.1956 42.2826 72.2438 42.1955 72.2489 42.0849C72.2546 41.9612 72.1991 41.8447 72.1125 41.7595C72.0352 41.6833 71.9495 41.6744 71.847 41.6668C71.0876 41.6112 70.2889 41.675 69.5258 41.682L64.9731 41.7167C65.1785 41.2826 65.3899 40.6377 65.6877 40.2661C65.7814 40.1493 65.8535 40.1736 65.9883 40.1689C66.9798 40.1787 73.5211 40.309 73.8652 40.1016C73.96 40.0445 74.0053 39.9199 74.0183 39.816C74.0324 39.7033 74.0182 39.5969 73.9321 39.5137C73.8189 39.4043 73.6299 39.3764 73.4793 39.3695C73.1827 39.3559 72.8768 39.3959 72.5785 39.3998C71.79 39.4054 71.0015 39.4171 70.2131 39.435C68.8006 39.4644 67.348 39.4235 65.9438 39.5641C66.1171 39.1516 66.2425 38.7204 66.3768 38.2941C68.3601 38.3033 70.3388 38.3529 72.3232 38.326C72.8217 38.3192 73.4533 38.4119 73.9229 38.2515C74.0129 38.1745 74.0736 38.1088 74.083 37.9836C74.0922 37.8619 74.0428 37.7923 73.9655 37.7075C73.5337 37.4698 67.4208 37.7844 66.5292 37.8167C66.6154 37.4502 66.7145 37.0922 66.8274 36.733C68.198 36.7351 69.5687 36.6649 70.9387 36.6313C71.6481 36.6138 72.4238 36.6671 73.124 36.5876C73.2427 36.5741 73.3688 36.5497 73.4554 36.4594C73.5293 36.3822 73.5654 36.2645 73.5649 36.1588C73.5642 36.0392 73.5179 35.8879 73.414 35.8181C73.0907 35.6007 67.7388 35.9087 67.011 35.9369C67.6052 33.2912 67.6551 30.5703 67.3852 27.8851C68.0304 27.8695 72.0445 27.7634 72.3545 27.6241C72.4578 27.5776 72.5333 27.4746 72.5539 27.3633C72.5771 27.2373 72.5617 27.1613 72.4982 27.0533C72.4092 26.9848 72.34 26.9494 72.2271 26.936C71.6567 26.8685 71.0337 26.9461 70.4601 26.973C69.4006 27.0173 68.3416 27.0735 67.2834 27.1418C67.1976 26.6934 67.1034 26.2466 67.001 25.8016C68.5194 25.6798 70.0477 25.6094 71.5687 25.5195C72.1574 25.4848 72.7858 25.5096 73.3667 25.4255C73.5403 25.4004 73.7346 25.3524 73.8777 25.2456C74.0035 25.1518 74.0304 25.0553 74.0501 24.9062C74.0179 24.8274 73.9933 24.76 73.9235 24.7052C73.8136 24.6189 73.696 24.6041 73.5622 24.5973C72.8047 24.5592 71.9889 24.6956 71.2335 24.7709C69.7805 24.9158 68.3203 25.085 66.8628 25.1709C66.7632 24.8366 66.6943 24.4933 66.6194 24.1528C67.2712 24.0937 72.8534 23.6559 73.1362 23.4599C73.2473 23.383 73.2728 23.295 73.2987 23.1697C73.2773 23.0528 73.2486 22.9796 73.1504 22.9046C73.0507 22.8285 72.9353 22.8106 72.8133 22.8122C71.7846 22.8256 70.698 23.0203 69.672 23.1362C68.6026 23.2572 67.5216 23.3248 66.4565 23.4685C66.3127 23.1415 66.2024 22.8089 66.0937 22.4688C66.8643 22.427 72.4798 22.1092 72.8437 21.816C72.9382 21.7399 72.9931 21.6284 72.9925 21.507C72.9929 21.3794 72.937 21.2579 72.8398 21.1753C72.7236 21.0779 72.5952 21.0818 72.4524 21.0815C71.5596 21.0798 70.6076 21.2362 69.7152 21.316C68.4164 21.4321 67.1082 21.5039 65.8124 21.6428Z" fill="#FEFEFE"/>
<path d="M37.9971 50.2349C36.0177 49.6713 34.1556 49.0707 32.3763 48.0116C27.7399 45.2984 24.3992 40.8239 23.1155 35.6077C21.8631 30.6953 22.6213 25.4862 25.2223 21.1347C25.851 20.0867 27.5582 17.6806 28.516 17.076C28.7599 16.9219 34.4122 15.5639 35.084 15.3971L47.6032 12.2301C47.852 12.2074 48.1942 12.3338 48.4358 12.3994C53.3751 13.7737 57.5809 17.0254 60.1545 21.4596C58.0508 21.4402 55.9385 21.5155 53.8358 21.5791C52.9513 21.6059 52.0331 21.5594 51.1549 21.6463C51.0362 21.658 50.9607 21.687 50.8611 21.7561C50.8226 21.8254 50.7949 21.8475 50.8025 21.931C50.8147 22.0668 50.8827 22.1594 50.9854 22.2439C51.1639 22.3911 51.4069 22.4365 51.6321 22.4525C53.3563 22.5749 55.3917 22.3973 57.1429 22.3441C58.2807 22.3096 59.4803 22.3815 60.6075 22.2567C60.8835 22.6878 61.0796 23.1694 61.282 23.6381C59.076 23.7552 56.8716 23.9027 54.6697 24.0809C54.0807 24.1233 52.6547 24.0914 52.1764 24.2979C52.0782 24.3403 52.0705 24.3427 52.0266 24.4443C52.0527 24.4833 52.0685 24.5122 52.107 24.5434C52.1855 24.6073 52.2811 24.6329 52.3799 24.6386C53.1268 24.6824 53.9311 24.5861 54.6817 24.5611C56.9431 24.4858 59.2164 24.3239 61.4777 24.3161C61.6561 24.7754 61.7898 25.2435 61.9224 25.7175C60.9064 25.7754 53.9654 26.1584 53.6346 26.3462C54.1465 26.4755 55.5709 26.3127 56.1805 26.2815C58.1211 26.1827 60.0649 26.0368 62.0075 25.9971C62.1486 26.4567 62.2178 26.939 62.2954 27.4125C61.0919 27.6098 59.8129 27.6311 58.5949 27.7441C58.272 27.7741 57.8463 27.7648 57.5384 27.8556C57.4518 27.8812 57.4151 27.9074 57.3539 27.9708L57.3561 28.0626C57.3705 28.076 57.3837 28.0908 57.3993 28.1029C57.6419 28.2902 61.7918 28.0401 62.38 28.0145C62.7975 30.6929 62.6258 33.43 61.8769 36.0351C59.4598 36.1728 57.0278 36.1394 54.6076 36.1348C53.6621 36.133 52.4886 36.052 51.5765 36.1298C51.4164 36.1435 51.3544 36.2204 51.2612 36.336C51.2494 36.4169 51.2288 36.4616 51.2965 36.5251C51.4653 36.6838 51.7657 36.7471 51.9866 36.7795C52.9518 36.9212 54.0073 36.8821 54.9844 36.9051C57.1815 36.9569 59.3931 36.9954 61.5888 36.8838C61.4978 37.2631 61.3614 37.6241 61.2089 37.9822C59.4297 38.0908 57.6181 38.0811 55.8352 38.0987C55.4297 38.1028 52.3698 38.1035 52.2613 38.1652C52.2276 38.1843 52.2071 38.2205 52.1799 38.2482L52.2105 38.315C52.7456 38.5643 57.8059 38.4226 58.7695 38.4042C59.5243 38.3801 60.2813 38.3866 61.0365 38.3825C60.8241 38.8724 60.6047 39.3543 60.3653 39.8318C58.6224 39.851 56.8796 39.8793 55.137 39.9169C54.4171 39.9364 53.6057 39.8993 52.8992 40.02C52.9729 40.1022 53.096 40.1119 53.2031 40.1227C53.7245 40.1754 54.3088 40.1208 54.8377 40.1203L58.0939 40.11C58.8001 40.1012 59.508 40.0569 60.2136 40.0954C59.9208 40.6768 59.5391 41.2141 59.1749 41.7522C58.5648 41.7784 55.5392 41.7758 55.198 42.0308C55.1294 42.0821 55.1438 42.0906 55.1293 42.1679L55.2061 42.2514C55.638 42.4224 58.0992 42.3998 58.6784 42.4063C57.4511 44.2181 55.7729 45.7552 53.97 46.9849C49.4426 50.1339 43.8408 51.3341 38.4207 50.3164C38.4555 49.1686 38.5402 47.9927 38.4577 46.8473C38.3223 47.9787 38.136 49.1038 37.9971 50.2349ZM48.0364 14.6288C47.4305 14.7377 46.8096 14.9804 46.4457 15.5071C46.2788 15.7487 46.1912 16.0482 46.2511 16.3402C46.3245 16.698 46.6078 16.9626 46.9086 17.1449C47.6385 17.5868 48.5616 17.4973 49.3782 17.6129C51.5295 17.9173 53.9087 19.1304 55.4868 20.6088C55.7326 20.8646 55.9444 21.1433 56.3148 21.1957C56.4302 21.1604 56.467 21.1502 56.5295 21.0353C56.655 20.8044 56.5578 20.5291 56.4565 20.3119C55.3483 17.9355 53.7922 15.9864 51.2475 15.0809C50.2258 14.7173 49.1213 14.5217 48.0364 14.6288ZM50.2345 18.025C47.3712 23.7119 44.9603 29.6169 42.4563 35.4676C41.7473 37.1239 41.1268 38.8315 40.3659 40.4632C38.2639 38.7477 36.209 36.9572 34.1274 35.2148C33.3247 34.5429 32.5395 33.8291 31.6989 33.2055C32.4198 34.139 33.1187 35.0907 33.8483 36.017C36.1087 39.1127 38.4844 42.1253 40.7919 45.1861C41.0558 44.4687 41.4013 43.7818 41.7175 43.0862C42.3005 41.8035 42.8986 40.5015 43.4297 39.1976C45.8249 33.3175 48.029 27.2729 49.5777 21.1098C49.7321 20.4953 50.3136 18.5585 50.2345 18.025Z" fill="#FEFEFE"/>
<path d="M12.9259 14.157C12.8127 14.1577 12.8037 14.1639 12.7151 14.0959C12.6744 13.9809 12.6659 13.9669 12.6962 13.8502C12.7301 13.8244 12.7578 13.7872 12.798 13.7729C13.045 13.6854 15.1971 13.6099 15.613 13.5819C18.7839 13.3946 21.9523 13.1679 25.1176 12.9019C25.1867 12.8906 25.2452 12.8945 25.3149 12.898C25.3027 13.0111 25.0334 13.2467 24.9471 13.3413C23.6125 13.401 22.2762 13.525 20.9435 13.6175L12.9259 14.157Z" fill="#FEFEFE"/>
<path d="M12.7858 15.0766C16.3558 14.7002 19.966 14.6518 23.5419 14.3153C23.6686 14.2972 23.8083 14.2556 23.9274 14.3149C23.8859 14.51 23.5253 14.8403 23.3912 15.0159C22.7862 15.8079 22.1879 16.6284 21.6496 17.4667C19.3929 20.9808 18.1896 24.562 17.6785 28.6916C17.4069 28.8449 17.0547 29.0217 16.9401 29.3332C16.8968 29.4509 16.8872 29.5995 16.9625 29.7072C17.0866 29.8845 17.3734 29.9116 17.5701 29.951C17.6373 30.3948 17.6044 30.8867 17.6232 31.338C17.6499 32.1221 17.7185 32.9042 17.8289 33.681C17.7451 33.8516 17.6037 34.0967 17.6334 34.2953C17.6684 34.5281 17.8167 34.6352 17.9828 34.7849C18.3157 36.4953 18.781 38.0535 19.3793 39.6878C18.9194 39.9237 18.2155 40.2504 17.9336 40.7061C17.8696 40.8095 17.8301 40.9295 17.871 41.0501C17.9122 41.1714 18.035 41.2771 18.1553 41.3179C18.6052 41.4704 19.393 40.844 19.7822 40.6274C21.7455 44.5473 24.0919 47.6057 27.5538 50.3243C28.2173 50.8453 28.9526 51.2714 29.6271 51.7799C29.5321 53.1188 29.3855 54.4542 29.336 55.7963C30.7058 55.9801 32.0941 56.0597 33.4702 56.1925C34.9058 56.3309 36.3771 56.5298 37.8172 56.5728C37.8989 56.0442 37.9929 55.5176 38.0991 54.9932C41.8313 55.7299 45.9728 55.3707 49.6033 54.2869C50.4885 54.0226 51.3453 53.6821 52.2049 53.346L52.241 53.3573C52.946 53.5845 54.4131 53.5713 55.2211 53.6383C56.7397 53.764 58.2544 53.9444 59.7729 54.0644C59.9554 54.5777 60.2523 55.0947 60.6245 55.4945C61.0924 55.9972 61.7531 56.1738 62.2352 56.6324C63.7813 58.1029 65.1423 59.7358 66.6454 61.2471C64.7237 61.158 62.809 60.9826 60.8887 60.8709C55.8579 60.5878 50.8249 60.3457 45.7901 60.1447C45.1123 60.1223 42.3894 59.9479 41.9079 60.0667C41.7154 60.1142 41.5927 60.1843 41.4869 60.3519C41.4855 60.4413 41.4734 60.4838 41.5449 60.5506C41.6746 60.6716 41.8759 60.7167 42.0443 60.7448C42.5428 60.8279 43.0897 60.7926 43.5948 60.8086L46.6845 60.9258C51.241 61.0963 55.796 61.3077 60.3487 61.5601C61.8385 61.6522 63.3253 61.7872 64.8142 61.8898C65.6274 61.9458 66.5135 62.0488 67.3253 61.9703L68.2258 62.9092C64.2389 62.5867 60.25 62.4646 56.2537 62.3327C53.9579 62.257 51.6645 62.1367 49.3676 62.0739C47.6785 62.0319 45.9896 61.9789 44.3012 61.9151C43.5158 61.884 42.7041 61.7857 41.9209 61.8042C41.7466 61.8083 41.6891 61.8192 41.5668 61.9454C41.5292 62.0831 41.5251 62.104 41.565 62.2401C41.6664 62.3345 41.78 62.3436 41.9131 62.3523C42.3371 62.3803 42.7675 62.3679 43.1931 62.3866L46.5981 62.5501C51.0152 62.7809 55.4337 62.9819 59.8535 63.153C61.6059 63.2175 63.3577 63.3009 65.1084 63.4031C66.371 63.4754 67.6417 63.5839 68.9061 63.6C69.3169 63.9859 69.7006 64.4104 70.0915 64.8168C68.9509 64.7737 67.8111 64.6952 66.6695 64.6559C65.1258 64.6028 63.5794 64.5933 62.0348 64.5472C60.1525 64.4909 42.8821 63.8616 42.6509 64.0602C43.0643 64.122 43.4874 64.1181 43.9047 64.1281C46.828 64.246 49.7509 64.4263 52.6722 64.5865L60.1138 64.984C63.6423 65.1942 67.1697 65.4569 70.705 65.5168C71.1859 65.9811 71.6589 66.4537 72.1235 66.9343C70.4088 66.7897 68.669 66.7711 66.9493 66.6838C62.042 66.4283 57.1313 66.2424 52.2187 66.1262L47.467 66.0256C46.8391 66.0142 45.9259 65.9049 45.3329 66.0295C45.9792 66.1905 47.2302 66.1517 47.9413 66.1849C49.3834 66.2592 50.8248 66.3465 52.2652 66.4468L64.0477 67.2134C66.9857 67.4142 69.9257 67.7018 72.8727 67.6791C73.8703 68.6726 74.8332 69.7032 75.8186 70.7093C76.1824 71.0808 76.5238 71.4992 76.9198 71.8357C76.9352 72.5385 76.8736 73.2472 76.834 73.9488L76.642 77.2792C76.443 80.944 76.1898 84.6056 75.8827 88.2629C74.6494 88.1737 73.4195 88.0301 72.1856 87.9407C65.3987 87.4585 58.6062 87.0561 51.8097 86.7336C41.2002 86.3238 30.5843 86.103 19.9669 86.0713C19.7799 84.7953 19.7041 83.4807 19.5653 82.1965C19.2506 79.4377 18.9599 76.6762 18.693 73.9123L16.9207 56.5077C15.8207 46.0794 14.7804 35.645 13.7996 25.2048L13.1112 18.2582C13.0034 17.1988 12.8619 16.1386 12.7858 15.0766ZM19.7598 47.0553C19.2625 47.2119 18.5228 47.5982 18.2657 48.0692C18.2098 48.1716 18.1887 48.257 18.2184 48.3711C18.2383 48.4479 18.2958 48.5045 18.3652 48.5414C18.4977 48.6119 18.6553 48.6427 18.8039 48.6458C19.2356 48.4763 20.0603 48.195 20.2743 47.7561C20.3298 47.6424 20.3395 47.5126 20.2888 47.3944C20.2236 47.2424 20.0567 47.1277 19.9011 47.0835C19.832 47.0639 19.8235 47.0646 19.7598 47.0553ZM20.2332 53.1022C19.8132 53.2273 18.9225 53.6541 18.7157 54.0533C18.662 54.1568 18.6309 54.2579 18.6624 54.3743C18.7006 54.516 18.8111 54.6367 18.944 54.6957C19.0212 54.73 19.1029 54.7329 19.1859 54.7391C19.6598 54.6106 20.4995 54.2145 20.7445 53.7679C20.7894 53.6861 20.8184 53.5686 20.7901 53.4785C20.7412 53.3232 20.6083 53.238 20.4677 53.1725C20.3913 53.1369 20.3153 53.1198 20.2332 53.1022ZM36.534 58.3722C34.6912 58.3952 31.7918 58.2884 30.0728 58.7995C30.661 58.9685 31.2945 59.1341 31.9103 59.1448C33.2457 59.2449 34.6128 59.2381 35.9516 59.2228C36.4821 59.2167 37.0507 59.2457 37.5742 59.1792C37.7601 59.1555 38.0391 59.0998 38.1708 58.9525C38.2119 58.9064 38.2448 58.8386 38.2339 58.7759C38.2161 58.6746 38.1111 58.5308 38.0217 58.4774C37.7966 58.3431 36.8213 58.3655 36.534 58.3722ZM20.7487 58.8146C20.3578 59.0232 19.4463 59.4114 19.3472 59.8684C19.3209 59.9896 19.3667 60.0913 19.4434 60.1815C19.55 60.307 19.6611 60.359 19.8234 60.3645C19.8951 60.367 19.9649 60.3584 20.0358 60.3488C20.4267 60.1874 21.2588 59.8485 21.402 59.4173C21.4414 59.2989 21.439 59.1984 21.3753 59.0885C21.3035 58.9648 21.1687 58.8481 21.0275 58.8161C20.9381 58.7958 20.8391 58.8071 20.7487 58.8146ZM29.9231 58.8455C29.6775 59.9583 29.5789 61.1284 29.4353 62.2601C29.1934 64.1665 28.9476 66.0796 28.7887 67.9951C30.8382 68.1898 32.8911 68.336 34.9403 68.5383C35.6472 68.6082 36.3967 68.6279 37.0942 68.7471C37.4962 66.3993 37.6702 63.6399 37.7992 61.2442C37.8318 60.6341 37.8546 60.0188 37.8413 59.4077C37.5448 60.3238 37.4777 61.3913 37.3272 62.3457L36.4437 67.8411C34.1618 67.6558 31.8814 67.453 29.6026 67.2326C29.7044 65.3462 29.7916 63.4591 29.8643 61.5715C29.9001 60.6847 29.9705 59.79 29.9806 58.9037L29.9231 58.8455ZM21.3426 64.7782C20.8651 64.9349 20.1114 65.297 19.8601 65.7495C19.8199 65.822 19.8107 65.891 19.8005 65.972C19.8474 66.1075 19.8878 66.1777 20.018 66.2458C20.1482 66.3139 20.2755 66.3313 20.4199 66.3435C20.8803 66.2089 21.6228 65.8747 21.854 65.4321C21.8964 65.3507 21.9177 65.24 21.887 65.1526C21.8321 64.9967 21.6648 64.8802 21.5146 64.822C21.4592 64.8006 21.4004 64.79 21.3426 64.7782ZM21.7837 70.0668C21.4364 70.2522 20.6612 70.5844 20.5235 70.9809C20.4837 71.0954 20.4913 71.2064 20.5549 71.3109C20.6201 71.418 20.7382 71.5066 20.8587 71.5363C20.9485 71.5582 21.0702 71.5513 21.1599 71.5326C21.5466 71.3843 22.3149 71.0843 22.4552 70.6599C22.4979 70.5309 22.4669 70.4052 22.3944 70.294C22.313 70.169 22.1799 70.087 22.0317 70.0704C21.9503 70.0606 21.8655 70.0643 21.7837 70.0668ZM32.0179 70.7456C31.2122 70.7748 30.3389 70.7709 29.5615 71.0025C30.8268 71.6663 33.7475 71.5295 35.2685 71.5424C35.6653 71.5412 37.2059 71.6152 37.4416 71.3945C37.5037 71.3364 37.5215 71.2468 37.5433 71.1687C37.5071 71.0356 37.4633 70.9686 37.3403 70.8998C37.1665 70.8026 36.9587 70.7599 36.7629 70.7373C36.144 70.6659 35.48 70.7147 34.8559 70.7183C33.9127 70.7236 32.96 70.7053 32.0179 70.7456ZM29.4052 71.0347C29.1152 72.548 28.9456 74.1055 28.7356 75.6324C28.5175 77.2178 28.2544 78.8253 28.1134 80.4185C28.9883 80.524 29.8717 80.5726 30.7496 80.6495C32.6167 80.8277 34.487 80.9702 36.3594 81.077C36.6608 78.6027 36.9684 76.0711 37.0392 73.577C37.0844 73.0159 37.1242 72.4386 37.1147 71.8758C36.8167 72.7555 36.741 73.7711 36.5983 74.691C36.3125 76.5336 36.0661 78.4004 35.6952 80.2269L28.9681 79.6593C29.1575 76.8049 29.3211 73.9488 29.4587 71.0915L29.4052 71.0347ZM40.6997 74.6213C40.589 74.7489 40.5537 74.8082 40.5224 74.9742C40.566 75.1005 40.5741 75.1328 40.6958 75.2047C41.0393 75.4075 44.5877 75.5406 45.1582 75.5731C51.9043 75.9812 58.6589 76.2321 65.4167 76.3256C66.9951 76.366 68.5739 76.3926 70.1528 76.4055C71.1608 76.4107 72.2634 76.4614 73.2556 76.2723C73.3762 76.2003 73.4212 76.1864 73.4882 76.0594C73.4312 75.9457 73.383 75.9082 73.2617 75.8632C72.5553 75.6008 70.2243 75.7061 69.3832 75.6781C63.9861 75.4991 58.5847 75.4699 53.1889 75.2716C50.6118 75.1769 48.0365 75.0373 45.4641 74.8528C44.4116 74.7755 43.3581 74.7094 42.3042 74.6543C41.7822 74.6281 41.2182 74.5621 40.6997 74.6213ZM22.2487 74.8919C21.867 75.0721 21.1453 75.3475 20.9815 75.7619C20.9276 75.8961 20.9369 76.0473 21.0069 76.1738C21.0817 76.3118 21.1967 76.3649 21.3436 76.3909C21.4238 76.4051 21.4996 76.4003 21.5803 76.3953C21.9127 76.2373 22.7106 75.9358 22.8424 75.5632C22.8865 75.4384 22.8845 75.3457 22.8259 75.2267C22.7476 75.068 22.6021 74.9366 22.4266 74.9031C22.359 74.8903 22.3184 74.893 22.2487 74.8919ZM41.3381 76.4672C41.1419 76.4833 40.9256 76.4818 40.7774 76.631C40.7647 76.6438 40.7542 76.6588 40.7426 76.6728C40.7617 76.7697 40.7622 76.7862 40.8494 76.8443C40.9962 76.9419 41.2008 76.9796 41.3731 76.9981C41.8985 77.0545 42.4581 77.0331 42.9894 77.0627L47.1889 77.3002C51.7709 77.5685 56.3561 77.7799 60.9435 77.9343L66.6283 78.1285C68.6904 78.214 70.7549 78.3267 72.8177 78.2132C73.0728 78.1505 73.2436 78.1052 73.3879 77.8759C73.4008 77.7622 73.4162 77.7065 73.3306 77.6128C73.2259 77.4984 73.0203 77.4623 72.8738 77.4555C72.6076 77.4432 72.3348 77.4939 72.0687 77.5079C71.6132 77.5319 71.1537 77.5277 70.6979 77.5203L62.2495 77.3769C60.4001 77.3564 58.5488 77.2382 56.7002 77.1778C53.7079 77.1017 50.7164 76.9947 47.7262 76.8568C46.1883 76.7786 44.6508 76.6919 43.1137 76.597C42.551 76.5607 41.8863 76.5898 41.3381 76.4672ZM42.4259 78.5293C42.4574 78.5517 42.4844 78.5823 42.5203 78.5966C42.7198 78.6757 44.7565 78.728 45.1933 78.7573C52.4192 79.276 59.6538 79.6652 66.8936 79.925L70.4398 80.0043C71.1645 80.017 71.9671 80.0857 72.6799 79.9604C72.8116 79.9382 72.9389 79.8954 73.0573 79.8336C73.1511 79.7026 73.1843 79.6783 73.1895 79.5126C73.078 79.3601 72.9709 79.3117 72.7856 79.2798C71.9946 79.1438 70.3333 79.2627 69.4353 79.2493L59.7937 79.095C56.2267 79.0298 52.6604 78.9342 49.0951 78.8083C47.8301 78.753 46.562 78.719 45.2981 78.6481C44.3556 78.5953 43.3677 78.4783 42.4259 78.5293Z" fill="#FEFEFE"/>
<path d="M55.4868 20.6088C53.9087 19.1304 51.5295 17.9173 49.3782 17.6129C48.5617 17.4973 47.6385 17.5868 46.9087 17.1449C46.6078 16.9626 46.3245 16.6981 46.2511 16.3402C46.1912 16.0482 46.2788 15.7487 46.4457 15.5072C46.8097 14.9804 47.4305 14.7377 48.0364 14.6288C49.1213 14.5217 50.2258 14.7173 51.2475 15.0809C53.7923 15.9864 55.3483 17.9355 56.4565 20.3119C56.5578 20.5292 56.655 20.8044 56.5296 21.0353C56.467 21.1502 56.4302 21.1604 56.3148 21.1957C55.9444 21.1433 55.7326 20.8646 55.4868 20.6088ZM48.595 15.1927C48.0467 15.2684 47.3695 15.4718 47.0193 15.9369C46.9433 16.038 46.9195 16.1243 46.9269 16.2506C47.0337 16.4981 47.2313 16.6023 47.474 16.7021C48.2517 17.022 49.2156 17.0362 50.0447 17.1814C51.5179 17.4394 52.9755 18.0805 54.2603 18.837L55.2698 19.4379C54.0117 17.3102 52.6733 15.9755 50.2009 15.3283C49.6853 15.1933 49.1265 15.1085 48.595 15.1927Z" fill="#2A2A2A"/>
<path d="M54.2603 18.837C52.9755 18.0806 51.5179 17.4395 50.0447 17.1815C49.2156 17.0363 48.2517 17.022 47.474 16.7022C47.2313 16.6024 47.0337 16.4982 46.9269 16.2507C46.9195 16.1244 46.9433 16.038 47.0193 15.937C47.3695 15.4719 48.0467 15.2684 48.595 15.1928C49.1265 15.1086 49.6853 15.1933 50.2009 15.3283C52.6734 15.9756 54.0117 17.3102 55.2699 19.438L54.2603 18.837Z" fill="#FEFEFE"/>
<path d="M40.366 40.4632C41.1269 38.8315 41.7474 37.124 42.4563 35.4677C44.9604 29.6169 47.3713 23.7119 50.2346 18.025C50.3137 18.5586 49.7322 20.4953 49.5778 21.1099C48.0291 27.273 45.8249 33.3175 43.4297 39.1976C42.8986 40.5016 42.3006 41.8036 41.7176 43.0863C41.4014 43.7818 41.0559 44.4687 40.792 45.1862C38.4844 42.1253 36.1088 39.1128 33.8484 36.0171C33.1187 35.0907 32.4198 34.1391 31.699 33.2056C32.5395 33.8291 33.3248 34.5429 34.1275 35.2148C36.2091 36.9573 38.2639 38.7477 40.366 40.4632Z" fill="#2A2A2A"/>
<path d="M7.10718 20.3862C8.77746 20.025 10.4912 19.7861 12.1772 19.5068C12.2384 19.5032 12.1975 19.5027 12.2984 19.5271C12.3807 19.776 12.3753 20.0503 12.4077 20.3099C12.5281 21.2735 12.6063 22.2419 12.6983 23.2085L13.565 32.0387L17.3628 69.8409L18.5167 80.9605C18.6549 82.316 18.8064 83.67 18.971 85.0224C19.0567 85.6792 19.125 86.3487 19.2705 86.9948C20.5853 87.0658 21.9381 86.9832 23.2571 86.9928C26.4582 86.9983 29.6592 87.0445 32.8591 87.1314C33.8746 87.1612 34.8928 87.1617 35.9068 87.2217L29.0279 88.3798C27.3363 88.6038 25.6457 88.944 23.9626 89.2297C22.4971 89.4784 20.9719 89.6631 19.5361 90.0447C18.8848 86.1702 18.1863 82.3038 17.4405 78.4463L15.6944 68.7038L10.7786 40.6243C9.51875 33.8849 8.29496 27.1387 7.10718 20.3862Z" fill="#FEFEFE"/>
<path d="M59.0905 49.1806C59.5206 48.672 60.0789 48.2921 60.5581 47.8325C61.2282 47.1899 61.8367 46.4624 62.4603 45.7744C63.1365 46.4389 63.6959 47.2199 64.3814 47.8821C64.2981 48.4499 64.1605 48.9383 63.8267 49.4121C63.3638 50.069 62.2946 51.2599 61.46 51.3772C61.3423 51.3937 61.326 51.3655 61.2336 51.2991C60.511 50.603 59.8825 49.7994 59.0905 49.1806Z" fill="#FEFEFE"/>
<path d="M18.8039 48.6459C18.6553 48.6428 18.4977 48.6119 18.3651 48.5414C18.2958 48.5046 18.2383 48.448 18.2184 48.3712C18.1887 48.2571 18.2098 48.1717 18.2657 48.0693C18.5227 47.5983 19.2625 47.212 19.7598 47.0554C19.8235 47.0647 19.832 47.064 19.901 47.0836C20.0567 47.1278 20.2235 47.2425 20.2888 47.3945C20.3395 47.5127 20.3298 47.6425 20.2743 47.7562C20.0602 48.1951 19.2356 48.4764 18.8039 48.6459Z" fill="#2A2A2A"/>
<path d="M60.6434 51.9851C60.7946 52.1253 60.9463 52.2665 61.106 52.397C61.6228 52.8192 62.1467 53.1042 62.838 53.0267C63.7866 52.9202 64.578 52.1927 65.1546 51.4795C65.7245 50.7747 66.3473 49.7702 66.2235 48.8205C66.1748 48.4474 66.0109 48.1285 65.7171 47.8928L66.2142 47.9555C66.5348 48.2176 66.7846 48.4947 67.0156 48.838C67.01 48.9251 67.0027 49.0121 66.9939 49.0989C66.8135 50.8458 65.5177 52.3761 64.2019 53.4384C63.5348 53.9768 62.4321 54.7212 61.5266 54.6024C61.1615 54.5545 60.9563 54.3763 60.7321 54.0981C60.3518 53.4569 60.5063 52.6725 60.6434 51.9851Z" fill="#FEFEFE"/>
<path d="M55.8266 51.4427C56.3742 51.1105 56.8923 50.7607 57.3967 50.3667C58.0036 50.346 58.6906 50.4856 59.304 50.5322C59.5161 50.7722 59.9292 51.1651 59.9945 51.4815C60.0207 51.6081 60.0072 51.6319 59.9401 51.7308C59.5916 51.9038 58.9832 51.7491 58.6049 51.7026C57.6811 51.5982 56.7474 51.5679 55.8266 51.4427Z" fill="#FEFEFE"/>
<path d="M61.7297 51.8276C62.5146 51.5118 63.2525 51.2712 63.9945 50.8494L64.0359 50.9004C64.0097 51.0266 63.9676 51.1271 63.9096 51.2426C63.7077 51.6461 63.3943 52.0638 62.9444 52.2C62.6058 52.3026 62.3566 52.1681 62.0614 52.019L61.7297 51.8276Z" fill="#FEFEFE"/>
<path d="M68.6607 51.8759L68.8526 51.3931C70.7581 53.6493 72.9033 55.727 74.9723 57.8326L83.1615 66.2852C84.0597 67.2195 84.9532 68.1585 85.8417 69.1019C86.3578 69.6439 86.9169 70.1749 87.38 70.7628C87.406 70.8989 87.3244 71.0195 87.2723 71.1464C86.0151 69.9542 84.861 68.6285 83.6615 67.3769L77.4185 60.9431L72.0366 55.4153C70.9084 54.2622 69.6933 53.1134 68.6607 51.8759Z" fill="#FEFEFE"/>
<path d="M52.3688 53.2557C53.264 52.8634 54.1251 52.3777 54.9888 51.921C55.529 51.9164 56.1235 52.03 56.6637 52.0843C57.7168 52.1886 58.7706 52.2864 59.825 52.3775C59.7574 52.8279 59.725 53.2693 59.7357 53.7245C58.9928 53.6839 58.2471 53.5734 57.5042 53.5119C55.8092 53.36 54.0703 53.2511 52.3688 53.2557Z" fill="#FEFEFE"/>
<path d="M30.0953 55.0519C30.1686 54.0901 30.2497 53.1318 30.2884 52.1677C30.964 52.4108 31.6007 52.8507 32.2606 53.1477C33.905 53.8878 35.5446 54.4306 37.2969 54.862C37.2626 55.155 37.2049 55.4456 37.1537 55.736C36.2738 55.591 35.3705 55.5356 34.482 55.457C33.0186 55.3357 31.5562 55.2007 30.0953 55.0519Z" fill="#FEFEFE"/>
<path d="M19.1859 54.7392C19.1029 54.733 19.0212 54.7301 18.944 54.6958C18.8111 54.6368 18.7006 54.5161 18.6624 54.3744C18.6309 54.2579 18.662 54.1569 18.7157 54.0534C18.9225 53.6542 19.8132 53.2274 20.2332 53.1023C20.3153 53.1199 20.3913 53.137 20.4677 53.1726C20.6083 53.2381 20.7412 53.3233 20.7901 53.4786C20.8184 53.5687 20.7894 53.6862 20.7445 53.768C20.4995 54.2146 19.6598 54.6107 19.1859 54.7392Z" fill="#2A2A2A"/>
<path d="M66.1382 55.2804C65.8567 55.6118 64.6958 57.1176 64.6339 57.4447C64.6162 57.5383 64.6122 57.5013 64.6695 57.5804C65.2723 57.5027 66.5171 55.1626 66.878 54.6328C67.1143 54.2856 67.4021 53.9698 67.6783 53.6539C67.7871 53.8111 67.7416 54.0364 67.7138 54.2191C67.6171 54.8548 67.3443 55.5001 67.0565 56.0711C66.7453 56.6883 65.6627 58.1492 65.7122 58.7448L65.7802 58.7888C66.2567 58.6674 67.0225 57.6763 67.3527 57.309C67.0343 58.0767 66.8272 58.8524 66.653 59.6629C67.3456 59.0391 67.7947 58.2956 68.3168 57.5407C68.1955 58.3977 67.7908 59.2411 67.7585 60.0986C67.7517 60.277 67.7612 60.4263 67.8833 60.5615C68.5397 60.5545 69.0901 58.8418 69.6498 58.519L69.7283 58.5784C69.9397 59.2321 68.7785 60.8157 68.6999 61.5248C68.6888 61.6243 68.6824 61.5856 68.7429 61.6673C69.1602 61.5962 70.2237 60.3303 70.5755 59.9619C70.631 59.9155 70.6906 59.8781 70.7509 59.8382L70.7988 59.8921C70.7111 60.6294 69.8028 62.1419 69.4219 62.8571L64.8365 57.9828C64.3768 57.4853 63.8777 57.025 63.4401 56.5076C64.4461 56.2058 65.2706 55.8791 66.1382 55.2804Z" fill="#FEFEFE"/>
<path d="M62.2698 55.5181L62.0891 55.4358L62.0941 55.392C63.0565 55.0996 63.9065 54.8128 64.7874 54.3031C64.8675 54.3361 64.8622 54.3437 64.9098 54.4096C64.8739 54.6411 64.7646 54.8364 64.5865 54.9901C63.9799 55.5138 63.0255 55.572 62.2698 55.5181Z" fill="#FEFEFE"/>
<path d="M30.0728 58.7995C31.7918 58.2884 34.6913 58.3952 36.534 58.3722C36.8213 58.3655 37.7966 58.3431 38.0217 58.4774C38.1111 58.5308 38.2161 58.6746 38.2339 58.7759C38.2448 58.8386 38.2119 58.9064 38.1708 58.9525C38.0391 59.0998 37.7601 59.1555 37.5742 59.1792C37.0507 59.2457 36.4821 59.2167 35.9516 59.2228C34.6128 59.2381 33.2457 59.2449 31.9103 59.1448C31.2945 59.1341 30.661 58.9685 30.0728 58.7995Z" fill="#2A2A2A"/>
<path d="M20.0358 60.3489C19.9649 60.3585 19.895 60.367 19.8233 60.3646C19.661 60.3591 19.55 60.3071 19.4434 60.1816C19.3667 60.0913 19.3209 59.9897 19.3472 59.8685C19.4463 59.4115 20.3578 59.0232 20.7486 58.8146C20.8391 58.8071 20.9381 58.7959 21.0275 58.8161C21.1686 58.8482 21.3035 58.9648 21.3753 59.0886C21.439 59.1985 21.4414 59.299 21.402 59.4174C21.2587 59.8486 20.4267 60.1874 20.0358 60.3489Z" fill="#2A2A2A"/>
<path d="M28.7887 67.9952C28.9476 66.0797 29.1934 64.1665 29.4353 62.2601C29.5789 61.1285 29.6775 59.9584 29.9232 58.8456L29.9806 58.9038C29.9705 59.7901 29.9001 60.6848 29.8644 61.5716C29.7916 63.4592 29.7044 65.3463 29.6026 67.2326C31.8814 67.4531 34.1619 67.6558 36.4438 67.8412L37.3273 62.3457C37.4777 61.3914 37.5449 60.3238 37.8414 59.4078C37.8546 60.0189 37.8318 60.6341 37.7992 61.2443C37.6702 63.64 37.4962 66.3994 37.0942 68.7472C36.3968 68.628 35.6473 68.6082 34.9403 68.5384C32.8911 68.3361 30.8383 68.1898 28.7887 67.9952Z" fill="#2A2A2A"/>
<path d="M69.7554 63.1905C70.2234 62.7972 70.5715 62.2222 70.9087 61.7168L70.9382 61.7481C70.9909 62.1497 70.7503 62.9292 70.7053 63.3578C70.6816 63.5831 70.6639 63.773 70.8121 63.9541C70.8558 63.965 70.8856 63.9757 70.9333 63.9701C71.3556 63.9202 71.9051 63.1867 72.1782 62.8708C72.0244 63.4498 71.6852 64.446 71.8895 65.0117C71.9441 65.0603 71.9614 65.1028 72.0401 65.0976C72.4144 65.073 73.0377 64.0253 73.3418 63.7254C73.2633 63.967 73.1733 64.203 73.0839 64.4407C72.9081 64.9076 72.6538 65.5549 72.8752 66.0443C73.1539 65.8999 74.2607 64.0758 74.6845 63.6745C74.699 63.6607 74.714 63.6474 74.7287 63.6338C74.6133 64.1983 73.7335 66.6172 73.8228 66.9129L73.9037 66.9191C74.5105 66.4295 75.2525 64.5673 75.9007 63.8042C75.9124 63.7905 75.9246 63.777 75.9365 63.7634C75.8841 64.9796 75.4246 66.192 75.0526 67.3413C74.9882 67.5403 74.7994 67.9635 74.8987 68.1577C75.2719 67.9818 75.5737 67.2778 75.8592 66.9559C75.8723 66.9412 75.8857 66.9269 75.8989 66.9123C75.8222 67.404 75.5073 68.0604 75.5315 68.5167C75.5681 68.5715 75.5693 68.6085 75.6417 68.6164C75.882 68.6427 76.2073 68.3773 76.4037 68.2514C76.479 68.7884 76.5579 69.2487 76.7841 69.7455C76.7789 69.8368 76.7803 69.9033 76.8047 69.9916L76.8892 70.0322C77.1805 69.9918 77.4607 69.7422 77.7011 69.5789C77.6514 69.8727 77.582 70.1838 77.5752 70.4815C77.5712 70.6497 77.5789 70.7755 77.6986 70.8984C77.9913 70.9188 78.7302 70.2045 79.0006 70.02C78.9903 70.7473 78.8298 71.4644 78.9536 72.1892C79.1618 72.1513 79.3539 72.0974 79.554 72.0286C79.6709 72.6704 79.7199 73.2444 80.1671 73.7526C80.5608 73.6499 80.8137 73.5137 81.1247 73.2529C81.1501 73.7935 81.0893 74.3488 81.0737 74.8907C79.781 73.6378 78.6148 72.2741 77.3713 70.9779L69.7554 63.1905Z" fill="#FEFEFE"/>
<path d="M20.4199 66.3435C20.2755 66.3314 20.1482 66.3139 20.018 66.2458C19.8878 66.1777 19.8474 66.1075 19.8005 65.972C19.8107 65.891 19.8199 65.822 19.8601 65.7495C20.1114 65.297 20.8651 64.9349 21.3426 64.7782C21.4004 64.79 21.4592 64.8006 21.5146 64.822C21.6648 64.8802 21.8321 64.9967 21.887 65.1526C21.9177 65.24 21.8964 65.3507 21.854 65.4321C21.6228 65.8747 20.8803 66.2089 20.4199 66.3435Z" fill="#2A2A2A"/>
<path d="M21.1598 71.5327C21.0702 71.5514 20.9485 71.5583 20.8587 71.5364C20.7381 71.5067 20.6201 71.4181 20.5549 71.311C20.4913 71.2065 20.4837 71.0954 20.5235 70.981C20.6612 70.5845 21.4364 70.2523 21.7836 70.0669C21.8655 70.0644 21.9502 70.0607 22.0317 70.0705C22.1799 70.0871 22.3129 70.1691 22.3944 70.2941C22.4669 70.4053 22.4978 70.531 22.4552 70.66C22.3149 71.0844 21.5465 71.3844 21.1598 71.5327Z" fill="#2A2A2A"/>
<path d="M29.5615 71.0026C30.3389 70.7709 31.2122 70.7749 32.0179 70.7456C32.96 70.7053 33.9127 70.7237 34.8559 70.7183C35.48 70.7148 36.144 70.6659 36.7629 70.7374C36.9587 70.76 37.1665 70.8026 37.3403 70.8998C37.4633 70.9686 37.5071 71.0357 37.5433 71.1687C37.5215 71.2468 37.5037 71.3364 37.4416 71.3945C37.2059 71.6152 35.6653 71.5413 35.2685 71.5424C33.7475 71.5295 30.8268 71.6663 29.5615 71.0026Z" fill="#2A2A2A"/>
<path d="M28.1134 80.4186C28.2544 78.8254 28.5176 77.2179 28.7356 75.6325C28.9456 74.1056 29.1152 72.5481 29.4052 71.0348L29.4587 71.0916C29.3211 73.9489 29.1575 76.805 28.9681 79.6594L35.6952 80.227C36.0661 78.4005 36.3125 76.5337 36.5983 74.6911C36.741 73.7712 36.8168 72.7556 37.1147 71.8759C37.1243 72.4387 37.0844 73.016 37.0392 73.5771C36.9685 76.0712 36.6609 78.6028 36.3595 81.0771C34.487 80.9703 32.6167 80.8278 30.7497 80.6496C29.8717 80.5727 28.9884 80.5241 28.1134 80.4186Z" fill="#2A2A2A"/>
<path d="M82.6684 76.9613L82.545 76.9461C82.5758 76.6863 83.725 76.1104 83.9579 75.9744C85.8797 74.8516 87.1566 73.24 88.1096 71.2567C88.1733 71.2849 88.2759 71.3327 88.2959 71.4025C88.3723 71.6687 88.0261 72.2579 87.9034 72.5037C86.8304 74.6532 84.9307 76.2158 82.6684 76.9613Z" fill="#FEFEFE"/>
<path d="M81.2466 75.0515C81.9725 74.3134 82.7407 72.9486 83.3879 72.0649C83.4746 72.112 83.5186 72.1593 83.5805 72.2358C83.6998 73.0117 82.5066 74.6505 82.2561 75.4933C82.9799 74.9575 83.4061 73.971 84.1041 73.4924C84.2078 73.4213 84.2602 73.3977 84.3824 73.423C84.5104 73.7328 84.2151 74.3088 84.0951 74.6098L83.6645 75.4458C83.1706 75.6475 82.6376 75.8295 82.2176 76.1658L81.2466 75.0515Z" fill="#FEFEFE"/>
<path d="M84.0753 77.3938C86.0331 76.5491 87.5498 74.9939 88.563 73.1493C88.5821 73.1745 88.6029 73.1983 88.62 73.2249C88.9425 73.7228 88.9686 74.6772 88.8456 75.2449C88.661 76.0969 88.171 76.8606 87.4305 77.3309C86.5447 77.8937 85.6846 77.8965 84.6911 77.6753C84.4785 77.5971 84.2783 77.4937 84.0753 77.3938Z" fill="#FEFEFE"/>
<path d="M73.2556 76.2724C72.2634 76.4615 71.1608 76.4107 70.1528 76.4056C68.5739 76.3926 66.9951 76.366 65.4167 76.3256C58.6589 76.2321 51.9043 75.9813 45.1582 75.5732C44.5877 75.5406 41.0393 75.4075 40.6958 75.2047C40.5741 75.1328 40.566 75.1006 40.5224 74.9742C40.5537 74.8083 40.589 74.7489 40.6997 74.6213C41.2182 74.5622 41.7822 74.6282 42.3042 74.6543C43.3581 74.7095 44.4116 74.7755 45.4641 74.8528C48.0365 75.0373 50.6118 75.177 53.1889 75.2717C58.5847 75.47 63.9861 75.4991 69.3832 75.6782C70.2243 75.7061 72.5553 75.6008 73.2617 75.8632C73.383 75.9082 73.4312 75.9457 73.4882 76.0595C73.4212 76.1865 73.3762 76.2004 73.2556 76.2724Z" fill="#2A2A2A"/>
<path d="M21.5803 76.3953C21.4996 76.4003 21.4237 76.4051 21.3436 76.3909C21.1967 76.365 21.0816 76.3118 21.0069 76.1738C20.9369 76.0473 20.9276 75.8961 20.9815 75.762C21.1453 75.3475 21.867 75.0722 22.2486 74.892C22.3184 74.893 22.359 74.8903 22.4266 74.9031C22.6021 74.9366 22.7476 75.068 22.8259 75.2267C22.8845 75.3457 22.8865 75.4384 22.8424 75.5632C22.7106 75.9359 21.9126 76.2373 21.5803 76.3953Z" fill="#2A2A2A"/>
<path d="M72.8177 78.2133C70.7549 78.3267 68.6904 78.214 66.6283 78.1285L60.9435 77.9344C56.3561 77.78 51.7709 77.5686 47.1889 77.3003L42.9894 77.0628C42.458 77.0332 41.8985 77.0545 41.3731 76.9982C41.2008 76.9796 40.9962 76.9419 40.8494 76.8443C40.7622 76.7862 40.7617 76.7697 40.7426 76.6729C40.7542 76.6589 40.7646 76.6439 40.7774 76.6311C40.9256 76.4818 41.1419 76.4833 41.3381 76.4673C41.8863 76.5899 42.551 76.5608 43.1137 76.597C44.6508 76.692 46.1883 76.7786 47.7262 76.8568C50.7164 76.9947 53.7079 77.1018 56.7002 77.1778C58.5488 77.2383 60.4001 77.3565 62.2495 77.3769L70.6979 77.5204C71.1537 77.5278 71.6132 77.532 72.0687 77.508C72.3349 77.4939 72.6076 77.4432 72.8738 77.4556C73.0204 77.4623 73.226 77.4984 73.3306 77.6129C73.4162 77.7066 73.4008 77.7623 73.388 77.876C73.2436 78.1053 73.0729 78.1506 72.8177 78.2133Z" fill="#2A2A2A"/>
<path d="M73.0573 79.8336C72.9389 79.8954 72.8116 79.9382 72.68 79.9605C71.9671 80.0857 71.1645 80.017 70.4398 80.0043L66.8936 79.925C59.6538 79.6652 52.4192 79.276 45.1933 78.7574C44.7565 78.728 42.7198 78.6757 42.5203 78.5966C42.4844 78.5823 42.4574 78.5517 42.4259 78.5293C43.3677 78.4784 44.3557 78.5953 45.2981 78.6482C46.5621 78.719 47.8301 78.7531 49.0951 78.8083C52.6604 78.9342 56.2267 79.0298 59.7937 79.0951L69.4353 79.2493C70.3333 79.2627 71.9947 79.1438 72.7856 79.2798C72.971 79.3117 73.078 79.3601 73.1895 79.5126C73.1843 79.6783 73.1512 79.7027 73.0573 79.8336Z" fill="#2A2A2A"/>
</g>
<defs>
<clipPath id="clip0_0_212">
<rect width="96" height="96" fill="white" transform="translate(0 0.740234)"/>
</clipPath>
</defs>
</svg>
