<svg width="96" height="97" viewBox="0 0 96 97" fill="none" xmlns="http://www.w3.org/2000/svg">
<g clip-path="url(#clip0_0_476)">
<path d="M0 0.740234H96V96.7402H0V0.740234ZM29.0577 8.49061C28.1674 8.61957 27.5418 9.0268 27.0037 9.73991C25.8356 11.2875 25.1156 13.5125 24.8723 15.4231C24.3091 15.3674 21.761 14.9513 21.4272 15.2267C21.2663 15.3594 21.1617 15.5625 21.0884 15.7542C20.9281 16.1736 20.8328 16.6445 20.7193 17.0798C20.4041 18.29 20.1456 19.5128 19.8696 20.7322C17.4115 31.2952 15.5724 41.9927 14.3617 52.7701C13.9203 56.4028 13.5787 60.047 13.3373 63.6984C13.2718 64.7928 12.8977 70.8536 13.1436 71.5155C13.3435 71.6703 13.6009 71.7477 13.8424 71.815C15.1312 72.1742 16.4594 72.425 17.7599 72.7432C20.5655 73.4061 23.3591 74.1184 26.1396 74.8797C27.0965 75.1355 28.061 75.3674 29.0123 75.6433C38.4072 78.4446 47.7466 81.4288 57.0252 84.5941C61.7322 86.153 66.4283 87.7852 71.1913 89.1688C72.2284 88.8731 73.1966 88.3767 74.1678 87.9162C76.3731 86.8706 78.5008 85.7159 80.6359 84.5359C81.0622 84.3005 82.6284 83.542 82.8562 83.1709C82.9116 83.0808 82.8922 82.8878 82.8876 82.7818C82.7668 80.0246 82.4862 77.2725 82.4505 74.5098C81.8576 57.0039 81.7675 39.4847 82.1803 21.9737C82.1858 21.6313 82.3097 20.2505 82.0747 20.043C81.6641 19.6805 78.296 19.8343 77.5647 19.8142C77.8519 18.2033 77.9917 16.1919 76.9968 14.7871C76.4485 14.0224 75.6148 13.5113 74.6845 13.3697C73.8519 13.2373 72.9818 13.409 72.3002 13.9154C71.0352 14.855 70.1274 16.4266 69.594 17.8816C69.4047 18.398 69.2689 18.9316 69.1017 19.455C68.2826 19.463 67.4573 19.4071 66.6416 19.3357C66.7424 17.6293 66.9672 15.5653 65.7438 14.1719C65.2361 13.5936 64.4681 13.2472 63.7018 13.208C62.9243 13.1684 62.2267 13.4816 61.6663 14.0013C60.3189 15.2506 59.6709 17.1695 59.1828 18.8915C58.4347 18.8411 57.687 18.7834 56.94 18.7183C57.0926 16.9645 57.457 14.099 56.2393 12.6823C55.805 12.1769 55.0971 11.8233 54.4301 11.7925C53.6915 11.7585 53.0596 12.1178 52.5431 12.614C51.0727 14.0268 50.4224 16.2363 50.0251 18.1798C49.2628 18.1135 48.4544 18.087 47.7049 17.9303C47.8987 16.1437 48.0324 13.4976 46.8476 12.0213C46.4211 11.4897 45.8233 11.1193 45.136 11.054C44.4257 10.9865 43.8116 11.228 43.2754 11.6794C41.8808 12.8532 41.0625 15.575 40.799 17.3653C40.4639 17.3236 40.1193 17.2958 39.7879 17.234C39.8209 15.4716 39.8218 12.4395 38.5654 11.0861C38.1533 10.6368 37.5751 10.376 36.9656 10.3646C36.2724 10.3474 35.6523 10.6349 35.1633 11.1124C33.9672 12.2802 33.4808 14.088 33.1301 15.6773C33.0979 15.8233 33.0528 16.3218 32.8834 16.334L32.8174 16.3389L32.739 16.2915C32.642 15.8179 32.7154 15.2555 32.6954 14.7674C32.6249 13.0497 32.3982 9.91768 30.8712 8.90077C30.3297 8.54015 29.6954 8.42668 29.0577 8.49061Z" fill="#FEFEFE"/>
<path d="M24.8723 15.4231C25.1156 13.5125 25.8356 11.2875 27.0036 9.73994C27.5418 9.02683 28.1674 8.6196 29.0577 8.49065C29.6954 8.42672 30.3297 8.54018 30.8712 8.9008C32.3982 9.91771 32.6249 13.0497 32.6954 14.7674C32.7154 15.2556 32.642 15.8179 32.739 16.2915L32.8174 16.339L32.8834 16.3341C33.0528 16.3218 33.0979 15.8233 33.1301 15.6774C33.4807 14.088 33.9672 12.2802 35.1633 11.1124C35.6523 10.6349 36.2724 10.3474 36.9656 10.3646C37.5751 10.376 38.1533 10.6368 38.5654 11.0861C39.8218 12.4395 39.8209 15.4717 39.7879 17.2341C40.1193 17.2959 40.4639 17.3236 40.799 17.3653C41.0625 15.575 41.8808 12.8532 43.2754 11.6794C43.8116 11.228 44.4257 10.9866 45.136 11.0541C45.8233 11.1193 46.4211 11.4897 46.8476 12.0213C48.0324 13.4977 47.8987 16.1438 47.7049 17.9304C48.4544 18.087 49.2628 18.1135 50.0251 18.1798C50.4224 16.2363 51.0727 14.0268 52.5431 12.6141C53.0596 12.1179 53.6915 11.7585 54.4301 11.7925C55.0971 11.8233 55.805 12.1769 56.2393 12.6823C57.457 14.099 57.0926 16.9645 56.94 18.7183C57.687 18.7834 58.4347 18.8411 59.1828 18.8916C59.6709 17.1696 60.3189 15.2506 61.6663 14.0013C62.2267 13.4816 62.9243 13.1684 63.7018 13.2081C64.4681 13.2473 65.2361 13.5937 65.7438 14.1719C66.9672 15.5653 66.7424 17.6293 66.6416 19.3358C67.4573 19.4071 68.2826 19.4631 69.1017 19.455C69.2689 18.9316 69.4047 18.398 69.594 17.8816C70.1274 16.4266 71.0352 14.855 72.3002 13.9154C72.9819 13.4091 73.852 13.2373 74.6845 13.3697C75.6148 13.5114 76.4485 14.0224 76.9968 14.7871C77.9917 16.192 77.8519 18.2034 77.5647 19.8143C78.296 19.8343 81.6641 19.6806 82.0747 20.043C82.3097 20.2505 82.1858 21.6313 82.1803 21.9737C81.7676 39.4847 81.8576 57.0039 82.4505 74.5098C82.4862 77.2725 82.7668 80.0246 82.8876 82.7818C82.8922 82.8878 82.9116 83.0808 82.8563 83.1709C82.6285 83.542 81.0622 84.3005 80.6359 84.536C78.5008 85.7159 76.3731 86.8706 74.1678 87.9162C73.1966 88.3767 72.2284 88.8731 71.1913 89.1688C66.4284 87.7852 61.7322 86.1531 57.0252 84.5941C47.7466 81.4288 38.4072 78.4447 29.0123 75.6433C28.061 75.3674 27.0965 75.1356 26.1395 74.8797C23.3591 74.1184 20.5655 73.4062 17.7599 72.7432C16.4594 72.4251 15.1311 72.1742 13.8424 71.815C13.6009 71.7477 13.3435 71.6703 13.1435 71.5155C12.8976 70.8536 13.2718 64.7928 13.3373 63.6984C13.5787 60.047 13.9203 56.4028 14.3616 52.7701C15.5724 41.9927 17.4115 31.2953 19.8695 20.7323C20.1455 19.5129 20.4041 18.29 20.7193 17.0799C20.8327 16.6445 20.9281 16.1737 21.0884 15.7542C21.1617 15.5625 21.2663 15.3595 21.4272 15.2267C21.761 14.9514 24.3091 15.3674 24.8723 15.4231ZM29.1474 9.28262C28.3281 9.46856 27.7981 10.0251 27.3625 10.714C25.8257 13.1451 25.0387 17.2936 25.6738 20.0974C25.7596 20.4759 25.8719 20.7967 26.2104 21.0145L26.2867 21.0168C26.3099 20.9204 26.0906 19.7471 26.0762 19.5065C25.9497 17.3995 26.1995 15.4116 26.8459 13.3992C27.2465 12.3411 28.0158 10.3579 29.1126 9.87672C29.3482 9.77341 29.5937 9.75375 29.8308 9.86297C30.3395 10.0973 30.6571 10.7036 30.8249 11.2151C31.2074 12.3808 31.4108 14.9523 31.4023 16.2081C31.5705 16.2294 31.7388 16.2543 31.9079 16.2661C31.9466 14.6758 31.7742 11.0104 30.7017 9.85774C30.3867 9.51913 29.9295 9.27484 29.4595 9.27195C29.3555 9.27221 29.2513 9.27577 29.1474 9.28262ZM29.4164 10.6199C28.1826 11.6024 27.3122 14.1961 27.1114 15.7284C27.6078 15.7865 28.1099 15.8233 28.6044 15.8928C29.2512 15.9663 29.8992 16.034 30.5449 16.1163C30.5016 15.2613 30.3373 11.2675 29.6968 10.744C29.6111 10.6739 29.5207 10.6484 29.4164 10.6199ZM36.816 11.1626C36.1071 11.3097 35.5989 11.6905 35.2072 12.2916C33.7838 14.4756 33.2495 18.9974 33.8004 21.5088C33.9305 22.1015 34.1206 22.5671 34.5873 22.9714C34.0881 20.5191 33.957 19.0338 34.3282 16.5713C34.5524 15.3375 35.2307 12.645 36.3155 11.9165C36.5748 11.7424 36.9651 11.7113 37.2644 11.7752C37.5134 11.8285 37.7119 11.9997 37.8432 12.2121C38.4802 13.241 38.4108 15.474 38.4281 16.7011C38.4302 16.8455 38.413 17.0896 38.5905 17.1227C38.6881 17.1409 38.7411 17.1177 38.8313 17.0856C39.0815 16.81 38.9612 15.7324 38.9425 15.3382C38.8879 14.1834 38.7101 12.2821 37.8136 11.4685C37.5281 11.2095 37.1921 11.1363 36.816 11.1626ZM44.6512 11.8631C43.8854 12.0694 43.4282 12.574 43.0429 13.238C41.4992 15.8982 40.9656 19.9348 41.7698 22.8903C41.8724 23.2671 42.0492 23.9538 42.4177 24.15C42.4592 24.172 42.4831 24.1795 42.5297 24.198L42.5748 24.1682C42.4947 23.7917 42.3276 23.4438 42.2456 23.0633C41.8779 21.3278 41.8465 19.5378 42.153 17.7905C42.4467 16.3471 43.0904 13.5694 44.3306 12.7247C44.5887 12.5489 44.9096 12.4524 45.2208 12.5168C45.5791 12.5909 45.8456 12.8719 46.0241 13.177C46.7152 14.3581 46.5272 16.5186 46.3714 17.8387L46.9077 17.9001C47.0309 16.354 47.2527 13.6872 46.1803 12.4557C45.8469 12.073 45.4136 11.8831 44.9107 11.8587C44.8231 11.8545 44.7386 11.857 44.6512 11.8631ZM36.9272 12.4776C35.8269 13.356 35.3373 15.3607 35.1663 16.6914L36.1453 16.8311C36.6212 16.8869 37.1001 16.9576 37.5786 16.9853C37.686 16.1755 37.6161 13.2457 37.0973 12.6008C37.0506 12.5428 36.9917 12.5113 36.9272 12.4776ZM54.1253 12.6079C53.0889 12.9663 52.4058 13.8681 51.9403 14.8262C50.7293 17.3192 50.0187 21.4464 50.926 24.1064C51.0115 24.357 51.1782 24.7565 51.4106 24.8942C51.458 24.9222 51.4965 24.9291 51.5471 24.9422C51.5599 24.9127 51.1504 23.2283 51.1281 22.9781C50.9979 21.5159 51.066 20.038 51.4253 18.6119C51.8086 17.1894 52.4809 14.2817 53.843 13.522C54.1434 13.3544 54.5012 13.2958 54.8334 13.4005C55.1473 13.4992 55.3636 13.7361 55.4979 14.0296C56.0092 15.1468 55.6429 17.377 55.4681 18.5921C55.6835 18.6197 55.8991 18.6512 56.1154 18.6689C56.22 17.2009 56.5988 14.3532 55.5692 13.1888C55.2168 12.79 54.7596 12.6319 54.2411 12.6082C54.2025 12.6064 54.1639 12.6074 54.1253 12.6079ZM44.8991 13.2973C43.8972 13.9961 43.3223 16.2601 43.0997 17.4486C43.0963 17.4668 43.0935 17.485 43.0903 17.5032C43.4295 17.518 43.7619 17.5585 44.0983 17.603C44.5754 17.6642 45.057 17.7432 45.5366 17.7765C45.66 16.8247 45.8469 14.2275 45.2753 13.4629C45.1948 13.3552 45.1095 13.3137 44.9756 13.3009C44.9502 13.2985 44.9246 13.2985 44.8991 13.2973ZM63.3226 14.0139C62.3177 14.2677 61.7587 15.0021 61.2487 15.8542C59.8014 18.2719 59.2246 21.7306 59.9307 24.4665C60.1405 25.2793 60.4184 26.1342 61.1198 26.6478C60.4298 24.3369 59.992 23.214 60.3423 20.7136C60.628 19.091 61.6115 15.8258 63.0096 14.8812C63.2767 14.7008 63.5939 14.5951 63.9174 14.6558C64.3223 14.7317 64.7058 14.9984 64.9291 15.3421C65.5708 16.3298 65.2823 17.7899 65.2277 18.8877C65.2213 19.015 65.1963 19.207 65.3461 19.2501C65.463 19.2837 65.626 19.2735 65.7496 19.2813C65.8872 17.8671 66.165 16.0048 65.2068 14.8049C64.8333 14.3373 64.2692 14.0746 63.6794 14.0174C63.5622 14.006 63.44 14.011 63.3226 14.0139ZM54.3951 14.0371C53.3369 14.641 52.792 16.7223 52.4834 17.85C52.4416 17.9992 52.4037 18.1494 52.3699 18.3006C52.601 18.3291 52.8346 18.3668 53.0673 18.3755C53.5905 18.4239 54.1199 18.4898 54.6444 18.5157C54.7468 17.5956 55.1852 14.7999 54.6253 14.1591C54.562 14.0867 54.4827 14.0713 54.3951 14.0371ZM73.8591 14.1618C72.9415 14.2831 72.3328 14.8293 71.7877 15.541C69.8767 18.0358 69.3826 21.1632 69.8124 24.2169C69.9666 25.3121 70.3785 26.9807 71.3251 27.6625C71.4665 27.7644 71.5963 27.8308 71.7719 27.8452L71.8106 27.7864C71.5441 27.2327 71.1043 26.7549 70.8152 26.2018C70.3118 25.2387 70.1051 22.8427 70.2659 21.789C70.436 20.0459 71.7375 16.5393 73.1052 15.3712C73.4958 15.0376 73.9821 14.863 74.4977 14.9119C75.031 14.9624 75.5635 15.2626 75.8887 15.6861C76.9026 17.0065 75.913 19.2335 76.187 19.7382C76.2341 19.8251 76.3161 19.838 76.4016 19.865C76.5429 19.8194 76.6076 19.7829 76.6735 19.6453C77.0396 18.8803 76.99 16.711 76.6787 15.9147C76.402 15.2072 75.9615 14.6821 75.2564 14.3794C74.8163 14.191 74.3358 14.1161 73.8591 14.1618ZM63.6863 15.3896C62.6882 16.1773 61.949 17.7792 61.6233 18.9924C61.9217 19.0155 62.2208 19.044 62.5196 19.0594C63.1297 19.0969 63.7472 19.1756 64.3583 19.1672C64.4325 18.3261 64.7326 16.4211 64.1848 15.725C64.0611 15.5678 63.8802 15.4415 63.6863 15.3896ZM74.1873 15.752C73.5385 15.911 73.0542 16.6603 72.7284 17.1962C72.2654 17.9575 71.941 18.7887 71.6311 19.621C72.1411 19.6413 72.6509 19.667 73.1604 19.6982C73.858 19.7401 74.5711 19.7698 75.27 19.7693C75.3895 18.8475 75.8189 16.9034 75.2011 16.1315C75.0385 15.9283 74.8125 15.7886 74.5521 15.7609C74.4324 15.7481 74.3076 15.7518 74.1873 15.752ZM21.8929 15.9484C21.1958 18.4079 20.6709 20.9318 20.1278 23.4289C19.9053 24.4524 19.5053 25.8258 19.4283 26.8432C20.4259 27.0531 21.4835 27.0628 22.499 27.1492C24.617 27.3294 26.7599 27.4837 28.8607 27.8017C33.7453 28.5411 38.5903 29.489 43.4947 30.1132C46.0175 30.4343 48.5577 30.5604 51.0812 30.8584C53.9251 31.1942 56.7517 31.642 59.5897 32.017C62.3487 32.3814 65.119 32.6604 67.8733 33.0635C71.4498 33.5868 74.8369 34.2358 78.3726 34.936C78.8561 31.9136 79.4174 28.9043 80.0557 25.9107C80.2761 24.8814 80.5295 23.8571 80.764 22.8307C80.9228 22.1353 81.1139 21.4148 81.1596 20.701C80.2454 20.6386 79.3182 20.6875 78.4018 20.6785C76.8897 20.6704 75.378 20.6289 73.8677 20.554C73.0415 20.5176 72.2143 20.499 71.3914 20.4131C70.8418 22.2297 70.9147 24.1779 71.5986 25.9483C71.9919 25.7458 72.3565 25.6297 72.7969 25.774C73.1936 25.9042 73.537 26.1724 73.7275 26.5479C73.9063 26.9003 73.9391 27.2982 73.795 27.669C73.6285 28.0968 73.2502 28.4132 72.8326 28.5835C72.33 28.7886 71.7753 28.7946 71.2736 28.5826C70.3409 28.1886 69.8234 27.2159 69.4833 26.3167C68.8053 24.5244 68.6376 22.1613 68.9421 20.2706C67.8972 20.2182 66.8459 20.1211 65.8008 20.0998C64.3431 20.0147 62.8782 19.9318 61.4236 19.8072C60.9438 21.5657 60.9912 23.0403 61.388 24.8174C61.8653 24.6519 62.3341 24.4675 62.8236 24.7128C63.1629 24.8829 63.4705 25.2391 63.5728 25.6062C63.6736 25.9679 63.6011 26.3447 63.4102 26.664C63.1335 27.1266 62.6417 27.4069 62.1273 27.527C61.5942 27.6515 61.0498 27.595 60.5866 27.2913C59.6423 26.6718 59.2298 25.3001 59.0352 24.253C58.7565 22.753 58.7901 21.2154 59.0064 19.7104C58.0939 19.5922 57.1675 19.5647 56.2501 19.4953L52.1229 19.161C51.8802 20.4339 51.8323 21.736 51.9808 23.0232L52.0378 23.0112C52.4453 22.9295 52.845 22.9581 53.1953 23.2011C53.5222 23.4278 53.797 23.8254 53.8583 24.2215C53.9146 24.5847 53.8013 24.9504 53.584 25.242C53.2801 25.6498 52.7963 25.8872 52.299 25.953C51.7992 26.0191 51.2978 25.9132 50.9049 25.5876C50.0354 24.8667 49.8178 23.3239 49.743 22.2731C49.6749 21.1656 49.7348 20.0538 49.9215 18.9599C47.5983 18.7241 45.234 18.6123 42.9252 18.2761C42.768 19.5498 42.7046 20.9129 42.9373 22.1822C43.4139 22.1152 43.8495 22.0789 44.2565 22.391C44.5747 22.635 44.8287 23.0055 44.8777 23.4091C44.9265 23.8129 44.7712 24.1989 44.5133 24.505C44.1656 24.9178 43.6362 25.1667 43.0989 25.1919C42.6308 25.214 42.1982 25.0616 41.8532 24.7436C40.7683 23.7434 40.6001 21.375 40.5747 19.9826C40.5634 19.3599 40.6227 18.7464 40.651 18.1254C38.7786 17.9292 36.9051 17.6875 35.0302 17.5223C34.9812 18.5138 34.88 19.5511 35.0173 20.5364C35.5476 20.6935 36.079 20.9119 36.3599 21.4253C36.5561 21.784 36.5721 22.2083 36.446 22.593C36.303 23.029 35.9781 23.364 35.5645 23.5551C35.1638 23.7401 34.6856 23.8133 34.2631 23.6594C33.798 23.49 33.4937 23.1013 33.3002 22.66C32.5791 21.0156 32.7008 19.012 32.8194 17.2663L26.9672 16.5257C26.876 17.3463 26.8551 18.1452 26.8619 18.97C27.3706 18.9773 27.8305 19.0765 28.205 19.4564C28.4603 19.7155 28.5702 20.0568 28.5556 20.4171C28.537 20.8726 28.2924 21.2945 27.9532 21.5897C27.5805 21.9141 27.0586 22.1106 26.5623 22.0704C26.1006 22.033 25.6974 21.7841 25.4087 21.4289C24.4766 20.2826 24.5791 17.7066 24.7092 16.2759C23.7966 16.1049 22.8194 16.0139 21.8929 15.9484ZM81.018 25.7106C80.9319 25.833 80.8354 25.9369 80.8362 26.0936C80.8738 26.1814 80.9089 26.2694 80.954 26.3537C81.0111 26.4606 81.034 26.5441 81.0393 26.6658C81.0773 27.5319 81.0248 28.4195 81.0024 29.2867L80.8834 33.6142L80.5317 46.8184C80.2988 56.68 80.3516 66.5464 80.6902 76.4049C80.757 78.2128 80.7981 80.0208 80.8846 81.8281C80.9028 82.2074 80.8626 82.892 80.9786 83.2213C81.0725 83.1947 81.1657 83.1693 81.2573 83.1352C81.3613 83.0232 81.3702 82.9738 81.3708 82.8209C81.3724 82.3512 81.3154 81.8645 81.2961 81.3925L81.1489 77.7108C81.0172 74.0287 80.919 70.3454 80.8545 66.6615C80.7905 58.5124 80.857 50.3627 81.0536 42.2156L81.344 33.4375L81.493 29.034C81.5268 28.1089 81.6053 27.1464 81.5328 26.2248C81.5201 26.0625 81.5102 25.9308 81.4126 25.7975C81.2756 25.7075 81.1799 25.7007 81.018 25.7106ZM18.8136 29.7587C17.1941 37.9023 15.9364 46.1137 15.044 54.3687C14.5472 58.6156 14.2259 62.8812 14.0811 67.1546C14.0336 68.422 13.9562 69.7002 13.9571 70.9683C19.5692 72.2244 25.1438 73.6418 30.6742 75.2187C32.4712 75.7393 34.2533 76.3301 36.0412 76.8827C40.7526 78.331 45.448 79.8309 50.1265 81.3821C53.752 82.6129 57.3848 83.8219 61.0249 85.0091C64.2698 86.0943 67.5248 87.2077 70.8176 88.1376C71.0709 85.7412 71.3459 83.3471 71.643 80.9557C72.738 73.2219 73.8895 65.4962 75.0975 57.7792C75.6404 54.0754 76.1635 50.3687 76.6668 46.6593C76.9495 44.5094 77.1502 42.3357 77.508 40.1979C77.634 39.3055 77.7401 38.4051 77.8961 37.5176C76.8424 37.4848 75.8545 37.3979 74.8097 37.2565C73.5178 44.5632 72.3031 51.8833 71.1656 59.2156C70.0757 65.7075 69.1181 72.221 68.2936 78.752C68.1097 80.305 67.9868 81.8651 67.8334 83.4214C67.8089 83.6697 67.7928 84.1331 67.5561 84.2658C67.4087 84.3485 67.222 84.3055 67.0712 84.2612C66.063 83.9645 65.0675 83.4871 64.0839 83.1095C62.1738 82.3649 60.2464 81.6652 58.3034 81.0107C50.7961 78.4823 43.1907 76.2552 35.5055 74.3346C30.1924 73.0513 24.8588 71.9543 19.6204 70.3722C18.2455 69.957 16.7801 69.6144 15.4648 69.0408C15.2835 68.9617 15.1142 68.9003 15.0282 68.7085C14.8853 68.3894 15.1142 65.8427 15.1484 65.295C15.7006 57.3802 16.6828 49.5012 18.0905 41.693C18.4665 39.524 18.8657 37.359 19.2881 35.1985C19.6479 33.4263 20.082 31.652 20.3764 29.8696C19.8562 29.8224 19.3353 29.7854 18.8136 29.7587ZM21.2339 29.9318C20.6123 32.967 19.9567 36.0027 19.4379 39.0575C20.8816 39.4229 22.3696 39.6466 23.8349 39.9091C24.5784 40.0423 25.3716 40.2534 26.123 40.3026C26.184 40.2182 26.1986 40.1604 26.2157 40.0584L27.6626 33.5301C27.8725 32.5935 28.0566 31.6409 28.298 30.7125C26.7844 30.4948 25.2665 30.3071 23.7454 30.1495C22.9174 30.0606 22.0666 29.9364 21.2339 29.9318ZM29.1311 30.8865L27.9192 36.2164C27.5855 37.6293 27.2127 39.0524 26.9763 40.4848C27.9348 40.6389 33.9277 41.7626 34.2521 41.6327C34.3099 41.5271 34.3393 41.4384 34.3693 41.3233C35.256 38.2097 36.1088 35.0866 36.9278 31.9545C34.3371 31.541 31.7376 31.1848 29.1311 30.8865ZM37.7479 32.0898C36.8086 35.317 36.0285 38.5896 35.1101 41.8216C37.9362 42.377 40.8278 42.6029 43.6792 42.9937C43.7447 42.9878 43.8401 43.0029 43.8836 42.9475C43.8903 42.9391 45.9991 34.2354 46.2532 33.3143C44.4272 32.959 42.5682 32.6887 40.7254 32.4368C39.7461 32.3029 38.7351 32.1211 37.7479 32.0898ZM47.0605 33.4404C46.5536 35.4249 46.06 37.4126 45.5799 39.4037C45.2824 40.6212 44.9245 41.8811 44.738 43.1193C47.3693 43.4696 50.0146 43.7104 52.6458 44.0668C52.8006 44.076 52.8497 44.1024 52.9786 44.0098C53.0745 43.771 53.0805 43.4693 53.1279 43.2146L53.5304 41.0903C53.9276 38.8947 54.3807 36.7097 54.8892 34.5373C53.9385 34.3874 52.9802 34.2879 52.0277 34.1483C50.3742 33.9056 48.7204 33.6331 47.0605 33.4404ZM55.6643 34.6237C55.5421 35.3547 55.3483 36.0754 55.2062 36.8037C54.7045 39.2564 54.2311 41.7147 53.7862 44.1783C55.4518 44.5531 57.1768 44.7571 58.8646 45.0156C60.2308 45.2249 61.6357 45.5079 63.0105 45.6173C63.3068 43.7276 63.6281 41.842 63.9746 39.9609C64.2304 38.5426 64.4771 37.1257 64.828 35.7267C63.346 35.466 61.8244 35.3409 60.3304 35.1503C59.3273 35.0231 58.3227 34.9074 57.317 34.8031C56.7732 34.7413 56.2095 34.6394 55.6643 34.6237ZM65.4658 35.7537C64.9635 39.0947 64.4184 42.4291 63.8307 45.7561C64.8105 45.8882 71.9627 47.0464 72.2545 46.9825C72.8138 43.6853 73.3189 40.3857 73.9734 37.105C71.2105 36.3855 68.3079 36.0113 65.4658 35.7537ZM19.3044 39.7687C18.9274 41.8974 18.5097 44.0128 18.2096 46.1554C18.1044 46.9062 17.9837 47.6668 17.9336 48.4238C19.3489 48.7345 20.7712 49.0119 22.1997 49.2553C22.8464 49.3661 23.5035 49.5099 24.1567 49.5634C24.2576 49.4885 24.2405 49.4574 24.2698 49.34L25.1895 44.9709C25.4618 43.6973 25.768 42.4159 25.9467 41.1253L22.2343 40.456C21.2301 40.268 20.274 40.104 19.3044 39.7687ZM26.7943 41.2703C26.1727 44.0739 25.6445 46.8917 25.0447 49.6986C27.2991 50.0965 29.564 50.3885 31.8195 50.7673L31.9197 50.3707C32.5842 47.7491 33.2891 45.1128 34.0553 42.5189L28.7627 41.6058C28.114 41.4986 27.4453 41.3352 26.7943 41.2703ZM34.8629 42.6271C34.0753 45.3643 33.3412 48.1165 32.6609 50.8824C33.3669 50.947 35.3487 51.2605 35.9402 51.188C36.2943 51.1447 36.6531 50.9049 36.991 50.7887C38.2393 50.3481 39.575 50.2129 40.8861 50.3945C41.4056 50.4652 41.9069 50.5691 42.4076 50.725L43.7272 43.8209C41.6389 43.5638 39.5528 43.289 37.4692 42.9965C36.6045 42.8769 35.7306 42.7141 34.8629 42.6271ZM44.6012 43.9229C44.1862 45.4284 43.9012 46.986 43.6206 48.5212C43.4717 49.3353 43.2806 50.1713 43.1999 50.9953C43.8456 51.327 44.4896 51.6535 45.0763 52.0844C45.3758 52.3045 45.9866 52.9592 46.2435 53.075C46.9443 53.3909 48.6384 53.5333 49.4463 53.6557C49.8096 53.7106 50.8206 53.9636 51.1026 53.9134C51.1223 53.8749 51.1506 53.8323 51.1607 53.7903C51.5052 52.1904 51.7372 50.5634 52.0308 48.9533C52.2781 47.5975 52.5975 46.2473 52.8109 44.8869L44.6012 43.9229ZM53.6141 45.0239C53.0452 48.0459 52.4289 51.0661 51.9606 54.1054C53.2492 54.2724 54.5202 54.5257 55.8012 54.7373L61.3345 55.612L61.394 55.5839C61.5926 54.9802 61.7066 53.6329 61.8166 52.9292C62.1543 50.7675 62.4676 48.5904 62.8809 46.4422C61.3244 46.1244 59.7191 45.9586 58.1466 45.7259C56.6374 45.5025 55.1274 45.2106 53.6141 45.0239ZM63.6929 46.5654C63.3452 48.0771 63.1988 49.6833 62.9605 51.2178L62.5124 54.1067C62.427 54.6582 62.3183 55.2114 62.2815 55.7688C64.6093 56.1004 66.928 56.4925 69.2354 56.945C69.4577 56.9891 70.4573 57.2408 70.6119 57.1657C70.8612 56.0295 70.9964 54.8625 71.1836 53.7146C71.5019 51.7631 71.8363 49.8173 72.109 47.8582C70.8 47.5119 69.372 47.4216 68.0319 47.2249L65.1144 46.7897C64.6434 46.7174 64.1664 46.6122 63.6929 46.5654ZM79.1933 48.9008C78.9336 52.0452 78.9044 55.2415 78.8048 58.3953C78.5715 64.3043 78.4731 70.2179 78.5096 76.1315L78.5079 81.8516C78.5075 82.7452 78.425 83.7122 78.5312 84.595L78.5844 84.6296C78.6836 84.5976 78.7729 84.5611 78.8665 84.5149C78.9701 83.943 78.875 82.2632 78.8726 81.5474L78.889 74.9022C78.936 68.3311 79.0728 61.7609 79.2993 55.1934C79.3276 54.4538 79.6506 49.1989 79.5634 49.0098C79.4511 48.9161 79.3324 48.916 79.1933 48.9008ZM17.778 49.2119C17.1874 52.4852 16.9678 55.8026 16.5471 59.0968C18.4205 59.7646 20.3074 60.2875 22.228 60.7974L22.3228 60.1808C22.5578 58.5249 22.8251 56.8738 23.1245 55.2283C23.4261 53.62 23.7913 52.0183 24.0639 50.4055C23.2251 50.2051 22.3555 50.1033 21.5059 49.9527C20.2605 49.7198 19.0178 49.4729 17.778 49.2119ZM24.8743 50.4814C24.3941 52.8492 23.9279 55.2096 23.5289 57.5927C23.3448 58.6924 23.1161 59.8319 23.0408 60.9422C23.9255 61.215 29.2247 62.5392 29.6988 62.4545C29.8773 58.7607 30.5186 55.1039 31.6076 51.5698C30.0902 51.3535 28.5759 51.1152 27.0654 50.855C26.3393 50.7351 25.5904 50.6487 24.8743 50.4814ZM39.3457 51.2169C34.7938 51.4911 31.3386 55.4239 31.6529 59.9733C31.9671 64.5226 35.9304 67.943 40.4768 67.5885C44.9667 67.2384 48.3354 63.335 48.0251 58.8422C47.7147 54.3493 43.8412 50.9463 39.3457 51.2169ZM32.4183 51.6848C31.8512 53.7432 31.2841 55.8059 30.9571 57.9187C30.7165 59.4729 30.624 61.0527 30.5234 62.6213L31.5406 62.7833C31.3734 62.2991 31.2264 61.8156 31.1225 61.3135C30.7579 58.7901 31.1611 55.9919 32.7144 53.9138C33.311 53.1156 34.0035 52.5242 34.7651 51.894C33.9817 51.8342 33.2009 51.7533 32.4183 51.6848ZM77.8929 53.6033C77.6879 55.2128 77.54 56.8399 77.416 58.4578C77.2009 61.2657 75.6224 85.1903 76.0744 85.8939C76.1814 85.883 76.2797 85.8682 76.3839 85.8412C76.4562 85.673 76.6337 78.311 76.6644 77.4715C76.9124 72.1433 77.2154 66.8179 77.5735 61.496L78.0243 55.8021C78.0778 55.1257 78.1754 54.4425 78.2066 53.7667C78.1206 53.6375 78.0382 53.6334 77.8929 53.6033ZM47.0096 54.1105C48.4727 56.1461 49.0765 58.6092 48.6742 61.0946C48.4378 62.5552 47.8498 64.0891 46.779 65.1449C47.5383 65.3204 48.2931 65.4984 49.0414 65.7173C49.1735 65.7513 49.3152 65.8108 49.4489 65.7641C49.601 65.0599 49.6518 64.3132 49.7416 63.5979C49.8862 62.4596 50.0394 61.3225 50.2012 60.1867L50.6851 56.7965C50.7857 56.1339 50.9422 55.4452 50.9806 54.777C49.7389 54.4763 48.281 54.2698 47.0096 54.1105ZM76.298 54.7717L74.3303 76.8329C74.1104 79.1813 73.9118 81.5317 73.7342 83.8838C73.6519 84.9363 73.4684 86.0748 73.5194 87.1263L73.5698 87.1648C73.6765 87.1473 73.7748 87.1281 73.8786 87.096C73.9258 87.0039 74.3134 81.5872 74.3767 80.8512L75.8817 63.7531C76.0911 61.6068 76.2826 59.4587 76.4563 57.3092C76.5217 56.5181 76.6916 55.6504 76.6639 54.8622C76.5602 54.773 76.4282 54.7819 76.298 54.7717ZM51.8186 54.9111C51.5043 56.7629 51.2917 58.6307 51.0105 60.4879C50.818 61.7305 50.6455 62.9762 50.4929 64.2245C50.4179 64.8173 50.3057 65.4329 50.2887 66.0302L59.1351 68.5653C59.2477 68.5975 59.3575 68.6288 59.4697 68.5822L59.5148 68.4654C60.1014 64.4576 60.6564 60.4521 61.2907 56.4506C58.1267 55.9921 54.9848 55.3387 51.8186 54.9111ZM62.1356 56.6172L60.3247 68.8671C61.2426 69.2102 62.1866 69.4923 63.1179 69.7977L68.2972 71.5045L68.3652 71.4665L68.3947 71.3234L69.7764 62.4012C70.0072 60.9443 70.3573 59.4572 70.471 57.987C67.7156 57.3961 64.9234 57.0109 62.1356 56.6172ZM16.4637 59.9105C16.2526 62.6373 15.8728 65.5636 15.8869 68.2861C16.7743 68.5875 20.8414 69.9959 21.4651 70.0052C21.6076 67.21 21.8059 64.376 22.142 61.5973C21.0714 61.2612 19.9673 61.0416 18.8916 60.7213C18.0755 60.4783 17.2814 60.131 16.4637 59.9105ZM22.9399 61.7981C22.735 63.2437 22.6638 64.7217 22.5666 66.1781C22.4762 67.5352 22.3524 68.8979 22.3444 70.2583C24.6387 70.9184 26.975 71.4327 29.2861 72.0303L29.4141 72.0501C29.5446 71.8958 29.4292 70.6985 29.4173 70.4026C29.3751 69.3595 29.4242 68.3177 29.4586 67.2748C29.5023 65.9547 29.545 64.6306 29.665 63.3148C27.411 62.8442 25.1812 62.3243 22.9399 61.7981ZM30.521 63.488C30.4255 64.2228 30.4177 64.9757 30.38 65.7158C30.2662 67.9425 30.2777 70.0294 30.3589 72.2552C31.9371 72.6238 33.5245 72.9644 35.0967 73.3568L37.1763 73.8657C37.4135 73.9221 37.6288 74.0154 37.8739 74.0391C37.9294 73.9698 37.9178 74.0025 37.9298 73.9512C38.0825 72.0907 38.2777 70.2011 38.2981 68.3334C36.0058 67.8813 34.03 66.9812 32.6846 64.9673C32.4046 64.5481 32.1854 64.0859 31.8992 63.6725C31.4491 63.5645 30.9807 63.5346 30.521 63.488ZM46.0438 65.8839C43.964 67.6189 41.8428 68.482 39.0995 68.3924C39.0152 70.3638 38.8052 72.3329 38.7481 74.3047C40.3461 74.721 41.9812 75.1092 43.5567 75.6008C45.2729 76.0973 46.9898 76.6234 48.7192 77.0709C48.7751 73.5894 48.9915 70.1123 49.3676 66.6508C48.2934 66.3745 47.1468 65.9967 46.0438 65.8839ZM50.1734 66.8584C49.9427 69.1703 49.7728 71.488 49.664 73.8089C49.6087 74.9747 49.5309 76.1502 49.5382 77.3174C51.2556 77.8354 52.9832 78.3331 54.6878 78.8918C55.8242 79.2642 56.9618 79.7138 58.1106 80.0387C58.1794 80.0582 58.2332 80.0551 58.3023 80.0411C58.3502 79.9525 58.35 79.9272 58.3523 79.8301C58.388 78.7806 58.4972 77.7292 58.5913 76.6835C58.6879 75.5186 58.8007 74.3552 58.9297 73.1934C59.0747 71.981 59.2513 70.7669 59.3583 69.5505C57.9753 68.9331 56.3947 68.6103 54.9371 68.1925C53.3587 67.7402 51.7798 67.1996 50.1734 66.8584ZM60.2042 69.7291C59.8733 72.136 59.6028 74.5509 59.3928 76.9715C59.2921 78.08 59.1169 79.2763 59.1818 80.3886L64.739 82.4762C65.2273 82.6607 66.4078 83.1865 66.8435 83.2645C66.9304 83.201 66.9071 83.2424 66.9233 83.1465L67.7296 76.3728C67.8915 75.041 68.1265 73.6881 68.2159 72.3503C66.5585 71.8625 64.9162 71.2685 63.2769 70.7194C62.257 70.3778 61.2179 70.0858 60.2042 69.7291Z" fill="#2A2A2A"/>
<path d="M26.8459 13.3991C26.1996 15.4115 25.9497 17.3995 26.0762 19.5064C26.0906 19.747 26.3099 20.9203 26.2867 21.0167L26.2104 21.0145C25.8719 20.7966 25.7596 20.4758 25.6738 20.0973C25.0387 17.2935 25.8257 13.145 27.3625 10.714C27.7981 10.025 28.3281 9.46846 29.1474 9.28252C29.2513 9.27568 29.3555 9.27211 29.4595 9.27185C29.9295 9.27474 30.3867 9.51903 30.7017 9.85764C31.7742 11.0103 31.9466 14.6757 31.9079 16.266C31.7388 16.2542 31.5705 16.2293 31.4023 16.208C31.4108 14.9522 31.2074 12.3807 30.8249 11.215C30.6571 10.7035 30.3395 10.0972 29.8308 9.86287C29.5937 9.75365 29.3482 9.77331 29.1126 9.87662C28.0158 10.3578 27.2466 12.341 26.8459 13.3991Z" fill="#FEFEFE"/>
<path d="M27.1114 15.7283C27.3122 14.1961 28.1827 11.6024 29.4164 10.6199C29.5208 10.6484 29.6111 10.6739 29.6968 10.744C30.3373 11.2675 30.5017 15.2612 30.5449 16.1162C29.8992 16.0339 29.2512 15.9662 28.6045 15.8927C28.1099 15.8233 27.6078 15.7864 27.1114 15.7283Z" fill="#FEFEFE"/>
<path d="M34.5873 22.9714C34.1206 22.5671 33.9305 22.1015 33.8004 21.5088C33.2495 18.9974 33.7838 14.4756 35.2073 12.2916C35.5989 11.6905 36.1072 11.3097 36.816 11.1626C37.1921 11.1363 37.5281 11.2095 37.8136 11.4685C38.7101 12.2821 38.8879 14.1834 38.9425 15.3382C38.9612 15.7324 39.0815 16.8099 38.8313 17.0856C38.7411 17.1177 38.6881 17.1409 38.5905 17.1227C38.413 17.0896 38.4302 16.8455 38.4281 16.7011C38.4108 15.474 38.4802 13.241 37.8432 12.2121C37.7119 11.9997 37.5134 11.8284 37.2644 11.7752C36.9652 11.7113 36.5748 11.7424 36.3155 11.9165C35.2307 12.645 34.5524 15.3375 34.3283 16.5713C33.957 19.0338 34.0882 20.5191 34.5873 22.9714Z" fill="#FEFEFE"/>
<path d="M42.153 17.7904C41.8465 19.5377 41.8779 21.3277 42.2456 23.0632C42.3275 23.4437 42.4947 23.7916 42.5748 24.1681L42.5297 24.198C42.4831 24.1795 42.4592 24.172 42.4177 24.15C42.0492 23.9537 41.8724 23.267 41.7698 22.8902C40.9655 19.9348 41.4992 15.8982 43.0429 13.2379C43.4282 12.5739 43.8854 12.0693 44.6512 11.8631C44.7386 11.8569 44.8231 11.8545 44.9107 11.8587C45.4136 11.8831 45.8469 12.0729 46.1803 12.4557C47.2527 13.6872 47.0309 16.3539 46.9077 17.9L46.3714 17.8386C46.5272 16.5185 46.7152 14.3581 46.0241 13.1769C45.8456 12.8718 45.5791 12.5909 45.2208 12.5167C44.9096 12.4523 44.5887 12.5489 44.3306 12.7246C43.0904 13.5693 42.4467 16.3471 42.153 17.7904Z" fill="#FEFEFE"/>
<path d="M35.1663 16.6913C35.3373 15.3606 35.827 13.356 36.9272 12.4775C36.9917 12.5113 37.0507 12.5428 37.0974 12.6007C37.6162 13.2456 37.686 16.1754 37.5786 16.9852C37.1002 16.9576 36.6212 16.8869 36.1454 16.8311L35.1663 16.6913Z" fill="#FEFEFE"/>
<path d="M51.4253 18.6119C51.066 20.0381 50.998 21.5159 51.1281 22.9782C51.1504 23.2283 51.5599 24.9127 51.5471 24.9422C51.4965 24.9291 51.458 24.9222 51.4106 24.8942C51.1782 24.7565 51.0115 24.357 50.926 24.1064C50.0187 21.4464 50.7294 17.3192 51.9403 14.8262C52.4058 13.8681 53.0889 12.9663 54.1253 12.6079C54.1639 12.6074 54.2025 12.6064 54.2411 12.6082C54.7596 12.6319 55.2168 12.7901 55.5692 13.1888C56.5988 14.3532 56.22 17.2009 56.1154 18.6689C55.8991 18.6512 55.6835 18.6197 55.4681 18.5922C55.6429 17.3771 56.0092 15.1468 55.498 14.0296C55.3636 13.7361 55.1473 13.4992 54.8335 13.4005C54.5012 13.2958 54.1435 13.3544 53.843 13.5221C52.4809 14.2817 51.8086 17.1894 51.4253 18.6119Z" fill="#FEFEFE"/>
<path d="M43.0903 17.5031C43.0935 17.485 43.0963 17.4667 43.0997 17.4485C43.3224 16.26 43.8972 13.9961 44.8991 13.2972C44.9246 13.2985 44.9502 13.2984 44.9756 13.3008C45.1095 13.3136 45.1948 13.3551 45.2754 13.4628C45.847 14.2274 45.66 16.8246 45.5366 17.7764C45.057 17.7431 44.5754 17.6641 44.0983 17.6029C43.762 17.5585 43.4295 17.518 43.0903 17.5031Z" fill="#FEFEFE"/>
<path d="M61.1197 26.6478C60.4184 26.1342 60.1405 25.2793 59.9307 24.4665C59.2246 21.7306 59.8014 18.2719 61.2486 15.8542C61.7586 15.0021 62.3177 14.2677 63.3226 14.0139C63.44 14.011 63.5622 14.006 63.6794 14.0174C64.2692 14.0746 64.8333 14.3373 65.2068 14.8049C66.165 16.0048 65.8872 17.8671 65.7496 19.2813C65.626 19.2735 65.463 19.2837 65.3461 19.2501C65.1963 19.207 65.2213 19.015 65.2277 18.8877C65.2822 17.7899 65.5708 16.3298 64.9291 15.3421C64.7058 14.9984 64.3222 14.7317 63.9174 14.6558C63.5939 14.5951 63.2766 14.7008 63.0096 14.8812C61.6115 15.8258 60.628 19.091 60.3423 20.7136C59.992 23.214 60.4297 24.337 61.1197 26.6478Z" fill="#FEFEFE"/>
<path d="M52.3699 18.3006C52.4037 18.1494 52.4416 17.9992 52.4834 17.85C52.792 16.7223 53.3369 14.641 54.3951 14.0371C54.4827 14.0713 54.562 14.0867 54.6253 14.1591C55.1852 14.7999 54.7468 17.5956 54.6444 18.5157C54.1199 18.4898 53.5905 18.4239 53.0673 18.3755C52.8346 18.3668 52.601 18.3291 52.3699 18.3006Z" fill="#FEFEFE"/>
<path d="M70.2659 21.7889C70.1051 22.8426 70.3117 25.2386 70.8152 26.2017C71.1043 26.7549 71.5441 27.2326 71.8106 27.7863L71.7719 27.8451C71.5963 27.8307 71.4665 27.7643 71.3251 27.6625C70.3785 26.9806 69.9666 25.3121 69.8123 24.2168C69.3826 21.1631 69.8767 18.0357 71.7877 15.541C72.3328 14.8292 72.9414 14.283 73.8591 14.1617C74.3358 14.116 74.8162 14.1909 75.2564 14.3793C75.9615 14.682 76.4019 15.2071 76.6787 15.9146C76.99 16.711 77.0396 18.8802 76.6734 19.6452C76.6076 19.7828 76.5428 19.8193 76.4016 19.8649C76.3161 19.8379 76.2341 19.8251 76.187 19.7381C75.9129 19.2334 76.9026 17.0065 75.8887 15.686C75.5634 15.2625 75.0309 14.9623 74.4977 14.9118C73.9821 14.863 73.4958 15.0375 73.1052 15.3711C71.7375 16.5392 70.436 20.0458 70.2659 21.7889Z" fill="#FEFEFE"/>
<path d="M61.6233 18.9924C61.949 17.7792 62.6882 16.1773 63.6863 15.3896C63.8802 15.4415 64.0611 15.5678 64.1848 15.725C64.7326 16.4211 64.4325 18.3261 64.3583 19.1672C63.7472 19.1756 63.1297 19.0969 62.5196 19.0594C62.2208 19.044 61.9217 19.0155 61.6233 18.9924Z" fill="#FEFEFE"/>
<path d="M71.6311 19.621C71.941 18.7887 72.2654 17.9575 72.7284 17.1962C73.0542 16.6603 73.5385 15.911 74.1873 15.752C74.3076 15.7518 74.4324 15.7481 74.5521 15.7609C74.8125 15.7886 75.0385 15.9283 75.2011 16.1315C75.8189 16.9034 75.3894 18.8475 75.27 19.7692C74.5711 19.7698 73.858 19.7401 73.1604 19.6982C72.6509 19.667 72.1411 19.6413 71.6311 19.621Z" fill="#FEFEFE"/>
<path d="M19.4283 26.8431C19.5053 25.8258 19.9053 24.4524 20.1278 23.4289C20.6709 20.9317 21.1958 18.4079 21.8929 15.9484C22.8194 16.0139 23.7967 16.1048 24.7092 16.2758C24.5791 17.7066 24.4766 20.2826 25.4087 21.4289C25.6974 21.7841 26.1007 22.033 26.5623 22.0703C27.0586 22.1106 27.5805 21.9141 27.9532 21.5897C28.2924 21.2945 28.537 20.8726 28.5556 20.4171C28.5702 20.0568 28.4603 19.7155 28.205 19.4564C27.8305 19.0764 27.3706 18.9772 26.8619 18.9699C26.8552 18.1452 26.876 17.3463 26.9672 16.5257L32.8194 17.2663C32.7008 19.0119 32.5791 21.0156 33.3002 22.66C33.4937 23.1013 33.798 23.49 34.2631 23.6594C34.6856 23.8132 35.1638 23.7401 35.5645 23.5551C35.9781 23.364 36.303 23.029 36.446 22.593C36.5721 22.2082 36.5561 21.7839 36.3599 21.4252C36.079 20.9119 35.5477 20.6935 35.0173 20.5364C34.88 19.5511 34.9812 18.5137 35.0302 17.5222C36.9052 17.6875 38.7786 17.9292 40.651 18.1253C40.6227 18.7463 40.5634 19.3598 40.5747 19.9826C40.6001 21.375 40.7683 23.7434 41.8532 24.7436C42.1982 25.0616 42.6308 25.214 43.0989 25.1919C43.6362 25.1667 44.1656 24.9178 44.5133 24.505C44.7712 24.1988 44.9265 23.8129 44.8777 23.4091C44.8287 23.0055 44.5747 22.635 44.2565 22.391C43.8495 22.0789 43.4139 22.1151 42.9373 22.1822C42.7046 20.9129 42.768 19.5498 42.9252 18.2761C45.234 18.6123 47.5983 18.7241 49.9215 18.9599C49.7348 20.0538 49.6749 21.1656 49.743 22.2731C49.8178 23.3239 50.0354 24.8667 50.9049 25.5875C51.2977 25.9131 51.7992 26.0191 52.299 25.953C52.7963 25.8872 53.2801 25.6498 53.584 25.242C53.8012 24.9503 53.9146 24.5847 53.8583 24.2214C53.797 23.8253 53.5222 23.4277 53.1953 23.2011C52.845 22.9581 52.4452 22.9295 52.0378 23.0112L51.9808 23.0232C51.8323 21.736 51.8802 20.4338 52.1229 19.161L56.2501 19.4953C57.1675 19.5647 58.0939 19.5921 59.0064 19.7104C58.7901 21.2153 58.7565 22.753 59.0352 24.253C59.2297 25.3001 59.6423 26.6718 60.5866 27.2913C61.0498 27.595 61.5942 27.6515 62.1273 27.527C62.6417 27.4069 63.1335 27.1265 63.4101 26.664C63.6011 26.3447 63.6736 25.9679 63.5728 25.6062C63.4705 25.2391 63.1629 24.8828 62.8236 24.7128C62.3341 24.4674 61.8652 24.6518 61.388 24.8174C60.9912 23.0403 60.9438 21.5657 61.4236 19.8072C62.8782 19.9318 64.3431 20.0147 65.8008 20.0998C66.8459 20.1211 67.8972 20.2182 68.9421 20.2706C68.6376 22.1613 68.8053 24.5243 69.4833 26.3166C69.8234 27.2159 70.3409 28.1885 71.2736 28.5826C71.7753 28.7945 72.33 28.7885 72.8326 28.5835C73.2501 28.4132 73.6285 28.0968 73.7949 27.669C73.9391 27.2982 73.9063 26.9002 73.7274 26.5478C73.5369 26.1724 73.1936 25.9041 72.7969 25.774C72.3564 25.6296 71.9918 25.7458 71.5986 25.9483C70.9146 24.1778 70.8418 22.2297 71.3914 20.4131C72.2143 20.499 73.0415 20.5176 73.8677 20.5539C75.378 20.6288 76.8897 20.6704 78.4018 20.6785C79.3182 20.6874 80.2454 20.6386 81.1596 20.701C81.1139 21.4147 80.9227 22.1353 80.7639 22.8306C80.5295 23.8571 80.2761 24.8813 80.0556 25.9107C79.4174 28.9042 78.8561 31.9136 78.3726 34.936C74.8369 34.2358 71.4498 33.5868 67.8733 33.0635C65.119 32.6604 62.3487 32.3814 59.5896 32.0169C56.7517 31.642 53.9251 31.1942 51.0812 30.8584C48.5577 30.5604 46.0175 30.4342 43.4947 30.1131C38.5903 29.489 33.7453 28.541 28.8607 27.8016C26.7599 27.4836 24.6171 27.3293 22.499 27.1491C21.4835 27.0628 20.4259 27.0531 19.4283 26.8431Z" fill="#FEFEFE"/>
<path d="M81.2572 83.1352C81.1656 83.1693 81.0724 83.1947 80.9786 83.2213C80.8625 82.8919 80.9028 82.2074 80.8846 81.8281C80.798 80.0208 80.757 78.2128 80.6901 76.4049C80.3516 66.5464 80.2987 56.68 80.5317 46.8184L80.8834 33.6141L81.0023 29.2866C81.0247 28.4194 81.0772 27.5319 81.0393 26.6658C81.034 26.5441 81.011 26.4605 80.9539 26.3537C80.9089 26.2694 80.8738 26.1814 80.8362 26.0936C80.8354 25.9369 80.9318 25.833 81.018 25.7105C81.1799 25.7007 81.2755 25.7074 81.4126 25.7974C81.5102 25.9308 81.52 26.0625 81.5328 26.2248C81.6052 27.1464 81.5268 28.1089 81.493 29.034L81.344 33.4375L81.0536 42.2156C80.8569 50.3627 80.7904 58.5124 80.8545 66.6615C80.919 70.3454 81.0171 74.0286 81.1489 77.7108L81.296 81.3925C81.3154 81.8645 81.3724 82.3512 81.3708 82.8209C81.3702 82.9738 81.3613 83.0232 81.2572 83.1352Z" fill="#FEFEFE"/>
<path d="M13.9571 70.9683C13.9562 69.7002 14.0336 68.422 14.0811 67.1546C14.2259 62.8812 14.5472 58.6156 15.044 54.3687C15.9364 46.1136 17.1941 37.9023 18.8136 29.7587C19.3353 29.7854 19.8562 29.8223 20.3764 29.8696C20.082 31.6519 19.6479 33.4263 19.2881 35.1985C18.8657 37.359 18.4665 39.5239 18.0905 41.6929C16.6828 49.5012 15.7006 57.3801 15.1484 65.295C15.1142 65.8427 14.8853 68.3894 15.0282 68.7085C15.1142 68.9003 15.2835 68.9616 15.4648 69.0408C16.7801 69.6144 18.2455 69.957 19.6204 70.3722C24.8588 71.9542 30.1924 73.0513 35.5054 74.3345C43.1907 76.2552 50.7961 78.4823 58.3034 81.0107C60.2464 81.6651 62.1738 82.3649 64.0839 83.1094C65.0675 83.4871 66.063 83.9644 67.0712 84.2612C67.2219 84.3055 67.4087 84.3484 67.556 84.2658C67.7928 84.1331 67.8089 83.6697 67.8334 83.4213C67.9867 81.8651 68.1096 80.305 68.2936 78.7519C69.1181 72.2209 70.0757 65.7075 71.1656 59.2156C72.3031 51.8833 73.5178 44.5632 74.8097 37.2565C75.8544 37.3979 76.8424 37.4848 77.8961 37.5176C77.7401 38.405 77.634 39.3055 77.508 40.1978C77.1501 42.3357 76.9495 44.5094 76.6668 46.6593C76.1635 50.3687 75.6404 54.0753 75.0975 57.7791C73.8895 65.4962 72.738 73.2219 71.643 80.9557C71.3459 83.3471 71.0708 85.7412 70.8176 88.1375C67.5247 87.2077 64.2697 86.0943 61.0249 85.0091C57.3848 83.8218 53.752 82.6129 50.1265 81.3821C45.448 79.8309 40.7525 78.331 36.0412 76.8827C34.2533 76.3301 32.4712 75.7393 30.6742 75.2187C25.1438 73.6418 19.5692 72.2244 13.9571 70.9683Z" fill="#FEFEFE"/>
<path d="M19.4379 39.0575C19.9567 36.0027 20.6123 32.967 21.2339 29.9318C22.0666 29.9364 22.9174 30.0606 23.7454 30.1495C25.2665 30.3071 26.7844 30.4948 28.2981 30.7125C28.0566 31.6409 27.8725 32.5935 27.6626 33.5301L26.2157 40.0584C26.1986 40.1604 26.184 40.2182 26.1231 40.3026C25.3716 40.2534 24.5784 40.0423 23.8349 39.9091C22.3696 39.6466 20.8816 39.4229 19.4379 39.0575ZM25.331 32.5271C24.9171 32.681 23.6224 33.2716 23.4514 33.676C23.4251 33.738 23.4278 33.7449 23.4211 33.8037C23.472 33.8848 23.4551 33.8847 23.5536 33.9199C23.9441 33.6971 24.9338 32.8073 25.3926 32.8913C25.4103 32.8945 25.4269 32.9023 25.444 32.9078C25.4906 33.0146 25.4493 33.1126 25.4218 33.2198C25.316 33.6223 24.8374 35.0383 25.0492 35.387C25.0624 35.4085 25.0775 35.4157 25.0968 35.4275L25.2116 35.3679C25.3358 34.9147 25.8143 32.9929 25.7707 32.642C25.6258 32.5166 25.519 32.5213 25.331 32.5271Z" fill="#FEFEFE"/>
<path d="M26.9763 40.4848C27.2128 39.0524 27.5855 37.6293 27.9193 36.2163L29.1312 30.8865C31.7376 31.1848 34.3372 31.5409 36.9279 31.9545C36.1089 35.0866 35.256 38.2097 34.3693 41.3233C34.3393 41.4384 34.3099 41.5271 34.2522 41.6327C33.9278 41.7626 27.9348 40.6388 26.9763 40.4848Z" fill="#FEFEFE"/>
<path d="M35.1101 41.8215C36.0285 38.5895 36.8086 35.317 37.7479 32.0897C38.735 32.121 39.746 32.3028 40.7254 32.4367C42.5682 32.6886 44.4272 32.959 46.2531 33.3142C45.9991 34.2353 43.8903 42.939 43.8836 42.9475C43.8401 43.0028 43.7447 42.9877 43.6792 42.9936C40.8278 42.6029 37.9362 42.3769 35.1101 41.8215Z" fill="#FEFEFE"/>
<path d="M25.4218 33.2197C25.4493 33.1126 25.4906 33.0146 25.444 32.9077C25.4269 32.9023 25.4103 32.8945 25.3926 32.8912C24.9338 32.8072 23.9441 33.6971 23.5536 33.9199C23.4551 33.8847 23.472 33.8848 23.4211 33.8037C23.4278 33.7449 23.4251 33.738 23.4514 33.676C23.6224 33.2716 24.9171 32.6809 25.331 32.5271C25.519 32.5213 25.6258 32.5166 25.7707 32.6419C25.8143 32.9929 25.3358 34.9146 25.2116 35.3679L25.0968 35.4274C25.0775 35.4156 25.0624 35.4085 25.0492 35.3869C24.8374 35.0383 25.316 33.6223 25.4218 33.2197Z" fill="#2A2A2A"/>
<path d="M44.738 43.1193C44.9245 41.8811 45.2824 40.6212 45.5799 39.4037C46.06 37.4126 46.5536 35.4248 47.0605 33.4404C48.7204 33.6331 50.3742 33.9056 52.0277 34.1482C52.9802 34.2879 53.9385 34.3874 54.8892 34.5373C54.3807 36.7097 53.9276 38.8947 53.5304 41.0902L53.1279 43.2146C53.0805 43.4692 53.0745 43.771 52.9786 44.0098C52.8497 44.1023 52.8006 44.076 52.6458 44.0668C50.0146 43.7104 47.3694 43.4696 44.738 43.1193Z" fill="#FEFEFE"/>
<path d="M53.7861 44.1783C54.2311 41.7147 54.7045 39.2564 55.2062 36.8037C55.3483 36.0754 55.5421 35.3547 55.6643 34.6237C56.2095 34.6394 56.7732 34.7413 57.3169 34.8031C58.3227 34.9074 59.3272 35.0231 60.3303 35.1503C61.8243 35.3409 63.346 35.466 64.828 35.7267C64.4771 37.1257 64.2304 38.5426 63.9746 39.9609C63.6281 41.842 63.3067 43.7276 63.0105 45.6173C61.6356 45.5079 60.2308 45.2249 58.8646 45.0156C57.1768 44.7571 55.4518 44.5531 53.7861 44.1783Z" fill="#FEFEFE"/>
<path d="M63.8307 45.756C64.4185 42.429 64.9635 39.0946 65.4658 35.7537C68.3079 36.0112 71.2106 36.3854 73.9735 37.105C73.3189 40.3857 72.8138 43.6852 72.2545 46.9825C71.9627 47.0463 64.8105 45.8881 63.8307 45.756Z" fill="#FEFEFE"/>
<path d="M17.9336 48.4238C17.9837 47.6668 18.1044 46.9062 18.2096 46.1554C18.5097 44.0128 18.9273 41.8975 19.3044 39.7687C20.274 40.104 21.2301 40.268 22.2343 40.4561L25.9467 41.1253C25.768 42.4159 25.4618 43.6973 25.1895 44.9709L24.2698 49.34C24.2405 49.4575 24.2576 49.4885 24.1567 49.5634C23.5035 49.5099 22.8464 49.3661 22.1997 49.2553C20.7712 49.0119 19.3488 48.7346 17.9336 48.4238ZM22.394 43.2485C21.7478 43.5068 20.7953 44.272 20.5161 44.9204C20.4173 45.15 20.3883 45.4113 20.4838 45.6473C20.5638 45.8448 20.7097 45.9945 20.9133 46.0629C21.3306 46.2029 21.9095 46.0242 22.2836 45.8222C22.3558 45.7826 22.426 45.7395 22.4942 45.6933C22.5498 45.5888 22.5609 45.5819 22.5422 45.4665C22.4433 45.4113 22.4365 45.428 22.3321 45.4558C21.8944 45.5725 21.2229 45.9262 20.7873 45.6516C20.7288 45.6146 20.6903 45.5486 20.6751 45.4812C20.6136 45.2086 20.8128 44.9212 20.9774 44.7289C21.3947 44.2416 22.2204 43.8152 22.5126 43.4047L22.4992 43.3058L22.394 43.2485Z" fill="#FEFEFE"/>
<path d="M25.0447 49.6986C25.6446 46.8917 26.1727 44.0739 26.7943 41.2703C27.4453 41.3352 28.114 41.4986 28.7627 41.6058L34.0553 42.5189C33.2891 45.1128 32.5842 47.7491 31.9197 50.3707L31.8195 50.7673C29.564 50.3885 27.2991 50.0965 25.0447 49.6986ZM29.6468 44.5236C29.3384 44.6456 28.7953 44.8591 28.688 45.2072C28.6581 45.3038 28.6916 45.3829 28.7607 45.4529C29.0626 45.7592 29.6135 45.6859 29.8538 46.0931C29.8966 46.4669 29.6012 46.8347 29.3808 47.1151C29.1894 47.3587 28.9787 47.5892 28.773 47.8207C28.8604 47.9108 28.8845 47.9785 29.0153 47.983C29.73 47.4701 30.3853 46.3543 30.5413 45.4882C30.584 45.2512 30.589 44.9683 30.4425 44.7631C30.3353 44.613 30.1629 44.5333 29.9827 44.5156C29.8696 44.5045 29.7592 44.5066 29.6468 44.5236Z" fill="#FEFEFE"/>
<path d="M32.6609 50.8823C33.3412 48.1165 34.0753 45.3643 34.8629 42.6271C35.7305 42.7141 36.6045 42.8769 37.4692 42.9965C39.5528 43.289 41.6389 43.5637 43.7271 43.8209L42.4076 50.725C41.9069 50.5691 41.4056 50.4651 40.8861 50.3945C39.575 50.2129 38.2393 50.348 36.991 50.7887C36.6531 50.9049 36.2943 51.1446 35.9402 51.188C35.3487 51.2605 33.3669 50.947 32.6609 50.8823ZM36.7362 45.3424C36.6906 45.3847 36.6582 45.4127 36.6305 45.4695C36.5064 45.7229 35.8599 48.0264 35.8451 48.3002C35.8391 48.4118 35.8508 48.4666 35.919 48.5569C35.9303 48.5719 35.9452 48.5839 35.9584 48.5975C36.0127 48.5445 36.0588 48.5033 36.0908 48.4326C36.2638 48.0514 36.8808 45.9964 36.8793 45.6221C36.8788 45.5093 36.863 45.442 36.7747 45.3695C36.7625 45.3595 36.749 45.3514 36.7362 45.3424ZM38.3628 45.9351C38.1207 46.0049 37.982 46.0696 37.838 46.2812L37.8406 46.3527C38.2489 46.5042 38.6555 46.1031 39.0543 46.409C39.0981 46.5319 39.1069 46.5558 39.0451 46.6815C38.7852 47.2102 37.4152 47.6759 37.2501 48.2782C37.3021 48.3842 37.355 48.4204 37.4655 48.4648C37.799 48.599 38.2151 48.5778 38.5672 48.6485C38.8071 48.6914 39.1275 48.7893 39.3427 48.6397C39.3826 48.5386 39.3837 48.5308 39.358 48.4252C39.0989 48.2391 38.2261 48.2984 37.8475 48.2227L37.7859 48.2108C37.7735 48.2084 37.7613 48.2057 37.749 48.203C37.8897 48.0304 38.0298 47.8643 38.2021 47.7216C38.539 47.4427 39.5365 46.9559 39.4215 46.4369C39.3836 46.2656 39.194 46.1333 39.047 46.0587C38.8412 45.9543 38.5911 45.9228 38.3628 45.9351Z" fill="#FEFEFE"/>
<path d="M22.4942 45.6932C22.426 45.7394 22.3558 45.7825 22.2836 45.8221C21.9095 46.0242 21.3306 46.2029 20.9133 46.0628C20.7097 45.9944 20.5638 45.8447 20.4838 45.6472C20.3883 45.4112 20.4173 45.1499 20.5161 44.9204C20.7953 44.2719 21.7478 43.5067 22.394 43.2484L22.4992 43.3057L22.5126 43.4046C22.2204 43.8151 21.3947 44.2415 20.9774 44.7288C20.8128 44.9211 20.6136 45.2085 20.6751 45.4812C20.6903 45.5486 20.7288 45.6146 20.7874 45.6515C21.2229 45.9261 21.8944 45.5724 22.3321 45.4558C22.4365 45.4279 22.4433 45.4112 22.5422 45.4664C22.5609 45.5819 22.5499 45.5887 22.4942 45.6932Z" fill="#2A2A2A"/>
<path d="M43.1999 50.9953C43.2806 50.1712 43.4717 49.3352 43.6205 48.5211C43.9012 46.9859 44.1862 45.4284 44.6012 43.9229L52.8109 44.8868C52.5975 46.2472 52.2781 47.5975 52.0308 48.9532C51.7371 50.5634 51.5052 52.1904 51.1607 53.7902C51.1505 53.8322 51.1223 53.8749 51.1025 53.9133C50.8205 53.9636 49.8095 53.7105 49.4463 53.6556C48.6384 53.5333 46.9443 53.3909 46.2435 53.0749C45.9866 52.9591 45.3758 52.3045 45.0763 52.0844C44.4896 51.6535 43.8455 51.3269 43.1999 50.9953Z" fill="#FEFEFE"/>
<path d="M28.773 47.8206C28.9787 47.5891 29.1895 47.3586 29.3808 47.115C29.6012 46.8346 29.8966 46.4668 29.8539 46.0931C29.6135 45.6858 29.0626 45.7591 28.7607 45.4528C28.6916 45.3828 28.6582 45.3037 28.688 45.2071C28.7953 44.859 29.3384 44.6456 29.6469 44.5235C29.7593 44.5065 29.8696 44.5045 29.9828 44.5155C30.163 44.5333 30.3354 44.6129 30.4425 44.763C30.5891 44.9682 30.584 45.2511 30.5413 45.4881C30.3853 46.3543 29.73 47.4701 29.0154 47.983C28.8846 47.9784 28.8604 47.9107 28.773 47.8206ZM29.7512 44.8038C29.5441 44.9046 29.3238 44.9904 29.1611 45.1572L29.1506 45.259C29.246 45.3716 29.3169 45.3984 29.453 45.4509C29.5572 45.4911 29.6546 45.5435 29.7534 45.5956C29.8752 45.6796 29.9188 45.7414 30.0695 45.7307C30.1882 45.6276 30.2618 45.5375 30.2785 45.3749C30.2929 45.2334 30.2581 45.0582 30.1683 44.9449C30.0577 44.8052 29.9118 44.8047 29.7512 44.8038Z" fill="#2A2A2A"/>
<path d="M29.7534 45.5956C29.6546 45.5435 29.5572 45.4911 29.453 45.4509C29.3169 45.3984 29.246 45.3716 29.1506 45.259L29.1611 45.1572C29.3238 44.9904 29.5441 44.9046 29.7512 44.8038C29.9118 44.8047 30.0577 44.8052 30.1683 44.9449C30.2581 45.0582 30.2929 45.2334 30.2784 45.375C30.2618 45.5375 30.1882 45.6276 30.0695 45.7307C29.9188 45.7414 29.8752 45.6796 29.7534 45.5956Z" fill="#FEFEFE"/>
<path d="M51.9606 54.1054C52.4289 51.0661 53.0452 48.046 53.6141 45.0239C55.1274 45.2106 56.6374 45.5025 58.1466 45.7259C59.7191 45.9586 61.3244 46.1244 62.8809 46.4422C62.4676 48.5905 62.1543 50.7675 61.8166 52.9292C61.7066 53.6329 61.5926 54.9802 61.394 55.5839L61.3345 55.612L55.8012 54.7373C54.5202 54.5257 53.2492 54.2724 51.9606 54.1054ZM56.1366 48.5187C55.7756 49.1631 54.8887 50.6999 55.029 51.4165C55.1034 51.4967 55.1277 51.5046 55.2328 51.5391C55.4704 50.7023 55.7509 49.9331 56.1292 49.1479C56.2066 48.9871 56.3655 48.7821 56.3157 48.6108C56.2567 48.5789 56.1987 48.5443 56.1366 48.5187ZM58.252 49.1301C57.9724 49.1693 57.6555 49.1968 57.4386 49.396L57.4103 49.4951C57.5156 49.576 57.5889 49.5602 57.716 49.5443C58.0949 49.4967 58.6468 49.2881 59.0062 49.504C59.0997 49.5601 59.1628 49.6623 59.1754 49.7706C59.1893 49.8891 59.1341 49.9925 59.0534 50.0744C58.851 50.2796 58.089 50.4529 58.021 50.634C58.2863 50.8327 58.5762 50.863 58.7279 51.1898C58.7243 51.3218 58.7256 51.3622 58.6338 51.4677C58.456 51.6722 57.961 51.751 57.7078 51.7315C57.6598 51.7277 57.612 51.7225 57.5643 51.7162L57.5168 51.669C57.4112 51.5659 57.3376 51.476 57.1867 51.4469L57.0981 51.4876C57.097 51.6077 57.122 51.6634 57.2047 51.7536C57.3714 51.9355 57.6315 52.0236 57.8736 52.0187C58.2263 52.0117 58.6136 51.8644 58.8507 51.5965C58.9705 51.4613 59.0712 51.2487 59.0409 51.0633C59.0057 50.8486 58.8816 50.7376 58.7341 50.5908C59.0411 50.3707 59.3711 50.182 59.4388 49.7756C59.4607 49.6448 59.4305 49.5069 59.3457 49.4032C59.1597 49.1758 58.7515 49.1173 58.4762 49.1172C58.401 49.1171 58.3269 49.1237 58.252 49.1301Z" fill="#FEFEFE"/>
<path d="M35.9584 48.5975C35.9453 48.5839 35.9303 48.5718 35.919 48.5568C35.8508 48.4665 35.8391 48.4118 35.8451 48.3001C35.8599 48.0264 36.5064 45.7228 36.6305 45.4694C36.6582 45.4126 36.6907 45.3847 36.7362 45.3424C36.7491 45.3514 36.7626 45.3595 36.7748 45.3694C36.8631 45.442 36.8788 45.5093 36.8793 45.6221C36.8808 45.9963 36.2638 48.0514 36.0908 48.4326C36.0588 48.5033 36.0128 48.5444 35.9584 48.5975Z" fill="#2A2A2A"/>
<path d="M38.5672 48.6486C38.2151 48.5778 37.799 48.5991 37.4655 48.4648C37.3549 48.4204 37.3021 48.3842 37.2501 48.2783C37.4152 47.6759 38.7852 47.2103 39.0451 46.6815C39.1068 46.5558 39.0981 46.532 39.0542 46.4091C38.6555 46.1032 38.2488 46.5042 37.8406 46.3527L37.8379 46.2812C37.982 46.0696 38.1207 46.0049 38.3627 45.9352C38.5911 45.9228 38.8412 45.9543 39.047 46.0587C39.194 46.1333 39.3836 46.2656 39.4215 46.4369C39.5365 46.9559 38.539 47.4428 38.2021 47.7217C38.0297 47.8643 37.8897 48.0305 37.749 48.2031C37.7612 48.2057 37.7735 48.2084 37.7859 48.2108L37.8475 48.2228C38.2261 48.2984 39.0989 48.2392 39.358 48.4253C39.3837 48.5308 39.3826 48.5386 39.3427 48.6398C39.1275 48.7893 38.8071 48.6914 38.5672 48.6486Z" fill="#2A2A2A"/>
<path d="M62.2815 55.7688C62.3182 55.2114 62.427 54.6582 62.5124 54.1067L62.9605 51.2178C63.1987 49.6833 63.3452 48.0771 63.6929 46.5654C64.1664 46.6122 64.6434 46.7174 65.1144 46.7897L68.0318 47.2249C69.372 47.4216 70.8 47.5118 72.109 47.8581C71.8363 49.8172 71.5019 51.7631 71.1836 53.7146C70.9964 54.8625 70.8612 56.0295 70.6118 57.1656C70.4572 57.2408 69.4577 56.9891 69.2354 56.945C66.928 56.4925 64.6093 56.1004 62.2815 55.7688ZM65.904 51.0605C65.579 51.3588 65.0514 53.0853 65.0053 53.5623C65.0613 53.681 65.1136 53.6762 65.228 53.7266C65.3191 53.5526 66.0675 51.376 66.0649 51.2196C66.0143 51.1491 65.9783 51.1059 65.904 51.0605ZM67.8591 51.1136C67.2226 51.7503 66.2708 52.6513 66.2429 53.6165C66.236 53.856 66.3156 54.0821 66.4895 54.2502C66.6478 54.4032 66.8654 54.4432 67.0786 54.4247C67.2329 54.4113 67.3732 54.3684 67.5154 54.3098C67.7561 54.1405 67.9698 53.9509 68.0332 53.6492C68.0687 53.48 68.0236 53.3017 67.92 53.1644C67.7807 52.9796 67.5232 52.841 67.2939 52.8164C67.1387 52.7997 66.9742 52.8131 66.8182 52.8195C67.1406 52.2996 67.6293 51.8914 67.9367 51.3835C67.9856 51.3025 67.9858 51.2934 67.9765 51.1945L67.8591 51.1136Z" fill="#FEFEFE"/>
<path d="M55.2328 51.539C55.1277 51.5045 55.1035 51.4966 55.029 51.4164C54.8887 50.6999 55.7756 49.163 56.1366 48.5187C56.1987 48.5443 56.2567 48.5789 56.3157 48.6107C56.3655 48.782 56.2066 48.9871 56.1292 49.1478C55.7509 49.9331 55.4704 50.7022 55.2328 51.539Z" fill="#2A2A2A"/>
<path d="M78.8665 84.5149C78.7729 84.5611 78.6837 84.5976 78.5844 84.6296L78.5312 84.595C78.425 83.7122 78.5075 82.7452 78.5079 81.8516L78.5097 76.1315C78.4731 70.2179 78.5715 64.3043 78.8048 58.3953C78.9044 55.2415 78.9336 52.0452 79.1933 48.9008C79.3324 48.916 79.4511 48.9161 79.5634 49.0098C79.6506 49.1989 79.3276 54.4538 79.2993 55.1934C79.0728 61.7609 78.936 68.3311 78.889 74.9022L78.8726 81.5474C78.875 82.2632 78.9702 83.943 78.8665 84.5149Z" fill="#FEFEFE"/>
<path d="M57.5643 51.7161C57.612 51.7225 57.6598 51.7277 57.7078 51.7314C57.961 51.751 58.456 51.6722 58.6338 51.4677C58.7256 51.3621 58.7242 51.3217 58.7279 51.1897C58.5762 50.863 58.2862 50.8326 58.021 50.634C58.089 50.4528 58.851 50.2796 59.0534 50.0744C59.1341 49.9924 59.1892 49.889 59.1754 49.7705C59.1628 49.6623 59.0997 49.5601 59.0061 49.5039C58.6468 49.2881 58.0949 49.4967 57.716 49.5442C57.5889 49.5602 57.5156 49.5759 57.4102 49.4951L57.4385 49.3959C57.6555 49.1968 57.9724 49.1692 58.252 49.13C58.3269 49.1237 58.401 49.1171 58.4762 49.1172C58.7515 49.1173 59.1597 49.1758 59.3457 49.4031C59.4305 49.5068 59.4606 49.6447 59.4388 49.7756C59.3711 50.182 59.0411 50.3706 58.7341 50.5908C58.8816 50.7376 59.0057 50.8486 59.0408 51.0633C59.0712 51.2487 58.9705 51.4612 58.8507 51.5965C58.6136 51.8643 58.2262 52.0116 57.8736 52.0187C57.6315 52.0235 57.3714 51.9354 57.2046 51.7535C57.122 51.6633 57.097 51.6077 57.0981 51.4876L57.1866 51.4469C57.3376 51.4759 57.4112 51.5658 57.5167 51.669L57.5643 51.7161Z" fill="#2A2A2A"/>
<path d="M16.5471 59.0968C16.9678 55.8026 17.1873 52.4852 17.778 49.2119C19.0178 49.4729 20.2605 49.7198 21.5058 49.9527C22.3555 50.1033 23.2251 50.2051 24.0639 50.4055C23.7913 52.0183 23.4261 53.62 23.1245 55.2283C22.8251 56.8738 22.5578 58.5249 22.3228 60.1808L22.228 60.7974C20.3073 60.2875 18.4204 59.7646 16.5471 59.0968ZM18.8894 53.9974C18.7824 54.5369 18.2588 57.1377 18.4823 57.4883L18.6339 57.5473C18.7892 57.1141 18.7831 56.5595 18.8431 56.1009L19.122 54.1203C19.0429 54.0339 19.0035 54.0314 18.8894 53.9974ZM21.4437 54.1191C20.7294 54.4777 20.0041 55.2288 19.7518 55.9964C19.6445 56.3228 19.6263 56.6913 19.7987 56.9998C19.9053 57.1909 20.0646 57.3326 20.2795 57.3857C20.6109 57.4675 21.048 57.3219 21.3263 57.1429C21.382 57.1071 21.4352 57.0691 21.4883 57.0297C21.5122 56.9032 21.5175 56.8732 21.4783 56.7518C21.2212 56.6768 20.2822 57.3877 19.9683 56.8569C19.8522 56.6604 19.9178 56.3671 19.9801 56.1633C20.2712 55.2107 21.5217 54.4794 21.5821 54.2407C21.536 54.1931 21.4991 54.1561 21.4437 54.1191Z" fill="#FEFEFE"/>
<path d="M23.0408 60.9421C23.1161 59.8318 23.3448 58.6923 23.5289 57.5926C23.9279 55.2095 24.3941 52.8492 24.8743 50.4813C25.5904 50.6487 26.3393 50.735 27.0654 50.8549C28.5759 51.1152 30.0902 51.3535 31.6076 51.5698C30.5186 55.1039 29.8773 58.7607 29.6988 62.4544C29.2247 62.5392 23.9256 61.2149 23.0408 60.9421ZM26.1297 55.5054C26.045 55.5793 25.9557 55.6568 25.9139 55.7641C25.8168 56.013 25.4964 58.4006 25.4781 58.7185C25.4747 58.7768 25.4833 58.8249 25.493 58.8821L25.5895 58.9221C25.6663 58.854 25.7747 58.7716 25.809 58.6721C25.9961 58.1279 25.949 57.1275 26.0537 56.5145C26.101 56.2372 26.2461 55.9706 26.2901 55.6976C26.298 55.6485 26.2936 55.6291 26.2885 55.5848C26.2319 55.5477 26.1952 55.5275 26.1297 55.5054ZM27.9643 55.8746C27.6432 55.9461 27.3618 56.0618 27.185 56.3566C27.0702 56.5481 26.9863 56.7993 26.9674 57.0209C27.0306 57.1112 27.033 57.1075 27.1363 57.1279C27.6537 57.2305 28.0253 57.1194 28.3933 57.6436C28.4927 57.7854 28.5385 57.9665 28.5039 58.1374C28.4622 58.3433 28.3194 58.5195 28.1455 58.6307C27.9907 58.7297 27.8061 58.7803 27.6309 58.8311C27.3377 58.7624 26.7202 58.4735 26.4686 58.5651C26.5243 58.7334 26.7599 58.8772 26.9143 58.9497C27.2863 59.124 27.6653 59.1051 28.039 58.9619C28.3299 58.8313 28.583 58.7242 28.6997 58.4047C28.7935 58.1479 28.8284 57.8546 28.6973 57.6038C28.3956 57.0265 27.3848 56.9122 27.371 56.6154C27.5002 56.4125 27.7134 56.2554 27.9505 56.2034C28.1951 56.1496 28.3671 56.1937 28.575 56.33C28.8207 56.4913 29.0151 56.7389 29.2082 56.9573L29.2791 56.9248C29.3155 56.7713 29.2702 56.6516 29.1903 56.5201C28.9976 56.2036 28.7094 55.9651 28.3374 55.8987C28.2154 55.8768 28.0881 55.8742 27.9643 55.8746Z" fill="#FEFEFE"/>
<path d="M40.4768 67.5884C35.9304 67.9429 31.9672 64.5225 31.6529 59.9732C31.3386 55.4238 34.7938 51.491 39.3458 51.2169C43.8412 50.9462 47.7147 54.3492 48.0251 58.8421C48.3354 63.3349 44.9667 67.2384 40.4768 67.5884ZM40.7861 52.2228C40.5543 52.6725 40.2748 54.2113 40.2882 54.7302C40.3467 54.8467 40.347 54.8562 40.4771 54.8936C40.5081 54.9024 40.5408 54.9065 40.5726 54.9113C40.703 54.56 41.0393 52.7895 41.0317 52.3954C40.9557 52.2937 40.899 52.271 40.7861 52.2228ZM35.8348 53.0743C35.7841 53.2008 35.7618 53.2476 35.8208 53.3753C35.952 53.6592 36.3958 54.461 36.6944 54.5474C36.7164 54.5538 36.7389 54.5586 36.7611 54.5641C36.8199 54.2206 36.4956 53.813 36.2993 53.5361C36.1807 53.3687 36.0483 53.1167 35.8348 53.0743ZM45.6055 54.5921C45.1594 54.8342 44.5402 55.1793 44.2654 55.6157L44.2509 55.7453C44.3262 55.8307 44.2834 55.8039 44.3713 55.8372C44.7234 55.6188 45.5011 55.1135 45.672 54.7547C45.6623 54.6602 45.6763 54.6685 45.6055 54.5921ZM37.9127 56.9238C37.8104 57.1611 37.8111 57.3053 37.9022 57.5492C38.0493 57.9431 38.3542 58.2942 38.4696 58.6925C38.553 58.9808 38.4046 59.3092 38.586 59.5691C38.877 59.9858 39.4239 60.2507 39.7857 60.6086C40.8865 61.698 41.9311 62.8465 43.0088 63.9591C43.2421 64.2 43.5576 64.6411 43.8553 64.7841C43.9132 64.8118 43.9163 64.8095 43.9703 64.8192L44.0304 64.7611C44.0158 64.6646 43.9948 64.6016 43.9482 64.5156C43.1133 63.5194 42.5079 62.4202 41.8272 61.3211C41.3094 60.4849 40.7554 59.672 40.2354 58.8378C40.3543 58.603 40.4964 58.2587 40.4245 57.989C40.399 57.8933 40.3336 57.8334 40.2404 57.8026C39.847 57.6726 39.454 58.0959 39.0981 58.0252C38.8018 57.9664 38.4259 57.1095 37.9127 56.9238ZM33.0143 58.253C33.0013 58.3904 32.9842 58.4262 33.0539 58.5494C33.4656 58.7858 34.4893 58.7373 34.9717 58.6855L34.994 58.4946C34.9033 58.3865 34.7625 58.3714 34.629 58.3588C34.1266 58.3118 33.63 58.351 33.1286 58.2712L33.0571 58.2602L33.0143 58.253ZM45.2197 59.7161C45.1801 59.8402 45.1619 59.853 45.2094 59.972C45.3736 60.0717 46.9326 60.2898 47.2087 60.2947L47.2425 60.1069C46.9969 59.7995 46.1404 59.7751 45.753 59.7315C45.5715 59.7111 45.4027 59.7002 45.2197 59.7161ZM35.2467 62.2683C34.9596 62.4915 34.1423 63.0099 34.0734 63.3475C34.0694 63.3673 34.0693 63.3878 34.0672 63.4079L34.1286 63.4823L34.2411 63.4353C34.5999 63.197 35.2522 62.8694 35.4551 62.4885L35.4421 62.3836C35.3737 62.3328 35.3271 62.2995 35.2467 62.2683ZM39.3405 63.9508C39.0279 64.3807 38.3904 65.4139 38.4105 65.9412C38.4567 66.0249 38.4703 66.0442 38.5509 66.1034C38.8086 65.6664 39.4731 64.5361 39.5051 64.0707C39.4465 63.9799 39.4446 63.9826 39.3405 63.9508Z" fill="#FEFEFE"/>
<path d="M65.228 53.7266C65.1136 53.6761 65.0613 53.6809 65.0053 53.5622C65.0514 53.0852 65.579 51.3587 65.904 51.0604C65.9783 51.1059 66.0143 51.149 66.0649 51.2196C66.0675 51.376 65.3191 53.5526 65.228 53.7266Z" fill="#2A2A2A"/>
<path d="M67.5154 54.3099C67.3733 54.3685 67.2329 54.4113 67.0786 54.4247C66.8654 54.4433 66.6478 54.4032 66.4895 54.2502C66.3156 54.0821 66.236 53.856 66.2429 53.6166C66.2708 52.6513 67.2226 51.7503 67.8591 51.1136L67.9765 51.1946C67.9858 51.2935 67.9856 51.3026 67.9367 51.3836C67.6293 51.8914 67.1406 52.2997 66.8183 52.8195C66.9742 52.8132 67.1387 52.7997 67.2939 52.8164C67.5233 52.841 67.7807 52.9796 67.92 53.1644C68.0236 53.3018 68.0687 53.48 68.0332 53.6492C67.9698 53.9509 67.7561 54.1406 67.5154 54.3099ZM66.9187 53.0641C66.7683 53.1051 66.7193 53.1012 66.6332 53.2392C66.542 53.3854 66.5294 53.5945 66.586 53.7541C66.6399 53.9058 66.7579 54.0506 66.9141 54.1024C67.0566 54.1496 67.1948 54.1142 67.3362 54.0826C67.5168 53.9624 67.7099 53.8038 67.7356 53.5712C67.7493 53.4469 67.6875 53.3377 67.6039 53.2511C67.4212 53.0617 67.1629 53.0686 66.9187 53.0641Z" fill="#2A2A2A"/>
<path d="M30.5234 62.6213C30.624 61.0527 30.7166 59.4729 30.9571 57.9186C31.2841 55.8059 31.8512 53.7432 32.4183 51.6848C33.2009 51.7533 33.9818 51.8342 34.7652 51.894C34.0035 52.5242 33.311 53.1155 32.7145 53.9137C31.1611 55.9919 30.7579 58.79 31.1225 61.3135C31.2265 61.8155 31.3735 62.2991 31.5406 62.7832L30.5234 62.6213Z" fill="#FEFEFE"/>
<path d="M40.5726 54.9114C40.5408 54.9066 40.5081 54.9025 40.4772 54.8936C40.347 54.8563 40.3467 54.8468 40.2882 54.7303C40.2748 54.2114 40.5543 52.6726 40.7862 52.2229C40.899 52.2711 40.9557 52.2938 41.0317 52.3955C41.0393 52.7896 40.703 54.5601 40.5726 54.9114Z" fill="#2A2A2A"/>
<path d="M67.3362 54.0826C67.1948 54.1142 67.0565 54.1496 66.914 54.1024C66.7579 54.0505 66.6399 53.9058 66.586 53.7541C66.5294 53.5944 66.542 53.3854 66.6332 53.2392C66.7193 53.1012 66.7683 53.1051 66.9186 53.0641C67.1629 53.0686 67.4211 53.0617 67.6039 53.251C67.6875 53.3377 67.7493 53.4469 67.7356 53.5712C67.7099 53.8038 67.5168 53.9624 67.3362 54.0826Z" fill="#FEFEFE"/>
<path d="M36.7611 54.5641C36.7389 54.5586 36.7165 54.5538 36.6944 54.5474C36.3958 54.461 35.952 53.6592 35.8209 53.3753C35.7618 53.2476 35.7841 53.2008 35.8348 53.0743C36.0483 53.1167 36.1807 53.3687 36.2993 53.5361C36.4956 53.813 36.8199 54.2206 36.7611 54.5641Z" fill="#2A2A2A"/>
<path d="M76.3839 85.8412C76.2797 85.8682 76.1814 85.883 76.0744 85.894C75.6224 85.1904 77.2009 61.2657 77.4161 58.4578C77.54 56.8399 77.6879 55.2129 77.8929 53.6033C78.0382 53.6335 78.1206 53.6375 78.2067 53.7667C78.1754 54.4425 78.0778 55.1257 78.0243 55.8021L77.5736 61.496C77.2154 66.8179 76.9124 72.1434 76.6644 77.4716C76.6337 78.311 76.4563 85.673 76.3839 85.8412Z" fill="#FEFEFE"/>
<path d="M18.634 57.5473L18.4824 57.4882C18.2589 57.1377 18.7825 54.5368 18.8894 53.9973C19.0035 54.0313 19.043 54.0338 19.122 54.1202L18.8431 56.1009C18.7831 56.5594 18.7893 57.114 18.634 57.5473Z" fill="#2A2A2A"/>
<path d="M21.4884 57.0297C21.4352 57.0691 21.3821 57.107 21.3264 57.1428C21.048 57.3219 20.611 57.4675 20.2796 57.3856C20.0647 57.3326 19.9054 57.1908 19.7987 56.9998C19.6264 56.6912 19.6446 56.3227 19.7518 55.9964C20.0041 55.2287 20.7295 54.4776 21.4437 54.119C21.4992 54.156 21.5361 54.1931 21.5821 54.2406C21.5217 54.4794 20.2713 55.2106 19.9801 56.1632C19.9179 56.367 19.8522 56.6603 19.9684 56.8568C20.2823 57.3876 21.2213 56.6767 21.4783 56.7518C21.5175 56.8731 21.5123 56.9031 21.4884 57.0297Z" fill="#2A2A2A"/>
<path d="M46.779 65.1448C47.8498 64.089 48.4378 62.5551 48.6742 61.0946C49.0765 58.6092 48.4727 56.1461 47.0096 54.1105C48.281 54.2698 49.7389 54.4762 50.9806 54.7769C50.9422 55.4451 50.7857 56.1339 50.6851 56.7964L50.2012 60.1866C50.0394 61.3225 49.8862 62.4596 49.7416 63.5978C49.6518 64.3131 49.601 65.0598 49.4489 65.7641C49.3152 65.8108 49.1735 65.7512 49.0414 65.7172C48.2931 65.4984 47.5383 65.3203 46.779 65.1448Z" fill="#FEFEFE"/>
<path d="M44.3713 55.8373C44.2834 55.8039 44.3262 55.8307 44.2509 55.7453L44.2654 55.6157C44.5401 55.1793 45.1594 54.8342 45.6055 54.5922C45.6763 54.6685 45.6622 54.6602 45.672 54.7547C45.5011 55.1135 44.7234 55.6188 44.3713 55.8373Z" fill="#2A2A2A"/>
<path d="M73.8786 87.0959C73.7748 87.128 73.6766 87.1472 73.5698 87.1648L73.5194 87.1262C73.4684 86.0747 73.6519 84.9362 73.7342 83.8838C73.9118 81.5317 74.1104 79.1813 74.3303 76.8329L76.298 54.7716C76.4282 54.7818 76.5602 54.7729 76.6639 54.8622C76.6917 55.6503 76.5217 56.5181 76.4563 57.3091C76.2826 59.4586 76.0911 61.6067 75.8817 63.753L74.3767 80.8512C74.3134 81.5871 73.9258 87.0039 73.8786 87.0959Z" fill="#FEFEFE"/>
<path d="M50.2887 66.0301C50.3057 65.4329 50.4179 64.8173 50.4929 64.2244C50.6455 62.9761 50.818 61.7305 51.0105 60.4878C51.2917 58.6306 51.5043 56.7629 51.8186 54.911C54.9847 55.3386 58.1267 55.992 61.2906 56.4506C60.6563 60.452 60.1014 64.4576 59.5147 68.4654L59.4696 68.5821C59.3575 68.6288 59.2476 68.5975 59.135 68.5652L50.2887 66.0301ZM53.6241 59.6297C53.3151 59.6712 53.0777 59.724 52.8321 59.931C52.7897 60.0423 52.799 60.0437 52.8405 60.157L52.9197 60.1922C53.2841 60.0359 53.5276 59.7951 53.9379 59.9587C54.1481 60.0425 54.3245 60.1311 54.4338 60.3364C54.456 60.4923 54.4253 60.5914 54.3349 60.7164C53.9659 61.226 52.399 61.7519 52.3969 62.103C52.5642 62.2321 56.9957 63.1091 57.2426 63.0952L57.2885 63.0424C56.9807 62.627 55.7876 62.5324 55.285 62.4179C55.3965 62.3116 55.5056 62.1976 55.6225 62.0977C56.0032 61.8174 56.4919 61.4579 56.581 60.9612C56.6077 60.8121 56.5835 60.6868 56.4884 60.5654C56.3614 60.4033 56.0962 60.3511 55.9035 60.3456C55.6712 60.339 55.3277 60.397 55.1614 60.5758C55.0957 60.6463 55.0909 60.6824 55.0778 60.773L55.1355 60.8246C55.4963 60.7822 55.8059 60.5243 56.1768 60.6261C56.2714 60.7193 56.2793 60.7453 56.3156 60.8743C56.2332 61.4308 55.3746 61.9724 54.9696 62.3173C54.3713 62.4542 53.4956 62.08 52.8898 61.9614C53.4357 61.6705 54.3836 61.4103 54.6033 60.7734C54.6802 60.5507 54.6499 60.277 54.5401 60.0696C54.4233 59.8496 54.1691 59.7286 53.9373 59.6716C53.8324 59.6458 53.7317 59.6354 53.6241 59.6297Z" fill="#FEFEFE"/>
<path d="M25.5895 58.9221L25.4929 58.8821C25.4833 58.8249 25.4747 58.7768 25.478 58.7185C25.4964 58.4006 25.8168 56.013 25.9139 55.7641C25.9557 55.6568 26.0449 55.5792 26.1297 55.5054C26.1952 55.5275 26.2319 55.5477 26.2885 55.5848C26.2936 55.6291 26.298 55.6485 26.2901 55.6976C26.2461 55.9706 26.101 56.2372 26.0537 56.5145C25.9489 57.1275 25.9961 58.1279 25.809 58.6721C25.7747 58.7716 25.6663 58.854 25.5895 58.9221Z" fill="#2A2A2A"/>
<path d="M27.6309 58.831C27.8062 58.7803 27.9908 58.7297 28.1455 58.6307C28.3194 58.5195 28.4622 58.3433 28.5039 58.1374C28.5385 57.9665 28.4927 57.7854 28.3933 57.6436C28.0253 57.1194 27.6537 57.2305 27.1363 57.1279C27.033 57.1075 27.0307 57.1112 26.9674 57.0208C26.9863 56.7993 27.0702 56.548 27.185 56.3566C27.3618 56.0618 27.6432 55.9461 27.9643 55.8745C28.0881 55.8742 28.2154 55.8768 28.3374 55.8986C28.7094 55.9651 28.9976 56.2036 29.1903 56.5201C29.2703 56.6515 29.3155 56.7713 29.2792 56.9247L29.2082 56.9573C29.0151 56.7389 28.8207 56.4912 28.575 56.33C28.3672 56.1937 28.1951 56.1496 27.9505 56.2033C27.7134 56.2554 27.5003 56.4125 27.371 56.6154C27.3848 56.9122 28.3957 57.0265 28.6973 57.6038C28.8284 57.8545 28.7935 58.1479 28.6997 58.4047C28.583 58.7242 28.3299 58.8312 28.039 58.9618C27.6653 59.1051 27.2863 59.124 26.9143 58.9496C26.7599 58.8772 26.5243 58.7334 26.4686 58.5651C26.7203 58.4735 27.3377 58.7624 27.6309 58.831Z" fill="#2A2A2A"/>
<path d="M60.3247 68.867L62.1357 56.6172C64.9234 57.0108 67.7157 57.3961 70.471 57.987C70.3574 59.4572 70.0072 60.9443 69.7765 62.4012L68.3947 71.3234L68.3653 71.4664L68.2972 71.5045L63.1179 69.7977C62.1867 69.4922 61.2426 69.2102 60.3247 68.867ZM64.3054 61.6881C64.049 61.7561 63.7814 61.8055 63.5934 62.0061L63.5899 62.1157C63.6735 62.1733 63.6872 62.1785 63.793 62.1595C64.0853 62.1068 64.4896 61.8231 64.7765 61.9878C64.9153 62.0675 65.0819 62.2167 65.1042 62.3837C65.1283 62.563 65.0012 62.7239 64.8831 62.8423C64.4956 63.2304 63.3003 63.6273 63.2067 64.1984C63.2612 64.3348 63.3028 64.3892 63.443 64.4434C63.9993 64.6588 65.3052 64.8686 65.9327 64.9623C66.1956 65.2551 66.5071 65.3719 66.8986 65.3942C67.1797 65.4103 67.5128 65.3611 67.7297 65.1661C67.8688 65.0412 67.9427 64.8611 67.9473 64.6755C67.9502 64.5627 67.9235 64.4462 67.8343 64.3691C67.4238 64.0145 66.3721 64.4566 66.1785 64.3568C66.1656 64.3503 66.1439 64.2717 66.1415 64.257C66.1312 64.1935 66.1443 64.111 66.1486 64.0462L66.1627 63.9748C66.2713 63.4342 66.5219 62.7779 67.0021 62.467C67.2568 62.3023 67.5266 62.1936 67.7494 61.9821L67.7407 61.899C67.6387 61.8384 67.5908 61.8173 67.472 61.8524C66.8708 62.0298 66.3996 62.5799 66.1475 63.1332C65.9346 63.6008 65.8081 64.1503 65.8936 64.6615C65.4343 64.5732 63.8971 64.3705 63.5916 64.1566C63.5921 64.0572 63.603 64.0499 63.6727 63.9824C64.1161 63.5531 65.3835 63.2163 65.4031 62.4793C65.4083 62.2884 65.313 62.1449 65.1821 62.0156C64.9156 61.7522 64.722 61.6758 64.3485 61.6857C64.3342 61.6861 64.3198 61.6873 64.3054 61.6881Z" fill="#FEFEFE"/>
<path d="M43.9483 64.5156C43.9949 64.6016 44.0158 64.6646 44.0305 64.7611L43.9703 64.8193C43.9164 64.8095 43.9132 64.8119 43.8554 64.7841C43.5576 64.6411 43.2421 64.2001 43.0088 63.9591C41.9311 62.8465 40.8866 61.698 39.7858 60.6087C39.424 60.2507 38.877 59.9858 38.586 59.5691C38.4046 59.3092 38.553 58.9808 38.4696 58.6925C38.3542 58.2943 38.0493 57.9431 37.9022 57.5492C37.8111 57.3053 37.8104 57.1611 37.9127 56.9238C38.4259 57.1095 38.8018 57.9664 39.0981 58.0252C39.4541 58.0959 39.8471 57.6726 40.2404 57.8026C40.3336 57.8334 40.3991 57.8933 40.4246 57.989C40.4964 58.2587 40.3543 58.603 40.2355 58.8378C40.7554 59.672 41.3095 60.4849 41.8273 61.3212C42.5079 62.4202 43.1133 63.5194 43.9483 64.5156ZM39.232 58.7955C39.2037 58.9374 39.1663 59.027 39.246 59.1609C39.4812 59.556 39.9788 59.8949 40.3333 60.1904C40.207 59.8201 39.6653 59.0259 39.3154 58.8299C39.2892 58.8151 39.2598 58.8069 39.232 58.7955Z" fill="#2A2A2A"/>
<path d="M34.9716 58.6855C34.4893 58.7374 33.4655 58.7858 33.0539 58.5495C32.9841 58.4263 33.0013 58.3905 33.0142 58.2531L33.0571 58.2603L33.1286 58.2712C33.63 58.351 34.1266 58.3118 34.629 58.3589C34.7625 58.3715 34.9033 58.3866 34.9939 58.4946L34.9716 58.6855Z" fill="#2A2A2A"/>
<path d="M40.3332 60.1903C39.9787 59.8948 39.4811 59.5559 39.246 59.1608C39.1662 59.027 39.2036 58.9373 39.2319 58.7954C39.2597 58.8068 39.2891 58.8151 39.3153 58.8298C39.6652 59.0258 40.2069 59.8201 40.3332 60.1903Z" fill="#FEFEFE"/>
<path d="M55.285 62.418C55.7876 62.5324 56.9807 62.627 57.2886 63.0424L57.2426 63.0952C56.9957 63.1091 52.5642 62.2322 52.397 62.1031C52.399 61.752 53.966 61.226 54.3349 60.7164C54.4253 60.5914 54.456 60.4924 54.4338 60.3364C54.3246 60.1311 54.1481 60.0425 53.9379 59.9587C53.5276 59.7951 53.2841 60.0359 52.9197 60.1923L52.8405 60.157C52.7991 60.0438 52.7897 60.0424 52.8322 59.9311C53.0777 59.7241 53.3152 59.6712 53.6242 59.6298C53.7317 59.6355 53.8325 59.6458 53.9374 59.6717C54.1691 59.7287 54.4234 59.8496 54.5401 60.0696C54.65 60.277 54.6803 60.5508 54.6034 60.7734C54.3836 61.4104 53.4357 61.6705 52.8898 61.9614C53.4956 62.08 54.3713 62.4543 54.9697 62.3173C55.3747 61.9724 56.2332 61.4309 56.3156 60.8743C56.2793 60.7453 56.2715 60.7193 56.1768 60.6261C55.8059 60.5243 55.4963 60.7822 55.1355 60.8246L55.0778 60.773C55.091 60.6825 55.0958 60.6463 55.1614 60.5758C55.3277 60.397 55.6712 60.3391 55.9035 60.3456C56.0963 60.3512 56.3614 60.4033 56.4884 60.5654C56.5836 60.6868 56.6078 60.8121 56.581 60.9612C56.492 61.458 56.0033 61.8174 55.6225 62.0977C55.5056 62.1977 55.3965 62.3117 55.285 62.418Z" fill="#2A2A2A"/>
<path d="M47.2086 60.2947C46.9325 60.2898 45.3736 60.0718 45.2094 59.972C45.1619 59.853 45.1801 59.8402 45.2196 59.7161C45.4026 59.7002 45.5715 59.7111 45.753 59.7315C46.1404 59.7751 46.9969 59.7995 47.2425 60.1069L47.2086 60.2947Z" fill="#2A2A2A"/>
<path d="M15.8869 68.286C15.8729 65.5635 16.2526 62.6372 16.4638 59.9104C17.2814 60.1309 18.0756 60.4782 18.8917 60.7212C19.9674 61.0415 21.0715 61.2612 22.1421 61.5972C21.8059 64.3759 21.6076 67.21 21.4651 70.0051C20.8414 69.9958 16.7744 68.5874 15.8869 68.286ZM17.846 64.2256C17.559 64.264 17.0314 64.3085 16.8543 64.5588C16.8171 64.6113 16.8426 64.6461 16.8552 64.7034C17.3154 64.749 18.1163 64.1924 18.4672 64.704C18.5218 64.7835 18.528 64.854 18.5368 64.9464C18.3402 65.4335 16.1617 65.9622 16.5238 66.6053C16.6492 66.8279 17.2117 66.9921 17.442 67.0844C17.7115 67.1634 18.2744 67.3621 18.5299 67.2195C18.5981 67.1815 18.5758 67.1857 18.5967 67.0966C18.2628 66.7816 17.0794 66.9066 16.9464 66.3983C17.186 65.7657 19.1715 65.6197 18.8066 64.727C18.7271 64.5327 18.5444 64.3533 18.35 64.2758C18.1964 64.2147 18.0087 64.2085 17.846 64.2256ZM20.5263 64.9858C20.2283 65.3885 19.1807 67.1038 19.1935 67.5473C19.1951 67.603 19.208 67.6309 19.2249 67.6798L19.3002 67.6989L19.3599 67.6405C19.8304 66.7851 20.3249 65.938 20.79 65.0814C20.6981 64.9953 20.6486 65.0038 20.5263 64.9858Z" fill="#FEFEFE"/>
<path d="M65.9327 64.9623C65.3052 64.8685 63.9993 64.6587 63.443 64.4434C63.3028 64.3891 63.2612 64.3347 63.2067 64.1983C63.3003 63.6272 64.4956 63.2304 64.8831 62.8422C65.0012 62.7238 65.1283 62.563 65.1042 62.3837C65.0819 62.2166 64.9153 62.0675 64.7765 61.9878C64.4896 61.8231 64.0853 62.1068 63.793 62.1594C63.6872 62.1785 63.6734 62.1732 63.5899 62.1157L63.5934 62.0061C63.7814 61.8054 64.049 61.756 64.3054 61.6881C64.3198 61.6872 64.3342 61.686 64.3485 61.6856C64.7219 61.6758 64.9156 61.7522 65.1821 62.0155C65.3129 62.1448 65.4083 62.2884 65.4031 62.4792C65.3834 63.2163 64.116 63.553 63.6727 63.9823C63.603 64.0498 63.5921 64.0571 63.5916 64.1565C63.897 64.3704 65.4343 64.5731 65.8936 64.6615C65.8081 64.1502 65.9346 63.6008 66.1475 63.1331C66.3996 62.5798 66.8708 62.0298 67.472 61.8523C67.5908 61.8173 67.6387 61.8384 67.7407 61.8989L67.7494 61.9821C67.5266 62.1936 67.2568 62.3022 67.0021 62.467C66.5219 62.7778 66.2713 63.4342 66.1627 63.9747L66.1486 64.0462C66.1443 64.1109 66.1312 64.1935 66.1415 64.2569C66.1439 64.2716 66.1656 64.3502 66.1784 64.3568C66.372 64.4565 67.4238 64.0145 67.8343 64.369C67.9235 64.4462 67.9502 64.5626 67.9473 64.6754C67.9427 64.861 67.8688 65.0411 67.7297 65.166C67.5128 65.361 67.1797 65.4102 66.8985 65.3942C66.507 65.3719 66.1956 65.2551 65.9327 64.9623ZM66.72 64.5481C66.5549 64.5755 66.391 64.5814 66.262 64.6979C66.2454 64.7794 66.2253 64.7744 66.2704 64.8299C66.4278 65.0242 66.785 65.0905 67.0201 65.0954C67.0804 65.0966 67.1406 65.0964 67.2009 65.0947C67.3681 65.0378 67.4897 64.9926 67.624 64.8759L67.6676 64.7684C67.6041 64.6503 67.5406 64.6103 67.4103 64.5652C67.2026 64.4934 66.9369 64.5354 66.72 64.5481Z" fill="#2A2A2A"/>
<path d="M22.3444 70.2583C22.3524 68.8979 22.4762 67.5351 22.5666 66.1781C22.6638 64.7217 22.735 63.2436 22.9399 61.7981C25.1812 62.3242 27.411 62.8442 29.665 63.3148C29.545 64.6306 29.5023 65.9547 29.4586 67.2748C29.4242 68.3177 29.3751 69.3595 29.4173 70.4026C29.4292 70.6984 29.5446 71.8957 29.4141 72.05L29.2861 72.0303C26.975 71.4327 24.6387 70.9184 22.3444 70.2583ZM24.7515 66.6106C24.5309 66.6615 24.3666 66.6968 24.1919 66.8533L24.1963 66.913C24.588 67.0136 25.3862 66.7018 25.6334 67.0833C25.6792 67.154 25.6558 67.1893 25.6452 67.2678C25.2666 67.8407 23.7532 68.0106 23.7195 68.7257C23.8225 68.9445 24.0354 69.0032 24.2473 69.078C24.5492 69.1844 24.8625 69.2651 25.1712 69.3492C25.3364 69.3873 25.4746 69.4348 25.64 69.3816L25.6888 69.3183C25.3765 68.9103 24.3384 69.1493 24.1385 68.6342C24.1938 68.4601 24.3589 68.381 24.5114 68.3015C24.9115 68.093 25.7226 67.834 25.886 67.3761C25.9374 67.2324 25.9416 67.051 25.8574 66.9166C25.7318 66.7164 25.4562 66.6362 25.2366 66.6107C25.0746 66.5919 24.9138 66.6005 24.7515 66.6106ZM26.2719 67.081C26.1822 67.4367 25.9023 67.8588 26.107 68.2135C26.2408 68.4452 26.5519 68.5756 26.8026 68.6236C27.0025 68.6617 27.2135 68.669 27.4164 68.6825C27.4234 68.9759 26.8158 69.5896 26.7738 70.0683L26.8272 70.0975C27.1423 69.8937 27.2455 69.6243 27.4522 69.3279C27.7447 68.8757 28.413 68.1055 28.2869 67.5354C28.2612 67.4192 28.2138 67.3288 28.1088 67.2649C27.8631 67.1157 27.428 67.2048 27.1782 67.2996C26.8088 67.4398 26.5325 67.6714 26.2608 67.9518C26.3696 67.732 26.5479 67.469 26.5404 67.2231C26.4468 67.1144 26.4069 67.1172 26.2719 67.081Z" fill="#FEFEFE"/>
<path d="M34.241 63.4354L34.1285 63.4824L34.0671 63.4081C34.0693 63.3879 34.0694 63.3675 34.0734 63.3476C34.1422 63.01 34.9595 62.4917 35.2467 62.2684C35.327 62.2997 35.3736 62.3329 35.4421 62.3837L35.4551 62.4887C35.2521 62.8696 34.5998 63.1971 34.241 63.4354Z" fill="#2A2A2A"/>
<path d="M30.3589 72.2551C30.2777 70.0293 30.2662 67.9424 30.3799 65.7158C30.4177 64.9756 30.4255 64.2227 30.5209 63.4879C30.9807 63.5345 31.4491 63.5644 31.8992 63.6724C32.1854 64.0858 32.4046 64.548 32.6846 64.9672C34.03 66.9811 36.0058 67.8812 38.2981 68.3334C38.2777 70.2011 38.0824 72.0906 37.9298 73.9512C37.9178 74.0024 37.9294 73.9697 37.8739 74.039C37.6288 74.0154 37.4134 73.922 37.1763 73.8657L35.0967 73.3568C33.5245 72.9644 31.937 72.6238 30.3589 72.2551Z" fill="#FEFEFE"/>
<path d="M38.5508 66.1034C38.4703 66.0442 38.4567 66.0248 38.4105 65.9412C38.3904 65.4139 39.0279 64.3806 39.3405 63.9508C39.4446 63.9826 39.4465 63.9799 39.5051 64.0707C39.4731 64.5361 38.8086 65.6663 38.5508 66.1034Z" fill="#2A2A2A"/>
<path d="M17.442 67.0845C17.2117 66.9922 16.6492 66.828 16.5237 66.6053C16.1617 65.9623 18.3401 65.4336 18.5367 64.9464C18.528 64.8541 18.5217 64.7836 18.4672 64.7041C18.1163 64.1925 17.3154 64.7491 16.8551 64.7034C16.8426 64.6462 16.8171 64.6114 16.8543 64.5589C17.0314 64.3086 17.559 64.264 17.846 64.2257C18.0086 64.2085 18.1964 64.2147 18.35 64.2759C18.5444 64.3534 18.727 64.5327 18.8065 64.7271C19.1715 65.6198 17.186 65.7657 16.9464 66.3984C17.0794 66.9067 18.2628 66.7817 18.5966 67.0967C18.5757 67.1858 18.598 67.1815 18.5299 67.2196C18.2744 67.3622 17.7114 67.1634 17.442 67.0845Z" fill="#2A2A2A"/>
<path d="M67.2008 65.0946C67.1405 65.0963 67.0803 65.0966 67.0201 65.0954C66.7849 65.0905 66.4278 65.0241 66.2703 64.8299C66.2253 64.7744 66.2453 64.7794 66.2619 64.6979C66.3909 64.5814 66.5549 64.5754 66.72 64.5481C66.9368 64.5353 67.2025 64.4934 67.4103 64.5651C67.5406 64.6102 67.604 64.6503 67.6675 64.7684L67.6239 64.8758C67.4897 64.9925 67.3681 65.0377 67.2008 65.0946Z" fill="#FEFEFE"/>
<path d="M19.3598 67.6405L19.3001 67.6989L19.2248 67.6798C19.2079 67.6309 19.195 67.603 19.1934 67.5473C19.1807 67.1038 20.2282 65.3885 20.5263 64.9858C20.6485 65.0038 20.698 64.9953 20.79 65.0814C20.3249 65.938 19.8304 66.7851 19.3598 67.6405Z" fill="#2A2A2A"/>
<path d="M39.0995 68.3924C41.8428 68.482 43.964 67.6188 46.0438 65.8839C47.1468 65.9967 48.2935 66.3745 49.3676 66.6508C48.9915 70.1123 48.7751 73.5894 48.7192 77.0709C46.9899 76.6233 45.2729 76.0972 43.5567 75.6008C41.9813 75.1092 40.3462 74.721 38.7481 74.3046C38.8052 72.3329 39.0152 70.3638 39.0995 68.3924Z" fill="#FEFEFE"/>
<path d="M25.1712 69.3492C24.8625 69.2651 24.5492 69.1844 24.2473 69.078C24.0354 69.0033 23.8225 68.9445 23.7195 68.7257C23.7532 68.0106 25.2666 67.8407 25.6452 67.2678C25.6558 67.1893 25.6792 67.154 25.6334 67.0834C25.3862 66.7018 24.588 67.0136 24.1963 66.913L24.1919 66.8533C24.3666 66.6968 24.5309 66.6615 24.7515 66.6106C24.9138 66.6006 25.0746 66.5919 25.2366 66.6107C25.4562 66.6362 25.7318 66.7164 25.8574 66.9166C25.9416 67.051 25.9374 67.2324 25.886 67.3761C25.7226 67.834 24.9115 68.0931 24.5114 68.3016C24.3589 68.3811 24.1938 68.4601 24.1385 68.6342C24.3384 69.1493 25.3765 68.9103 25.6888 69.3183L25.64 69.3816C25.4746 69.4348 25.3364 69.3873 25.1712 69.3492Z" fill="#2A2A2A"/>
<path d="M49.5383 77.3174C49.5309 76.1502 49.6088 74.9747 49.664 73.8089C49.7728 71.4881 49.9427 69.1704 50.1734 66.8584C51.7798 67.1996 53.3588 67.7402 54.9371 68.1926C56.3947 68.6103 57.9753 68.9331 59.3583 69.5505C59.2513 70.7669 59.0747 71.981 58.9297 73.1935C58.8007 74.3552 58.6879 75.5186 58.5913 76.6835C58.4972 77.7293 58.388 78.7806 58.3523 79.8301C58.35 79.9272 58.3502 79.9525 58.3023 80.0411C58.2332 80.0551 58.1794 80.0582 58.1106 80.0387C56.9618 79.7139 55.8242 79.2642 54.6878 78.8918C52.9832 78.3331 51.2556 77.8354 49.5383 77.3174Z" fill="#FEFEFE"/>
<path d="M27.4522 69.328C27.2455 69.6243 27.1423 69.8937 26.8272 70.0976L26.7738 70.0684C26.8158 69.5896 27.4234 68.9759 27.4164 68.6826C27.2135 68.6691 27.0025 68.6618 26.8027 68.6236C26.5519 68.5756 26.2408 68.4452 26.107 68.2136C25.9023 67.8589 26.1822 67.4367 26.2719 67.0811C26.4069 67.1172 26.4468 67.1144 26.5404 67.2232C26.5479 67.4691 26.3696 67.7321 26.2608 67.9519C26.5326 67.6715 26.8088 67.4398 27.1782 67.2997C27.4281 67.2049 27.8632 67.1157 28.1088 67.265C28.2138 67.3288 28.2612 67.4192 28.2869 67.5355C28.413 68.1056 27.7447 68.8757 27.4522 69.328ZM27.3914 67.5449C27.1623 67.6517 26.7886 67.8111 26.6722 68.0464C26.6487 68.0937 26.6465 68.1328 26.6394 68.1826C26.6979 68.2887 26.7328 68.3425 26.8524 68.3831C26.9575 68.4189 27.0727 68.4383 27.1814 68.4612C27.4678 68.3883 27.6961 68.2363 27.856 67.9814C27.9166 67.8851 27.9385 67.8135 27.9346 67.6978C27.8766 67.6024 27.8594 67.5496 27.7375 67.5285C27.6357 67.5109 27.4959 67.5362 27.3914 67.5449Z" fill="#2A2A2A"/>
<path d="M27.1814 68.4612C27.0728 68.4382 26.9576 68.4188 26.8525 68.3831C26.7328 68.3424 26.698 68.2887 26.6395 68.1825C26.6465 68.1327 26.6487 68.0937 26.6722 68.0463C26.7886 67.811 27.1623 67.6516 27.3914 67.5448C27.496 67.5361 27.6357 67.5108 27.7376 67.5284C27.8594 67.5495 27.8766 67.6023 27.9346 67.6977C27.9386 67.8134 27.9166 67.885 27.8561 67.9813C27.6961 68.2362 27.4678 68.3882 27.1814 68.4612Z" fill="#FEFEFE"/>
<path d="M59.1818 80.3885C59.1168 79.2762 59.2921 78.0799 59.3927 76.9714C59.6027 74.5508 59.8733 72.1359 60.2042 69.729C61.2179 70.0857 62.257 70.3778 63.2768 70.7193C64.9161 71.2684 66.5584 71.8624 68.2158 72.3503C68.1265 73.688 67.8915 75.0409 67.7296 76.3727L66.9232 83.1464C66.9071 83.2423 66.9303 83.2009 66.8434 83.2644C66.4078 83.1864 65.2273 82.6606 64.7389 82.4761L59.1818 80.3885Z" fill="#FEFEFE"/>
</g>
<defs>
<clipPath id="clip0_0_476">
<rect width="96" height="96" fill="white" transform="translate(0 0.740234)"/>
</clipPath>
</defs>
</svg>
