<svg width="96" height="97" viewBox="0 0 96 97" fill="none" xmlns="http://www.w3.org/2000/svg">
<g clip-path="url(#clip0_0_152)">
<path d="M0 0.740234H12.114C11.5352 0.81767 10.8435 1.1502 10.376 1.50039C9.34782 1.23767 7.59109 1.2257 6.65942 1.78465C6.55464 1.84848 6.45187 1.91556 6.35124 1.98578C5.95404 1.68274 5.46201 1.61101 4.97358 1.67984C4.28751 1.77652 3.8719 2.14714 3.34205 2.5363C2.59073 2.226 1.84407 2.09222 1.06281 2.42182C0.675462 2.58523 0.335711 2.83531 0 3.08456V0.740234Z" fill="#FEFEFE"/>
<path d="M12.114 0.740234H15.9323C15.7982 0.932038 15.6819 1.05718 15.4398 1.08998C15.1236 1.13282 14.7784 1.09345 14.4575 1.10755C13.688 1.14136 12.9014 1.23855 12.1548 1.43132C11.9484 1.48458 11.7254 1.54231 11.5352 1.63967C11.2283 1.79676 10.97 2.08675 10.6171 2.13758C10.3377 2.17781 10.116 2.03224 9.88547 1.89927C9.1564 1.91301 8.19568 1.89808 7.52698 2.20593C7.13897 2.38455 6.64083 2.98745 6.18894 2.80468C6.04662 2.66004 6.0092 2.47369 5.97564 2.27986C5.46585 2.25127 4.9107 2.19227 4.49266 2.55164C4.11866 2.87315 3.98509 3.32594 3.39392 3.31779C3.27361 3.31613 3.23003 3.29833 3.1622 3.20101C3.15553 3.19145 3.12388 3.12388 3.11939 3.11502C3.03721 2.95293 2.89055 2.89633 2.72452 2.84581C2.12709 2.66405 1.49323 2.92742 0.978047 3.22128C0.632677 3.41829 0.311506 3.64766 0 3.89394V3.08456C0.335711 2.83531 0.675463 2.58523 1.06281 2.42182C1.84407 2.09222 2.59074 2.226 3.34205 2.5363C3.8719 2.14714 4.28751 1.77652 4.97358 1.67984C5.46201 1.61101 5.95404 1.68274 6.35125 1.98578C6.45187 1.91556 6.55464 1.84848 6.65942 1.78465C7.59109 1.2257 9.34783 1.23767 10.376 1.50039C10.8435 1.1502 11.5352 0.81767 12.114 0.740234Z" fill="#2A2A2A"/>
<path d="M15.9322 0.740234H39.0097C37.2765 1.07079 35.5452 1.41209 33.8162 1.7641C30.391 2.49636 26.9593 3.19758 23.5215 3.86767C20.1426 4.50863 16.7503 5.07692 13.347 5.57215C12.2898 5.72348 11.2318 5.86904 10.173 6.00883C9.3177 6.11914 8.45499 6.20628 7.61191 6.39319C7.03861 6.52029 6.53056 6.72111 6.0125 6.99492C4.65169 6.84491 3.05713 6.41858 1.87064 7.36579C1.63126 7.55689 1.44957 7.7832 1.26299 8.02295C0.849235 7.7923 0.461084 7.58741 0 7.47057V3.89394C0.311506 3.64766 0.632676 3.41829 0.978046 3.22128C1.49323 2.92742 2.12708 2.66405 2.72451 2.84581C2.89055 2.89633 3.03721 2.95293 3.11939 3.11502C3.12388 3.12387 3.15553 3.19145 3.1622 3.20101C3.23002 3.29832 3.27361 3.31613 3.39392 3.31779C3.98509 3.32593 4.11866 2.87315 4.49266 2.55164C4.9107 2.19227 5.46585 2.25127 5.97563 2.27986C6.00919 2.47369 6.04662 2.66004 6.18893 2.80467C6.64083 2.98745 7.13897 2.38455 7.52697 2.20593C8.19567 1.89807 9.15639 1.91301 9.88546 1.89927C10.116 2.03224 10.3377 2.17781 10.6171 2.13758C10.97 2.08675 11.2283 1.79676 11.5352 1.63967C11.7254 1.54231 11.9484 1.48458 12.1548 1.43132C12.9014 1.23855 13.688 1.14136 14.4575 1.10755C14.7784 1.09345 15.1236 1.13282 15.4398 1.08998C15.6818 1.05718 15.7982 0.932037 15.9322 0.740234Z" fill="#FEFEFE"/>
<path d="M39.0097 0.740234H41.7413C40.6605 1.02032 39.5563 1.21506 38.4627 1.43968L32.7159 2.62264C28.5478 3.5226 24.3671 4.36349 20.1751 5.14504C17.2807 5.66241 14.3504 6.08336 11.439 6.49818C10.1531 6.68139 8.7685 6.75045 7.51782 7.08605C6.99449 7.22648 6.48711 7.74741 6.2236 7.76478C5.80629 7.79228 5.41091 7.56308 5.01962 7.45144C4.29881 7.24578 3.1627 7.32159 2.57947 7.81546C2.31873 8.03625 1.85459 8.83078 1.61572 8.93479C1.5038 8.98352 1.30813 8.9138 1.20997 8.85342C0.663959 8.51756 0.75568 8.17217 0 8.13913V7.47058C0.461084 7.58741 0.849235 7.7923 1.26299 8.02295C1.44957 7.78321 1.63126 7.55689 1.87064 7.36579C3.05713 6.41858 4.65169 6.84491 6.0125 6.99493C6.53056 6.72111 7.03861 6.52029 7.61191 6.39319C8.45499 6.20628 9.3177 6.11914 10.173 6.00884C11.2318 5.86905 12.2898 5.72348 13.347 5.57215C16.7503 5.07692 20.1426 4.50863 23.5215 3.86767C26.9593 3.19758 30.391 2.49636 33.8162 1.7641C35.5452 1.41209 37.2765 1.07079 39.0097 0.740234Z" fill="#2A2A2A"/>
<path d="M41.7413 0.740234H67.4155C68.3463 2.80073 69.4918 4.75074 70.5154 6.76308C71.3437 8.39161 72.1577 10.0306 73.0137 11.6446C73.6259 12.7987 74.2715 13.9354 74.8862 15.0885C76.0207 17.2655 77.1903 19.4241 78.3947 21.5633C79.6232 23.7145 80.7762 25.9095 82.0084 28.0568C82.3981 28.7337 82.7946 29.4066 83.1977 30.0755C83.5021 30.5719 83.8487 31.0535 84.0916 31.583L84.116 31.6352C81.7432 33.6927 78.1656 35.8175 77.9077 39.2942C77.8786 39.7487 77.8985 40.205 77.9671 40.6552C77.1323 41.4505 76.0445 42.557 75.1081 43.1822C74.6715 43.4735 74.0102 43.478 73.6681 43.8846C73.3103 44.3097 73.2279 45.0036 73.2166 45.5417C73.2075 45.972 73.2577 46.3754 73.3406 46.7969C72.6883 47.2075 72.0712 47.6721 71.4232 48.0907C69.9946 49.0139 68.4611 49.8797 66.9044 50.5687C66.3855 50.7984 65.8548 51.0283 65.3142 51.2016C64.9374 51.3225 64.5268 51.3942 64.1624 51.5451C62.4784 55.559 59.7023 58.498 56.557 61.4208C56.2655 61.6917 55.4442 62.3395 55.2878 62.6541C55.2389 62.7526 55.2428 62.8513 55.2971 62.9484C55.439 63.202 55.7613 63.2726 56.0237 63.3237C56.4374 63.4043 56.8515 63.4708 57.2616 63.5695C57.7962 63.3455 58.3006 63.061 58.8383 62.8429C60.9096 62.0027 63.0283 61.4934 65.2405 61.2012C66.3837 61.0503 67.5503 60.9427 68.7043 60.9432C69.1165 60.9434 70.4991 61.1936 70.7867 61.0034C71.097 60.7981 72.5126 58.8166 72.8636 58.382C73.9095 57.092 74.9856 55.8268 76.0909 54.5874C76.7095 53.8971 77.3666 53.234 77.9641 52.5259C79.1404 53.117 80.3735 53.748 81.7175 53.3139C82.1672 53.1687 82.5367 52.922 82.756 52.493C82.9471 52.1193 82.9722 51.7826 82.9535 51.3752C83.4887 50.9401 84.0269 50.45 84.6457 50.136C85.4009 49.7528 86.081 49.9689 86.8754 49.9594C87.352 49.9536 87.8213 49.8669 88.276 49.7272C89.8412 49.2467 91.1331 48.2525 92.5146 47.4203C93.1461 48.2135 93.6828 49.0772 94.2487 49.9166C94.8422 50.7956 95.4563 51.6427 96 52.5554V77.8656C93.7425 78.7145 91.384 79.3857 89.0785 80.0948C85.6252 81.1749 82.164 82.2298 78.6953 83.2595C65.3061 87.3635 51.7859 91.0277 38.1566 94.2462L34.1807 95.1802C32.9726 95.4549 28.9796 96.189 28.2115 96.7402H0V62.1063C1.23453 62.0396 2.51398 61.7808 3.73986 61.6098C6.26249 61.2605 8.78243 60.8922 11.2995 60.5047C17.1495 59.5865 22.9739 58.6258 28.7483 57.3035C29.6454 57.098 30.5508 56.9283 31.4437 56.7049C36.6746 55.351 41.8681 53.8563 47.0184 52.2223C49.0173 51.596 50.9908 50.9015 52.9974 50.2959C55.666 49.4908 58.3387 48.6387 61.0295 47.9124C61.7721 47.712 62.5243 47.5221 63.2757 47.357C63.7698 47.2485 64.2898 47.1774 64.771 47.0231C64.9492 46.9659 65.0824 46.9245 65.1682 46.7474C65.2202 46.6398 65.2493 46.6122 65.2111 46.4959C64.4115 46.103 56.4461 48.5807 55.1399 48.952C53.0933 49.5344 51.0498 50.1275 49.0095 50.7313C42.8694 52.602 36.7734 54.5839 30.5202 56.061C23.9487 57.5751 17.3181 58.8198 10.6448 59.7919C7.10014 60.3275 3.54351 60.7733 0 61.3193V56.5447C1.13991 56.2227 3.15478 56.2867 4.26118 56.7083C4.59755 56.8366 4.89304 57.1492 5.25462 57.189C5.80067 57.249 6.10699 56.6315 6.47587 56.3345C7.82114 55.2513 8.36713 57.218 9.14377 57.2789C9.30745 57.2917 9.46022 57.227 9.58809 57.1287C9.87506 56.9082 10.0845 56.5452 10.3311 56.2771C10.6026 55.9817 10.9222 55.7113 11.2226 55.4452C11.7296 54.9961 12.3502 54.6946 12.8557 54.2441C12.8989 54.1241 12.9042 54.1239 12.86 54.0054C12.7261 53.8984 12.6063 53.8471 12.4347 53.8642C11.4125 53.9664 9.90216 55.3316 9.2461 56.0928L9.20415 56.1419C8.69543 55.675 8.24882 55.2695 7.52171 55.2259C6.57953 55.1694 5.85374 55.6013 5.18356 56.215C3.80125 55.3825 1.54837 55.5051 0 55.7763V49.9607C0.961181 49.797 1.91965 49.7255 2.89007 49.6495C3.56512 49.5966 4.30298 49.5782 4.9565 49.3965C5.12935 49.3484 5.2796 49.313 5.37121 49.1516C5.34635 49.0635 5.36617 49.0678 5.29872 49.0238C4.77227 48.6807 0.772602 49.0876 0 49.2785V38.5683C0.441678 38.3026 0.852624 38.1081 1.36272 38.0127C1.87987 37.9159 2.41462 37.8772 2.93724 37.8152C4.56427 37.6219 6.19944 37.5055 7.825 37.308L12.9845 36.6461C17.2503 36.1145 21.5298 35.559 25.7447 34.7039C26.3567 34.5797 28.3613 34.2672 28.8213 33.9689C28.9038 33.9155 28.8993 33.8923 28.9105 33.8027C28.8754 33.7692 28.8589 33.7487 28.8097 33.728C28.1415 33.4474 23.911 34.3155 22.9723 34.4822C18.7489 35.232 14.4722 35.7246 10.2152 36.2393C9.19824 36.3623 8.18538 36.5175 7.16832 36.6415C5.87398 36.7897 4.57837 36.9264 3.28163 37.0519C2.15044 37.1703 1.0782 37.2123 0 37.6127V32.7988C0.406697 32.8374 0.832899 32.8708 1.23837 32.8059C1.43957 32.7738 1.63521 32.7335 1.75766 32.5625C1.73799 32.4972 1.74634 32.4957 1.69764 32.4468C1.34805 32.0955 0.46694 32.0956 0 32.0506V28.1639C0.448418 28.0993 0.908017 28.082 1.35903 28.0339C1.97238 27.9682 2.58254 27.8808 3.19663 27.8192C3.29462 27.9942 3.41702 28.1803 3.62336 28.2365C4.08375 28.3621 4.52875 27.5407 4.86419 27.3057C4.87641 27.2972 4.88901 27.2892 4.90142 27.281C5.82883 27.1443 6.56537 27.5385 7.46123 27.5981C8.08216 27.6394 8.49069 27.2573 9.06214 27.1202C9.57938 26.996 10.1003 27.1566 10.6374 26.9846L10.6123 26.9892L10.741 26.8925L10.7223 26.8159C10.6472 26.7324 10.582 26.6783 10.4811 26.6272C9.35842 26.0603 8.47095 26.5408 7.40593 26.9069C6.70192 26.6523 5.22263 26.4428 4.49285 26.6557C4.15269 26.7549 3.85943 26.9859 3.50966 27.0594C2.46024 27.2802 1.06869 27.4193 0 27.4653V22.6362C1.1179 22.6211 2.26871 22.4516 3.37907 22.321L7.66399 21.8159C15.5037 20.776 23.3027 19.4495 31.0454 17.839C32.3056 17.5861 33.5576 17.2942 34.8178 17.0399C35.3261 16.9372 38.4548 16.2116 38.7569 16.2497C39.1566 16.2999 39.5402 16.4849 39.9466 16.3668C40.3608 16.2464 40.6852 15.8716 41.0865 15.7026C41.6015 15.4859 42.0557 15.6616 42.5403 15.8589C43.1202 15.7202 43.7275 15.675 44.2859 15.4536C44.7007 15.2892 45.1051 14.9854 45.5258 14.8595C45.9258 14.74 46.3493 14.7519 46.7515 14.6084C47.0782 14.4918 47.5133 14.3178 47.6703 13.9925C47.6844 13.8403 47.6649 13.7887 47.5962 13.6591C47.3808 13.581 47.0084 13.7654 46.7984 13.8509C46.3074 14.0506 45.7853 14.0288 45.2843 14.1886C44.9218 14.3042 44.5958 14.5405 44.2507 14.6994C43.796 14.9089 43.2498 14.9298 42.755 14.9756C42.1619 15.0305 41.5438 14.8905 40.9594 15.0095C40.4228 15.1187 39.9862 15.6217 39.4676 15.6814C39.1147 15.722 38.8093 15.4312 38.435 15.4978C37.9052 15.592 37.3867 15.8123 36.8571 15.9257L32.1444 16.895C29.7142 17.4028 27.2756 17.8699 24.8298 18.2961C23.7159 18.5015 22.6084 18.7399 21.4924 18.9337C17.095 19.7384 12.6788 20.4365 8.24767 21.0275C5.5039 21.3913 2.73676 21.6056 0 22.0178V17.9246C0.482025 17.7891 1.951 17.6648 2.21653 17.3276C2.20868 17.2254 2.20832 17.1816 2.113 17.1178C1.68242 16.829 0.473738 17.1488 0 17.2287V13.955C0.252164 13.725 0.50613 13.5215 0.807757 13.3587C1.77183 12.8383 3.93457 12.2406 5.01782 12.2773C5.25353 12.2852 5.47123 12.3488 5.69572 12.4144C5.7744 12.6031 5.85992 12.8731 6.07073 12.9504C6.72844 13.1915 7.17119 12.1442 7.70582 11.903C8.45632 11.5645 9.79547 11.612 10.4396 11.2801C10.5317 11.2326 10.5028 11.2617 10.5351 11.1643L10.475 11.066C10.4017 11.0289 10.3386 11.0036 10.2568 10.9905C9.92756 10.938 9.56559 10.9853 9.23467 11.0095C7.91666 11.1058 7.38201 11.2645 6.32026 12.035C6.07668 11.8961 5.82938 11.7848 5.55595 11.7184C4.10623 11.3657 1.2572 12.304 0 13.079V8.13912C0.75568 8.17216 0.663959 8.51756 1.20997 8.85342C1.30813 8.91379 1.5038 8.98351 1.61572 8.93478C1.85459 8.83078 2.31873 8.03624 2.57947 7.81545C3.1627 7.32159 4.29881 7.24577 5.01962 7.45143C5.41091 7.56308 5.80629 7.79228 6.2236 7.76477C6.48712 7.74741 6.99449 7.22648 7.51782 7.08605C8.7685 6.75044 10.1531 6.68139 11.439 6.49817C14.3504 6.08336 17.2808 5.66241 20.1751 5.14504C24.3671 4.36348 28.5478 3.52259 32.7159 2.62264L38.4627 1.43967C39.5563 1.21506 40.6605 1.02032 41.7413 0.740234ZM51.2335 3.74428C50.8268 3.84922 50.5976 4.01038 50.3121 4.3119C49.168 3.70855 47.1947 4.1455 46.0427 4.50092C45.5564 4.65094 45.1155 4.95563 44.6163 5.04996C43.3708 5.28532 42.035 4.93986 40.9169 5.69509C40.7729 5.79239 40.6075 5.91007 40.5277 6.07038C40.4902 6.14561 40.4946 6.20322 40.5017 6.28344C40.5865 6.38713 40.5915 6.38357 40.7237 6.41071C40.8335 6.37721 40.9368 6.34779 41.0364 6.28909C41.7717 5.84286 42.5677 5.63647 43.422 5.84372C43.7821 5.93109 44.1315 6.07085 44.5074 5.99808C45.0559 5.89192 45.517 5.47933 46.0266 5.26245C46.7084 4.97224 48.6259 4.47443 49.3034 4.70972C49.455 4.76235 49.535 4.84938 49.6156 4.98428C49.6911 5.11042 49.7154 5.19146 49.8569 5.25957C50.1051 5.28428 50.3329 5.23287 50.5272 5.06987C50.7687 4.86732 51.2456 4.15493 51.2851 3.85706L51.2335 3.74428ZM36.7133 6.56843C36.3015 6.63631 35.5721 6.66709 35.2397 6.91801C35.1924 7.03152 35.1723 7.05583 35.1946 7.17462C35.2998 7.26142 35.4003 7.26474 35.5315 7.25451C35.7216 7.23971 35.9163 7.19188 36.1046 7.15979C36.5221 7.08102 37.3935 6.97725 37.68 6.65363L37.6518 6.60388C37.3302 6.52963 37.039 6.53939 36.7133 6.56843ZM31.3494 7.22808C30.3655 7.33452 29.351 7.4937 28.4032 7.78436C28.0313 7.89842 27.6793 8.12588 27.2993 8.20379C26.8238 8.30129 26.293 8.12357 25.809 8.13015C24.74 8.14468 24.6031 8.46666 23.7144 8.74606C22.9587 8.98367 22.8774 8.87216 22.0951 9.28736C20.7063 9.09169 20.4105 9.18039 19.2616 9.91175C18.1016 9.65173 17.3723 9.7048 16.3633 10.3461L16.197 10.4527C15.3098 10.198 14.4657 10.3584 13.5756 10.5188C13.3846 10.5532 13.1043 10.5735 12.9333 10.6628C12.8481 10.7073 12.8258 10.7669 12.7803 10.8467C12.8154 10.9357 12.819 10.9553 12.9128 10.9955C13.3965 11.2021 14.775 10.9098 15.3783 10.912L15.5488 10.9484C15.6788 11.1729 15.6005 11.4935 15.9167 11.5567C16.0921 11.5918 16.2515 11.5159 16.3825 11.4068C17.0364 10.8627 17.2859 10.307 18.286 10.3585C18.459 10.3673 18.6281 10.4186 18.7938 10.4655C18.9391 10.6278 19.0895 10.8422 19.3209 10.8731C19.4718 10.8934 19.6092 10.8153 19.7142 10.7143C20.4004 10.0547 20.3302 9.81919 21.3746 9.79047C21.5907 9.96736 21.8596 10.2361 22.1636 10.193C22.5228 10.1422 22.7145 9.63808 23.1473 9.60794C23.5222 9.58183 24.0507 10.1533 24.3697 9.61892C24.47 9.45086 24.4684 9.28603 24.4636 9.09775C24.7844 8.76571 25.4304 8.80332 25.8595 8.79454C26.3573 8.78435 27.3365 9.02719 27.7323 8.88958C28.0819 8.76807 28.3465 8.50059 28.716 8.39881C29.4639 8.19012 30.218 8.00423 30.9773 7.8414C31.3676 7.75662 31.8051 7.70708 32.1843 7.59088C32.3156 7.55064 32.3651 7.50913 32.4364 7.39548C32.4044 7.31863 32.4173 7.30591 32.3354 7.26796C32.0916 7.15481 31.6137 7.19797 31.3494 7.22808ZM52.7149 7.36794C52.1253 7.41352 51.1939 7.5662 50.7945 8.04784C50.7251 8.1315 50.7185 8.16049 50.7114 8.26405C50.8327 8.36128 50.9665 8.364 51.119 8.34854C51.3966 8.3204 51.7037 8.20344 51.9723 8.12341C52.7175 7.9302 53.4803 7.81711 54.2192 7.60076C53.6917 7.42442 53.2701 7.37174 52.7149 7.36794ZM46.9797 8.55325C46.6646 8.71713 46.3469 8.8761 46.0267 9.03011C44.661 8.63142 44.0735 9.41878 42.935 9.6449C42.4924 9.73281 42.0325 9.74253 41.5849 9.80039C40.4587 9.94595 38.4536 10.31 37.4691 10.844C37.3491 10.9083 37.2332 10.9801 37.1223 11.0589C36.2095 10.885 35.4675 10.9821 34.6896 11.5101C34.6072 11.5667 34.5267 11.626 34.4482 11.688C33.7731 11.4604 33.1349 11.4464 32.4802 11.7673C32.191 11.909 31.9318 12.1157 31.6733 12.3062C30.9942 12.1892 30.4054 12.1077 29.7512 12.3802C29.4473 12.5068 29.1644 12.632 28.8375 12.6875C27.8876 12.8488 27.1585 12.5875 26.27 13.1904C26.0963 13.3083 25.8126 13.5799 25.7953 13.8049C25.7904 13.8692 25.7962 13.8785 25.8089 13.9345C25.8894 13.9961 25.9282 14.0267 26.039 14.0016C26.1802 13.9699 26.3422 13.8448 26.4629 13.7675C27.3958 13.3412 28.0131 13.3085 29.0132 13.4756C29.5497 13.2541 30.0877 12.917 30.6779 12.8716C31.1182 12.8376 31.5908 13.1758 32.0069 13.0544C32.5198 12.9049 32.6006 12.2758 33.2604 12.1557C33.8479 12.0487 34.2722 12.5342 34.8758 12.2682C35.4853 11.9997 35.6701 11.6499 36.4243 11.61C36.5483 11.7262 36.7813 11.9884 36.9637 11.9762C37.2142 11.9594 37.7005 11.5704 37.9434 11.4411C38.2875 11.258 38.7039 11.1262 39.0808 11.032C40.0485 10.79 41.0894 10.5522 42.083 10.4647C42.3363 10.4425 42.57 10.6094 42.8048 10.5621C43.4874 10.4248 44.027 9.856 44.7307 9.71434C45.2713 9.60552 45.8475 9.777 46.3724 9.60707C46.6795 9.50762 47.0222 9.22828 47.2153 8.9708C47.2454 8.83257 47.2249 8.77116 47.1821 8.64138C47.096 8.56881 47.0911 8.56053 46.9797 8.55325ZM56.1145 11.6816C55.4806 11.722 53.4916 11.8058 53.1068 12.2651C52.9797 12.4169 52.8737 12.6018 52.7774 12.7743C52.3427 12.8091 51.9562 12.6213 51.5356 12.5542C50.9485 12.4607 50.1366 12.7387 49.7414 13.1821C49.6202 13.3181 49.499 13.5109 49.4996 13.6996C49.4999 13.7871 49.5322 13.8389 49.5769 13.9098C49.7088 13.9639 49.806 13.9605 49.9438 13.9052C49.9637 13.8972 49.9812 13.8845 50 13.874C50.4732 13.471 50.8858 13.2874 51.5257 13.3303C51.9722 13.3602 52.4021 13.5156 52.8472 13.5421C52.8652 13.5316 52.8833 13.5212 52.9011 13.5104C53.3223 13.256 53.5732 12.7776 54.0063 12.5617C54.5523 12.2896 56.3385 12.232 56.6374 11.792C56.598 11.7133 56.627 11.7362 56.5395 11.7086C56.4051 11.6664 56.2538 11.6796 56.1145 11.6816ZM22.9952 13.7434C22.2561 13.814 21.7552 13.964 21.1612 14.432C19.873 14.4271 19.2955 14.6115 18.3805 15.5177C17.6767 15.1657 16.8808 14.883 16.0912 15.1349C15.6886 15.2633 15.3783 15.5169 15.0595 15.7826C14.1484 15.5235 13.0337 15.3609 12.1712 15.8632C12.0059 15.9594 11.8568 16.0921 11.7185 16.2237C11.383 16.1111 11.003 15.9889 10.6473 15.9822C10.3494 15.9767 5.83487 16.6355 5.58169 16.7434C5.519 16.7701 5.48405 16.8101 5.44287 16.8616C5.45876 16.97 5.43214 16.942 5.50857 16.9955C5.98069 17.3257 8.33914 16.9157 8.96391 16.8171C9.47475 16.7308 10.5116 16.4282 10.9798 16.6851C11.0152 16.7817 11.0305 16.8674 11.0459 16.9681C11.0662 17.1009 11.0913 17.2311 11.2156 17.3093C11.3407 17.388 11.5362 17.3814 11.668 17.3331C12.1397 17.1604 12.3062 16.4231 12.9071 16.2344C13.7076 15.983 15.1555 16.7012 15.4633 16.5521C15.6886 16.443 15.9711 15.9457 16.2567 15.7456C17.4359 15.5736 18.063 16.2328 18.6777 16.1483C19.2494 16.0699 19.4735 15.096 20.4496 15.0542C20.7486 15.0413 21.0905 15.142 21.3909 15.1765C21.6476 15.0244 21.8366 14.8192 22.0796 14.658C22.4588 14.4064 23.2378 14.3234 23.6804 14.4278C24.1536 14.5394 24.905 14.8023 25.3612 14.514C25.4332 14.4686 25.4387 14.4351 25.4769 14.363C25.4674 14.244 25.4722 14.174 25.3763 14.0865C25.3186 14.0339 25.2316 14.0092 25.1571 13.9937C24.8997 13.94 24.6352 13.9574 24.3769 13.9151C24.1054 13.8707 23.8423 13.7615 23.5692 13.7302C23.3889 13.7096 23.1752 13.7216 22.9952 13.7434ZM59.1817 16.9304C58.4317 17.0015 57.6959 17.1888 56.9616 17.3517L53.7881 18.0543C52.8032 18.2649 51.665 18.3309 50.7368 18.7177C50.1798 18.95 49.6177 19.4272 49.2067 19.86C48.9809 19.7531 48.6907 19.5694 48.4381 19.5851C46.8842 19.682 45.0532 20.3593 43.4811 20.6598C42.6256 20.8232 41.7152 20.6552 40.8881 20.9476C40.6548 21.031 40.4266 21.1282 40.2048 21.2389C39.5202 21.1252 38.8178 21.1987 38.239 21.6143C38.1229 21.6977 38.0175 21.7927 37.9139 21.8911C36.6455 21.8767 32.9298 22.6613 32.0539 23.474C32.0109 23.5139 31.9734 23.5629 31.9368 23.6082C31.0837 23.3542 30.0019 23.254 29.191 23.7106C29.0657 23.7812 28.9542 23.875 28.8442 23.9671C28.3606 23.7575 27.5106 23.761 27.0241 23.9574C26.7853 24.0538 26.5329 24.2052 26.2827 24.2612C25.4646 24.4439 23.437 24.4036 22.8533 24.9372L22.8231 25.0409C22.8935 25.1635 23.0045 25.208 23.1365 25.2438C23.5085 25.3444 24.0803 25.2159 24.4574 25.1694C25.2197 25.0789 25.9217 24.9733 26.6869 25.0961C26.8523 24.9603 27.0101 24.8222 27.1629 24.6724C27.4688 24.6062 27.7659 24.5306 28.0808 24.5423C28.1074 24.5434 28.134 24.5435 28.1606 24.5448C28.5361 24.563 28.9208 24.6751 29.2866 24.7593C29.4244 24.6026 29.5522 24.4464 29.6713 24.275C30.0526 24.1762 30.4307 24.0725 30.8289 24.1102C31.2325 24.1485 31.7067 24.4609 32.0947 24.385C32.5126 24.3033 32.8084 23.8109 33.2044 23.646C34.8254 22.971 36.7168 22.6565 38.4569 22.5469C38.6327 22.372 38.7545 22.1935 38.8832 21.9845C39.5542 21.8295 39.9731 22.0653 40.6147 22.0266C41.1598 21.4836 41.5333 21.4505 42.2782 21.4512C42.6208 21.4516 42.9807 21.4826 43.3202 21.4309C44.6501 21.2283 47.5514 20.2212 48.6774 20.3794L48.7633 20.3909C48.9197 20.588 49.0513 20.7759 49.3193 20.8076C49.4837 20.827 49.6093 20.759 49.7292 20.6557C50.1181 20.321 50.2229 19.8072 50.6912 19.5286C51.3843 19.1162 52.3884 19.0372 53.1756 18.8623C54.348 18.6017 55.4994 18.2532 56.6709 17.9864C57.6043 17.7738 58.5961 17.6541 59.5055 17.3565C59.8174 17.2544 60.0614 17.1305 60.319 16.9259C59.9389 16.9128 59.5611 16.8937 59.1817 16.9304ZM60.3542 21.6646C59.7532 21.7269 58.8972 21.8647 58.4872 22.3567C58.4092 22.4503 58.3967 22.4912 58.3777 22.6071C58.4787 22.6904 58.5488 22.711 58.6821 22.707C58.8807 22.7009 59.1205 22.5977 59.3107 22.5355C59.7019 22.4206 61.1657 22.0924 61.3786 21.784L61.3559 21.7299C61.0157 21.6281 60.7035 21.6479 60.3542 21.6646ZM52.7138 23.1661C51.9757 23.2237 50.284 23.4515 49.7887 24.0483C49.7247 24.1251 49.7377 24.1241 49.7328 24.2148C49.8344 24.3224 49.9688 24.3295 50.11 24.3329C50.7015 24.347 51.3932 24.1435 51.977 24.0257C52.9563 23.8142 54.4863 23.6812 55.3478 23.294C54.5088 23.1456 53.5651 23.0704 52.7138 23.1661ZM47.9468 24.7982C47.4772 24.9005 46.9943 25.1218 46.5121 25.1188C46.0505 25.1159 45.6605 24.8537 45.1852 24.9347C44.574 25.0388 44.2651 25.5722 43.7214 25.7149C43.329 25.8179 42.7838 25.5776 42.3543 25.6161C41.845 25.6618 41.4771 25.9826 41.0047 26.1062C40.696 26.187 40.3659 26.1822 40.0492 26.1921C39.3272 26.2147 38.8324 26.4421 38.2073 26.7785C37.5484 26.7368 36.4688 26.7836 35.9409 27.23C35.6663 27.4621 35.6018 27.9743 35.3824 28.3016C34.3054 27.8568 33.3698 27.6605 32.2574 28.1423C32.022 28.2443 31.791 28.3801 31.6644 28.6101C31.6537 28.744 31.654 28.754 31.7225 28.869C31.8182 28.9187 31.8742 28.9139 31.9803 28.9054C32.4483 28.7612 32.9479 28.5502 33.4393 28.5243C34.1122 28.4887 35.2448 29.0096 35.4405 28.9742C36.0718 28.8598 36.1913 27.9009 36.8595 27.6259C37.4308 27.3905 38.0083 27.5597 38.5796 27.4216C38.9656 27.3283 39.2803 27.0626 39.6551 26.9502C40.1631 26.7979 40.7024 26.9439 41.2085 26.8314C41.6881 26.7247 42.1016 26.4023 42.5919 26.348C43.0635 26.2957 43.5013 26.5737 43.9811 26.4451C44.5025 26.3052 44.8963 25.8379 45.3992 25.6225C45.9602 25.9166 46.679 25.8543 47.2684 25.6698C47.593 25.5682 48.1276 25.3534 48.2804 25.0339C48.3034 24.9859 48.3039 24.9474 48.3092 24.8975L48.2477 24.8063C48.1408 24.7897 48.0545 24.7871 47.9468 24.7982ZM16.2533 25.5577C15.8088 25.5899 14.8297 25.5919 14.5133 25.9564C14.4986 25.9733 14.4851 25.9914 14.471 26.009C14.486 26.1185 14.4593 26.0888 14.5372 26.1442C14.8595 26.3741 15.5528 26.3079 15.9321 26.3088C16.3325 26.2946 17.1839 26.3175 17.4757 25.9957C17.5587 25.9041 17.5609 25.8802 17.5467 25.7675C17.3028 25.5146 16.8299 25.5596 16.5033 25.5535C16.4188 25.552 16.3374 25.5493 16.2533 25.5577ZM63.7842 25.5584C62.5342 25.6405 61.2743 26.0684 60.0631 26.3773C58.7121 26.7103 57.3589 27.0341 56.0034 27.3488C53.739 27.8787 51.4239 28.214 49.1706 28.778C47.4694 29.2007 45.778 29.6621 44.0979 30.162C43.0294 30.4799 41.9709 30.8377 40.8978 31.1384C38.6287 31.7743 36.305 32.2847 34.0576 32.9866C33.8809 33.0417 33.7146 33.1018 33.5692 33.2188L33.5218 33.328C33.5706 33.4038 33.5976 33.4286 33.6803 33.4646L33.7645 33.4457C35.407 33.1551 37.0305 32.8722 38.654 32.4838C41.6523 31.7665 44.5676 30.7987 47.5448 30.0182C49.1048 29.6091 50.6729 29.1925 52.2432 28.8266C54.2716 28.354 62.692 26.612 63.9326 25.6792L63.9692 25.5924L63.9317 25.5454L63.7842 25.5584ZM28.001 28.6055C27.0328 28.6521 23.752 29.1531 23.1689 29.8334C23.0862 29.9298 23.0605 29.9896 23.066 30.1143C23.1889 30.2118 23.3395 30.1955 23.4874 30.1767C23.8298 30.1334 24.1598 30.0225 24.4967 29.9524C25.3437 29.7623 26.1906 29.5694 27.0466 29.424C27.7352 29.307 28.4644 29.2414 29.1398 29.0716C29.3044 29.0302 29.4891 28.9924 29.5902 28.8493C29.4411 28.6769 29.0994 28.6435 28.877 28.6263C28.5875 28.6039 28.2913 28.6002 28.001 28.6055ZM65.6308 29.634C64.827 29.7228 64.0499 29.8965 63.2692 30.1019C62.3075 30.3548 61.3668 30.6923 60.4133 30.9763C58.78 31.4626 49.6488 34.0584 49.0876 34.8124C49.0379 34.8792 49.0542 34.9071 49.0559 34.9861L49.1307 35.0691C49.908 34.9128 50.6774 34.7198 51.4365 34.4909C52.9243 34.0575 65.165 30.2474 65.7003 29.7705L65.7194 29.6898L65.6308 29.634ZM18.0202 30.1584C16.9926 30.2227 14.5127 30.4079 13.8475 31.1525C13.787 31.2202 13.7606 31.2757 13.7437 31.3661C13.8289 31.462 13.8802 31.4736 14.0089 31.4818C14.4067 31.5071 14.882 31.3673 15.2746 31.2927C16.2209 31.1115 19.0552 30.884 19.671 30.3776L19.7074 30.2826C19.384 30.0153 18.4926 30.116 18.0997 30.1508L18.0202 30.1584ZM9.00235 31.2744C8.31175 31.3471 7.16711 31.4178 6.60079 31.8499L6.55627 31.9574C6.63633 32.0753 6.73047 32.1082 6.86913 32.1357C7.48157 32.2573 8.28242 32.0866 8.9075 32.0251C9.40444 31.9832 11.0956 32.0112 11.3909 31.7221C11.4502 31.6641 11.4275 31.6377 11.423 31.5622C11.2319 31.3219 10.9121 31.3087 10.6248 31.2773C10.1033 31.2204 9.52312 31.2039 9.00235 31.2744ZM67.0141 34.5545C65.9088 34.6934 62.2374 35.6268 61.6177 36.3447C61.5769 36.392 61.5768 36.3985 61.5531 36.4467C61.6027 36.5398 61.5678 36.5141 61.6683 36.5463C61.8813 36.6146 62.1572 36.5281 62.3723 36.4863C63.2314 36.3438 67.3718 35.2158 67.7497 34.7885C67.749 34.6818 67.7387 34.6623 67.6852 34.5689C67.4924 34.5021 67.2147 34.5194 67.0141 34.5545ZM44.4474 35.726C42.204 36.0437 40.0209 36.693 37.8256 37.2425C35.9596 37.7095 34.0631 38.092 32.1775 38.4724C31.3953 38.6301 28.1027 39.0932 27.6265 39.3946L27.5744 39.4802C27.6098 39.605 27.6728 39.7046 27.7998 39.7581C27.9226 39.8101 28.099 39.7868 28.2302 39.7764C29.838 39.6146 31.4248 39.3457 33.0128 39.0473C34.585 38.752 44.4345 36.6654 45.0493 35.9405C45.0578 35.8461 45.0776 35.8638 45.0224 35.8067C44.9347 35.7161 44.8558 35.7028 44.7327 35.7063C44.6388 35.7088 44.5405 35.7126 44.4474 35.726ZM57.5084 37.5473C57.0251 37.6447 56.3361 37.9064 56.0412 38.3205C56.004 38.3727 55.9943 38.4225 55.9878 38.4846C56.0693 38.5595 56.1389 38.582 56.2524 38.5775C56.3767 38.5727 56.5179 38.5347 56.6376 38.5002C57.1313 38.327 57.7296 38.1632 58.0967 37.7705L58.1329 37.6592C58.0803 37.5794 58.0734 37.561 57.9832 37.5373C57.8491 37.5021 57.6452 37.5331 57.5084 37.5473ZM52.7694 38.9153C51.9023 39.0086 49.3183 39.8403 48.813 40.5423C48.7987 40.562 48.7903 40.5854 48.779 40.607L48.803 40.6832C49.0473 40.7917 49.2822 40.7021 49.5245 40.6327C50.2777 40.4116 53.0242 39.5966 53.4248 39.1576L53.4341 39.0522C53.3506 38.9623 53.2568 38.9161 53.1338 38.9073C53.0198 38.899 52.882 38.9016 52.7694 38.9153ZM70.5806 38.916C69.6918 39.0005 68.8038 39.2309 67.9425 39.4615C66.2647 39.9109 57.9149 42.4816 56.9735 43.3125L56.9485 43.3952C57.03 43.4657 57.0928 43.517 57.2081 43.509C57.3106 43.502 57.4197 43.4678 57.5194 43.4427C60.0708 42.7882 62.5541 41.874 65.0612 41.0728C66.942 40.4718 69.6559 39.9443 71.2764 38.9226C71.0486 38.9147 70.807 38.8894 70.5806 38.916ZM21.5946 39.9474C21.0044 39.9897 18.9326 40.322 18.5465 40.7686C18.5097 40.811 18.5113 40.8147 18.4921 40.8587C18.5404 40.9634 18.6019 40.9866 18.7073 41.023C19.0871 41.1543 19.5355 41.0581 19.9217 40.9953C20.4811 40.9027 22.6058 40.6802 22.9327 40.3061C22.9498 40.2864 22.9589 40.2609 22.972 40.2383C22.9311 40.1269 22.8821 40.0958 22.773 40.0476C22.434 39.898 21.9584 39.8952 21.5946 39.9474ZM13.7141 41.2327C12.8788 41.7693 12.4616 42.4321 11.9652 43.2673C11.2309 42.6026 10.545 42.4375 9.56306 42.4867C8.55033 42.5375 7.47949 42.7368 6.75387 43.5236C6.6495 43.6369 6.51766 43.8132 6.51066 43.9744C6.50497 44.1051 6.54991 44.1301 6.6406 44.2035C6.94225 44.2513 7.14835 44.0633 7.38053 43.8999C7.77425 43.6478 8.44289 43.1851 8.93334 43.2949C9.31358 43.38 9.72994 43.9343 10.1507 43.7187C10.342 43.6206 10.4305 43.3722 10.6699 43.4221C11.2169 43.5361 11.8781 44.5918 12.436 44.2676C12.5774 44.1855 12.7633 43.7144 12.8628 43.5588C13.1668 43.0831 14.1629 41.9856 14.2494 41.5455C14.2181 41.4312 14.1937 41.3486 14.083 41.2858C13.9627 41.2176 13.846 41.2273 13.7141 41.2327ZM43.0853 41.4014C42.1637 41.5201 41.5741 42.133 40.7274 42.3796C40.2045 42.5318 39.6932 42.2722 39.1709 42.3765C38.6678 42.4768 38.2446 42.8806 37.7348 43.0237C36.7448 43.3017 32.0702 43.9472 31.5786 44.6015C31.5286 44.6681 31.5338 44.7126 31.5223 44.7925C31.5721 44.8946 31.5897 44.9391 31.7092 44.9735C31.7362 44.9813 31.7647 44.9811 31.7925 44.985C33.0266 44.8288 34.2307 44.5139 35.4523 44.286C36.3537 44.1179 37.4929 44.0362 38.3402 43.7256C38.6842 43.5995 39.0148 43.3595 39.3223 43.1639C39.6135 43.209 39.9115 43.2659 40.2073 43.2537C41.1437 43.2153 42.1905 42.6013 42.9354 42.0563C43.1053 41.9321 43.2684 41.8024 43.3267 41.593C43.2948 41.4755 43.2858 41.4706 43.1907 41.3931L43.0853 41.4014ZM2.70071 43.5081C2.18571 43.5698 0.9729 43.6886 0.632652 44.1326C0.551425 44.2385 0.557437 44.2805 0.557321 44.4078C0.624436 44.5353 0.685923 44.6525 0.833863 44.7013C1.16797 44.8114 1.64539 44.5087 1.97133 44.412L2.05942 44.3922C2.56783 44.2814 4.01812 44.3033 4.30824 43.9279C4.31022 43.8087 4.28496 43.726 4.19782 43.6371C3.97944 43.4145 3.01307 43.4867 2.70998 43.5068C2.70687 43.5071 2.7038 43.5078 2.70071 43.5081ZM26.1196 44.8433C26.1029 44.8555 26.0861 44.8676 26.0696 44.88C25.6127 45.2221 25.1197 46.1099 24.8119 46.2887C24.7852 46.3042 24.7057 46.3095 24.6831 46.3095C24.1193 46.311 23.753 45.3299 22.5108 45.4318C22.1475 45.4615 21.8066 45.577 21.5123 45.7952C21.17 46.0488 20.897 46.3684 20.4985 46.5414C20.4832 46.5292 20.468 46.5168 20.4524 46.5048C20.4331 46.4899 20.4134 46.4754 20.394 46.4606C20.3801 46.45 20.3674 46.4377 20.3525 46.4286C20.0566 46.2468 19.4672 46.2826 19.156 46.3886C18.6022 46.5772 18.2142 47.0503 17.8175 47.4553C16.4612 46.6719 15.5174 46.3186 13.9357 46.7436C13.1709 46.9491 12.4294 47.3166 11.8256 47.8311C10.6368 47.6519 9.23512 47.6574 8.21947 48.4049C8.07149 48.5138 7.95803 48.6194 7.8929 48.7928C7.90716 48.8603 7.89565 48.8875 7.95892 48.9287C8.16631 49.0638 8.48789 48.992 8.70793 48.9297C9.31019 48.7591 9.86306 48.554 10.4892 48.4679C11.0868 48.446 11.5555 48.5745 12.1166 48.7554C12.9503 47.9057 13.8705 47.3206 15.1012 47.314C15.6533 47.3133 16.1949 47.4652 16.6659 47.7531C17.121 48.0265 17.8231 48.973 18.3507 48.4484C18.6853 48.1157 18.8407 47.631 19.1445 47.2701C19.3321 47.2282 19.5223 47.1764 19.7122 47.1478C19.8517 47.4242 19.9786 47.748 20.2937 47.861C20.4245 47.908 20.5524 47.8949 20.6755 47.8347C21.5825 47.3915 21.4655 45.9826 23.2363 46.2978C23.0299 46.6072 22.5919 47.1696 22.6889 47.5668C22.7221 47.7026 22.817 47.7654 22.9224 47.8413C23.0538 47.8639 23.0862 47.8766 23.205 47.8009C23.4749 47.629 23.6281 46.9511 23.9991 46.9966C24.4811 47.0556 24.6325 47.7208 25.1819 47.342C25.2955 47.2637 26.5443 45.2625 26.5444 45.1423C26.5445 45.0155 26.4983 44.9771 26.4174 44.8936C26.3138 44.8643 26.2275 44.8454 26.1196 44.8433ZM47.5742 46.0286C47.0177 46.1737 46.6555 46.4206 46.2256 46.7852C45.377 46.6535 43.9399 46.739 43.2286 47.2687C43.1059 47.3602 43.0553 47.4365 43.0248 47.585C43.1179 47.69 43.201 47.7162 43.3417 47.7232C43.7142 47.742 44.9193 47.5064 45.244 47.3867C45.7557 47.4371 46.3994 47.77 46.8497 47.4155C47.1048 47.2147 47.1426 46.8654 47.5327 46.8929C47.7757 46.91 48.0318 47.0856 48.243 47.1998C48.6037 47.1754 49.2695 47.0591 49.5275 46.7879C49.5747 46.7382 49.5751 46.7312 49.6042 46.6789C49.569 46.5841 49.5963 46.6009 49.5131 46.5625C49.2565 46.4439 48.9233 46.5161 48.6506 46.5426C48.2711 46.3668 47.9962 46.0924 47.5742 46.0286ZM38.85 48.9488C37.8493 49.0591 36.8693 49.2979 35.8729 49.439C34.9622 49.568 33.9757 49.5275 33.0997 49.8153C32.0697 50.1536 31.2302 50.8935 30.16 51.1098C29.1257 50.604 28.5197 50.3464 27.372 50.7404C26.5357 51.0275 25.9661 51.5608 25.2374 52.0184C23.9797 51.6724 22.9138 51.6365 21.7361 52.2996C21.3715 52.5049 21.0632 52.7768 20.7742 53.077C20.0064 53.1114 17.4514 53.2363 16.9889 53.7586C16.937 53.8172 16.9551 53.8491 16.9565 53.9217C17.0634 54.0428 17.1417 54.0928 17.305 54.1C17.5956 54.1128 17.9354 54.0316 18.2246 53.988C18.6129 53.9381 19.6239 53.6658 19.9432 53.9075C20.2072 54.1076 20.1763 54.6145 20.5982 54.6043C20.7606 54.6004 20.8852 54.5541 20.9956 54.431C21.1797 54.2257 21.3038 53.9179 21.4505 53.6801C21.8751 52.9913 22.6753 52.6072 23.4613 52.5313C23.7485 52.5036 24.0386 52.528 24.3256 52.547C24.6226 52.765 24.9428 53.0749 25.3402 53.0198C25.7582 52.962 26.0931 52.3798 26.4322 52.1272C27.0951 51.6335 27.8095 51.3468 28.6271 51.2482C29.0006 51.4168 29.2831 51.7396 29.6199 51.9706C31.0558 52.0302 32.0859 50.9468 33.3923 50.5369C34.0288 50.3372 34.7089 50.3431 35.3669 50.2649C36.3333 50.1501 38.0937 49.7939 38.8154 49.0973C38.8684 49.0462 38.8537 49.0548 38.8889 48.9733L38.85 48.9488ZM79.6047 65.3926C78.761 65.549 77.9324 65.824 77.1138 66.0772L73.9896 67.0505C70.2945 68.2036 66.6263 69.3519 63.018 70.7624C61.5233 71.3439 60.0331 71.9371 58.5475 72.5417C56.6392 73.336 54.7067 74.1845 52.7373 74.813C51.9105 75.0768 48.278 76.2 47.6465 75.6953C47.5888 75.6493 47.607 75.6099 47.6035 75.5422C48.3294 74.1912 53.9716 72.8797 53.5728 71.2772C53.5211 71.0693 53.3272 70.9331 53.1442 70.8472C52.3042 70.4532 51.1642 70.8635 50.3558 71.174C47.4117 72.3052 44.5545 73.7701 41.7602 75.2238C40.5245 75.8666 39.2726 76.4826 38.0458 77.1418C36.7983 77.8121 35.5616 78.5024 34.3077 79.1607C33.6452 79.5086 32.9895 79.8722 32.2967 80.1574C31.6509 80.4232 30.9219 80.6904 30.2152 80.5571C30.1722 80.4923 30.1654 80.512 30.1867 80.4398C30.3291 79.9561 31.0933 79.3379 31.4624 79.0126C33.1105 77.56 34.9772 76.3065 36.8059 75.0938C37.9603 74.337 39.1212 73.5903 40.2886 72.8536C41.295 72.2193 48.5652 67.9798 47.7624 66.4411C47.6355 66.1978 47.2823 66.0761 47.0317 66.0228C45.2017 65.6335 42.0151 67.663 40.504 68.6919C39.1264 69.63 37.7184 70.5584 36.399 71.5764C33.378 73.9072 30.6466 76.5305 27.9685 79.2405C27.0693 80.1504 26.0306 81.0298 25.2308 82.0249C25.2364 82.216 25.2151 82.4544 25.3 82.6278C25.4088 82.6517 25.383 82.6473 25.4677 82.5973C27.0806 81.1805 28.5509 79.5996 30.0542 78.0695C30.998 77.1091 31.9928 76.1744 32.9861 75.2649C35.2085 73.2302 43.789 66.3413 46.7093 66.6946C46.8316 66.7093 46.8529 66.7261 46.9289 66.8114C46.9173 67.2017 46.1107 67.8682 45.8094 68.1521C45.2195 68.7005 44.5882 69.2026 43.9213 69.6543C41.1494 71.524 38.2011 73.1152 35.4215 74.9735C33.8816 76.003 30.4193 78.4536 29.4728 79.9359C29.3661 80.1031 29.2957 80.3147 29.2843 80.5127C29.2713 80.738 29.3385 80.9545 29.4958 81.1195C29.7748 81.4123 30.2447 81.4779 30.6285 81.4693C32.8474 81.4194 37.942 78.0978 40.0454 76.9263C41.8731 75.9083 50.8537 71.1234 52.4437 71.5415L52.4933 71.6162C52.4349 71.8535 52.2325 71.9739 52.0317 72.0939C50.7983 72.8312 47.0124 74.1502 46.6166 75.4756C46.5606 75.6635 46.591 75.8292 46.6912 75.9956C46.9041 76.3491 47.3105 76.5166 47.6965 76.6018C49.1209 76.9162 51.1883 76.1436 52.5603 75.7132C54.9056 74.9775 57.1766 74.0396 59.4482 73.1063C61.9695 72.0565 64.5081 71.0484 67.0627 70.0825C69.5309 69.1758 72.0489 68.4001 74.5527 67.5988C75.9418 67.1542 78.4088 66.5072 79.5696 65.7541C79.6838 65.68 79.7672 65.6169 79.8352 65.4986L79.817 65.4125L79.6047 65.3926Z" fill="#FEFEFE"/>
<path d="M67.4155 0.740234H68.937C69.795 2.23896 70.5383 3.79875 71.3373 5.32886L75.9221 14.0458C78.9529 19.6522 82.0542 25.2202 85.2253 30.7485L92.8107 23.8653C93.7987 22.9832 94.95 21.8457 96 21.0712V23.5588C94.845 24.3097 93.2629 25.8136 92.1818 26.7656C88.7304 29.805 85.3742 32.9149 82.254 36.297C81.9426 36.6345 81.0973 37.3715 80.9939 37.8008C80.894 38.2157 81.1811 38.9175 81.3689 39.2904L91.2343 30.9898C92.826 29.6589 94.4934 28.4119 96 26.9804V44.6533C95.1665 45.2947 94.3162 45.9588 93.5174 46.6421C94.4062 47.771 95.2744 48.9619 96 50.2044V52.5554C95.4562 51.6427 94.8422 50.7956 94.2487 49.9166C93.6828 49.0772 93.146 48.2134 92.5145 47.4203C91.133 48.2524 89.8412 49.2467 88.276 49.7272C87.8212 49.8669 87.352 49.9536 86.8754 49.9594C86.0809 49.9689 85.4009 49.7528 84.6456 50.136C84.0269 50.4499 83.4887 50.9401 82.9534 51.3752C82.9722 51.7826 82.9471 52.1193 82.756 52.4929C82.5366 52.922 82.1672 53.1687 81.7174 53.3139C80.3734 53.748 79.1404 53.117 77.9641 52.5259C77.3666 53.2339 76.7095 53.8971 76.0909 54.5874C74.9855 55.8268 73.9095 57.092 72.8636 58.3819C72.5126 58.8166 71.097 60.7981 70.7867 61.0034C70.499 61.1936 69.1165 60.9434 68.7043 60.9432C67.5503 60.9427 66.3837 61.0503 65.2405 61.2012C63.0283 61.4934 60.9095 62.0027 58.8383 62.8429C58.3006 63.061 57.7962 63.3455 57.2615 63.5695C56.8515 63.4708 56.4374 63.4043 56.0237 63.3237C55.7613 63.2726 55.439 63.202 55.2971 62.9484C55.2428 62.8513 55.2389 62.7526 55.2878 62.6541C55.4442 62.3395 56.2655 61.6917 56.557 61.4208C59.7023 58.498 62.4784 55.5589 64.1624 51.5451C64.5268 51.3942 64.9374 51.3225 65.3142 51.2016C65.8548 51.0283 66.3855 50.7984 66.9044 50.5687C68.4611 49.8797 69.9946 49.0139 71.4232 48.0907C72.0711 47.6721 72.6883 47.2075 73.3406 46.7969C73.2576 46.3754 73.2075 45.972 73.2166 45.5417C73.2279 45.0036 73.3103 44.3097 73.6681 43.8846C74.0102 43.478 74.6715 43.4735 75.1081 43.1822C76.0444 42.557 77.1323 41.4505 77.9671 40.6552C77.8984 40.205 77.8786 39.7487 77.9077 39.2942C78.1655 35.8175 81.7432 33.6927 84.1159 31.6352L84.0916 31.583C83.8487 31.0535 83.5021 30.5719 83.1977 30.0755C82.7945 29.4066 82.3981 28.7337 82.0084 28.0568C80.7762 25.9095 79.6232 23.7145 78.3947 21.5633C77.1903 19.4241 76.0206 17.2655 74.8862 15.0885C74.2714 13.9354 73.6259 12.7987 73.0137 11.6446C72.1577 10.0306 71.3436 8.39161 70.5154 6.76308C69.4918 4.75074 68.3463 2.80073 67.4155 0.740234ZM79.4781 40.1216C79.2593 41.0441 80.1709 42.5718 80.6416 43.3342C81.8006 45.2116 83.8583 47.5003 86.0769 48.0114C86.4963 48.1067 86.9258 48.1489 87.3557 48.1372C87.231 47.9634 85.8962 47.3238 85.6157 47.1433C84.7594 46.5923 84.0114 45.9153 83.2922 45.1989C82.6873 44.5967 82.1057 43.9453 81.6209 43.2418C81.1509 42.5598 80.0084 40.575 79.4781 40.1216ZM78.6488 41.9814C78.0649 42.4843 77.5416 43.0519 76.9656 43.5631C76.3264 44.1304 75.6351 44.6022 74.9104 45.0503C75.0855 45.3894 75.3017 45.8241 75.5914 46.0749C76.6639 45.6425 78.4978 43.9027 79.3424 43.0704C79.1759 42.7342 78.9445 42.2207 78.6488 41.9814ZM74.6749 46.5672C75.0121 48.0261 76.1653 49.2275 77.2523 50.1948C77.0138 49.5798 75.1582 46.8747 74.6749 46.5672ZM73.4878 47.5532C72.844 48.0246 72.2449 48.5428 71.5789 48.9859C70.2809 49.8499 68.8165 50.5613 67.4062 51.2237C66.9254 51.4495 64.8819 52.1059 64.7195 52.2313C64.4638 52.4289 63.4822 54.3323 63.1674 54.8188C62.3885 56.0222 61.4912 57.0855 60.5359 58.1508C60.1045 58.632 59.6895 59.1128 59.2163 59.5553C58.7413 59.9993 56.3902 62.0107 56.2261 62.4619L56.2624 62.5032C57.0726 62.3648 60.0314 60.0432 60.8633 59.4454C61.8872 58.7113 62.9157 57.9837 63.9487 57.2627C64.6491 56.768 65.3516 56.2386 66.0844 55.7955C66.0935 55.3313 66.1907 54.9317 66.5394 54.5972C66.8024 54.345 67.1531 54.2059 67.5186 54.2316C67.7896 54.2508 68.067 54.3681 68.236 54.5869C68.3907 54.7872 68.4271 55.0337 68.3834 55.2791C68.3194 55.6394 68.1241 55.9753 67.8208 56.1836C67.6262 56.3174 67.434 56.3796 67.2064 56.4302C66.9349 56.3644 66.6959 56.2754 66.4407 56.1629C65.9261 56.4347 65.4544 56.8146 64.9804 57.1529C64.2796 57.6521 63.5747 58.1456 62.8657 58.6333C61.4477 59.5936 60.04 60.5691 58.643 61.5597C58.1761 61.8863 57.6503 62.1608 57.2113 62.5206L57.2139 62.5926C57.3529 62.663 57.4928 62.6109 57.6312 62.5643C58.0433 62.4256 58.4413 62.1997 58.8351 62.0158C59.801 61.5647 60.7695 61.0882 61.7432 60.6589C64.1112 59.6146 67.8679 59.0937 70.414 59.5479C71.0294 58.8881 71.5466 58.1452 72.1276 57.4563C72.7022 56.7748 73.3455 56.1376 73.9598 55.4911C74.6452 54.7759 75.3456 54.0754 76.0606 53.3899C76.4789 52.982 76.9443 52.585 77.299 52.1216C76.3716 51.4474 75.5706 50.7785 74.8978 49.8339C74.683 49.5324 73.6365 47.6055 73.4878 47.5532Z" fill="#2A2A2A"/>
<path d="M68.937 0.740234H96V21.0712C94.95 21.8457 93.7988 22.9832 92.8107 23.8653L85.2253 30.7485C82.0542 25.2202 78.953 19.6522 75.9221 14.0458L71.3373 5.32886C70.5384 3.79875 69.795 2.23896 68.937 0.740234Z" fill="#FEFEFE"/>
<path d="M50.3121 4.31188C50.5976 4.01035 50.8269 3.8492 51.2335 3.74426L51.2851 3.85703C51.2456 4.15491 50.7687 4.86729 50.5272 5.06985C50.3329 5.23285 50.1051 5.28426 49.8569 5.25955C49.7154 5.19143 49.6911 5.1104 49.6156 4.98426C49.535 4.84936 49.455 4.76233 49.3034 4.7097C48.6259 4.47441 46.7084 4.97222 46.0266 5.26243C45.517 5.47931 45.0559 5.8919 44.5074 5.99806C44.1315 6.07083 43.7821 5.93107 43.422 5.8437C42.5677 5.63645 41.7717 5.84284 41.0364 6.28907C40.9368 6.34777 40.8335 6.37718 40.7237 6.41069C40.5915 6.38355 40.5865 6.3871 40.5017 6.28342C40.4946 6.2032 40.4902 6.14558 40.5277 6.07036C40.6075 5.91005 40.7729 5.79237 40.9169 5.69507C42.035 4.93984 43.3708 5.2853 44.6163 5.04994C45.1155 4.95561 45.5564 4.65092 46.0427 4.5009C47.1947 4.14547 49.168 3.70853 50.3121 4.31188Z" fill="#2A2A2A"/>
<path d="M36.1046 7.15974C35.9163 7.19182 35.7215 7.23965 35.5315 7.25445C35.4003 7.26468 35.2998 7.26136 35.1946 7.17456C35.1723 7.05577 35.1924 7.03146 35.2397 6.91796C35.5721 6.66703 36.3015 6.63626 36.7133 6.56837C37.039 6.53934 37.3302 6.52958 37.6518 6.60383L37.68 6.65357C37.3935 6.9772 36.5221 7.08096 36.1046 7.15974Z" fill="#2A2A2A"/>
<path d="M22.0951 9.2874C22.8774 8.8722 22.9587 8.98372 23.7144 8.74611C24.6031 8.46671 24.74 8.14473 25.809 8.1302C26.293 8.12362 26.8238 8.30134 27.2993 8.20384C27.6793 8.12592 28.0313 7.89847 28.4032 7.7844C29.351 7.49375 30.3655 7.33457 31.3494 7.22813C31.6137 7.19802 32.0916 7.15485 32.3354 7.26801C32.4172 7.30596 32.4044 7.31868 32.4364 7.39553C32.3651 7.50917 32.3156 7.55068 32.1843 7.59093C31.8051 7.70713 31.3676 7.75666 30.9772 7.84145C30.218 8.00427 29.4639 8.19016 28.716 8.39886C28.3465 8.50063 28.0819 8.76811 27.7323 8.88963C27.3365 9.02724 26.3573 8.7844 25.8595 8.79459C25.4304 8.80337 24.7844 8.76576 24.4636 9.09779C24.4684 9.28608 24.47 9.4509 24.3696 9.61897C24.0507 10.1533 23.5222 9.58188 23.1473 9.60799C22.7145 9.63813 22.5228 10.1423 22.1636 10.1931C21.8596 10.2361 21.5907 9.96741 21.3746 9.79052C20.3302 9.81924 20.4004 10.0547 19.7142 10.7143C19.6092 10.8153 19.4718 10.8934 19.3209 10.8732C19.0895 10.8422 18.9391 10.6278 18.7938 10.4655C18.6281 10.4187 18.459 10.3674 18.286 10.3586C17.2859 10.3071 17.0364 10.8627 16.3825 11.4069C16.2515 11.5159 16.0921 11.5918 15.9167 11.5568C15.6005 11.4936 15.6787 11.173 15.5488 10.9484L15.3783 10.9121C14.775 10.9098 13.3965 11.2021 12.9128 10.9955C12.819 10.9554 12.8154 10.9358 12.7803 10.8467C12.8258 10.7669 12.8481 10.7073 12.9333 10.6629C13.1043 10.5735 13.3846 10.5533 13.5756 10.5189C14.4657 10.3585 15.3097 10.1981 16.197 10.4528L16.3633 10.3462C17.3722 9.70484 18.1016 9.65178 19.2616 9.9118C20.4105 9.18043 20.7063 9.09174 22.0951 9.2874Z" fill="#2A2A2A"/>
<path d="M51.9723 8.12339C51.7037 8.20342 51.3965 8.32038 51.119 8.34853C50.9665 8.36399 50.8326 8.36127 50.7114 8.26403C50.7185 8.16047 50.7251 8.13149 50.7945 8.04782C51.1939 7.56618 52.1253 7.4135 52.7149 7.36792C53.2701 7.37173 53.6916 7.4244 54.2192 7.60074C53.4802 7.81709 52.7175 7.93019 51.9723 8.12339Z" fill="#2A2A2A"/>
<path d="M46.0268 9.03008C46.3469 8.87608 46.6646 8.71711 46.9797 8.55322C47.0911 8.56051 47.096 8.56879 47.1821 8.64136C47.2249 8.77114 47.2454 8.83254 47.2153 8.97078C47.0222 9.22826 46.6795 9.5076 46.3724 9.60705C45.8475 9.77698 45.2713 9.60549 44.7307 9.71432C44.027 9.85597 43.4874 10.4248 42.8048 10.5621C42.57 10.6094 42.3363 10.4425 42.083 10.4647C41.0894 10.5522 40.0485 10.7899 39.0808 11.032C38.7039 11.1262 38.2875 11.258 37.9434 11.4411C37.7005 11.5704 37.2142 11.9594 36.9637 11.9761C36.7813 11.9883 36.5483 11.7262 36.4243 11.61C35.6701 11.6499 35.4853 11.9997 34.8758 12.2682C34.2722 12.5341 33.8479 12.0487 33.2604 12.1557C32.6006 12.2758 32.5198 12.9048 32.0069 13.0544C31.5907 13.1758 31.1182 12.8376 30.6779 12.8716C30.0877 12.917 29.5497 13.2541 29.0132 13.4756C28.0131 13.3084 27.3958 13.3411 26.4629 13.7675C26.3422 13.8448 26.1802 13.9698 26.039 14.0016C25.9282 14.0266 25.8894 13.9961 25.8089 13.9345C25.7962 13.8784 25.7904 13.8691 25.7953 13.8048C25.8126 13.5798 26.0962 13.3082 26.27 13.1904C27.1585 12.5875 27.8876 12.8488 28.8375 12.6875C29.1644 12.632 29.4473 12.5068 29.7512 12.3802C30.4054 12.1077 30.9942 12.1891 31.6733 12.3061C31.9318 12.1156 32.191 11.909 32.4802 11.7673C33.1349 11.4464 33.7731 11.4603 34.4482 11.688C34.5267 11.626 34.6072 11.5666 34.6896 11.5101C35.4675 10.9821 36.2095 10.885 37.1223 11.0589C37.2332 10.9801 37.3491 10.9082 37.4691 10.844C38.4536 10.31 40.4587 9.94593 41.5849 9.80037C42.0325 9.74251 42.4924 9.73279 42.935 9.64488C44.0735 9.41875 44.661 8.63139 46.0268 9.03008Z" fill="#2A2A2A"/>
<path d="M0 13.0789C1.2572 12.304 4.10623 11.3656 5.55595 11.7183C5.82938 11.7848 6.07668 11.8961 6.32026 12.0349C7.38201 11.2645 7.91666 11.1058 9.23467 11.0095C9.56559 10.9853 9.92756 10.938 10.2568 10.9905C10.3386 11.0036 10.4017 11.0289 10.475 11.0659L10.5351 11.1643C10.5028 11.2617 10.5317 11.2326 10.4396 11.28C9.79547 11.612 8.45632 11.5645 7.70582 11.903C7.17119 12.1441 6.72844 13.1915 6.07073 12.9504C5.85992 12.873 5.7744 12.603 5.69572 12.4143C5.47123 12.3488 5.25353 12.2851 5.01782 12.2773C3.93457 12.2406 1.77183 12.8383 0.807757 13.3587C0.50613 13.5215 0.252164 13.725 0 13.9549V13.0789Z" fill="#2A2A2A"/>
<path d="M50 13.874C49.9812 13.8844 49.9637 13.8972 49.9438 13.9052C49.806 13.9605 49.7088 13.9639 49.5769 13.9098C49.5322 13.8389 49.4999 13.7871 49.4996 13.6996C49.499 13.5109 49.6202 13.3181 49.7414 13.1821C50.1366 12.7387 50.9485 12.4607 51.5356 12.5542C51.9562 12.6213 52.3427 12.8091 52.7774 12.7743C52.8737 12.6018 52.9797 12.4169 53.1069 12.2651C53.4916 11.8058 55.4806 11.722 56.1145 11.6816C56.2539 11.6796 56.4051 11.6664 56.5395 11.7086C56.627 11.7362 56.598 11.7133 56.6374 11.7919C56.3385 12.232 54.5523 12.2896 54.0063 12.5617C53.5733 12.7776 53.3223 13.256 52.9011 13.5104C52.8833 13.5212 52.8652 13.5316 52.8473 13.5421C52.4021 13.5156 51.9722 13.3602 51.5257 13.3303C50.8858 13.2874 50.4732 13.471 50 13.874Z" fill="#2A2A2A"/>
<path d="M0 22.0179C2.73676 21.6056 5.5039 21.3913 8.24767 21.0276C12.6788 20.4366 17.095 19.7384 21.4924 18.9338C22.6084 18.7399 23.7159 18.5016 24.8298 18.2962C27.2756 17.8699 29.7142 17.4028 32.1444 16.8951L36.8571 15.9257C37.3867 15.8124 37.9052 15.592 38.435 15.4978C38.8093 15.4313 39.1147 15.722 39.4676 15.6814C39.9862 15.6218 40.4228 15.1187 40.9594 15.0095C41.5438 14.8905 42.1619 15.0306 42.755 14.9756C43.2498 14.9298 43.796 14.9089 44.2508 14.6994C44.5959 14.5405 44.9218 14.3042 45.2844 14.1886C45.7854 14.0289 46.3074 14.0506 46.7984 13.8509C47.0084 13.7654 47.3808 13.581 47.5962 13.6591C47.6649 13.7888 47.6844 13.8403 47.6703 13.9926C47.5134 14.3178 47.0782 14.4918 46.7515 14.6084C46.3494 14.7519 45.9258 14.74 45.5259 14.8596C45.1051 14.9854 44.7008 15.2892 44.2859 15.4537C43.7275 15.675 43.1202 15.7202 42.5403 15.859C42.0557 15.6616 41.6015 15.4859 41.0865 15.7027C40.6852 15.8716 40.3608 16.2464 39.9466 16.3668C39.5402 16.4849 39.1566 16.3 38.7569 16.2497C38.4548 16.2116 35.3261 16.9373 34.8178 17.0399C33.5576 17.2943 32.3056 17.5861 31.0454 17.839C23.3027 19.4495 15.5037 20.776 7.66399 21.8159L3.37907 22.321C2.26871 22.4516 1.1179 22.6211 0 22.6362V22.0179Z" fill="#2A2A2A"/>
<path d="M21.1611 14.4321C21.7551 13.964 22.2561 13.814 22.9952 13.7434C23.1752 13.7216 23.3889 13.7096 23.5692 13.7303C23.8423 13.7615 24.1054 13.8707 24.3769 13.9151C24.6352 13.9574 24.8997 13.94 25.1571 13.9937C25.2316 14.0093 25.3186 14.0339 25.3763 14.0865C25.4722 14.174 25.4674 14.244 25.4769 14.363C25.4387 14.4352 25.4331 14.4686 25.3612 14.514C24.905 14.8023 24.1536 14.5394 23.6804 14.4279C23.2378 14.3234 22.4588 14.4064 22.0796 14.658C21.8366 14.8193 21.6476 15.0244 21.3909 15.1765C21.0905 15.142 20.7486 15.0414 20.4496 15.0542C19.4735 15.096 19.2494 16.0699 18.6777 16.1484C18.063 16.2328 17.4359 15.5737 16.2567 15.7456C15.9711 15.9458 15.6886 16.443 15.4633 16.5521C15.1555 16.7012 13.7076 15.9831 12.9071 16.2344C12.3062 16.4231 12.1397 17.1604 11.668 17.3332C11.5362 17.3815 11.3407 17.388 11.2156 17.3094C11.0913 17.2312 11.0662 17.101 11.0459 16.9681C11.0305 16.8674 11.0152 16.7817 10.9798 16.6852C10.5116 16.4282 9.47475 16.7308 8.96391 16.8172C8.33914 16.9157 5.98069 17.3258 5.50857 16.9956C5.43214 16.942 5.45876 16.97 5.44287 16.8616C5.48405 16.8101 5.519 16.7701 5.58169 16.7434C5.83487 16.6355 10.3494 15.9767 10.6473 15.9822C11.003 15.9889 11.383 16.1111 11.7185 16.2237C11.8567 16.0921 12.0059 15.9595 12.1712 15.8633C13.0337 15.361 14.1484 15.5235 15.0595 15.7826C15.3783 15.517 15.6886 15.2634 16.0912 15.1349C16.8808 14.883 17.6767 15.1658 18.3805 15.5177C19.2955 14.6115 19.873 14.4271 21.1611 14.4321Z" fill="#2A2A2A"/>
<path d="M49.2067 19.8599C49.6177 19.4272 50.1798 18.9499 50.7368 18.7177C51.665 18.3309 52.8032 18.2649 53.7881 18.0542L56.9616 17.3517C57.6959 17.1887 58.4317 17.0015 59.1817 16.9304C59.5611 16.8937 59.9389 16.9127 60.319 16.9259C60.0614 17.1305 59.8174 17.2544 59.5055 17.3564C58.5961 17.6541 57.6043 17.7737 56.6709 17.9864C55.4994 18.2532 54.348 18.6016 53.1756 18.8623C52.3884 19.0372 51.3843 19.1161 50.6912 19.5285C50.2229 19.8072 50.1181 20.3209 49.7292 20.6557C49.6093 20.7589 49.4837 20.827 49.3193 20.8076C49.0513 20.7759 48.9197 20.5879 48.7633 20.3908L48.6774 20.3793C47.5514 20.2212 44.6501 21.2282 43.3202 21.4308C42.9807 21.4826 42.6208 21.4515 42.2782 21.4512C41.5333 21.4504 41.1598 21.4836 40.6147 22.0266C39.9731 22.0652 39.5542 21.8294 38.8832 21.9845C38.7545 22.1935 38.6327 22.372 38.4569 22.5468C36.7168 22.6565 34.8254 22.9709 33.2044 23.6459C32.8084 23.8108 32.5126 24.3032 32.0947 24.385C31.7067 24.4608 31.2325 24.1484 30.8289 24.1102C30.4307 24.0725 30.0526 24.1762 29.6713 24.275C29.5522 24.4464 29.4244 24.6026 29.2866 24.7592C28.9207 24.675 28.5361 24.5629 28.1606 24.5447C28.134 24.5434 28.1074 24.5433 28.0807 24.5423C27.7659 24.5306 27.4688 24.6061 27.1629 24.6723C27.0101 24.8221 26.8522 24.9602 26.6869 25.0961C25.9217 24.9733 25.2197 25.0788 24.4574 25.1694C24.0803 25.2159 23.5085 25.3443 23.1365 25.2437C23.0045 25.208 22.8935 25.1635 22.8231 25.0408L22.8532 24.9372C23.437 24.4035 25.4646 24.4438 26.2827 24.2611C26.5329 24.2052 26.7853 24.0538 27.0241 23.9574C27.5106 23.761 28.3606 23.7574 28.8442 23.967C28.9542 23.875 29.0657 23.7811 29.191 23.7105C30.0019 23.254 31.0837 23.3542 31.9368 23.6082C31.9734 23.5629 32.0109 23.5138 32.0539 23.474C32.9298 22.6613 36.6455 21.8767 37.9139 21.891C38.0175 21.7927 38.1229 21.6976 38.239 21.6143C38.8178 21.1987 39.5202 21.1252 40.2048 21.2388C40.4266 21.1282 40.6548 21.031 40.8881 20.9475C41.7152 20.6551 42.6256 20.8231 43.4811 20.6597C45.0532 20.3593 46.8842 19.682 48.4381 19.5851C48.6907 19.5693 48.9809 19.7531 49.2067 19.8599Z" fill="#2A2A2A"/>
<path d="M0 17.2287C0.473738 17.1488 1.68242 16.829 2.113 17.1177C2.20832 17.1816 2.20868 17.2254 2.21653 17.3276C1.951 17.6648 0.482025 17.7891 0 17.9246V17.2287Z" fill="#2A2A2A"/>
<path d="M59.3107 22.5355C59.1205 22.5976 58.8807 22.7009 58.6821 22.7069C58.5487 22.711 58.4787 22.6904 58.3777 22.6071C58.3967 22.4911 58.4092 22.4503 58.4872 22.3567C58.8972 21.8647 59.7532 21.7269 60.3542 21.6645C60.7035 21.6479 61.0157 21.6281 61.3559 21.7299L61.3786 21.784C61.1657 22.0923 59.7019 22.4205 59.3107 22.5355Z" fill="#2A2A2A"/>
<path d="M51.977 24.0256C51.3932 24.1435 50.7015 24.3469 50.11 24.3329C49.9689 24.3295 49.8344 24.3224 49.7328 24.2147C49.7377 24.1241 49.7247 24.1251 49.7887 24.0482C50.284 23.4515 51.9758 23.2237 52.7139 23.1661C53.5651 23.0703 54.5088 23.1456 55.3479 23.294C54.4863 23.6812 52.9563 23.8141 51.977 24.0256Z" fill="#2A2A2A"/>
<path d="M81.3689 39.2905C81.1811 38.9175 80.8941 38.2157 80.9939 37.8009C81.0973 37.3716 81.9427 36.6345 82.254 36.297C85.3742 32.9149 88.7304 29.805 92.1819 26.7656C93.263 25.8136 94.845 24.3098 96 23.5588V26.9804C94.4934 28.4119 92.826 29.659 91.2343 30.9898L81.3689 39.2905Z" fill="#FEFEFE"/>
<path d="M38.2073 26.7786C38.8324 26.4421 39.3272 26.2148 40.0492 26.1922C40.3659 26.1822 40.696 26.187 41.0048 26.1062C41.4771 25.9826 41.845 25.6618 42.3543 25.6162C42.7838 25.5776 43.329 25.8179 43.7214 25.7149C44.2651 25.5722 44.574 25.0388 45.1852 24.9347C45.6605 24.8537 46.0505 25.1159 46.5121 25.1188C46.9942 25.1218 47.4772 24.9005 47.9468 24.7982C48.0545 24.7871 48.1408 24.7898 48.2477 24.8063L48.3092 24.8975C48.3039 24.9474 48.3034 24.9859 48.2804 25.0339C48.1276 25.3534 47.593 25.5683 47.2684 25.6698C46.679 25.8543 45.9602 25.9166 45.3992 25.6225C44.8963 25.8379 44.5025 26.3052 43.9811 26.4451C43.5013 26.5737 43.0635 26.2958 42.5919 26.348C42.1016 26.4023 41.6881 26.7248 41.2085 26.8314C40.7024 26.9439 40.1631 26.7979 39.6551 26.9502C39.2803 27.0626 38.9656 27.3283 38.5796 27.4216C38.0083 27.5597 37.4308 27.3906 36.8595 27.6259C36.1913 27.9009 36.0718 28.8598 35.4405 28.9742C35.2448 29.0096 34.1122 28.4888 33.4393 28.5243C32.9479 28.5503 32.4483 28.7612 31.9803 28.9054C31.8743 28.9139 31.8182 28.9187 31.7225 28.869C31.654 28.754 31.6538 28.744 31.6644 28.6102C31.791 28.3801 32.022 28.2443 32.2574 28.1423C33.3698 27.6606 34.3054 27.8568 35.3824 28.3016C35.6018 27.9743 35.6663 27.4621 35.9409 27.23C36.4688 26.7836 37.5484 26.7368 38.2073 26.7786Z" fill="#2A2A2A"/>
<path d="M15.932 26.3088C15.5528 26.3079 14.8594 26.3741 14.5371 26.1442C14.4593 26.0888 14.4859 26.1185 14.4709 26.009C14.4851 25.9914 14.4986 25.9733 14.5133 25.9564C14.8296 25.5919 15.8088 25.5899 16.2532 25.5577C16.3374 25.5493 16.4188 25.552 16.5033 25.5535C16.8299 25.5596 17.3028 25.5146 17.5467 25.7676C17.5609 25.8802 17.5587 25.9041 17.4756 25.9957C17.1839 26.3175 16.3324 26.2946 15.932 26.3088Z" fill="#2A2A2A"/>
<path d="M33.7645 33.4457L33.6802 33.4647C33.5975 33.4287 33.5705 33.4038 33.5218 33.3281L33.5692 33.2188C33.7145 33.1018 33.8809 33.0418 34.0576 32.9866C36.3049 32.2847 38.6286 31.7744 40.8978 31.1384C41.9709 30.8378 43.0293 30.4799 44.0979 30.162C45.778 29.6622 47.4693 29.2007 49.1705 28.778C51.4239 28.214 53.739 27.8788 56.0034 27.3489C57.3588 27.0342 58.712 26.7103 60.0631 26.3773C61.2743 26.0684 62.5341 25.6406 63.7842 25.5584L63.9317 25.5454L63.9692 25.5925L63.9326 25.6793C62.692 26.612 54.2716 28.3541 52.2432 28.8267C50.6729 29.1926 49.1048 29.6092 47.5447 30.0182C44.5676 30.7988 41.6523 31.7666 38.6539 32.4838C37.0305 32.8723 35.407 33.1552 33.7645 33.4457Z" fill="#2A2A2A"/>
<path d="M0 27.4653C1.06869 27.4194 2.46024 27.2802 3.50966 27.0595C3.85943 26.986 4.15269 26.755 4.49285 26.6558C5.22263 26.4429 6.70192 26.6523 7.40593 26.9069C8.47095 26.5408 9.35841 26.0604 10.4811 26.6273C10.582 26.6784 10.6472 26.7325 10.7223 26.8159L10.741 26.8925L10.6123 26.9892L10.6374 26.9846C10.1002 27.1567 9.57937 26.996 9.06213 27.1202C8.49069 27.2574 8.08216 27.6394 7.46122 27.5981C6.56537 27.5385 5.82883 27.1443 4.90142 27.281C4.889 27.2892 4.8764 27.2972 4.86419 27.3057C4.52875 27.5408 4.08375 28.3621 3.62336 28.2366C3.41702 28.1803 3.29462 27.9942 3.19663 27.8192C2.58254 27.8808 1.97238 27.9683 1.35903 28.0339C0.908016 28.0821 0.448418 28.0993 0 28.1639V27.4653Z" fill="#2A2A2A"/>
<path d="M24.4967 29.9523C24.1598 30.0224 23.8298 30.1333 23.4873 30.1766C23.3395 30.1954 23.1888 30.2117 23.0659 30.1142C23.0605 29.9895 23.0862 29.9297 23.1689 29.8333C23.752 29.1531 27.0328 28.6521 28.0009 28.6054C28.2913 28.6001 28.5874 28.6038 28.8769 28.6262C29.0994 28.6434 29.441 28.6768 29.5902 28.8492C29.489 28.9923 29.3043 29.0302 29.1398 29.0715C28.4643 29.2413 27.7352 29.3069 27.0466 29.4239C26.1905 29.5693 25.3437 29.7623 24.4967 29.9523Z" fill="#2A2A2A"/>
<path d="M49.1307 35.0692L49.0559 34.9861C49.0542 34.9072 49.0379 34.8793 49.0876 34.8124C49.6488 34.0585 58.78 31.4626 60.4132 30.9763C61.3668 30.6924 62.3075 30.3549 63.2692 30.1019C64.0499 29.8965 64.827 29.7228 65.6308 29.634L65.7194 29.6898L65.7003 29.7705C65.165 30.2474 52.9243 34.0575 51.4365 34.4909C50.6774 34.7199 49.908 34.9128 49.1307 35.0692Z" fill="#2A2A2A"/>
<path d="M15.2746 31.2926C14.882 31.3673 14.4067 31.5071 14.0089 31.4817C13.8802 31.4736 13.8289 31.462 13.7437 31.3661C13.7606 31.2757 13.787 31.2202 13.8475 31.1524C14.5127 30.4078 16.9926 30.2227 18.0202 30.1584L18.0997 30.1508C18.4926 30.1159 19.384 30.0152 19.7074 30.2826L19.671 30.3776C19.0552 30.8839 16.2209 31.1114 15.2746 31.2926Z" fill="#2A2A2A"/>
<path d="M8.9075 32.025C8.28243 32.0865 7.48158 32.2573 6.86914 32.1357C6.73048 32.1082 6.63634 32.0753 6.55627 31.9574L6.6008 31.8498C7.16712 31.4177 8.31176 31.347 9.00236 31.2744C9.52313 31.2039 10.1033 31.2204 10.6248 31.2773C10.9121 31.3087 11.2319 31.3218 11.423 31.5622C11.4275 31.6377 11.4502 31.6641 11.3909 31.722C11.0956 32.0112 9.40444 31.9831 8.9075 32.025Z" fill="#2A2A2A"/>
<path d="M0 32.0505C0.46694 32.0955 1.34805 32.0954 1.69764 32.4467C1.74634 32.4957 1.73799 32.4972 1.75766 32.5624C1.63521 32.7334 1.43957 32.7737 1.23837 32.8059C0.832899 32.8708 0.406697 32.8374 0 32.7988V32.0505Z" fill="#2A2A2A"/>
<path d="M0 37.6127C1.0782 37.2123 2.15044 37.1703 3.28163 37.0519C4.57837 36.9264 5.87398 36.7897 7.16832 36.6415C8.18538 36.5175 9.19824 36.3623 10.2152 36.2393C14.4722 35.7246 18.7489 35.232 22.9723 34.4822C23.911 34.3155 28.1415 33.4474 28.8097 33.728C28.8589 33.7487 28.8754 33.7692 28.9105 33.8027C28.8993 33.8923 28.9038 33.9154 28.8213 33.9689C28.3613 34.2672 26.3567 34.5797 25.7447 34.7039C21.5298 35.559 17.2503 36.1144 12.9845 36.6461L7.825 37.308C6.19944 37.5055 4.56427 37.6219 2.93724 37.8152C2.41462 37.8772 1.87987 37.9159 1.36272 38.0127C0.852624 38.1081 0.441678 38.3026 0 38.5683V37.6127Z" fill="#2A2A2A"/>
<path d="M62.3723 36.4862C62.1572 36.528 61.8813 36.6146 61.6683 36.5462C61.5678 36.5141 61.6027 36.5398 61.5531 36.4467C61.5768 36.3985 61.5769 36.392 61.6178 36.3447C62.2375 35.6267 65.9088 34.6933 67.0141 34.5544C67.2148 34.5193 67.4924 34.5021 67.6852 34.5688C67.7387 34.6622 67.749 34.6817 67.7497 34.7884C67.3719 35.2157 63.2314 36.3437 62.3723 36.4862Z" fill="#2A2A2A"/>
<path d="M28.2302 39.7765C28.099 39.7869 27.9226 39.8101 27.7998 39.7582C27.6728 39.7046 27.6098 39.605 27.5744 39.4802L27.6265 39.3946C28.1027 39.0932 31.3953 38.6302 32.1775 38.4724C34.0631 38.092 35.9596 37.7095 37.8256 37.2425C40.0209 36.693 42.204 36.0437 44.4474 35.7261C44.5405 35.7127 44.6388 35.7088 44.7327 35.7063C44.8558 35.7028 44.9347 35.7161 45.0224 35.8067C45.0776 35.8638 45.0577 35.8462 45.0493 35.9406C44.4345 36.6655 34.585 38.752 33.0128 39.0474C31.4248 39.3458 29.838 39.6146 28.2302 39.7765Z" fill="#2A2A2A"/>
<path d="M56.6376 38.5002C56.5179 38.5347 56.3767 38.5727 56.2524 38.5775C56.1389 38.582 56.0694 38.5595 55.9878 38.4847C55.9944 38.4225 56.004 38.3727 56.0412 38.3205C56.3361 37.9064 57.0251 37.6447 57.5084 37.5473C57.6452 37.5331 57.8491 37.5022 57.9832 37.5373C58.0734 37.561 58.0803 37.5794 58.1329 37.6592L58.0967 37.7705C57.7296 38.1632 57.1314 38.3271 56.6376 38.5002Z" fill="#2A2A2A"/>
<path d="M49.5245 40.6327C49.2822 40.7021 49.0473 40.7917 48.803 40.6832L48.779 40.607C48.7903 40.5854 48.7988 40.5621 48.813 40.5423C49.3183 39.8403 51.9023 39.0086 52.7695 38.9153C52.8821 38.9016 53.0199 38.899 53.1339 38.9073C53.2569 38.9161 53.3506 38.9623 53.4341 39.0522L53.4249 39.1576C53.0242 39.5966 50.2777 40.4116 49.5245 40.6327Z" fill="#2A2A2A"/>
<path d="M57.5194 43.4427C57.4197 43.4678 57.3106 43.5019 57.2081 43.5089C57.0928 43.5169 57.03 43.4656 56.9485 43.3951L56.9735 43.3124C57.9149 42.4815 66.2648 39.9108 67.9425 39.4615C68.8038 39.2308 69.6918 39.0004 70.5806 38.9159C70.807 38.8893 71.0486 38.9146 71.2765 38.9226C69.6559 39.9443 66.942 40.4717 65.0612 41.0727C62.5541 41.8739 60.0708 42.7882 57.5194 43.4427Z" fill="#2A2A2A"/>
<path d="M19.9217 40.9953C19.5355 41.0581 19.0871 41.1543 18.7073 41.0231C18.6018 40.9867 18.5403 40.9634 18.4921 40.8587C18.5113 40.8148 18.5097 40.8111 18.5464 40.7686C18.9326 40.322 21.0044 39.9898 21.5945 39.9475C21.9584 39.8953 22.434 39.8981 22.773 40.0477C22.8821 40.0959 22.931 40.1269 22.972 40.2384C22.9589 40.261 22.9498 40.2865 22.9326 40.3062C22.6058 40.6802 20.4811 40.9028 19.9217 40.9953Z" fill="#2A2A2A"/>
<path d="M87.3557 48.1372C86.9258 48.1489 86.4962 48.1066 86.0769 48.0114C83.8583 47.5003 81.8006 45.2116 80.6416 43.3342C80.1708 42.5717 79.2593 41.0441 79.4781 40.1216C80.0084 40.575 81.1509 42.5597 81.6209 43.2418C82.1057 43.9453 82.6873 44.5966 83.2922 45.1989C84.0114 45.9152 84.7593 46.5923 85.6157 47.1433C85.8962 47.3237 87.231 47.9634 87.3557 48.1372Z" fill="#FEFEFE"/>
<path d="M11.9652 43.2673C12.4616 42.4321 12.8788 41.7692 13.7141 41.2327C13.8461 41.2273 13.9628 41.2176 14.0831 41.2858C14.1938 41.3486 14.2181 41.4312 14.2495 41.5455C14.1629 41.9856 13.1668 43.0831 12.8628 43.5587C12.7633 43.7144 12.5774 44.1855 12.4361 44.2676C11.8781 44.5918 11.2169 43.5361 10.6699 43.4221C10.4306 43.3722 10.3421 43.6206 10.1507 43.7187C9.72996 43.9343 9.3136 43.38 8.93336 43.2948C8.44291 43.1851 7.77426 43.6478 7.38055 43.8999C7.14837 44.0633 6.94227 44.2513 6.64062 44.2035C6.54993 44.1301 6.50498 44.1051 6.51067 43.9743C6.51768 43.8132 6.64952 43.6368 6.75389 43.5236C7.47951 42.7367 8.55035 42.5375 9.56308 42.4867C10.545 42.4375 11.2309 42.6026 11.9652 43.2673Z" fill="#2A2A2A"/>
<path d="M31.7925 44.9849C31.7648 44.9811 31.7362 44.9813 31.7092 44.9735C31.5897 44.9391 31.5721 44.8945 31.5223 44.7924C31.5339 44.7126 31.5286 44.668 31.5786 44.6014C32.0702 43.9471 36.7449 43.3016 37.7349 43.0237C38.2446 42.8805 38.6679 42.4767 39.1709 42.3764C39.6932 42.2722 40.2045 42.5318 40.7275 42.3795C41.5741 42.1329 42.1637 41.52 43.0854 41.4013L43.1907 41.3931C43.2858 41.4705 43.2948 41.4754 43.3267 41.5929C43.2685 41.8023 43.1053 41.932 42.9355 42.0563C42.1905 42.6012 41.1437 43.2152 40.2073 43.2536C39.9116 43.2658 39.6135 43.2089 39.3223 43.1638C39.0148 43.3595 38.6842 43.5995 38.3402 43.7256C37.4929 44.0362 36.3537 44.1178 35.4523 44.2859C34.2307 44.5138 33.0267 44.8287 31.7925 44.9849Z" fill="#2A2A2A"/>
<path d="M74.9103 45.0503C75.6351 44.6022 76.3264 44.1304 76.9656 43.5631C77.5416 43.0519 78.0648 42.4843 78.6488 41.9814C78.9445 42.2207 79.1759 42.7343 79.3424 43.0704C78.4978 43.9028 76.6639 45.6426 75.5914 46.0749C75.3017 45.8242 75.0855 45.3894 74.9103 45.0503Z" fill="#FEFEFE"/>
<path d="M1.97132 44.4119C1.64538 44.5087 1.16797 44.8113 0.833855 44.7013C0.685914 44.6525 0.624427 44.5352 0.557313 44.4077C0.557428 44.2804 0.551417 44.2385 0.632644 44.1326C0.972892 43.6886 2.1857 43.5698 2.7007 43.5081C2.70379 43.5077 2.70686 43.5071 2.70998 43.5068C3.01306 43.4866 3.97943 43.4144 4.19781 43.6371C4.28495 43.726 4.31021 43.8087 4.30823 43.9278C4.01811 44.3033 2.56782 44.2813 2.05942 44.3922L1.97132 44.4119Z" fill="#2A2A2A"/>
<path d="M93.5175 46.6421C94.3163 45.9588 95.1666 45.2948 96.0001 44.6533V50.2044C95.2744 48.962 94.4063 47.771 93.5175 46.6421Z" fill="#FEFEFE"/>
<path d="M17.8175 47.4554C18.2142 47.0504 18.6022 46.5773 19.156 46.3887C19.4672 46.2826 20.0566 46.2468 20.3525 46.4287C20.3674 46.4378 20.3801 46.4501 20.394 46.4607C20.4134 46.4755 20.4331 46.4899 20.4524 46.5048C20.468 46.5168 20.4831 46.5293 20.4985 46.5415C20.897 46.3684 21.17 46.0488 21.5122 45.7952C21.8066 45.5771 22.1475 45.4616 22.5108 45.4319C23.753 45.3299 24.1192 46.311 24.683 46.3095C24.7056 46.3095 24.7852 46.3043 24.8119 46.2887C25.1196 46.1099 25.6127 45.2221 26.0696 44.88C26.0861 44.8677 26.1029 44.8556 26.1196 44.8434C26.2275 44.8454 26.3137 44.8644 26.4174 44.8936C26.4982 44.9772 26.5445 45.0155 26.5444 45.1424C26.5443 45.2625 25.2955 47.2637 25.1819 47.3421C24.6325 47.7209 24.4811 47.0557 23.999 46.9966C23.6281 46.9512 23.4749 47.6291 23.205 47.8009C23.0862 47.8767 23.0538 47.8639 22.9224 47.8413C22.817 47.7655 22.7221 47.7027 22.6889 47.5668C22.5919 47.1697 23.0299 46.6073 23.2363 46.2978C21.4655 45.9826 21.5825 47.3916 20.6755 47.8348C20.5524 47.8949 20.4245 47.9081 20.2937 47.8611C19.9786 47.748 19.8516 47.4242 19.7122 47.1479C19.5223 47.1764 19.3321 47.2283 19.1445 47.2702C18.8407 47.631 18.6853 48.1157 18.3507 48.4484C17.8231 48.9731 17.121 48.0266 16.6659 47.7532C16.1949 47.4653 15.6533 47.3133 15.1012 47.3141C13.8705 47.3206 12.9503 47.9057 12.1166 48.7555C11.5555 48.5745 11.0868 48.4461 10.4892 48.4679C9.86305 48.5541 9.31018 48.7591 8.70792 48.9298C8.48788 48.9921 8.1663 49.0638 7.9589 48.9287C7.89564 48.8876 7.90714 48.8604 7.89288 48.7929C7.95801 48.6194 8.07148 48.5139 8.21946 48.4049C9.23511 47.6575 10.6368 47.6519 11.8256 47.8312C12.4294 47.3167 13.1709 46.9492 13.9356 46.7437C15.5174 46.3186 16.4612 46.672 17.8175 47.4554Z" fill="#2A2A2A"/>
<path d="M46.2256 46.7851C46.6555 46.4205 47.0177 46.1737 47.5742 46.0286C47.9962 46.0923 48.2711 46.3667 48.6506 46.5426C48.9233 46.5161 49.2565 46.4439 49.5131 46.5625C49.5963 46.6008 49.569 46.584 49.6042 46.6788C49.5751 46.7311 49.5747 46.7382 49.5275 46.7878C49.2695 47.0591 48.6037 47.1753 48.243 47.1998C48.0318 47.0856 47.7757 46.91 47.5327 46.8928C47.1426 46.8654 47.1048 47.2147 46.8497 47.4154C46.3994 47.77 45.7557 47.4371 45.244 47.3866C44.9193 47.5063 43.7142 47.7419 43.3417 47.7232C43.201 47.7162 43.1179 47.69 43.0248 47.5849C43.0553 47.4365 43.1059 47.3602 43.2286 47.2687C43.9399 46.7389 45.377 46.6535 46.2256 46.7851Z" fill="#2A2A2A"/>
<path d="M0 61.3194C3.5435 60.7734 7.10013 60.3276 10.6448 59.7919C17.3181 58.8198 23.9487 57.5752 30.5202 56.0611C36.7734 54.5839 42.8694 52.6021 49.0095 50.7314C51.0497 50.1276 53.0933 49.5345 55.1399 48.9521C56.4461 48.5807 64.4115 46.1031 65.2111 46.4959C65.2492 46.6123 65.2201 46.6398 65.1681 46.7475C65.0823 46.9246 64.9491 46.966 64.771 47.0232C64.2898 47.1775 63.7697 47.2486 63.2757 47.3571C62.5243 47.5222 61.772 47.7121 61.0294 47.9125C58.3386 48.6388 55.666 49.4909 52.9974 50.296C50.9908 50.9015 49.0173 51.596 47.0184 52.2224C41.8681 53.8563 36.6746 55.3511 31.4436 56.705C30.5508 56.9283 29.6454 57.0981 28.7483 57.3035C22.9739 58.6259 17.1495 59.5866 11.2995 60.5048C8.78243 60.8923 6.26249 61.2606 3.73985 61.6098C2.51398 61.7808 1.23453 62.0397 0 62.1063V61.3194Z" fill="#2A2A2A"/>
<path d="M77.2523 50.1948C76.1653 49.2276 75.0121 48.0262 74.6749 46.5673C75.1582 46.8748 77.0138 49.5798 77.2523 50.1948Z" fill="#FEFEFE"/>
<path d="M66.0844 55.7955C65.3516 56.2387 64.6491 56.7681 63.9487 57.2627C62.9157 57.9838 61.8872 58.7113 60.8633 59.4454C60.0314 60.0433 57.0726 62.3649 56.2624 62.5033L56.2261 62.462C56.3902 62.0108 58.7413 59.9994 59.2163 59.5554C59.6895 59.1129 60.1045 58.632 60.5359 58.1508C61.4912 57.0855 62.3885 56.0222 63.1674 54.8189C63.4822 54.3324 64.4638 52.429 64.7195 52.2313C64.8819 52.1059 66.9254 51.4496 67.4062 51.2237C68.8165 50.5614 70.2809 49.85 71.579 48.986C72.2449 48.5428 72.844 48.0247 73.4878 47.5532C73.6365 47.6055 74.683 49.5325 74.8978 49.834C75.5706 50.7786 76.3716 51.4474 77.299 52.1217C76.9443 52.5851 76.4789 52.9821 76.0606 53.39C75.3456 54.0755 74.6452 54.776 73.9598 55.4911C73.3455 56.1376 72.7022 56.7748 72.1276 57.4563C71.5466 58.1453 71.0294 58.8882 70.414 59.548C67.868 59.0938 64.1112 59.6146 61.7432 60.6589C60.7695 61.0883 59.801 61.5647 58.8351 62.0159C58.4413 62.1998 58.0433 62.4256 57.6312 62.5644C57.4928 62.611 57.3529 62.6631 57.2139 62.5927L57.2113 62.5207C57.6503 62.1609 58.1761 61.8864 58.643 61.5598C60.04 60.5692 61.4477 59.5936 62.8657 58.6334C63.5747 58.1457 64.2796 57.6522 64.9805 57.1529C65.4545 56.8147 65.9261 56.4347 66.4407 56.1629C66.6959 56.2754 66.9349 56.3644 67.2064 56.4302C67.434 56.3797 67.6262 56.3174 67.8208 56.1837C68.1241 55.9753 68.3194 55.6394 68.3834 55.2792C68.4271 55.0337 68.3907 54.7873 68.236 54.587C68.067 54.3682 67.7896 54.2508 67.5186 54.2317C67.1531 54.2059 66.8024 54.345 66.5394 54.5972C66.1907 54.9317 66.0935 55.3314 66.0844 55.7955Z" fill="#FEFEFE"/>
<path d="M0 49.2785C0.772602 49.0875 4.77227 48.6807 5.29872 49.0238C5.36617 49.0677 5.34635 49.0634 5.37121 49.1516C5.2796 49.3129 5.12935 49.3483 4.9565 49.3964C4.30298 49.5781 3.56512 49.5966 2.89007 49.6495C1.91965 49.7255 0.961181 49.7969 0 49.9606V49.2785Z" fill="#2A2A2A"/>
<path d="M30.16 51.1098C31.2302 50.8935 32.0697 50.1536 33.0996 49.8153C33.9756 49.5275 34.9622 49.568 35.8729 49.439C36.8692 49.2979 37.8493 49.0591 38.85 48.9489L38.8889 48.9733C38.8536 49.0548 38.8684 49.0463 38.8154 49.0974C38.0937 49.7939 36.3333 50.1502 35.3669 50.2649C34.7089 50.3431 34.0288 50.3372 33.3922 50.537C32.0859 50.9469 31.0558 52.0302 29.6199 51.9706C29.2831 51.7396 29.0006 51.4168 28.6271 51.2483C27.8095 51.3468 27.095 51.6335 26.4321 52.1273C26.093 52.3798 25.7582 52.962 25.3402 53.0199C24.9428 53.0749 24.6226 52.765 24.3256 52.547C24.0386 52.528 23.7485 52.5037 23.4613 52.5313C22.6753 52.6073 21.875 52.9914 21.4504 53.6801C21.3038 53.9179 21.1797 54.2258 20.9956 54.4311C20.8851 54.5542 20.7605 54.6004 20.5982 54.6043C20.1763 54.6145 20.2071 54.1076 19.9431 53.9076C19.6239 53.6658 18.6129 53.9381 18.2246 53.988C17.9354 54.0316 17.5955 54.1128 17.305 54.1C17.1417 54.0928 17.0634 54.0429 16.9564 53.9217C16.955 53.8492 16.9369 53.8172 16.9889 53.7586C17.4514 53.2363 20.0064 53.1114 20.7741 53.077C21.0632 52.7769 21.3715 52.5049 21.7361 52.2997C22.9138 51.6365 23.9796 51.6724 25.2374 52.0184C25.9661 51.5608 26.5357 51.0276 27.372 50.7404C28.5197 50.3464 29.1257 50.604 30.16 51.1098Z" fill="#2A2A2A"/>
<path d="M0 55.7762C1.54837 55.505 3.80125 55.3825 5.18356 56.215C5.85374 55.6013 6.57953 55.1694 7.52171 55.2258C8.24882 55.2694 8.69543 55.675 9.20415 56.1419L9.2461 56.0927C9.90216 55.3316 11.4125 53.9664 12.4347 53.8642C12.6063 53.8471 12.7261 53.8983 12.86 54.0054C12.9042 54.1239 12.8989 54.1241 12.8557 54.2441C12.3502 54.6946 11.7296 54.9961 11.2226 55.4452C10.9222 55.7113 10.6026 55.9817 10.3311 56.2771C10.0845 56.5452 9.87506 56.9082 9.58809 57.1287C9.46022 57.2269 9.30745 57.2917 9.14377 57.2789C8.36713 57.218 7.82114 55.2512 6.47587 56.3345C6.10699 56.6315 5.80067 57.249 5.25462 57.189C4.89304 57.1492 4.59755 56.8366 4.26118 56.7083C3.15478 56.2867 1.13991 56.2227 0 56.5447V55.7762Z" fill="#2A2A2A"/>
<path d="M25.2308 82.0249C26.0306 81.0298 27.0693 80.1504 27.9685 79.2405C30.6466 76.5305 33.378 73.9072 36.399 71.5764C37.7184 70.5584 39.1264 69.63 40.504 68.6919C42.0151 67.663 45.2017 65.6335 47.0317 66.0228C47.2823 66.0761 47.6355 66.1978 47.7624 66.4411C48.5652 67.9798 41.295 72.2193 40.2886 72.8536C39.1212 73.5903 37.9603 74.337 36.8059 75.0938C34.9772 76.3065 33.1105 77.56 31.4624 79.0126C31.0933 79.3379 30.3291 79.9561 30.1866 80.4398C30.1654 80.512 30.1722 80.4923 30.2151 80.5571C30.9219 80.6904 31.6509 80.4232 32.2967 80.1574C32.9895 79.8722 33.6452 79.5086 34.3077 79.1607C35.5616 78.5024 36.7983 77.8121 38.0458 77.1418C39.2726 76.4825 40.5245 75.8666 41.7602 75.2238C44.5545 73.7701 47.4117 72.3052 50.3558 71.174C51.1642 70.8635 52.3042 70.4532 53.1441 70.8472C53.3272 70.9331 53.5211 71.0693 53.5728 71.2772C53.9716 72.8797 48.3294 74.1912 47.6035 75.5422C47.607 75.6099 47.5888 75.6493 47.6465 75.6953C48.278 76.2 51.9105 75.0768 52.7373 74.813C54.7067 74.1845 56.6392 73.336 58.5475 72.5417C60.0331 71.9371 61.5233 71.3439 63.018 70.7624C66.6263 69.3519 70.2945 68.2036 73.9896 67.0505L77.1138 66.0772C77.9324 65.824 78.761 65.549 79.6047 65.3926L79.817 65.4125L79.8352 65.4986C79.7672 65.6169 79.6838 65.68 79.5696 65.7541C78.4088 66.5072 75.9418 67.1542 74.5527 67.5988C72.0489 68.4001 69.5309 69.1758 67.0627 70.0825C64.5081 71.0484 61.9695 72.0565 59.4482 73.1063C57.1766 74.0396 54.9056 74.9775 52.5603 75.7132C51.1882 76.1436 49.1209 76.9162 47.6965 76.6018C47.3105 76.5166 46.9041 76.3491 46.6912 75.9956C46.591 75.8292 46.5606 75.6635 46.6166 75.4756C47.0124 74.1502 50.7982 72.8312 52.0317 72.0939C52.2325 71.9739 52.4349 71.8535 52.4933 71.6162L52.4437 71.5415C50.8537 71.1234 41.8731 75.9083 40.0454 76.9263C37.942 78.0978 32.8474 81.4194 30.6285 81.4693C30.2447 81.4779 29.7748 81.4123 29.4958 81.1195C29.3385 80.9545 29.2713 80.738 29.2843 80.5127C29.2957 80.3147 29.3661 80.1031 29.4727 79.9359C30.4192 78.4535 33.8816 76.003 35.4215 74.9735C38.2011 73.1152 41.1494 71.524 43.9213 69.6543C44.5882 69.2026 45.2195 68.7005 45.8094 68.1521C46.1107 67.8682 46.9173 67.2017 46.9289 66.8114C46.8529 66.7261 46.8316 66.7093 46.7093 66.6946C43.789 66.3413 35.2085 73.2302 32.9861 75.2649C31.9928 76.1744 30.998 77.1091 30.0542 78.0695C28.5509 79.5996 27.0806 81.1805 25.4676 82.5973C25.383 82.6473 25.4088 82.6517 25.3 82.6278C25.2151 82.4544 25.2364 82.216 25.2308 82.0249Z" fill="#2A2A2A"/>
<path d="M28.2115 96.7402C28.9796 96.1889 32.9726 95.4549 34.1807 95.1802L38.1566 94.2462C51.7859 91.0276 65.3061 87.3635 78.6954 83.2595C82.164 82.2298 85.6252 81.1749 89.0785 80.0948C91.384 79.3857 93.7425 78.7145 96 77.8656V79.1068C92.0168 80.5222 87.9574 81.7168 83.9284 82.9929C73.3653 86.3672 62.7029 89.4225 51.9558 92.1547C47.6409 93.2301 43.3165 94.2673 38.9833 95.2665L34.6955 96.2208C33.9852 96.383 33.2549 96.5264 32.5587 96.7402H28.2115Z" fill="#2A2A2A"/>
<path d="M32.5587 96.7403C33.2549 96.5265 33.9852 96.3831 34.6955 96.2209L38.9833 95.2665C43.3165 94.2673 47.6408 93.2302 51.9558 92.1548C62.7029 89.4226 73.3653 86.3673 83.9284 82.9929C87.9574 81.7168 92.0167 80.5222 96 79.1068V96.7403H32.5587Z" fill="#FEFEFE"/>
</g>
<defs>
<clipPath id="clip0_0_152">
<rect width="96" height="96" fill="white" transform="translate(0 0.740234)"/>
</clipPath>
</defs>
</svg>
